<svg width="32" height="32" viewBox="0 0 32 32" fill="none" xmlns="http://www.w3.org/2000/svg">
<path d="M0 16C0 7.16344 7.16344 0 16 0C24.8366 0 32 7.16344 32 16C32 24.8366 24.8366 32 16 32C7.16344 32 0 24.8366 0 16Z" fill="white" fill-opacity="0.3"/>
<path d="M16 0.5C24.5604 0.5 31.5 7.43959 31.5 16C31.5 24.5604 24.5604 31.5 16 31.5C7.43959 31.5 0.5 24.5604 0.5 16C0.5 7.43959 7.43959 0.5 16 0.5Z" stroke="url(#paint0_linear_379_28499)" stroke-opacity="0.3"/>
<path d="M11.6054 16.942L16.0036 21.3402L16.9464 20.3974L13.2149 16.6659L21.3446 16.6659V15.3326L13.2148 15.3325L16.9464 11.601L16.0036 10.6582L11.6054 15.0564C11.0847 15.5771 11.0847 16.4213 11.6054 16.942Z" fill="#161C27"/>
<defs>
<linearGradient id="paint0_linear_379_28499" x1="15.0085" y1="3.41362e-08" x2="15.0085" y2="32" gradientUnits="userSpaceOnUse">
<stop stop-color="#CFE6FF"/>
<stop offset="1" stop-color="white" stop-opacity="0.8"/>
</linearGradient>
</defs>
</svg>
