<svg width="24" height="24" viewBox="0 0 24 24" fill="none" xmlns="http://www.w3.org/2000/svg">
<path fill-rule="evenodd" clip-rule="evenodd" d="M17 12C17 12.9665 17.7835 13.75 18.75 13.75C19.7165 13.75 20.5 12.9665 20.5 12C20.5 11.0335 19.7165 10.25 18.75 10.25C17.7835 10.25 17 11.0335 17 12ZM10.25 12C10.25 12.9665 11.0335 13.75 12 13.75C12.9665 13.75 13.75 12.9665 13.75 12C13.75 11.0335 12.9665 10.25 12 10.25C11.0335 10.25 10.25 11.0335 10.25 12ZM3.5 12C3.5 12.9665 4.2835 13.75 5.25 13.75C6.2165 13.75 7 12.9665 7 12C7 11.0335 6.2165 10.25 5.25 10.25C4.2835 10.25 3.5 11.0335 3.5 12Z" fill="#858585"/>
</svg>
