<svg width="18" height="18" viewBox="0 0 18 18" fill="none" xmlns="http://www.w3.org/2000/svg">
<path fill-rule="evenodd" clip-rule="evenodd" d="M3.16568 8.46971L4.75667 6.87872L5.81733 7.93938L4.22634 9.53037C3.05476 10.7019 3.05476 12.6014 4.22634 13.773C5.39791 14.9446 7.2974 14.9446 8.46898 13.773L10.06 12.182L11.1206 13.2427L9.52964 14.8337C7.77228 16.591 4.92303 16.591 3.16568 14.8337C1.40832 13.0763 1.40832 10.2271 3.16568 8.46971ZM14.8329 9.53037L13.2419 11.1214L12.1813 10.0607L13.7723 8.46971C14.9438 7.29814 14.9438 5.39864 13.7723 4.22707C12.6007 3.0555 10.7012 3.0555 9.52964 4.22707L7.93865 5.81806L6.87799 4.7574L8.46898 3.16641C10.2263 1.40905 13.0756 1.40905 14.8329 3.16641C16.5903 4.92377 16.5903 7.77301 14.8329 9.53037ZM5.81733 11.1214L6.87799 12.182L12.1813 6.87872L11.1206 5.81806L5.81733 11.1214Z" fill="#23005B"/>
</svg>
