<svg width="40" height="40" viewBox="0 0 40 40" fill="none" xmlns="http://www.w3.org/2000/svg">
<path d="M22.25 26V27.5H20.75V24.5H23.75V20.75H25.7663L24.9437 17.4595C24.4354 15.4263 22.6086 14 20.5129 14H20C17.1005 14 14.75 16.3505 14.75 19.25C14.75 20.8047 15.4239 22.2001 16.5004 23.1635L17 23.6107V27.5H15.5V24.2812C14.1191 23.0453 13.25 21.2491 13.25 19.25C13.25 15.5221 16.2721 12.5 20 12.5H20.5129C23.2969 12.5 25.7237 14.3948 26.3989 17.0957L27.4545 21.3181C27.5729 21.7915 27.2148 22.25 26.7269 22.25H25.25V24.5C25.25 25.3284 24.5784 26 23.75 26H22.25Z" fill="#92908F"/>
<path d="M18.9117 18.2833L19.6256 16.6185C19.7666 16.2893 20.2334 16.2893 20.3745 16.6185L21.088 18.2835L22.7531 18.9971C23.0686 19.1323 23.0817 19.5666 22.7925 19.7267L22.7531 19.746L21.088 20.4596L20.3745 22.1247C20.2392 22.4402 19.805 22.4533 19.6448 22.1641L19.6256 22.1247C19.3155 21.4888 18.9117 20.4599 18.9117 20.4599L17.2469 19.746C16.9314 19.6108 16.9183 19.1765 17.2075 19.0164L17.2469 18.9971L18.9117 18.2833Z" fill="#92908F"/>
</svg>
