<svg width="50" height="50" viewBox="0 0 50 50" fill="none" xmlns="http://www.w3.org/2000/svg">
<path d="M50 24C50 10.7452 39.2548 -4.69686e-07 26 -1.04907e-06L3.8147e-06 -2.18557e-06L50 50L50 24ZM21.8548 16.2903L23.629 7.01613L23.5484 6.93548L18.0645 12.4194L16.9355 11.371L24.2742 4.03226L25.4032 5.16129L23.7097 14.3548L23.7903 14.4355L29.2742 8.95161L30.4032 10.0806L23.0645 17.4194L21.8548 16.2903ZM24.4355 18.871L31.7742 11.5323L37.0161 16.7742L36.0484 17.7419L31.9355 13.629L29.8387 15.7258L33.7097 19.5968L32.7419 20.5645L28.871 16.6936L26.5323 19.0323L30.8871 23.3871L29.9194 24.3548L24.4355 18.871ZM33.629 28.0645L32.4194 26.8548L37.6613 17.4194L38.9516 18.7097L34.6774 25.8065L34.7581 25.8871L41.9355 21.6936L43.1452 22.9032L38.9516 30.0806L39.0323 30.1613L46.0484 25.8065L47.3387 27.0968L37.8226 32.2581L36.6129 31.0484L40.8065 23.871L40.7258 23.7903L33.629 28.0645Z" fill="url(#paint0_linear_4416_45599)"/>
<defs>
<linearGradient id="paint0_linear_4416_45599" x1="50" y1="0" x2="-6.00027e-06" y2="50" gradientUnits="userSpaceOnUse">
<stop stop-color="#A079FF"/>
<stop offset="1" stop-color="#8D81FD"/>
</linearGradient>
</defs>
</svg>
