<svg width="40" height="40" viewBox="0 0 40 40" fill="none" xmlns="http://www.w3.org/2000/svg">
<path fill-rule="evenodd" clip-rule="evenodd" d="M21.125 12.5675H18.875L18.7631 12.5716C17.987 12.6289 17.3751 13.2766 17.375 14.0673L17.3745 17.1928L16.8178 17.193C15.4816 17.1932 14.8125 18.8088 15.7574 19.7537L18.9393 22.9357C19.5251 23.5215 20.4749 23.5215 21.0607 22.9357L24.2426 19.7537L24.3218 19.6686C25.1476 18.7152 24.4791 17.1932 23.1822 17.193L22.6238 17.1928L22.625 14.0677C22.6251 13.2392 21.9535 12.5675 21.125 12.5675ZM21.125 14.0675L21.1245 18.6928L23.182 18.693L20 21.875L16.818 18.693L18.8745 18.6928L18.875 14.0675H21.125ZM14 23.75V22.25H12.5V23.75C12.5 24.9761 13.4216 26 14.6 26H25.4C26.5784 26 27.5 24.9761 27.5 23.75V22.25H26V23.75C26 24.1808 25.7127 24.5 25.4 24.5H14.6C14.2873 24.5 14 24.1808 14 23.75Z" fill="#92908F"/>
</svg>
