<svg width="40" height="40" viewBox="0 0 40 40" fill="none" xmlns="http://www.w3.org/2000/svg">
<path fill-rule="evenodd" clip-rule="evenodd" d="M24.125 12.5C25.5747 12.5 26.75 13.6753 26.75 15.125C26.75 16.5747 25.5747 17.75 24.125 17.75C23.4009 17.75 22.7452 17.4568 22.2703 16.9826L17.6946 19.4611C17.7309 19.635 17.75 19.8153 17.75 20C17.75 20.1847 17.7309 20.365 17.6946 20.5389L22.2703 23.0174C22.7452 22.5432 23.4009 22.25 24.125 22.25C25.5747 22.25 26.75 23.4253 26.75 24.875C26.75 26.3247 25.5747 27.5 24.125 27.5C22.6753 27.5 21.5 26.3247 21.5 24.875C21.5 24.6903 21.5191 24.51 21.5554 24.3361L16.9797 21.8576C16.5048 22.3318 15.8491 22.625 15.125 22.625C13.6753 22.625 12.5 21.4497 12.5 20C12.5 18.5503 13.6753 17.375 15.125 17.375C15.8491 17.375 16.5048 17.6682 16.9797 18.1424L21.5554 15.6639C21.5191 15.49 21.5 15.3097 21.5 15.125C21.5 13.6753 22.6753 12.5 24.125 12.5ZM24.125 14C23.5037 14 23 14.5037 23 15.125C23 15.7463 23.5037 16.25 24.125 16.25C24.7463 16.25 25.25 15.7463 25.25 15.125C25.25 14.5037 24.7463 14 24.125 14ZM15.125 18.875C14.5037 18.875 14 19.3787 14 20C14 20.6213 14.5037 21.125 15.125 21.125C15.7463 21.125 16.25 20.6213 16.25 20C16.25 19.3787 15.7463 18.875 15.125 18.875ZM23 24.875C23 24.2537 23.5037 23.75 24.125 23.75C24.7463 23.75 25.25 24.2537 25.25 24.875C25.25 25.4963 24.7463 26 24.125 26C23.5037 26 23 25.4963 23 24.875Z" fill="#92908F"/>
</svg>
