<svg width="20" height="20" viewBox="0 0 20 20" fill="none" xmlns="http://www.w3.org/2000/svg">
<path fill-rule="evenodd" clip-rule="evenodd" d="M3.68421 5.35548C3.45167 5.35548 3.26316 5.55777 3.26316 5.80731V13.7865C3.26316 14.0361 3.45167 14.2383 3.68421 14.2383H7.36637C7.98995 14.2383 8.60388 14.4035 9.15373 14.7191L9.8014 15.0908C9.92548 15.1621 10.0745 15.1621 10.1986 15.0908L10.8463 14.7191C11.3961 14.4035 12.0101 14.2383 12.6336 14.2383H16.3158C16.5483 14.2383 16.7368 14.036 16.7368 13.7865V5.80731C16.7368 5.55777 16.5483 5.35548 16.3158 5.35548H12.9085C12.3551 5.35548 11.817 5.55048 11.3769 5.9105L11.0211 6.20161C10.8979 6.30233 10.7651 6.38248 10.6265 6.44208L10.6375 10.7697C10.6385 11.144 10.3565 11.4482 10.0077 11.4493C9.65885 11.4503 9.37531 11.1477 9.37436 10.7734L9.36336 6.43769C9.22844 6.37857 9.09907 6.29988 8.97894 6.20161L8.62308 5.9105C8.18298 5.55048 7.64489 5.35548 7.09149 5.35548H3.68421ZM2 5.80731C2 4.80916 2.75405 4 3.68421 4H7.09149C7.92159 4 8.72872 4.29249 9.38887 4.83252L9.74473 5.12363C9.8955 5.24697 10.1045 5.24697 10.2553 5.12363L10.6111 4.83252C11.2713 4.29249 12.0784 4 12.9085 4H16.3158C17.246 4 18 4.80916 18 5.80731V13.7865C18 14.7847 17.2459 15.5938 16.3158 15.5938H12.6336C12.2179 15.5938 11.8086 15.7039 11.4421 15.9143L10.8463 16.2308C10.3499 16.5157 9.75382 16.5157 9.2575 16.2308L8.55795 15.9143C8.19138 15.7039 7.78209 15.5938 7.36637 15.5938H3.68421C2.75405 15.5938 2 14.7847 2 13.7865V5.80731Z" fill="#3F3F46"/>
</svg>
