<svg width="20" height="20" viewBox="0 0 20 20" fill="none" xmlns="http://www.w3.org/2000/svg">
<path d="M6.0839 8.21525H3.7711C3.23499 8.21525 2.80078 8.61338 2.80078 9.10494V16.1103C2.80078 16.6019 3.23499 17 3.7711 17H6.08301C6.62001 17 7.05422 16.6019 7.05422 16.1103V9.10494C7.05422 8.61338 6.62001 8.21525 6.0839 8.21525ZM6.16808 16.1103C6.16785 16.1307 6.15891 16.1502 6.14317 16.1647C6.12743 16.1791 6.10616 16.1873 6.0839 16.1875H3.7711C3.74884 16.1873 3.72756 16.1791 3.71182 16.1647C3.69609 16.1502 3.68714 16.1307 3.68691 16.1103V9.10494C3.68691 9.06187 3.72502 9.02775 3.7711 9.02775H6.08301C6.12998 9.02775 6.16808 9.06187 6.16808 9.10494V16.1103ZM11.155 4H8.84748C8.3096 4 7.87451 4.39894 7.87451 4.89213V16.1087C7.87451 16.6011 8.3096 17 8.84748 17H11.1559C11.6929 17 12.1288 16.6011 12.1288 16.1079V4.89213C12.1286 4.65544 12.0259 4.42853 11.8433 4.26125C11.6607 4.09397 11.4131 4 11.155 4ZM11.2418 16.1079C11.2418 16.129 11.2327 16.1492 11.2164 16.1642C11.2001 16.1791 11.178 16.1875 11.155 16.1875H8.84748C8.83608 16.1875 8.82478 16.1854 8.81425 16.1814C8.80371 16.1774 8.79414 16.1716 8.78607 16.1642C8.77801 16.1568 8.77161 16.148 8.76725 16.1383C8.76289 16.1287 8.76064 16.1183 8.76064 16.1079V4.89213C8.76064 4.84825 8.79963 4.8125 8.84748 4.8125H11.1559C11.2028 4.8125 11.2418 4.84825 11.2418 4.89213V16.1079ZM16.2314 10.6016H13.9194C13.3833 10.6016 12.9491 10.9997 12.9491 11.4913V16.1095C12.9488 16.2264 12.9736 16.3422 13.0222 16.4503C13.0707 16.5584 13.1421 16.6566 13.2322 16.7393C13.3222 16.8221 13.4292 16.8877 13.547 16.9324C13.6648 16.9771 13.7911 17.0001 13.9185 17H16.2305C16.7666 17 17.2008 16.6019 17.2008 16.1103V11.4913C17.201 11.3744 17.1761 11.2587 17.1275 11.1507C17.0789 11.0427 17.0075 10.9446 16.9174 10.862C16.8274 10.7793 16.7204 10.7138 16.6027 10.6691C16.485 10.6244 16.3588 10.6015 16.2314 10.6016ZM16.3155 16.1103C16.3155 16.1308 16.3067 16.1504 16.2909 16.1649C16.2751 16.1794 16.2537 16.1875 16.2314 16.1875H13.9194C13.8971 16.1875 13.8757 16.1794 13.8599 16.1649C13.8441 16.1504 13.8353 16.1308 13.8353 16.1103V11.4913C13.8353 11.4482 13.8734 11.4141 13.9194 11.4141H16.2314C16.2783 11.4141 16.3155 11.449 16.3155 11.4913V16.1103Z" fill="#3F3F46"/>
<path d="M15.8124 5.50683C15.8769 5.33272 16.1231 5.33272 16.1876 5.50683L16.5083 6.37353C16.5286 6.42827 16.5717 6.47143 16.6265 6.49169L17.4932 6.81243C17.6673 6.87687 17.6673 7.12313 17.4932 7.18757L16.6265 7.50831C16.5717 7.52857 16.5286 7.57173 16.5083 7.62647L16.1876 8.49317C16.1231 8.66728 15.8769 8.66728 15.8124 8.49317L15.4917 7.62647C15.4714 7.57173 15.4283 7.52857 15.3735 7.50831L14.5068 7.18757C14.3327 7.12313 14.3327 6.87687 14.5068 6.81243L15.3735 6.49169C15.4283 6.47143 15.4714 6.42827 15.4917 6.37353L15.8124 5.50683Z" fill="#444444"/>
</svg>
