<svg width="20" height="20" viewBox="0 0 20 20" fill="none" xmlns="http://www.w3.org/2000/svg">
<rect width="20" height="20" rx="8" fill="white"/>
<path d="M6.42173 6.12889C6.25704 6.29994 6.25704 6.57727 6.42173 6.74832L9.40333 9.84513L6.12351 13.2517C5.95883 13.4227 5.95883 13.7001 6.12351 13.8711C6.2882 14.0422 6.55521 14.0422 6.71989 13.8711L9.99971 10.4646L13.2801 13.8717C13.4448 14.0428 13.7118 14.0428 13.8765 13.8717C14.0412 13.7007 14.0412 13.4233 13.8765 13.2523L10.5961 9.84513L13.5783 6.74771C13.743 6.57666 13.743 6.29934 13.5783 6.12829C13.4136 5.95724 13.1466 5.95724 12.9819 6.12829L9.99971 9.22571L7.01811 6.12889C6.85342 5.95784 6.58641 5.95784 6.42173 6.12889Z" fill="#3F3F46"/>
</svg>
