<svg width="20" height="20" viewBox="0 0 20 20" fill="none" xmlns="http://www.w3.org/2000/svg">
<path d="M10.2552 11.8609C10.2799 11.8089 10.3405 11.7443 10.4541 11.6705C10.7112 11.5033 10.9289 11.3438 11.105 11.1911C11.2802 11.0392 11.4172 10.8953 11.5122 10.7603L11.5129 10.7593C11.601 10.6308 11.6719 10.4863 11.7248 10.3264C11.7787 10.1648 11.8051 9.98986 11.8051 9.80444C11.8051 9.30182 11.6115 8.87883 11.2305 8.54212C10.8603 8.21562 10.3804 8.05556 9.79927 8.05556C9.52151 8.05556 9.26366 8.10317 9.02665 8.19845C8.78967 8.29475 8.58254 8.43457 8.40676 8.61747C8.2304 8.80096 8.09201 9.02639 7.99058 9.28992C7.92574 9.45846 7.88109 9.64026 7.85506 9.83582C7.82179 10.0858 8.01553 10.2958 8.26065 10.3216C8.49654 10.3462 8.727 10.1931 8.7642 9.95476C8.81708 9.6211 8.91928 9.37554 9.06461 9.20781C9.25426 8.98793 9.49668 8.8783 9.79822 8.8783C10.1193 8.8783 10.3756 8.9716 10.5745 9.15169L10.5812 9.15828L10.587 9.16407L10.5906 9.16758C10.6877 9.26906 10.7599 9.36923 10.8092 9.46874C10.8576 9.56816 10.8808 9.67706 10.8752 9.80002C10.8644 10.0226 10.8032 10.1917 10.7004 10.3159L10.6989 10.3178C10.6401 10.3927 10.5423 10.4871 10.4016 10.6015C10.2608 10.7161 10.0872 10.8475 9.88044 10.996L9.8074 11.0484C9.77937 11.0674 9.75242 11.0868 9.72659 11.1065L9.64601 11.1644H9.65536C9.53201 11.2712 9.43973 11.3887 9.38232 11.5178C9.29468 11.7125 9.25954 11.9327 9.27132 12.1757V12.4346C9.27132 12.6842 9.4861 12.8704 9.73109 12.8704H9.75102C9.9974 12.8704 10.2108 12.6829 10.2108 12.4346V12.1646C10.2108 12.0134 10.2289 11.9154 10.2552 11.8609Z" fill="#3F3F46"/>
<path d="M9.35445 14.4058C9.25256 14.3016 9.19533 14.1603 9.19533 14.0129C9.19533 13.8656 9.25256 13.7243 9.35445 13.6201C9.45633 13.5159 9.59451 13.4574 9.73859 13.4574C9.88267 13.4574 10.0208 13.5159 10.1227 13.6201C10.2246 13.7243 10.2818 13.8656 10.2818 14.0129C10.2818 14.1603 10.2246 14.3016 10.1227 14.4058C10.0208 14.51 9.88267 14.5685 9.73859 14.5685C9.59451 14.5685 9.45633 14.51 9.35445 14.4058Z" fill="#3F3F46"/>
<path d="M3.39844 4.05945H3.41485C3.53209 3.1792 4.26306 2.5 5.14894 2.5H13.7506C14.1348 2.5 14.4447 2.82165 14.4447 3.21637V4.99731C15.4536 5.04614 16.2556 5.90663 16.2556 6.95906V15.5361C16.2556 16.6198 15.4052 17.5 14.3542 17.5H5.29985C4.24884 17.5 3.39844 16.6198 3.39844 15.5361V4.05945ZM5.14894 4.99513H13.3582V3.62086H5.14894C4.78312 3.62086 4.48496 3.92758 4.48496 4.30799C4.48496 4.6884 4.78312 4.99513 5.14894 4.99513ZM4.48496 15.5359C4.48496 16.0024 4.85069 16.379 5.29985 16.379H14.3542C14.8033 16.379 15.1691 16.0024 15.1691 15.5359V6.95889C15.1691 6.49236 14.8033 6.11581 14.3542 6.11581H4.48496V15.5359Z" fill="#3F3F46"/>
</svg>
