<svg width="20" height="20" viewBox="0 0 20 20" fill="none" xmlns="http://www.w3.org/2000/svg">
<path d="M3.6305 10.0001C3.50906 9.91979 3.38474 9.84283 3.25762 9.76943L2.91506 9.57167C1.3845 8.68803 0.860096 6.73091 1.74374 5.20039C2.62742 3.66987 4.5845 3.14543 6.11502 4.02911L6.45762 4.22691C8.0699 5.15775 9.95294 5.41487 11.7148 4.99835C11.7761 5.53331 11.8859 6.05751 12.041 6.56527C9.89974 7.06039 7.61534 6.74283 5.65762 5.61255L5.31506 5.41475C4.54978 4.97291 3.57122 5.23511 3.12938 6.00039C2.68758 6.76567 2.94978 7.74419 3.71506 8.18603L4.05762 8.38379C4.34962 8.55243 4.62965 8.73635 4.89685 8.93427C4.52085 9.33319 4.09694 9.69163 3.6305 10.0001Z" fill="url(#paint0_linear_14630_94048)"/>
<path d="M11.6667 15.6077C12.2155 15.7456 12.7506 15.9552 13.2578 16.2364V16.4004C13.2578 18.1677 11.8251 19.6004 10.0578 19.6004C8.29049 19.6004 6.85781 18.1677 6.85781 16.4004V16.0048C6.85781 14.3497 6.28965 12.7755 5.29101 11.5207C5.72225 11.198 6.12193 10.841 6.48709 10.4548C7.74221 11.9996 8.45781 13.9513 8.45781 16.0048V16.4004C8.45781 17.284 9.17413 18.0004 10.0578 18.0004C10.9415 18.0004 11.6578 17.284 11.6578 16.4004V16.0048C11.6578 15.872 11.6608 15.7396 11.6667 15.6077Z" fill="url(#paint1_linear_14630_94048)"/>
<path d="M13.6577 4.22686C13.5305 4.30034 13.4015 4.36962 13.2711 4.4347C13.3051 4.99286 13.4036 5.53914 13.5611 6.06418C13.8662 5.9317 14.1656 5.78118 14.4577 5.61254L14.8003 5.41474C15.5655 4.97294 16.5441 5.23514 16.9859 6.00038C17.4277 6.76566 17.1655 7.74422 16.4003 8.18602L16.0577 8.38382C14.1001 9.51398 12.683 11.3333 12.0411 13.435C12.5583 13.5546 13.0672 13.7216 13.5611 13.9361C14.0814 12.2022 15.2456 10.7002 16.8577 9.76946L17.2003 9.57166C18.7308 8.68802 19.2552 6.73094 18.3715 5.20038C17.4879 3.66986 15.5308 3.14546 14.0003 4.0291L13.6577 4.22686Z" fill="url(#paint2_linear_14630_94048)"/>
<path d="M14.0247 10.0002C14.3869 9.61206 14.786 9.25486 15.2188 8.93434C13.9769 7.61674 13.258 5.8573 13.258 3.99546V3.5999C13.258 1.83259 11.8253 0.399902 10.058 0.399902C8.29067 0.399902 6.85799 1.83259 6.85799 3.5999V3.99546C6.85799 4.14258 6.85347 4.28906 6.84459 4.43478C7.34495 4.68442 7.86731 4.8723 8.40075 4.99842C8.43863 4.66774 8.45799 4.33298 8.45799 3.99546V3.5999C8.45799 2.71626 9.17431 1.9999 10.058 1.9999C10.9416 1.9999 11.658 2.71626 11.658 3.5999V3.99546C11.658 6.25614 12.5252 8.39334 14.0247 10.0002Z" fill="url(#paint3_linear_14630_94048)"/>
<path d="M14.0003 15.9712C15.5308 16.8549 17.4879 16.3305 18.3715 14.7999C19.2552 13.2694 18.7308 11.3123 17.2003 10.4286L17.0591 10.3472C16.5619 10.6458 16.1128 11.0044 15.719 11.4107C15.83 11.4816 15.9429 11.5502 16.0577 11.6165L16.4003 11.8143C17.1655 12.2561 17.4277 13.2346 16.9859 13.9999C16.5441 14.7652 15.5655 15.0274 14.8003 14.5856L14.4577 14.3878C12.4999 13.2575 10.2155 12.9399 8.07426 13.435C8.22934 13.9428 8.33918 14.467 8.40046 15.002C10.1623 14.5854 12.0454 14.8426 13.6577 15.7734L14.0003 15.9712Z" fill="url(#paint4_linear_14630_94048)"/>
<path d="M14.0003 15.9712C15.5308 16.8549 17.4879 16.3305 18.3715 14.7999C19.2552 13.2694 18.7308 11.3123 17.2003 10.4286L17.0591 10.3472C16.5619 10.6458 16.1128 11.0044 15.719 11.4107C15.83 11.4816 15.9429 11.5502 16.0577 11.6165L16.4003 11.8143C17.1655 12.2561 17.4277 13.2346 16.9859 13.9999C16.5441 14.7652 15.5655 15.0274 14.8003 14.5856L14.4577 14.3878C12.4999 13.2575 10.2155 12.9399 8.07426 13.435C8.22934 13.9428 8.33918 14.467 8.40046 15.002C10.1623 14.5854 12.0454 14.8426 13.6577 15.7734L14.0003 15.9712Z" fill="url(#paint5_linear_14630_94048)"/>
<path d="M6.84479 15.5656C6.71435 15.6307 6.58543 15.7 6.45815 15.7735L6.11563 15.9712C4.58507 16.8549 2.62799 16.3305 1.74431 14.7999C0.860667 13.2694 1.38507 11.3123 2.91563 10.4287L3.25819 10.2309C4.69127 9.40345 5.77039 8.12465 6.35783 6.63281C6.85295 6.84489 7.36191 7.01253 7.87891 7.13573C7.16855 8.99469 5.83631 10.5899 4.05819 11.6165L3.71563 11.8143C2.95035 12.2561 2.68815 13.2347 3.12995 13.9999C3.57179 14.7652 4.55035 15.0274 5.31559 14.5856L5.65815 14.3878C5.95027 14.2191 6.24963 14.0686 6.55471 13.9361C6.71227 14.4612 6.81075 15.0075 6.84479 15.5656Z" fill="url(#paint6_linear_14630_94048)"/>
<defs>
<linearGradient id="paint0_linear_14630_94048" x1="10.0576" y1="3.59987" x2="10.0576" y2="19.6004" gradientUnits="userSpaceOnUse">
<stop stop-color="#FB585F"/>
<stop offset="1" stop-color="#F9903C"/>
</linearGradient>
<linearGradient id="paint1_linear_14630_94048" x1="10.0578" y1="3.59987" x2="10.0578" y2="19.6004" gradientUnits="userSpaceOnUse">
<stop stop-color="#FB585F"/>
<stop offset="1" stop-color="#F9903C"/>
</linearGradient>
<linearGradient id="paint2_linear_14630_94048" x1="10.0577" y1="3.59986" x2="10.0577" y2="19.6004" gradientUnits="userSpaceOnUse">
<stop stop-color="#FB585F"/>
<stop offset="1" stop-color="#F9903C"/>
</linearGradient>
<linearGradient id="paint3_linear_14630_94048" x1="10.058" y1="0.399902" x2="10.058" y2="16.4005" gradientUnits="userSpaceOnUse">
<stop stop-color="#3E92F6"/>
<stop offset="1" stop-color="#C475BF"/>
</linearGradient>
<linearGradient id="paint4_linear_14630_94048" x1="10.0577" y1="0.399927" x2="10.0577" y2="16.4005" gradientUnits="userSpaceOnUse">
<stop stop-color="#3E92F6"/>
<stop offset="1" stop-color="#C475BF"/>
</linearGradient>
<linearGradient id="paint5_linear_14630_94048" x1="10.0577" y1="0.399928" x2="10.0577" y2="16.4005" gradientUnits="userSpaceOnUse">
<stop stop-color="#3E92F6"/>
<stop offset="1" stop-color="#C475BF"/>
</linearGradient>
<linearGradient id="paint6_linear_14630_94048" x1="10.0582" y1="0.399932" x2="10.0582" y2="16.4005" gradientUnits="userSpaceOnUse">
<stop stop-color="#3E92F6"/>
<stop offset="1" stop-color="#C475BF"/>
</linearGradient>
</defs>
</svg>
