<svg width="36" height="36" viewBox="0 0 36 36" fill="none" xmlns="http://www.w3.org/2000/svg">
<path d="M29.6007 9.29937H6.39911V26.7006H20.9001C20.9001 27.7175 21.0746 28.6937 21.3952 29.6008H6.39911C4.79737 29.6008 3.4989 28.3023 3.4989 26.7006V9.29937C3.4989 7.69764 4.79737 6.39917 6.39911 6.39917H29.6007C31.2025 6.39917 32.5009 7.69764 32.5009 9.29937V18.4951C31.5938 18.1744 30.6177 18 29.6007 18V9.29937Z" fill="#B373F5"/>
<path d="M19.9443 15.2478L18.9942 12.8728C18.8316 12.4662 18.4378 12.1996 17.9999 12.1996C17.562 12.1996 17.1682 12.4662 17.0056 12.8728L16.0556 15.2478C15.9082 15.6163 15.6162 15.9083 15.2477 16.0556L12.8727 17.0057C12.4661 17.1683 12.1995 17.5621 12.1995 18C12.1995 18.4379 12.4661 18.8317 12.8727 18.9943L15.2477 19.9443C15.6162 20.0917 15.9082 20.3837 16.0556 20.7522L17.0056 23.1272C17.1682 23.5338 17.562 23.8004 17.9999 23.8004C18.4378 23.8004 18.8316 23.5338 18.9942 23.1272L19.9443 20.7522C20.0917 20.3837 20.3836 20.0917 20.7521 19.9443L23.1271 18.9943C23.5337 18.8317 23.8003 18.4379 23.8003 18C23.8003 17.5621 23.5337 17.1683 23.1271 17.0057L20.7521 16.0556C20.3836 15.9083 20.0917 15.6163 19.9443 15.2478Z" fill="#B373F5"/>
<path d="M31.08 24.7106L30.2684 22.7964C30.1538 22.526 29.8885 22.3503 29.5947 22.3503C29.2997 22.3503 29.0336 22.5274 28.9196 22.7995L28.1208 24.7076C28.0238 24.9393 27.8395 25.1236 27.6078 25.2207L25.6995 26.0202C25.4275 26.1341 25.2504 26.4002 25.2504 26.6951C25.2504 26.989 25.4262 27.2543 25.6967 27.369L27.6105 28.1799C27.8406 28.2774 28.0234 28.461 28.1199 28.6915L28.9196 30.6017C29.0336 30.8738 29.2997 31.0509 29.5947 31.0509C29.8885 31.0509 30.1538 30.8752 30.2684 30.6048L31.0809 28.6885C31.1779 28.4598 31.36 28.2778 31.5887 28.1809L33.5048 27.369C33.7753 27.2543 33.951 26.989 33.951 26.6951C33.951 26.4002 33.774 26.1341 33.502 26.0202L31.5914 25.2197C31.361 25.1232 31.1775 24.9405 31.08 24.7106Z" fill="#B373F5"/>
</svg>
