<svg width="20" height="20" viewBox="0 0 20 20" fill="none" xmlns="http://www.w3.org/2000/svg">
<g clip-path="url(#clip0_14319_50293)">
<path d="M13.3124 3.50683C13.3769 3.33272 13.6231 3.33272 13.6876 3.50683L14.1434 4.73847C14.1636 4.79321 14.2068 4.83637 14.2615 4.85663L15.4932 5.31243C15.6673 5.37687 15.6673 5.62313 15.4932 5.68757L14.2615 6.14337C14.2068 6.16363 14.1636 6.20679 14.1434 6.26152L13.6876 7.49317C13.6231 7.66728 13.3769 7.66728 13.3124 7.49317L12.8566 6.26153C12.8364 6.20679 12.7932 6.16363 12.7385 6.14337L11.5068 5.68757C11.3327 5.62313 11.3327 5.37687 11.5068 5.31243L12.7385 4.85663C12.7932 4.83637 12.8364 4.79321 12.8566 4.73847L13.3124 3.50683Z" fill="#444444"/>
<path d="M10.2857 4.0557C10.0291 4.01899 9.76677 4 9.5 4C6.46243 4 4 6.46243 4 9.5C4 12.5376 6.46243 15 9.5 15C12.5376 15 15 12.5376 15 9.5C15 9.23323 14.981 8.9709 14.9443 8.71429" stroke="#444444" stroke-width="1.2" stroke-linecap="round"/>
<path d="M13.2188 14.1567L16.5318 17.4698" stroke="#444444" stroke-width="1.2" stroke-linecap="round"/>
</g>
<defs>
<clipPath id="clip0_14319_50293">
<rect width="20" height="20" fill="white"/>
</clipPath>
</defs>
</svg>
