<svg width="15" height="14" viewBox="0 0 15 14" fill="none" xmlns="http://www.w3.org/2000/svg">
<path d="M9.78589 0C9.45452 0 9.18589 0.268629 9.18589 0.6C9.18589 0.931371 9.45452 1.2 9.78589 1.2H12.7859C13.0068 1.2 13.1859 1.37909 13.1859 1.6V11.6C13.1859 11.8209 13.0068 12 12.7859 12H9.78589C9.45452 12 9.18589 12.2686 9.18589 12.6C9.18589 12.9314 9.45452 13.2 9.78589 13.2H12.7859C13.6695 13.2 14.3859 12.4837 14.3859 11.6V1.6C14.3859 0.716344 13.6695 0 12.7859 0H9.78589ZM0.468629 7.73147C-0.156211 7.10663 -0.156209 6.09357 0.46863 5.46873L4.26152 1.67583C4.49584 1.44152 4.87574 1.44152 5.11005 1.67583C5.34437 1.91015 5.34437 2.29005 5.11005 2.52436L1.63432 6.0001L10.1858 6.0001C10.5172 6.0001 10.7858 6.26873 10.7858 6.6001C10.7858 6.93147 10.5172 7.2001 10.1858 7.2001L1.63432 7.2001L5.11005 10.6758C5.34437 10.9101 5.34437 11.29 5.11005 11.5244C4.87574 11.7587 4.49584 11.7587 4.26152 11.5244L0.468629 7.73147Z" fill="#4663FF"/>
</svg>
