<svg width="32" height="32" viewBox="0 0 32 32" fill="none" xmlns="http://www.w3.org/2000/svg">
<path d="M14.7712 16L8.6144 9.8432C8.27508 9.50387 8.27508 8.95372 8.6144 8.6144C8.95372 8.27507 9.50387 8.27507 9.8432 8.61439L16 14.7711L22.1568 8.61439C22.4961 8.27507 23.0463 8.27508 23.3856 8.6144C23.7249 8.95372 23.7249 9.50387 23.3856 9.84319L17.2288 16L23.3856 22.1567C23.7249 22.4961 23.7249 23.0462 23.3856 23.3855C23.0463 23.7249 22.4961 23.7249 22.1568 23.3856L16 17.2288L9.84323 23.3856C9.50389 23.7249 8.95371 23.7249 8.61438 23.3855C8.27507 23.0462 8.27508 22.4961 8.61441 22.1567L14.7712 16Z" fill="#B8B8B8"/>
</svg>
