<svg width="20" height="20" viewBox="0 0 20 20" fill="none" xmlns="http://www.w3.org/2000/svg">
<path fill-rule="evenodd" clip-rule="evenodd" d="M10 0C4.47715 0 0 4.47715 0 10C0 15.5228 4.47715 20 10 20C15.5228 20 20 15.5228 20 10C20 4.47715 15.5228 0 10 0ZM5.60208 8.93126C5.9346 8.59875 6.4738 8.59883 6.80632 8.93135C7.60046 9.72549 8.19257 10.3176 9.11133 11.2364L13.366 6.98168C13.6985 6.64916 14.2376 6.64916 14.5702 6.98168C14.9027 7.3142 14.9027 7.85332 14.5702 8.18584L9.71341 13.0426C9.38089 13.3751 8.84177 13.3751 8.50925 13.0426L5.60208 10.1354C5.26956 9.8029 5.26956 9.26378 5.60208 8.93126Z" fill="#57D64F"/>
</svg>
