<svg width="18" height="18" viewBox="0 0 18 18" fill="none" xmlns="http://www.w3.org/2000/svg">
<mask id="mask0_1224_54881" style="mask-type:alpha" maskUnits="userSpaceOnUse" x="0" y="0" width="18" height="18">
<path d="M0 8.99982C0 6.20423 0 4.80643 0.456723 3.70383C1.06569 2.23369 2.23373 1.06567 3.7039 0.456714C4.80653 0 6.20435 0 9 0C11.7956 0 13.1935 0 14.2961 0.456714C15.7663 1.06567 16.9343 2.23369 17.5433 3.70383C18 4.80643 18 6.20423 18 8.99982C18 11.7954 18 13.1932 17.5433 14.2958C16.9343 15.766 15.7663 16.934 14.2961 17.5429C13.1935 17.9996 11.7956 17.9996 9 17.9996C6.20435 17.9996 4.80653 17.9996 3.7039 17.5429C2.23373 16.934 1.06569 15.766 0.456723 14.2958C0 13.1932 0 11.7954 0 8.99982Z" fill="black"/>
</mask>
<g mask="url(#mask0_1224_54881)">
<rect x="-4.5" y="-4.49988" width="27" height="26.9995" fill="url(#paint0_linear_1224_54881)"/>
<path d="M12.5 6.49988C12.7761 6.49988 13 6.72374 13 6.99988V10.9999C12.9999 11.276 12.7761 11.4999 12.5 11.4999C12.2239 11.4999 12.0001 11.276 12 10.9999V6.99988C12 6.72374 12.2239 6.49988 12.5 6.49988ZM14.25 7.74988C14.5261 7.74988 14.75 7.97374 14.75 8.24988V9.74988C14.75 10.026 14.5261 10.2499 14.25 10.2499C13.9739 10.2499 13.75 10.026 13.75 9.74988V8.24988C13.75 7.97374 13.9739 7.74988 14.25 7.74988ZM10.75 7.99988C11.0261 7.99988 11.25 8.22374 11.25 8.49988V9.49988C11.25 9.77599 11.0261 9.99988 10.75 9.99988C10.4739 9.99988 10.25 9.77599 10.25 9.49988V8.49988C10.25 8.22374 10.4739 7.99988 10.75 7.99988ZM16 8.24988C16.2761 8.24988 16.5 8.47374 16.5 8.74988V9.24988C16.5 9.52599 16.2761 9.74988 16 9.74988C15.7239 9.74988 15.5 9.52599 15.5 9.24988V8.74988C15.5 8.47374 15.7239 8.24988 16 8.24988Z" fill="url(#paint1_linear_1224_54881)"/>
<path d="M9 3C9.27614 3 9.5 3.22386 9.5 3.5V14.5C9.49987 14.776 9.27606 15 9 15C8.72394 15 8.50013 14.776 8.5 14.5V3.5C8.5 3.22386 8.72386 3 9 3ZM5.5 5.25C5.77614 5.25 6 5.47386 6 5.75V12.25C5.9999 12.5261 5.77608 12.75 5.5 12.75C5.22392 12.75 5.0001 12.5261 5 12.25V5.75C5 5.47386 5.22386 5.25 5.5 5.25ZM3.75 7C4.02614 7 4.25 7.22386 4.25 7.5V10.5C4.24991 10.7761 4.02609 11 3.75 11C3.47391 11 3.25009 10.7761 3.25 10.5V7.5C3.25 7.22386 3.47386 7 3.75 7ZM7.25 7C7.52614 7 7.75 7.22386 7.75 7.5V10.5C7.74991 10.7761 7.52609 11 7.25 11C6.97391 11 6.75009 10.7761 6.75 10.5V7.5C6.75 7.22386 6.97386 7 7.25 7ZM2 8.25C2.27614 8.25 2.5 8.47386 2.5 8.75V9.25C2.49993 9.52608 2.2761 9.75 2 9.75C1.7239 9.75 1.50007 9.52608 1.5 9.25V8.75C1.5 8.47386 1.72386 8.25 2 8.25Z" fill="url(#paint2_linear_1224_54881)"/>
</g>
<defs>
<linearGradient id="paint0_linear_1224_54881" x1="-4.5" y1="-4.49988" x2="22.4995" y2="22.5001" gradientUnits="userSpaceOnUse">
<stop stop-color="#E4478B"/>
<stop offset="1" stop-color="#FC763F"/>
</linearGradient>
<linearGradient id="paint1_linear_1224_54881" x1="10.25" y1="6.49988" x2="15.1279" y2="12.5974" gradientUnits="userSpaceOnUse">
<stop stop-color="#000E23"/>
<stop offset="1" stop-color="#003B73"/>
</linearGradient>
<linearGradient id="paint2_linear_1224_54881" x1="1.5" y1="3" x2="12.5768" y2="10.3847" gradientUnits="userSpaceOnUse">
<stop stop-color="#FFEDE3"/>
<stop offset="1" stop-color="white"/>
</linearGradient>
</defs>
</svg>
