<svg width="18" height="18" viewBox="0 0 18 18" fill="none" xmlns="http://www.w3.org/2000/svg">
<mask id="mask0_1224_54885" style="mask-type:alpha" maskUnits="userSpaceOnUse" x="0" y="0" width="18" height="18">
<path d="M0 8.99982C0 6.20423 0 4.80643 0.456723 3.70383C1.06569 2.23369 2.23373 1.06567 3.7039 0.456714C4.80653 0 6.20435 0 9 0C11.7956 0 13.1935 0 14.2961 0.456714C15.7663 1.06567 16.9343 2.23369 17.5433 3.70383C18 4.80643 18 6.20423 18 8.99982C18 11.7954 18 13.1932 17.5433 14.2958C16.9343 15.766 15.7663 16.934 14.2961 17.5429C13.1935 17.9996 11.7956 17.9996 9 17.9996C6.20435 17.9996 4.80653 17.9996 3.7039 17.5429C2.23373 16.934 1.06569 15.766 0.456723 14.2958C0 13.1932 0 11.7954 0 8.99982Z" fill="black"/>
</mask>
<g mask="url(#mask0_1224_54885)">
<rect x="-4.5" y="-4.49988" width="27" height="26.9989" fill="url(#paint0_linear_1224_54885)"/>
<rect x="4" y="5.49988" width="1.25" height="6.99986" fill="url(#paint1_linear_1224_54885)"/>
<path d="M5.5 4C4.67157 4 4 4.67156 4 5.49997V5.99996C4.69036 5.99996 5.25 6.55959 5.25 7.24994C5.25 7.94028 4.69036 8.49991 4 8.49991V9.49989C4.69036 9.49989 5.25 10.0595 5.25 10.7499C5.25 11.4402 4.69036 11.9998 4 11.9998V12.4998C4 13.3282 4.67157 13.9998 5.5 13.9998H9.5L14 9.49989V5.49997C14 4.67156 13.3284 4 12.5 4H5.5Z" fill="url(#paint2_linear_1224_54885)"/>
<path fill-rule="evenodd" clip-rule="evenodd" d="M14 9.49988C11.5148 9.49988 9.5 11.5146 9.5 13.9998L14 9.49988Z" fill="url(#paint3_linear_1224_54885)"/>
<path fill-rule="evenodd" clip-rule="evenodd" d="M14 9.49988C14 11.9851 11.9852 13.9998 9.5 13.9998L14 9.49988Z" fill="url(#paint4_linear_1224_54885)"/>
</g>
<defs>
<linearGradient id="paint0_linear_1224_54885" x1="-4.5" y1="-4.49988" x2="22.4989" y2="22.5001" gradientUnits="userSpaceOnUse">
<stop stop-color="#AD7CD5"/>
<stop offset="1" stop-color="#D470A0"/>
</linearGradient>
<linearGradient id="paint1_linear_1224_54885" x1="4" y1="5.49988" x2="6.42274" y2="5.93252" gradientUnits="userSpaceOnUse">
<stop stop-color="#006590"/>
<stop offset="1" stop-color="#7787FB"/>
</linearGradient>
<linearGradient id="paint2_linear_1224_54885" x1="4" y1="4" x2="13.9998" y2="14" gradientUnits="userSpaceOnUse">
<stop stop-color="#FFEDE3"/>
<stop offset="1" stop-color="white"/>
</linearGradient>
<linearGradient id="paint3_linear_1224_54885" x1="9.5" y1="9.49988" x2="13.9999" y2="13.9999" gradientUnits="userSpaceOnUse">
<stop stop-color="#FFB59F"/>
<stop offset="1" stop-color="#FFB94D"/>
</linearGradient>
<linearGradient id="paint4_linear_1224_54885" x1="9.5" y1="9.49988" x2="13.9999" y2="13.9999" gradientUnits="userSpaceOnUse">
<stop stop-color="#D33A7E"/>
<stop offset="1" stop-color="#FF8C5F"/>
</linearGradient>
</defs>
</svg>
