<svg width="18" height="18" viewBox="0 0 18 18" fill="none" xmlns="http://www.w3.org/2000/svg">
<mask id="mask0_1224_54890" style="mask-type:alpha" maskUnits="userSpaceOnUse" x="0" y="0" width="18" height="19">
<path d="M0 9.00037C0 6.20472 0 4.80689 0.456723 3.70427C1.06569 2.2341 2.23373 1.06605 3.7039 0.457089C4.80653 0.000366211 6.20435 0.000366211 9 0.000366211C11.7956 0.000366211 13.1935 0.000366211 14.2961 0.457089C15.7663 1.06605 16.9343 2.2341 17.5433 3.70427C18 4.80689 18 6.20472 18 9.00037C18 11.796 18 13.1938 17.5433 14.2965C16.9343 15.7666 15.7663 16.9347 14.2961 17.5436C13.1935 18.0004 11.7956 18.0004 9 18.0004C6.20435 18.0004 4.80653 18.0004 3.7039 17.5436C2.23373 16.9347 1.06569 15.7666 0.456723 14.2965C0 13.1938 0 11.796 0 9.00037Z" fill="black"/>
</mask>
<g mask="url(#mask0_1224_54890)">
<rect width="18" height="18" fill="white"/>
<path fill-rule="evenodd" clip-rule="evenodd" d="M5.34375 15.25C4.87772 15.25 4.5 14.8685 4.5 14.3977V3.60227C4.5 3.13153 4.87772 2.75 5.34375 2.75H10.5L13.5 5.75V14.3977C13.5 14.8685 13.1223 15.25 12.6562 15.25H5.34375Z" fill="#FCC400"/>
<path fill-rule="evenodd" clip-rule="evenodd" d="M13.5 5.75H10.5V2.75L13.5 5.75Z" fill="#FCA200"/>
<path d="M7.25 8.76768C7.25 7.79138 8.03346 7 9 7C9.96654 7 10.75 7.79138 10.75 8.76768C10.75 9.39847 10.4219 9.95052 9.92965 10.2634H8.07035C7.57806 9.95052 7.25 9.39847 7.25 8.76768Z" fill="white"/>
<path d="M10 11.0066V11.7566H8V11.0066H10Z" fill="white"/>
</g>
</svg>
