<svg width="48" height="48" viewBox="0 0 48 48" fill="none" xmlns="http://www.w3.org/2000/svg">
<path fill-rule="evenodd" clip-rule="evenodd" d="M25 16.4825C25 16.2686 24.9314 16.0603 24.8043 15.8882C24.4761 15.444 23.8499 15.35 23.4057 15.6782L18.233 19.4994L16 19.5002C14.8954 19.5002 14 20.3957 14 21.5002V26.5002C14 27.6048 14.8954 28.5002 16 28.5002L18.233 28.4994L23.4057 32.3222C23.5778 32.4494 23.7861 32.518 24 32.518C24.5523 32.518 25 32.0703 25 31.518V16.4825ZM23 18.4634V29.5354L18.8915 26.4992L16 26.5002V21.5002L18.8919 21.4992L23 18.4634ZM28.2426 19.7398C30.5858 22.0829 30.5858 25.8819 28.2426 28.2251L26.8284 26.8108C28.3905 25.2487 28.3905 22.7161 26.8284 21.154L28.2426 19.7398ZM31.2666 31.2399C34.886 27.1246 34.9132 20.9496 31.3348 16.8032L29.8207 18.1099C32.7468 21.5004 32.7245 26.5539 29.7648 29.9191L31.2666 31.2399Z" fill="#161C27"/>
</svg>
