<svg width="48" height="48" viewBox="0 0 48 48" fill="none" xmlns="http://www.w3.org/2000/svg">
<g clip-path="url(#clip0_5501_1703)">
<path d="M0 24C0 10.7452 10.7452 0 24 0C37.2548 0 48 10.7452 48 24C48 37.2548 37.2548 48 24 48C10.7452 48 0 37.2548 0 24Z" fill="#855EE1"/>
<path fill-rule="evenodd" clip-rule="evenodd" d="M22.5837 21.3983C23.3647 20.6172 24.631 20.6172 25.4121 21.3983L30.0154 26.0016L28.6011 27.4158L23.9979 22.8125L24.705 22.1054L19.3947 27.4157L17.9805 26.0015L22.5837 21.3983Z" fill="white"/>
</g>
<defs>
<clipPath id="clip0_5501_1703">
<path d="M0 24C0 10.7452 10.7452 0 24 0C37.2548 0 48 10.7452 48 24C48 37.2548 37.2548 48 24 48C10.7452 48 0 37.2548 0 24Z" fill="white"/>
</clipPath>
</defs>
</svg>
