<svg width="48" height="48" viewBox="0 0 48 48" fill="none" xmlns="http://www.w3.org/2000/svg">
<g clip-path="url(#clip0_5331_7363)">
<path d="M0 24C0 10.7452 10.7452 0 24 0C37.2548 0 48 10.7452 48 24C48 37.2548 37.2548 48 24 48C10.7452 48 0 37.2548 0 24Z" fill="white"/>
<path fill-rule="evenodd" clip-rule="evenodd" d="M22.5862 26.6024L17.9829 21.9992L19.3971 20.585L24.0004 25.1882L28.6036 20.585L30.0178 21.9992L25.4146 26.6024C24.6336 27.3835 23.3672 27.3835 22.5862 26.6024Z" fill="#161C27"/>
</g>
<defs>
<clipPath id="clip0_5331_7363">
<path d="M0 24C0 10.7452 10.7452 0 24 0C37.2548 0 48 10.7452 48 24C48 37.2548 37.2548 48 24 48C10.7452 48 0 37.2548 0 24Z" fill="white"/>
</clipPath>
</defs>
</svg>
