<svg width="16" height="20" viewBox="0 0 16 20" fill="none" xmlns="http://www.w3.org/2000/svg">
<path d="M2 10C2 13.3137 4.68629 16 8 16C11.3137 16 14 13.3137 14 10H16C16 14.0793 12.9468 17.4455 9.00095 17.938L9 20H7L7.00005 17.9381C3.05371 17.446 0 14.0796 0 10H2ZM8 0C10.2091 0 12 1.79086 12 4V10C12 12.2091 10.2091 14 8 14C5.79086 14 4 12.2091 4 10V4C4 1.79086 5.79086 0 8 0ZM8 2C6.89543 2 6 2.89543 6 4V10C6 11.1046 6.89543 12 8 12C9.10457 12 10 11.1046 10 10V4C10 2.89543 9.10457 2 8 2Z" fill="#161C27"/>
</svg>
