<svg width="98" height="48" viewBox="0 0 98 48" fill="none" xmlns="http://www.w3.org/2000/svg">
<g clip-path="url(#clip0_5331_7346)">
<path d="M0 24C0 10.7452 10.7452 0 24 0H74C87.2548 0 98 10.7452 98 24C98 37.2548 87.2548 48 74 48H24C10.7452 48 0 37.2548 0 24Z" fill="#855EE1"/>
<path fill-rule="evenodd" clip-rule="evenodd" d="M24.25 17.25H25.75V30.75H24.25V17.25ZM18.25 21.75H19.75V26.25H18.25V21.75ZM21.25 19.5H22.75V28.5H21.25V19.5ZM27.25 19.5H28.75V28.5H27.25V19.5ZM30.25 21.75H31.75V26.25H30.25V21.75Z" fill="white"/>
<path d="M51.8894 19.2V29H50.1254L45.5334 23.05V29H43.4334V19.2H45.1974L49.7754 25.15V19.2H51.8894ZM60.9465 25.262C60.9465 25.29 60.9325 25.486 60.9045 25.85H55.5565C55.6498 26.3167 55.8738 26.6853 56.2285 26.956C56.5925 27.2267 57.0405 27.362 57.5725 27.362C57.9365 27.362 58.2631 27.306 58.5525 27.194C58.8418 27.0727 59.1078 26.886 59.3505 26.634L60.4425 27.894C59.7798 28.706 58.8091 29.112 57.5305 29.112C56.7278 29.112 56.0185 28.9487 55.4025 28.622C54.7958 28.286 54.3245 27.824 53.9885 27.236C53.6525 26.648 53.4845 25.9807 53.4845 25.234C53.4845 24.4967 53.6478 23.834 53.9745 23.246C54.3105 22.6487 54.7631 22.1867 55.3325 21.86C55.9111 21.524 56.5551 21.356 57.2645 21.356C57.9551 21.356 58.5805 21.5147 59.1405 21.832C59.7005 22.1493 60.1391 22.6067 60.4565 23.204C60.7831 23.792 60.9465 24.478 60.9465 25.262ZM57.2785 23.008C56.8118 23.008 56.4198 23.148 56.1025 23.428C55.7851 23.708 55.5938 24.0907 55.5285 24.576H59.0145C58.9398 24.1 58.7438 23.722 58.4265 23.442C58.1185 23.1527 57.7358 23.008 57.2785 23.008ZM73.6602 21.468L71.0982 29H69.1242L67.5282 24.324L65.8762 29H63.9022L61.3542 21.468H63.2862C63.2862 21.468 63.8416 23.1667 64.9522 26.564L66.7022 21.468H68.4382L70.1182 26.564L71.8402 21.468H73.6602Z" fill="white"/>
</g>
<defs>
<clipPath id="clip0_5331_7346">
<path d="M0 24C0 10.7452 10.7452 0 24 0H74C87.2548 0 98 10.7452 98 24C98 37.2548 87.2548 48 74 48H24C10.7452 48 0 37.2548 0 24Z" fill="white"/>
</clipPath>
</defs>
</svg>
