<svg width="48" height="48" viewBox="0 0 48 48" fill="none" xmlns="http://www.w3.org/2000/svg">
<g clip-path="url(#clip0_5501_1721)">
<path d="M0 24C0 10.7452 10.7452 0 24 0C37.2548 0 48 10.7452 48 24C48 37.2548 37.2548 48 24 48C10.7452 48 0 37.2548 0 24Z" fill="white"/>
<path fill-rule="evenodd" clip-rule="evenodd" d="M17 18.3301C17 17.2255 17.8954 16.3301 19 16.3301H21C22.1046 16.3301 23 17.2255 23 18.3301V30.3301C23 31.4346 22.1046 32.3301 21 32.3301H19C17.8954 32.3301 17 31.4346 17 30.3301V18.3301ZM19 18.3301H21V30.3301H19L19 18.3301Z" fill="#855EE1"/>
<path fill-rule="evenodd" clip-rule="evenodd" d="M25 18.3301C25 17.2255 25.8954 16.3301 27 16.3301H29C30.1046 16.3301 31 17.2255 31 18.3301V30.3301C31 31.4346 30.1046 32.3301 29 32.3301H27C25.8954 32.3301 25 31.4346 25 30.3301V18.3301ZM27 18.3301H29V30.3301H27V18.3301Z" fill="#855EE1"/>
</g>
<defs>
<clipPath id="clip0_5501_1721">
<path d="M0 24C0 10.7452 10.7452 0 24 0C37.2548 0 48 10.7452 48 24C48 37.2548 37.2548 48 24 48C10.7452 48 0 37.2548 0 24Z" fill="white"/>
</clipPath>
</defs>
</svg>
