<svg width="24" height="24" viewBox="0 0 24 24" fill="none" xmlns="http://www.w3.org/2000/svg">
<path d="M7 4.33008C5.89543 4.33008 5 5.22551 5 6.33008V18.3301C5 19.4346 5.89543 20.3301 7 20.3301H8C9.10457 20.3301 10 19.4346 10 18.3301V6.33008C10 5.22551 9.10457 4.33008 8 4.33008H7Z" fill="#161C27"/>
<path d="M16 4.33008C14.8954 4.33008 14 5.22551 14 6.33008V18.3301C14 19.4346 14.8954 20.3301 16 20.3301H17C18.1046 20.3301 19 19.4346 19 18.3301V6.33008C19 5.22551 18.1046 4.33008 17 4.33008H16Z" fill="#161C27"/>
</svg>
