<svg width="32" height="32" viewBox="0 0 32 32" fill="none" xmlns="http://www.w3.org/2000/svg">
<g clip-path="url(#clip0_5885_3032)">
<path d="M0 16C0 7.16344 7.16344 0 16 0C24.8366 0 32 7.16344 32 16C32 24.8366 24.8366 32 16 32C7.16344 32 0 24.8366 0 16Z" fill="white" fill-opacity="0.6"/>
<path fill-rule="evenodd" clip-rule="evenodd" d="M20.2425 10.8145L21.1854 11.7573L16.9425 15.9998L21.1854 20.2425L20.2425 21.1854L15.9998 16.9425L11.7573 21.1854L10.8145 20.2425L15.0571 15.9998L10.8145 11.7573L11.7573 10.8145L15.9998 15.0571L20.2425 10.8145Z" fill="#161C27"/>
</g>
<defs>
<clipPath id="clip0_5885_3032">
<path d="M0 16C0 7.16344 7.16344 0 16 0C24.8366 0 32 7.16344 32 16C32 24.8366 24.8366 32 16 32C7.16344 32 0 24.8366 0 16Z" fill="white"/>
</clipPath>
</defs>
</svg>
