<svg width="171" height="32" viewBox="0 0 171 32" fill="none" xmlns="http://www.w3.org/2000/svg">
<path d="M23.5007 6.32873L22.5489 8.54841L20.3292 9.50024L20.2766 9.52596C19.891 9.73947 19.9086 10.3185 20.3292 10.4988L22.5489 11.4506C22.5489 11.4506 23.0874 12.8225 23.5007 13.6703L23.5264 13.7229C23.74 14.1085 24.319 14.091 24.4993 13.6703L25.4507 11.4502L27.6708 10.4988L27.7234 10.4731C28.109 10.2596 28.0914 9.68053 27.6708 9.50024L25.4507 8.5488L24.4993 6.32873C24.3111 5.88977 23.6889 5.88977 23.5007 6.32873Z" fill="#5C8DFF"/>
<path d="M27 20.9995V13.9999C26.4186 14.4366 25.7389 14.7495 25 14.8995V20.9995C25 22.1041 24.1046 22.9995 23 22.9995H13C11.8954 22.9995 11 22.1041 11 20.9995V10.9995C11 9.89494 11.8954 8.99951 13 8.99951H19.1C19.25 8.26063 19.5629 7.58092 19.9996 6.99951H13C10.7909 6.99951 9 8.79037 9 10.9995V20.9995C9 23.2087 10.7909 24.9995 13 24.9995H23C25.2091 24.9995 27 23.2087 27 20.9995Z" fill="#5C8DFF"/>
<path d="M19.9996 12.9995C19.5629 12.4181 19.25 11.7384 19.1 10.9995H13V12.9995H19.9996Z" fill="#5C8DFF"/>
<path d="M23 16.9995H13V14.9995H23V16.9995Z" fill="#5C8DFF"/>
<path d="M23 20.9995H13V18.9995H23V20.9995Z" fill="#5C8DFF"/>
<path d="M44.452 11.2C45.2547 11.2 45.95 11.34 46.538 11.62C47.1353 11.9 47.588 12.3013 47.896 12.824C48.2133 13.3467 48.372 13.9673 48.372 14.686C48.372 15.3953 48.2133 16.016 47.896 16.548C47.588 17.0707 47.1353 17.472 46.538 17.752C45.95 18.032 45.2547 18.172 44.452 18.172H43.248V21H41.54V11.2H44.452ZM44.382 16.632C45.1287 16.632 45.6933 16.464 46.076 16.128C46.4587 15.792 46.65 15.3113 46.65 14.686C46.65 14.0607 46.4587 13.58 46.076 13.244C45.6933 12.908 45.1287 12.74 44.382 12.74H43.248V16.632H44.382ZM52.6297 13.44C53.6657 13.44 54.4543 13.706 54.9957 14.238C55.5463 14.7607 55.8217 15.554 55.8217 16.618V21H54.2677V20.09C54.0623 20.4167 53.773 20.6687 53.3997 20.846C53.0357 21.014 52.5877 21.098 52.0557 21.098C51.533 21.098 51.071 21.0047 50.6697 20.818C50.2777 20.622 49.9743 20.356 49.7597 20.02C49.545 19.6747 49.4377 19.2873 49.4377 18.858C49.4377 18.186 49.671 17.6493 50.1377 17.248C50.6137 16.8373 51.3557 16.632 52.3637 16.632H54.1837V16.52C54.1837 15.9973 54.0343 15.596 53.7357 15.316C53.4463 15.036 53.0123 14.896 52.4337 14.896C52.0417 14.896 51.6543 14.9613 51.2717 15.092C50.889 15.2227 50.5623 15.4047 50.2917 15.638L49.6477 14.364C50.0117 14.0653 50.455 13.8367 50.9777 13.678C51.5003 13.5193 52.051 13.44 52.6297 13.44ZM52.4057 19.824C52.8163 19.824 53.1803 19.726 53.4977 19.53C53.8243 19.3247 54.053 19.0353 54.1837 18.662V17.794H52.4757C51.533 17.794 51.0617 18.1207 51.0617 18.774C51.0617 18.774 51.0617 18.7787 51.0617 18.788C51.0617 19.1053 51.1783 19.3573 51.4117 19.544C51.6543 19.7307 51.9857 19.824 52.4057 19.824ZM64.4693 13.524L61.1793 21.602C60.8713 22.414 60.498 22.9833 60.0593 23.31C59.6207 23.646 59.0887 23.814 58.4633 23.814C58.1087 23.814 57.7633 23.7533 57.4273 23.632C57.0913 23.5107 56.8113 23.3427 56.5873 23.128L57.2453 21.84C57.404 21.9987 57.5907 22.1247 57.8053 22.218C58.02 22.3113 58.2393 22.358 58.4633 22.358C58.7527 22.358 58.9907 22.2787 59.1773 22.12C59.364 21.9613 59.5367 21.6953 59.6953 21.322L59.8073 21.028L56.7413 13.524C56.7507 13.524 57.3247 13.524 58.4633 13.524L60.6613 19.054L62.8873 13.524H64.4693ZM65.6609 13.524H67.4109V21H65.6609V13.524ZM66.5429 12.292C66.2442 12.292 65.9922 12.194 65.7869 11.998C65.5909 11.7927 65.4929 11.5407 65.4929 11.242C65.4929 10.9433 65.5909 10.696 65.7869 10.5C65.9922 10.2947 66.2442 10.192 66.5429 10.192C66.8416 10.192 67.0889 10.29 67.2849 10.486C67.4902 10.6727 67.5929 10.9107 67.5929 11.2C67.5929 11.508 67.4949 11.7693 67.2989 11.984C67.1029 12.1893 66.8509 12.292 66.5429 12.292ZM73.7278 13.44C74.6144 13.44 75.3238 13.7153 75.8558 14.266C76.3971 14.8167 76.6678 15.6333 76.6678 16.716V21H75.0158V16.94C75.0158 16.2867 74.8711 15.7967 74.5818 15.47C74.2924 15.134 73.8818 14.966 73.3498 14.966C72.7431 14.966 72.2624 15.162 71.9078 15.554C71.5624 15.9367 71.3898 16.492 71.3898 17.22V21H69.7378V13.524H71.3058V14.49C71.5764 14.1447 71.9171 13.8833 72.3278 13.706C72.7384 13.5287 73.2051 13.44 73.7278 13.44ZM85.6418 13.524V19.866C85.6418 22.498 84.3818 23.814 81.8618 23.814C81.1898 23.814 80.5458 23.7207 79.9298 23.534C79.3231 23.3567 78.8238 23.0953 78.4318 22.75L79.1738 21.434C79.4818 21.7047 79.8691 21.9193 80.3358 22.078C80.8025 22.246 81.2785 22.33 81.7638 22.33C82.5385 22.33 83.1031 22.1433 83.4578 21.77C83.8218 21.3967 84.0038 20.8273 84.0038 20.062V19.67C83.7238 19.9967 83.3785 20.244 82.9678 20.412C82.5665 20.58 82.1278 20.664 81.6518 20.664C80.9891 20.664 80.3825 20.5147 79.8318 20.216C79.2905 19.908 78.8658 19.4787 78.5578 18.928C78.2498 18.3773 78.0958 17.7473 78.0958 17.038C78.0958 16.3287 78.2498 15.7033 78.5578 15.162C78.8658 14.6113 79.2905 14.1867 79.8318 13.888C80.3731 13.5893 80.9798 13.44 81.6518 13.44C82.1651 13.44 82.6271 13.5287 83.0378 13.706C83.4485 13.8833 83.7938 14.154 84.0738 14.518V13.524H85.6418ZM81.8898 19.18C82.5151 19.18 83.0285 18.984 83.4298 18.592C83.8311 18.1907 84.0318 17.6727 84.0318 17.038C84.0318 16.4127 83.8311 15.904 83.4298 15.512C83.0285 15.12 82.5151 14.924 81.8898 14.924C81.2551 14.924 80.7371 15.12 80.3358 15.512C79.9438 15.904 79.7478 16.4127 79.7478 17.038C79.7478 17.6727 79.9485 18.1907 80.3498 18.592C80.7511 18.984 81.2645 19.18 81.8898 19.18ZM94.5598 13.44C95.5958 13.44 96.3844 13.706 96.9258 14.238C97.4764 14.7607 97.7518 15.554 97.7518 16.618V21H96.1978V20.09C95.9924 20.4167 95.7031 20.6687 95.3298 20.846C94.9658 21.014 94.5178 21.098 93.9858 21.098C93.4631 21.098 93.0011 21.0047 92.5998 20.818C92.2078 20.622 91.9044 20.356 91.6898 20.02C91.4751 19.6747 91.3678 19.2873 91.3678 18.858C91.3678 18.186 91.6011 17.6493 92.0678 17.248C92.5438 16.8373 93.2858 16.632 94.2938 16.632H96.1138V16.52C96.1138 15.9973 95.9644 15.596 95.6658 15.316C95.3764 15.036 94.9424 14.896 94.3638 14.896C93.9718 14.896 93.5844 14.9613 93.2018 15.092C92.8191 15.2227 92.4924 15.4047 92.2218 15.638L91.5778 14.364C91.9418 14.0653 92.3851 13.8367 92.9078 13.678C93.4304 13.5193 93.9811 13.44 94.5598 13.44ZM94.3358 19.824C94.7464 19.824 95.1104 19.726 95.4278 19.53C95.7544 19.3247 95.9831 19.0353 96.1138 18.662V17.794H94.4058C93.4631 17.794 92.9918 18.1207 92.9918 18.774C92.9918 18.774 92.9918 18.7787 92.9918 18.788C92.9918 19.1053 93.1084 19.3573 93.3418 19.544C93.5844 19.7307 93.9158 19.824 94.3358 19.824ZM104.184 20.594C103.988 20.762 103.75 20.888 103.47 20.972C103.199 21.056 102.91 21.098 102.602 21.098C101.827 21.098 101.23 20.8833 100.81 20.454C100.39 20.0247 100.18 19.3993 100.18 18.578V14.98H99.0181V13.58H100.18V11.872H101.832V13.58H103.708V14.98H101.832V18.536C101.832 18.9 101.911 19.18 102.07 19.376C102.238 19.5627 102.481 19.656 102.798 19.656C103.162 19.656 103.47 19.5533 103.722 19.348L104.184 20.594ZM109.685 20.594C109.489 20.762 109.251 20.888 108.971 20.972C108.7 21.056 108.411 21.098 108.103 21.098C107.328 21.098 106.731 20.8833 106.311 20.454C105.891 20.0247 105.681 19.3993 105.681 18.578V14.98H104.519V13.58H105.681V11.872H107.333V13.58H109.209V14.98H107.333V18.536C107.333 18.9 107.412 19.18 107.571 19.376C107.739 19.5627 107.981 19.656 108.299 19.656C108.663 19.656 108.971 19.5533 109.223 19.348L109.685 20.594ZM117.497 17.304C117.497 17.4253 117.487 17.598 117.469 17.822H111.953C112.046 18.3727 112.298 18.8113 112.709 19.138C113.119 19.4553 113.628 19.614 114.235 19.614C115.009 19.614 115.644 19.3433 116.139 18.802L117.021 19.88C116.703 20.2813 116.302 20.5847 115.817 20.79C115.341 20.9953 114.799 21.098 114.193 21.098C113.418 21.098 112.737 20.9347 112.149 20.608C111.561 20.2813 111.108 19.8287 110.791 19.25C110.473 18.662 110.315 17.9993 110.315 17.262C110.315 16.534 110.469 15.8807 110.777 15.302C111.085 14.714 111.514 14.2567 112.065 13.93C112.625 13.6033 113.25 13.44 113.941 13.44C114.622 13.44 115.233 13.6033 115.775 13.93C116.316 14.2473 116.736 14.7 117.035 15.288C117.343 15.8667 117.497 16.5387 117.497 17.304ZM113.941 14.84C113.418 14.84 112.975 15.008 112.611 15.344C112.247 15.6707 112.023 16.1093 111.939 16.66H115.929C115.854 16.1187 115.635 15.68 115.271 15.344C114.916 15.008 114.473 14.84 113.941 14.84ZM123.154 13.44C124.041 13.44 124.75 13.7153 125.282 14.266C125.824 14.8167 126.094 15.6333 126.094 16.716V21H124.442V16.94C124.442 16.2867 124.298 15.7967 124.008 15.47C123.719 15.134 123.308 14.966 122.776 14.966C122.17 14.966 121.689 15.162 121.334 15.554C120.989 15.9367 120.816 16.492 120.816 17.22V21H119.164V13.524H120.732V14.49C121.003 14.1447 121.344 13.8833 121.754 13.706C122.165 13.5287 122.632 13.44 123.154 13.44ZM132.488 20.594C132.292 20.762 132.054 20.888 131.774 20.972C131.504 21.056 131.214 21.098 130.906 21.098C130.132 21.098 129.534 20.8833 129.114 20.454C128.694 20.0247 128.484 19.3993 128.484 18.578V14.98H127.322V13.58H128.484V11.872H130.136V13.58H132.012V14.98H130.136V18.536C130.136 18.9 130.216 19.18 130.374 19.376C130.542 19.5627 130.785 19.656 131.102 19.656C131.466 19.656 131.774 19.5533 132.026 19.348L132.488 20.594ZM134.009 13.524H135.759V21H134.009V13.524ZM134.891 12.292C134.592 12.292 134.34 12.194 134.135 11.998C133.939 11.7927 133.841 11.5407 133.841 11.242C133.841 10.9433 133.939 10.696 134.135 10.5C134.34 10.2947 134.592 10.192 134.891 10.192C135.189 10.192 135.437 10.29 135.633 10.486C135.838 10.6727 135.941 10.9107 135.941 11.2C135.941 11.508 135.843 11.7693 135.647 11.984C135.451 12.1893 135.199 12.292 134.891 12.292ZM141.085 21.098C140.376 21.098 139.732 20.9347 139.153 20.608C138.584 20.2813 138.141 19.8287 137.823 19.25C137.506 18.662 137.347 17.9993 137.347 17.262C137.347 16.5247 137.506 15.8667 137.823 15.288C138.141 14.7093 138.584 14.2567 139.153 13.93C139.732 13.6033 140.376 13.44 141.085 13.44C141.804 13.44 142.448 13.6033 143.017 13.93C143.587 14.2567 144.03 14.7093 144.347 15.288C144.674 15.8667 144.837 16.5247 144.837 17.262C144.837 17.9993 144.674 18.662 144.347 19.25C144.03 19.8287 143.587 20.2813 143.017 20.608C142.448 20.9347 141.804 21.098 141.085 21.098ZM141.085 19.6C141.692 19.6 142.191 19.3853 142.583 18.956C142.975 18.5267 143.171 17.962 143.171 17.262C143.171 16.562 142.975 15.9973 142.583 15.568C142.191 15.1387 141.692 14.924 141.085 14.924C140.479 14.924 139.979 15.1387 139.587 15.568C139.195 15.9973 138.999 16.562 138.999 17.262C138.999 17.962 139.195 18.5267 139.587 18.956C139.979 19.3853 140.479 19.6 141.085 19.6ZM150.338 13.44C151.224 13.44 151.934 13.7153 152.466 14.266C153.007 14.8167 153.278 15.6333 153.278 16.716V21H151.626V16.94C151.626 16.2867 151.481 15.7967 151.192 15.47C150.902 15.134 150.492 14.966 149.96 14.966C149.353 14.966 148.872 15.162 148.518 15.554C148.172 15.9367 148 16.492 148 17.22V21H146.348V13.524H147.916V14.49C148.186 14.1447 148.527 13.8833 148.938 13.706C149.348 13.5287 149.815 13.44 150.338 13.44ZM156.074 21.098C155.756 21.098 155.486 20.9907 155.262 20.776C155.038 20.552 154.926 20.272 154.926 19.936C154.926 19.5907 155.033 19.3107 155.248 19.096C155.472 18.8813 155.747 18.774 156.074 18.774C156.4 18.774 156.671 18.8813 156.886 19.096C157.11 19.3107 157.222 19.5907 157.222 19.936C157.222 20.272 157.11 20.552 156.886 20.776C156.662 20.9907 156.391 21.098 156.074 21.098ZM159.592 21.098C159.274 21.098 159.004 20.9907 158.78 20.776C158.556 20.552 158.444 20.272 158.444 19.936C158.444 19.5907 158.551 19.3107 158.766 19.096C158.99 18.8813 159.265 18.774 159.592 18.774C159.918 18.774 160.189 18.8813 160.404 19.096C160.628 19.3107 160.74 19.5907 160.74 19.936C160.74 20.272 160.628 20.552 160.404 20.776C160.18 20.9907 159.909 21.098 159.592 21.098ZM163.11 21.098C162.792 21.098 162.522 20.9907 162.298 20.776C162.074 20.552 161.962 20.272 161.962 19.936C161.962 19.5907 162.069 19.3107 162.284 19.096C162.508 18.8813 162.783 18.774 163.11 18.774C163.436 18.774 163.707 18.8813 163.922 19.096C164.146 19.3107 164.258 19.5907 164.258 19.936C164.258 20.272 164.146 20.552 163.922 20.776C163.698 20.9907 163.427 21.098 163.11 21.098Z" fill="url(#paint0_radial_5501_1638)"/>
<defs>
<radialGradient id="paint0_radial_5501_1638" cx="0" cy="0" r="1" gradientUnits="userSpaceOnUse" gradientTransform="translate(102.5 16) rotate(90) scale(10 62.5)">
<stop stop-color="#5C8DFF"/>
<stop offset="1" stop-color="#855EE1"/>
</radialGradient>
</defs>
</svg>
