<svg width="48" height="48" viewBox="0 0 48 48" fill="none" xmlns="http://www.w3.org/2000/svg">
<g clip-path="url(#clip0_5501_5142)">
<path d="M0 24C0 10.7452 10.7452 0 24 0C37.2548 0 48 10.7452 48 24C48 37.2548 37.2548 48 24 48C10.7452 48 0 37.2548 0 24Z" fill="white"/>
<path fill-rule="evenodd" clip-rule="evenodd" d="M31.8277 25.0289C31.6588 25.3104 31.4232 25.546 31.1417 25.7149L20.029 32.3825C19.0818 32.9508 17.8533 32.6437 17.285 31.6965C17.0985 31.3857 17 31.03 17 30.6675V17.3323C17 16.2277 17.8954 15.3323 19 15.3323C19.3625 15.3323 19.7182 15.4308 20.029 15.6173L31.1417 22.2849C32.0889 22.8532 32.396 24.0817 31.8277 25.0289ZM30.112 23.9989L19 17.3323V30.6675L30.112 23.9989Z" fill="#855EE1"/>
</g>
<defs>
<clipPath id="clip0_5501_5142">
<path d="M0 24C0 10.7452 10.7452 0 24 0C37.2548 0 48 10.7452 48 24C48 37.2548 37.2548 48 24 48C10.7452 48 0 37.2548 0 24Z" fill="white"/>
</clipPath>
</defs>
</svg>
