<svg width="18" height="18" viewBox="0 0 18 18" fill="none" xmlns="http://www.w3.org/2000/svg">
<path d="M4.5 5.25C4.5 4.83579 4.83579 4.5 5.25 4.5H8.25V6H6V8.25H4.5V5.25Z" fill="#161C27"/>
<path d="M12.75 13.5C13.1642 13.5 13.5 13.1642 13.5 12.75V9.75H12V12H9.75V13.5H12.75Z" fill="#161C27"/>
<path fill-rule="evenodd" clip-rule="evenodd" d="M5.25 2.25C3.59315 2.25 2.25 3.59315 2.25 5.25V12.75C2.25 14.4069 3.59315 15.75 5.25 15.75H12.75C14.4069 15.75 15.75 14.4069 15.75 12.75V5.25C15.75 3.59315 14.4069 2.25 12.75 2.25H5.25ZM12.75 3.75H5.25C4.42157 3.75 3.75 4.42157 3.75 5.25V12.75C3.75 13.5784 4.42157 14.25 5.25 14.25H12.75C13.5784 14.25 14.25 13.5784 14.25 12.75V5.25C14.25 4.42157 13.5784 3.75 12.75 3.75Z" fill="#161C27"/>
</svg>
