<svg width="18" height="18" viewBox="0 0 18 18" fill="none" xmlns="http://www.w3.org/2000/svg">
<path fill-rule="evenodd" clip-rule="evenodd" d="M12.75 6H5.25C4.42157 6 3.75 6.67157 3.75 7.5V10.5C3.75 11.3284 4.42157 12 5.25 12H12.75C13.5784 12 14.25 11.3284 14.25 10.5V7.5C14.25 6.67157 13.5784 6 12.75 6ZM5.25 4.5C3.59315 4.5 2.25 5.84315 2.25 7.5V10.5C2.25 12.1569 3.59315 13.5 5.25 13.5H12.75C14.4069 13.5 15.75 12.1569 15.75 10.5V7.5C15.75 5.84315 14.4069 4.5 12.75 4.5H5.25ZM4.5 7.5C4.5 7.08579 4.83579 6.75 5.25 6.75H8.25V8.25H6V10.5H4.5V7.5ZM12.75 11.25C13.1642 11.25 13.5 10.9142 13.5 10.5V7.5L12 7.5V9.75L9.75 9.75V11.25H12.75Z" fill="#161C27"/>
</svg>
