<svg width="18" height="18" viewBox="0 0 18 18" fill="none" xmlns="http://www.w3.org/2000/svg">
<path fill-rule="evenodd" clip-rule="evenodd" d="M12 3.74973H6.75C5.92157 3.74973 5.25 4.4213 5.25 5.24973V12.7497C5.25 13.5782 5.92157 14.2497 6.75 14.2497H12C12.8284 14.2497 13.5 13.5782 13.5 12.7497V5.24973C13.5 4.4213 12.8284 3.74973 12 3.74973ZM6.75 2.24973C5.09315 2.24973 3.75 3.59287 3.75 5.24973V12.7497C3.75 14.4066 5.09315 15.7497 6.75 15.7497H12C13.6569 15.7497 15 14.4066 15 12.7497V5.24973C15 3.59287 13.6569 2.24973 12 2.24973H6.75ZM6 5.25C6 4.83579 6.33579 4.5 6.75 4.5H12V6H7.5V8.25H6V5.25ZM12 13.5C12.4142 13.5 12.75 13.1642 12.75 12.75V9.75H11.25V12H6.75L6.75 13.5H12Z" fill="#161C27"/>
</svg>
