<svg width="18" height="18" viewBox="0 0 18 18" fill="none" xmlns="http://www.w3.org/2000/svg">
<path fill-rule="evenodd" clip-rule="evenodd" d="M14.25 11.25V6C14.25 5.17157 13.5784 4.5 12.75 4.5H5.25C4.42157 4.5 3.75 5.17157 3.75 6V11.25C3.75 12.0784 4.42157 12.75 5.25 12.75H12.75C13.5784 12.75 14.25 12.0784 14.25 11.25ZM15.75 6C15.75 4.34315 14.4069 3 12.75 3H5.25C3.59315 3 2.25 4.34315 2.25 6V11.25C2.25 12.9069 3.59315 14.25 5.25 14.25H12.75C14.4069 14.25 15.75 12.9069 15.75 11.25V6ZM12.7497 5.25C13.1639 5.25 13.4997 5.58579 13.4997 6V11.25H11.9997V6.75H9.74973V5.25H12.7497ZM4.49973 11.25C4.49973 11.6642 4.83551 12 5.24973 12H8.24973V10.5H5.99973V6L4.49973 6V11.25Z" fill="#161C27"/>
</svg>
