<svg width="18" height="18" viewBox="0 0 18 18" fill="none" xmlns="http://www.w3.org/2000/svg">
<path fill-rule="evenodd" clip-rule="evenodd" d="M10.5 3.74973H7.5C6.67157 3.74973 6 4.4213 6 5.24973V12.7497C6 13.5782 6.67157 14.2497 7.5 14.2497H10.5C11.3284 14.2497 12 13.5782 12 12.7497V5.24973C12 4.4213 11.3284 3.74973 10.5 3.74973ZM7.5 2.24973C5.84315 2.24973 4.5 3.59287 4.5 5.24973V12.7497C4.5 14.4066 5.84315 15.7497 7.5 15.7497H10.5C12.1569 15.7497 13.5 14.4066 13.5 12.7497V5.24973C13.5 3.59287 12.1569 2.24973 10.5 2.24973H7.5ZM6.75 5.25C6.75 4.83579 7.08579 4.5 7.5 4.5H10.5V6H8.25V8.25H6.75V5.25ZM10.5 13.5C10.9142 13.5 11.25 13.1642 11.25 12.75V9.75H9.75L9.75 12H7.5L7.5 13.5H10.5Z" fill="#161C27"/>
</svg>
