<svg width="48" height="48" viewBox="0 0 48 48" fill="none" xmlns="http://www.w3.org/2000/svg">
<path d="M17.6888 28.85C16.9296 28.85 16.2917 28.5879 15.775 28.0637C15.2583 27.5395 15 26.8979 15 26.1388C15 25.3796 15.2621 24.7417 15.7863 24.225C16.3105 23.7083 16.9521 23.45 17.7113 23.45C18.4704 23.45 19.1083 23.7121 19.625 24.2362C20.1417 24.7605 20.4 25.4021 20.4 26.1613C20.4 26.9204 20.1379 27.5583 19.6137 28.075C19.0895 28.5917 18.4479 28.85 17.6888 28.85ZM30.3388 28.85C29.5796 28.85 28.9417 28.5879 28.425 28.0637C27.9083 27.5395 27.65 26.8979 27.65 26.1388C27.65 25.3796 27.9121 24.7417 28.4362 24.225C28.9604 23.7083 29.6021 23.45 30.3612 23.45C31.1204 23.45 31.7583 23.7121 32.275 24.2362C32.7917 24.7605 33.05 25.4021 33.05 26.1613C33.05 26.9204 32.7879 27.5583 32.2638 28.075C31.7396 28.5917 31.0979 28.85 30.3388 28.85ZM24 41C28.7458 41 32.7656 39.3509 36.0594 36.0526C39.3531 32.7544 41 28.7291 41 23.9768C41 23.1256 40.9333 22.2833 40.8 21.45C40.6667 20.6167 40.5 19.85 40.3 19.15C39.6333 19.3167 38.9123 19.4333 38.1369 19.5C37.3615 19.5667 36.5492 19.6 35.7 19.6C32.4628 19.6 29.4035 18.9333 26.5222 17.6C23.6407 16.2667 21.1833 14.3667 19.15 11.9C18.0167 14.6 16.3917 16.9583 14.275 18.975C12.1583 20.9917 9.73333 22.55 7 23.65V24C7 28.7458 8.64687 32.7656 11.9406 36.0594C15.2344 39.3531 19.2542 41 24 41ZM24 44C21.2333 44 18.6333 43.475 16.2 42.425C13.7667 41.375 11.65 39.95 9.85 38.15C8.05 36.35 6.625 34.2333 5.575 31.8C4.525 29.3667 4 26.7667 4 24C4 21.2333 4.525 18.6333 5.575 16.2C6.625 13.7667 8.05 11.65 9.85 9.85C11.65 8.05 13.7667 6.625 16.2 5.575C18.6333 4.525 21.2333 4 24 4C26.7667 4 29.3667 4.525 31.8 5.575C34.2333 6.625 36.35 8.05 38.15 9.85C39.95 11.65 41.375 13.7667 42.425 16.2C43.475 18.6333 44 21.2333 44 24C44 26.7667 43.475 29.3667 42.425 31.8C41.375 34.2333 39.95 36.35 38.15 38.15C36.35 39.95 34.2333 41.375 31.8 42.425C29.3667 43.475 26.7667 44 24 44ZM19.4 7.65C22.3333 11.0833 25.0417 13.4333 27.525 14.7C30.0083 15.9667 32.7333 16.6 35.7 16.6C36.5 16.6 37.1333 16.5833 37.6 16.55C38.0667 16.5167 38.5833 16.4167 39.15 16.25C37.65 13.55 35.6083 11.3333 33.025 9.6C30.4417 7.86667 27.4333 7 24 7C23.1 7 22.25 7.06667 21.45 7.2C20.65 7.33333 19.9667 7.48333 19.4 7.65ZM7.45 20.1C9.05 19.5 10.875 18.1417 12.925 16.025C14.975 13.9083 16.4333 11.35 17.3 8.35C14.4 9.65 12.2083 11.3083 10.725 13.325C9.24167 15.3417 8.15 17.6 7.45 20.1Z" fill="#FBF9F7"/>
</svg>
