<svg width="16" height="16" viewBox="0 0 16 16" fill="none" xmlns="http://www.w3.org/2000/svg">
<path d="M6.32741 13.8413C6.06686 14.0901 6.04926 14.5118 6.2881 14.7832C6.52694 15.0546 6.93179 15.073 7.19234 14.8242L9.78712 12.3465C10.2812 11.8747 10.6618 11.2991 10.9092 10.6661H13.1599C13.8668 10.6661 14.4399 10.0691 14.4399 9.33273V3.33273C14.4399 2.59635 13.8668 1.99939 13.1599 1.99939L11.5599 1.99939V3.33273L13.1599 3.33273V9.33273H11.2212C11.2336 9.19162 11.2399 9.04939 11.2399 8.90645V5.33272C11.2399 3.49177 9.80719 1.99939 8.03988 1.99939L4.7465 1.99939C3.77685 1.99939 2.89041 2.57006 2.45677 3.47349L1.60798 5.2418C1.20807 6.07494 0.999878 6.99361 0.999878 7.92509L0.999878 7.99939C0.999878 9.47215 2.14603 10.6661 3.55988 10.6661H8.03988V9.33272H3.55988C2.85295 9.33272 2.27988 8.73577 2.27988 7.99939V7.92509C2.27988 7.20061 2.44181 6.48608 2.75284 5.83809L3.60164 4.06977C3.81846 3.61806 4.26168 3.33272 4.7465 3.33272L8.03988 3.33272C9.10027 3.33272 9.95988 4.22815 9.95988 5.33272V8.90645C9.95988 9.8408 9.58341 10.7323 8.9222 11.3636L6.32741 13.8413Z" fill="#161C27"/>
</svg>
