<svg width="16" height="16" viewBox="0 0 16 16" fill="none" xmlns="http://www.w3.org/2000/svg">
<path d="M8.84375 14.5L8.6875 14.3594L5.29688 11H3V3H11.4219C12.127 3 12.7422 3.49805 12.8906 4.1875L13.9688 9.1875C14.166 10.1113 13.4434 11 12.5 11H9.625L9.71875 11.375C9.82031 11.4531 9.88477 11.4863 10.0312 11.6875C10.2656 12.0078 10.5 12.5039 10.5 13.1719C10.5 13.8848 9.85547 14.5 9.04688 14.5H8.84375ZM9.20312 13.4531C9.41406 13.4121 9.5 13.3262 9.5 13.1719C9.5 12.7207 9.36328 12.4414 9.23438 12.2656C9.10547 12.0898 9.01562 12.0469 9.01562 12.0469L8.84375 11.9531L8.78125 11.75L8.48438 10.625L8.32812 10H12.5C12.8301 10 13.0527 9.71289 12.9844 9.39062L11.9219 4.39062C11.8711 4.15625 11.6602 4 11.4219 4H6V10.2969L9.20312 13.4531ZM4 10H5V4H4V10Z" fill="#1857EB"/>
</svg>
