<svg width="16" height="16" viewBox="0 0 16 16" fill="none" xmlns="http://www.w3.org/2000/svg">
<path d="M10.9708 13.2795C10.9708 13.2145 10.9604 13.1508 10.9404 13.0886C10.9105 12.9955 10.8968 12.8899 10.9075 12.7937C10.9182 12.6973 10.9531 12.6128 11.0176 12.5578C12.0592 11.6697 12.7224 10.3309 12.7224 8.83357C12.7224 6.932 11.6529 5.28617 10.0967 4.49435C9.95474 4.4221 9.85622 4.26109 9.85622 4.07794C9.85622 3.88436 9.96642 3.71755 10.1195 3.64845C10.3803 3.53077 10.5925 3.39084 10.7399 3.23466C10.8874 3.07835 10.9708 2.90461 10.9708 2.72043C10.9708 2.53316 10.8845 2.3567 10.7324 2.19835C10.5803 2.04012 10.3615 1.89877 10.0931 1.78061C9.55613 1.54426 8.8161 1.39871 8.00006 1.39871C7.18401 1.39871 6.44398 1.54426 5.90703 1.78061C5.63859 1.89877 5.41979 2.04012 5.26776 2.19835C5.1156 2.3567 5.02928 2.53316 5.02928 2.72043C5.02928 2.90461 5.11276 3.07835 5.26025 3.23466C5.40762 3.39084 5.61984 3.53077 5.88059 3.64845C6.03369 3.71755 6.1439 3.88436 6.1439 4.07794C6.1439 4.26109 6.04537 4.4221 5.90337 4.49435C4.34722 5.28617 3.27773 6.932 3.27773 8.83357C3.27773 10.2681 3.88648 11.5572 4.85359 12.4438C4.94087 12.5238 4.98579 12.6428 5.00823 12.7804C5.03066 12.9178 5.03008 13.0697 5.02947 13.2126L5.02928 13.2795C5.02928 13.4667 5.1156 13.6432 5.26776 13.8016C5.41979 13.9598 5.63859 14.1011 5.90703 14.2193C6.44398 14.4557 7.18401 14.6012 8.00006 14.6012C8.8161 14.6012 9.55613 14.4557 10.0931 14.2193C10.3615 14.1011 10.5803 13.9598 10.7324 13.8016C10.8845 13.6432 10.9708 13.4667 10.9708 13.2795ZM10.1109 12.7051C10.0896 12.8965 10.1099 13.0838 10.1525 13.2482C10.0948 13.3074 9.97555 13.3952 9.77014 13.4857C9.35692 13.6676 8.73171 13.7996 8.00006 13.7996C7.2684 13.7996 6.64319 13.6676 6.22997 13.4857C6.02227 13.3942 5.90269 13.3054 5.84575 13.2462C5.83976 13.24 5.83493 13.2346 5.83107 13.23L5.83109 13.2264L5.83109 13.2259C5.8319 13.0994 5.83321 12.8955 5.80742 12.7054C5.77809 12.4892 5.69641 12.129 5.39525 11.8529C4.58941 11.1142 4.07931 10.0376 4.07931 8.83357C4.07931 7.2374 4.9761 5.86555 6.26688 5.20876C6.69889 4.98894 6.94547 4.5381 6.94547 4.07794C6.94547 3.5872 6.66665 3.1238 6.21034 2.91784C6.04904 2.84505 5.9438 2.7747 5.88107 2.72044C5.94681 2.66358 6.05835 2.5898 6.22997 2.51425C6.64319 2.33236 7.2684 2.20028 8.00006 2.20028C8.73171 2.20028 9.35692 2.33236 9.77014 2.51425C9.94176 2.5898 10.0533 2.66358 10.119 2.72044C10.0563 2.7747 9.95107 2.84505 9.78978 2.91784C9.33346 3.1238 9.05464 3.5872 9.05464 4.07794C9.05464 4.5381 9.30122 4.98894 9.73323 5.20876C11.024 5.86555 11.9208 7.2374 11.9208 8.83357C11.9208 10.0902 11.3651 11.2081 10.4976 11.9478C10.2269 12.1785 10.1354 12.4841 10.1109 12.7051Z" fill="#1857EB" stroke="#1857EB" stroke-width="0.05"/>
<path fill-rule="evenodd" clip-rule="evenodd" d="M13.0425 6.55932C12.9572 6.38891 12.8613 6.22535 12.7552 6.06989C12.6393 5.89993 12.6704 5.64749 12.8247 5.50605C12.979 5.36462 13.1981 5.38774 13.314 5.55769C13.4393 5.74123 13.5525 5.93434 13.6532 6.13553C13.7471 6.32314 13.6865 6.57009 13.5179 6.68712C13.3493 6.80414 13.1364 6.74693 13.0425 6.55932ZM13.683 7.16214C13.8707 7.09993 14.0593 7.22151 14.1044 7.43369C14.1527 7.66119 14.1874 7.89375 14.2081 8.12988C14.2288 8.36622 14.2353 8.6039 14.2277 8.8413C14.2206 9.06239 14.0585 9.24393 13.8656 9.24678C13.6727 9.24964 13.5221 9.07272 13.5291 8.85162C13.5356 8.65045 13.5301 8.44905 13.5126 8.24879C13.4951 8.04871 13.4656 7.85169 13.4247 7.65897C13.3797 7.44679 13.4953 7.22435 13.683 7.16214ZM13.7872 9.76503C13.9711 9.82164 14.0727 10.0408 14.0141 10.2545C13.9512 10.4839 13.8748 10.7097 13.7851 10.9304C13.6954 11.1512 13.5932 11.3648 13.4795 11.5698C13.3738 11.7605 13.1571 11.8245 12.9957 11.7127C12.8342 11.6008 12.789 11.3555 12.8948 11.1648C12.9912 10.9909 13.0779 10.8098 13.154 10.6225C13.23 10.4354 13.2948 10.244 13.3481 10.0495C13.4067 9.83579 13.6033 9.70842 13.7872 9.76503ZM12.6956 12.1247C12.8229 12.2835 12.8084 12.537 12.6632 12.6908C12.5073 12.8561 12.3418 13.0102 12.1676 13.152C12.0066 13.2829 11.7898 13.2447 11.6833 13.0666C11.5768 12.8884 11.621 12.6378 11.782 12.5069C11.9297 12.3866 12.0702 12.2559 12.2024 12.1157C12.3476 11.9618 12.5684 11.9659 12.6956 12.1247Z" fill="#1857EB"/>
<path fill-rule="evenodd" clip-rule="evenodd" d="M2.95748 6.80212C3.04278 6.63171 3.13869 6.46815 3.24475 6.31268C3.36071 6.14273 3.32962 5.89029 3.17532 5.74885C3.02101 5.60741 2.80192 5.63053 2.68597 5.80049C2.56075 5.98403 2.44752 6.17714 2.34681 6.37833C2.2529 6.56594 2.31348 6.81289 2.48211 6.92991C2.65074 7.04694 2.86358 6.98972 2.95748 6.80212ZM2.31703 7.40494C2.12934 7.34273 1.94067 7.46431 1.89562 7.67649C1.84732 7.90399 1.81257 8.13655 1.79188 8.37267C1.77117 8.60902 1.76474 8.8467 1.77235 9.08409C1.77943 9.30519 1.94154 9.48673 2.13443 9.48958C2.32732 9.49243 2.47794 9.31551 2.47085 9.09442C2.46441 8.89325 2.46985 8.69185 2.4874 8.49159C2.50494 8.29151 2.53438 8.09448 2.5753 7.90176C2.62035 7.68958 2.50472 7.46715 2.31703 7.40494ZM2.2128 10.0078C2.0289 10.0644 1.92733 10.2836 1.98594 10.4973C2.04884 10.7267 2.12524 10.9525 2.2149 11.1732C2.30464 11.394 2.40682 11.6076 2.52049 11.8126C2.62625 12.0033 2.84288 12.0673 3.00434 11.9555C3.1658 11.8436 3.21096 11.5983 3.10519 11.4076C3.00879 11.2337 2.92215 11.0526 2.84604 10.8653C2.77001 10.6782 2.70524 10.4868 2.65191 10.2923C2.5933 10.0786 2.3967 9.95121 2.2128 10.0078ZM3.30438 12.3675C3.17712 12.5263 3.19162 12.7798 3.33675 12.9336C3.49268 13.0989 3.65821 13.253 3.83238 13.3948C3.99337 13.5257 4.2102 13.4875 4.31669 13.3094C4.42317 13.1312 4.379 12.8806 4.21801 12.7497C4.07025 12.6294 3.92984 12.4987 3.79757 12.3585C3.65244 12.2046 3.43163 12.2087 3.30438 12.3675Z" fill="#1857EB"/>
</svg>
