<svg width="32" height="32" viewBox="0 0 32 32" fill="none" xmlns="http://www.w3.org/2000/svg">
<path fill-rule="evenodd" clip-rule="evenodd" d="M19.0958 22.1963C18.7311 22.1963 18.3809 22.343 18.1205 22.605L16.0006 24.7375L13.8806 22.605C13.6202 22.343 13.27 22.1963 12.9053 22.1963H10.197C9.04311 22.1963 8.1077 21.2369 8.1077 20.0534V10.0715C8.1077 8.88801 9.04311 7.9286 10.197 7.9286H21.8041C22.958 7.9286 23.8934 8.88801 23.8934 10.0715V20.0534C23.8934 21.2369 22.958 22.1963 21.8041 22.1963H19.0958ZM21.8041 23.6249H19.0958L16.4069 26.3297C16.1812 26.5568 15.8199 26.5568 15.5942 26.3297L12.9053 23.6249H10.197C8.27385 23.6249 6.71484 22.0259 6.71484 20.0534V10.0715C6.71484 8.09902 8.27385 6.5 10.197 6.5H21.8041C23.7273 6.5 25.2863 8.09902 25.2863 10.0715V20.0534C25.2863 22.0259 23.7273 23.6249 21.8041 23.6249ZM12.0541 14.2383C12.0541 13.8438 11.7423 13.524 11.3577 13.524C10.9731 13.524 10.6613 13.8438 10.6613 14.2383C10.6613 17.2627 13.0518 19.7146 16.0006 19.7146C18.9494 19.7146 21.3398 17.2627 21.3398 14.2383C21.3398 13.8438 21.028 13.524 20.6434 13.524C20.2588 13.524 19.947 13.8438 19.947 14.2383C19.947 16.4737 18.1801 18.286 16.0006 18.286C13.821 18.286 12.0541 16.4737 12.0541 14.2383Z" fill="#161616"/>
</svg>
