<svg width="16" height="16" viewBox="0 0 16 16" fill="none" xmlns="http://www.w3.org/2000/svg">
<path fill-rule="evenodd" clip-rule="evenodd" d="M1.80475 14.6662C1.92977 14.6662 2.04968 14.6165 2.13808 14.5281L4.66668 11.9995H12C13.4728 11.9995 14.6667 10.8056 14.6667 9.33282V3.99949C14.6667 2.52673 13.4728 1.33282 12 1.33282H4.00001C2.52725 1.33282 1.33334 2.52673 1.33334 3.99949V14.1948C1.33334 14.4551 1.5444 14.6662 1.80475 14.6662ZM12 10.6662H4.11439L2.66668 12.1139V3.99949C2.66668 3.26311 3.26363 2.66615 4.00001 2.66615H12C12.7364 2.66615 13.3333 3.26311 13.3333 3.99949V9.33282C13.3333 10.0692 12.7364 10.6662 12 10.6662Z" fill="#992E8A"/>
<path d="M6.90273 7.68836L5.58705 7.1245C5.27684 6.99155 5.27684 6.55177 5.58705 6.41883L6.90273 5.85496C6.99333 5.81613 7.06553 5.74394 7.10435 5.65334L7.66822 4.33765C7.80117 4.02744 8.24095 4.02744 8.37389 4.33766L8.93776 5.65334C8.97659 5.74394 9.04878 5.81613 9.13938 5.85496L10.4551 6.41883C10.7653 6.55177 10.7653 6.99155 10.4551 7.1245L9.13938 7.68836C9.04878 7.72719 8.97659 7.79939 8.93776 7.88999L8.37389 9.20567C8.24095 9.51588 7.80117 9.51588 7.66822 9.20567L7.10435 7.88999C7.06553 7.79939 6.99333 7.72719 6.90273 7.68836Z" fill="#992E8A"/>
</svg>
