<svg width="18" height="18" viewBox="0 0 18 18" fill="none" xmlns="http://www.w3.org/2000/svg">
<path fill-rule="evenodd" clip-rule="evenodd" d="M5.24951 4.99625V7.994L3.20097 11.5447C2.78676 12.2622 3.03257 13.1796 3.75001 13.5938C4.23076 13.8713 4.8013 13.8525 5.25005 13.594L5.24966 15.1995C4.51545 15.3892 3.70893 15.3021 3.00001 14.8928C1.56513 14.0644 1.07351 12.2296 1.90194 10.7947L5.24951 4.99625ZM5.99939 6.80312L7.49939 9.40187L7.50001 13.5005C7.50001 14.3289 8.17159 15.0005 9.00001 15.0005C9.55511 15.0005 10.0398 14.699 10.2992 14.2508L11.1017 15.6412C10.5609 16.1725 9.81874 16.5005 9.00001 16.5005C7.34316 16.5005 6.00001 15.1574 6.00001 13.5005L5.99939 6.80312ZM11.5981 3.0005L16.0981 10.7947C16.9265 12.2296 16.4349 14.0644 15 14.8928C13.5651 15.7212 11.7304 15.2296 10.9019 13.7947L6.40194 6.0005C5.57351 4.56562 6.06513 2.73085 7.50001 1.90242C8.93489 1.074 10.7697 1.56562 11.5981 3.0005ZM8.25001 3.20146C7.53257 3.61568 7.28676 4.53306 7.70097 5.2505L12.201 13.0447C12.6152 13.7622 13.5326 14.008 14.25 13.5938C14.9675 13.1796 15.2133 12.2622 14.799 11.5447L10.2991 3.7505C9.88484 3.03306 8.96745 2.78725 8.25001 3.20146ZM9.00001 3.7505C9.41423 3.7505 9.75001 4.08629 9.75001 4.5005C9.75001 4.91471 9.41423 5.2505 9.00001 5.2505C8.5858 5.2505 8.25001 4.91471 8.25001 4.5005C8.25001 4.08629 8.5858 3.7505 9.00001 3.7505Z" fill="#0E131E"/>
</svg>
