<svg width="18" height="18" viewBox="0 0 18 18" fill="none" xmlns="http://www.w3.org/2000/svg">
<path fill-rule="evenodd" clip-rule="evenodd" d="M9.75013 16.4416L15.0701 13.3701C15.5342 13.1022 15.8201 12.607 15.8201 12.0711V5.92815C15.8201 5.39226 15.5342 4.89707 15.0701 4.62912L9.75013 1.55764C9.28602 1.28969 8.71423 1.28969 8.25013 1.55764L2.93018 4.62912C2.46607 4.89707 2.18018 5.39226 2.18018 5.92815V12.0711C2.18018 12.607 2.46607 13.1022 2.93018 13.3701L8.25013 16.4416C8.71423 16.7096 9.28602 16.7096 9.75013 16.4416ZM8.25013 14.7096L3.68018 12.0711V6.79418L8.25013 9.43264V14.7096ZM9.75013 14.7096V9.43264L14.3201 6.79418V12.0711L9.75013 14.7096ZM13.5701 5.49514L9.00013 8.1336L4.43018 5.49514L9.00013 2.85668L13.5701 5.49514Z" fill="#0E131E"/>
</svg>
