<svg width="18" height="18" viewBox="0 0 18 18" fill="none" xmlns="http://www.w3.org/2000/svg">
<path d="M15.2064 4.8739C15.2062 4.38521 14.8596 4.10608 14.5692 4.10596H3.61914C3.32871 4.10596 2.98211 4.3851 2.98193 4.8739V13.8739C2.98193 14.3629 3.32863 14.6429 3.61914 14.6429H14.5692C14.8597 14.6428 15.2064 14.3628 15.2064 13.8739V4.8739ZM16.6687 13.8739C16.6687 15.0417 15.7905 16.1051 14.5692 16.1052H3.61914C2.39776 16.1052 1.51855 15.0417 1.51855 13.8739V4.8739C1.51874 3.70622 2.39789 2.64258 3.61914 2.64258H14.5692C15.7904 2.64269 16.6685 3.70628 16.6687 4.8739V13.8739Z" fill="#161C27"/>
<path d="M11.7842 15.3739V8.62395C11.7841 8.39971 11.7021 8.19709 11.5743 8.05705C11.4485 7.91917 11.2933 7.856 11.147 7.856H9.82532V15.3739C9.82532 15.7778 9.49749 16.1056 9.09363 16.1056C8.68994 16.1054 8.36304 15.7777 8.36304 15.3739V7.856H2.25024C1.84639 7.856 1.51855 7.52817 1.51855 7.12431C1.51855 6.72046 1.84639 6.39262 2.25024 6.39262H11.147C11.7266 6.39262 12.2678 6.64577 12.6554 7.07048C13.0408 7.49289 13.2475 8.05282 13.2476 8.62395V15.3739C13.2476 15.7778 12.9197 16.1056 12.5159 16.1056C12.112 16.1056 11.7842 15.7778 11.7842 15.3739Z" fill="#161C27"/>
</svg>
