<svg width="16" height="16" viewBox="0 0 16 16" fill="none" xmlns="http://www.w3.org/2000/svg">
<path d="M6 2H4.66667V4C4.66667 4.36819 4.36819 4.66667 4 4.66667H2V6H4C5.10457 6 6 5.10457 6 4V2Z" fill="#001846"/>
<path d="M2 10V11.3333H4C4.36819 11.3333 4.66667 11.6318 4.66667 12V14H6V12C6 10.8954 5.10457 10 4 10H2Z" fill="#001846"/>
<path d="M14 10V11.3333H12C11.6318 11.3333 11.3333 11.6318 11.3333 12V14H10V12C10 10.8954 10.8954 10 12 10H14Z" fill="#001846"/>
<path d="M10 2V4C10 5.10457 10.8954 6 12 6H14V4.66667H12C11.6318 4.66667 11.3333 4.36819 11.3333 4V2H10Z" fill="#001846"/>
</svg>
