<svg width="16" height="16" viewBox="0 0 16 16" fill="none" xmlns="http://www.w3.org/2000/svg">
<path fill-rule="evenodd" clip-rule="evenodd" d="M9.00004 1.39355H7.00004L6.90054 1.39721C6.21068 1.4481 5.66678 2.02389 5.66671 2.72675L5.66628 5.50489L5.17144 5.50513C3.98365 5.50528 3.38891 6.94138 4.2288 7.78127L7.05723 10.6097C7.57793 11.1304 8.42215 11.1304 8.94285 10.6097L11.7713 7.78127L11.8417 7.70567C12.5757 6.85814 11.9815 5.50528 10.8286 5.50513L10.3323 5.50489L10.3334 2.72703C10.3335 1.99059 9.73647 1.39355 9.00004 1.39355ZM9.00004 2.72689L8.99961 6.83822L10.8285 6.83846L8.00004 9.66689L5.17161 6.83846L6.99961 6.83822L7.00004 2.72689H9.00004ZM2.66671 11.3336V10.0002H1.33337V11.3336C1.33337 12.4234 2.15253 13.3336 3.20004 13.3336H12.8C13.8475 13.3336 14.6667 12.4234 14.6667 11.3336V10.0002H13.3334V11.3336C13.3334 11.7165 13.078 12.0002 12.8 12.0002H3.20004C2.92207 12.0002 2.66671 11.7165 2.66671 11.3336Z" fill="#161C27"/>
</svg>
