<svg width="16" height="16" viewBox="0 0 16 16" fill="none" xmlns="http://www.w3.org/2000/svg">
<path d="M13.1237 2.30953L13.5604 3.40142C13.6282 3.57083 13.7624 3.70505 13.9318 3.77281L15.0237 4.20957C15.2107 4.28434 15.3332 4.46538 15.3332 4.6667C15.3332 4.86802 15.2107 5.04906 15.0237 5.12383L13.9318 5.56059C13.7624 5.62835 13.6282 5.76258 13.5604 5.93198L13.1237 7.02388C13.0489 7.2108 12.8679 7.33337 12.6666 7.33337C12.4652 7.33337 12.2842 7.2108 12.2094 7.02388L11.7727 5.93198C11.7049 5.76258 11.5707 5.62835 11.4013 5.56059L10.3094 5.12383C10.1225 5.04906 9.99989 4.86802 9.99989 4.6667C9.99989 4.46538 10.1225 4.28434 10.3094 4.20957L11.4013 3.77281C11.5707 3.70505 11.7049 3.57083 11.7727 3.40142L12.2094 2.30953C12.2842 2.12261 12.4652 2.00004 12.6666 2.00004C12.8679 2.00004 13.0489 2.12261 13.1237 2.30953Z" fill="#161C27"/>
<path d="M3.99989 2.66638H9.20168C8.96745 3.0713 8.80216 3.5211 8.72186 3.99971H3.99989C3.26351 3.99971 2.66655 4.59666 2.66655 5.33304V10.6664C2.66655 11.4028 3.26351 11.9997 3.99989 11.9997H11.9999C12.7363 11.9997 13.3332 11.4028 13.3332 10.6664V8.61107C13.8118 8.53078 14.2616 8.36548 14.6666 8.13125V10.6664C14.6666 12.1391 13.4726 13.333 11.9999 13.333H3.99989C2.52713 13.333 1.33322 12.1391 1.33322 10.6664V5.33304C1.33322 3.86028 2.52713 2.66638 3.99989 2.66638Z" fill="#161C27"/>
<path d="M3.99989 10.6664H9.33322V9.33304H3.99989V10.6664Z" fill="#161C27"/>
<path d="M10.6666 10.6664H11.9999V9.33304H10.6666V10.6664Z" fill="#161C27"/>
</svg>
