<svg width="48" height="48" viewBox="0 0 48 48" fill="none" xmlns="http://www.w3.org/2000/svg">
<path fill-rule="evenodd" clip-rule="evenodd" d="M9.2 14C9.2 11.349 11.349 9.2 14 9.2L20.9985 9.2C21.5128 8.02283 22.2106 6.94412 23.0556 6H14C9.58172 6 6 9.58172 6 14V34C6 36.0289 6.75527 37.8814 8 39.2917C9.14434 40.5882 10.7024 41.5109 12.4675 41.8534L12.4781 41.8554C12.9708 41.9503 13.4796 42 14 42H34C34.9665 42 35.893 41.8286 36.7507 41.5146C36.8528 41.4772 36.9539 41.4378 37.054 41.3964C38.3241 40.8714 39.4296 40.0287 40.2714 38.9674C40.9441 38.1193 41.4483 37.1315 41.7337 36.0546C41.9074 35.399 42 34.7103 42 34V20.6356C41.1505 21.9132 40.0627 23.0188 38.8 23.8887V33.1209L32.8284 27.1494C31.2663 25.5873 28.7337 25.5873 27.1716 27.1494L25.75 28.5709L20.3284 23.1494C18.7663 21.5873 16.2337 21.5873 14.6716 23.1494L9.2 28.6209V14ZM30.5657 29.4121L37.9218 36.7682C37.4356 37.4559 36.773 38.01 36 38.3648C35.3912 38.6442 34.7138 38.8 34 38.8H20.0464L29.4343 29.4121C29.7467 29.0997 30.2533 29.0997 30.5657 29.4121ZM23.4873 30.8337L15.5209 38.8H14C11.349 38.8 9.2 36.651 9.2 34V33.1464L16.9343 25.4121C17.2467 25.0997 17.7533 25.0997 18.0657 25.4121L23.4873 30.8337Z" fill="#FBF9F7"/>
<path d="M40 14C40 14.604 39.6323 15.1471 39.0715 15.3714L35.7958 16.6817C35.2876 16.8849 34.8849 17.2876 34.6817 17.7958L33.3714 21.0715C33.1471 21.6323 32.604 22 32 22C31.396 22 30.8529 21.6323 30.6286 21.0715L29.3183 17.7958C29.1151 17.2876 28.7124 16.8849 28.2042 16.6817L24.9285 15.3714C24.3677 15.1471 24 14.604 24 14C24 13.396 24.3677 12.8529 24.9285 12.6286L28.2042 11.3183C28.7124 11.1151 29.1151 10.7124 29.3183 10.2042L30.6286 6.92848C30.8529 6.36771 31.396 6 32 6C32.604 6 33.1471 6.36771 33.3714 6.92848L34.6817 10.2042C34.8849 10.7124 35.2876 11.1151 35.7958 11.3183L39.0715 12.6286C39.6323 12.8529 40 13.396 40 14Z" fill="#FBF9F7"/>
</svg>
