<svg width="16" height="16" viewBox="0 0 16 16" fill="none" xmlns="http://www.w3.org/2000/svg">
<path d="M8 2H4.66667C3.19391 2 2 3.19391 2 4.66667V11.3333C2 12.8061 3.19391 14 4.66667 14H8" stroke="#161c27" stroke-width="1.33333" stroke-dasharray="2.67 1.33"/>
<path d="M8 2H11.3333C12.8061 2 14 3.19391 14 4.66667V11.3333C14 12.8061 12.8061 14 11.3333 14H8" stroke="#161c27" stroke-width="1.33333"/>
<rect x="7.33325" y="0.666667" width="1.33333" height="14.6667" fill="#161c27"/>
<path d="M2 10.3333L3.65047 8.06394C4.16432 7.35739 5.2075 7.32768 5.76073 8.00385L7.27128 9.85009C7.49371 10.1219 7.88892 10.1746 8.17475 9.97042L8.99297 9.38597C9.56087 8.98033 10.3455 9.08124 10.7923 9.61737L13.3333 12.6667" stroke="#161c27" stroke-width="1.33333"/>
<circle cx="11" cy="5.66667" r="1" fill="#161c27" stroke="#161c27" stroke-width="0.5"/>
</svg>
