<svg width="18" height="18" viewBox="0 0 18 18" fill="none" xmlns="http://www.w3.org/2000/svg">
<path fill-rule="evenodd" clip-rule="evenodd" d="M10.5 1.5C11.3284 1.5 12 2.17157 12 3V3.75H16.5V5.25H15V13.5C15 15.1569 13.6569 16.5 12 16.5H6C4.34315 16.5 3 15.1569 3 13.5V5.25H1.5V3.75H6V3C6 2.17157 6.67157 1.5 7.5 1.5H10.5ZM7.5 3.75H10.5V3H7.5V3.75ZM4.5 5.25V13.375C4.5 14.2317 5.11191 14.9335 5.88805 14.9955L6 15H12C12.8284 15 13.5 14.2725 13.5 13.375V5.25H4.5ZM8.25 6.75V13.5H6.75V6.75H8.25ZM11.25 13.5V6.75H9.75V13.5H11.25Z" fill="#161C27"/>
</svg>
