<svg width="14" height="14" viewBox="0 0 14 14" fill="none" xmlns="http://www.w3.org/2000/svg">
<path fill-rule="evenodd" clip-rule="evenodd" d="M6.66667 0C10.3486 0 13.3333 2.98477 13.3333 6.66667C13.3333 10.3486 10.3486 13.3333 6.66667 13.3333C2.98477 13.3333 0 10.3486 0 6.66667C0 2.98477 2.98477 0 6.66667 0ZM6.66667 1.33333C3.72115 1.33333 1.33333 3.72115 1.33333 6.66667C1.33333 9.61218 3.72115 12 6.66667 12C9.61218 12 12 9.61218 12 6.66667C12 3.72115 9.61218 1.33333 6.66667 1.33333ZM6.6577 3C7.94636 3 8.99103 4.04467 8.99103 5.33333C8.99103 6.35967 8.32365 7.24879 7.3745 7.55439L7.32413 7.56867L7.32436 8.35916H5.99103V7C5.99103 6.65811 6.24839 6.37633 6.57995 6.33782L6.77646 6.33158L6.86178 6.31263C7.32169 6.2176 7.6577 5.8097 7.6577 5.33333C7.6577 4.78105 7.20998 4.33333 6.6577 4.33333C6.19206 4.33333 5.79076 4.65451 5.68474 5.10072L4.38752 4.79249C4.63553 3.74867 5.57097 3 6.6577 3ZM7.32436 9.02582V10.3592H5.99103V9.02582H7.32436Z" fill="#5F5E60"/>
</svg>
