<svg width="16" height="16" viewBox="0 0 16 16" fill="none" xmlns="http://www.w3.org/2000/svg">
<path fill-rule="evenodd" clip-rule="evenodd" d="M7.68528 1.99966H4.66667C4.39811 1.99966 4.13883 2.03936 3.89436 2.11321C2.7982 2.44436 2 3.46211 2 4.6663C2 4.6663 2 4.66631 2 4.6663V11.333C2 12.8057 3.19391 13.9997 4.66667 13.9997H11.3333C12.599 13.9997 13.6587 13.1179 13.9317 11.9352C13.9764 11.7417 14 11.5401 14 11.333C14 11.333 14 11.333 14 11.333V6.87831C13.6874 7.34852 13.2779 7.7488 12.8 8.05066V10.9066L10.9428 9.04943C10.4221 8.52873 9.57791 8.52873 9.05721 9.04943L8.58337 9.52327L6.77618 7.71609C6.25548 7.19539 5.41126 7.19539 4.89057 7.71609L3.2 9.40665V4.66633C3.2 3.85631 3.85665 3.19966 4.66667 3.19966H6.94416C7.11942 2.75521 7.37199 2.34969 7.68528 1.99966ZM3.2 11.1037V11.333C3.2 11.333 3.2 11.333 3.2 11.333C3.2 11.4342 3.21026 11.5331 3.2298 11.6286C3.36657 12.2969 3.95791 12.7996 4.66667 12.7996H5.307L7.73484 10.3718L5.92765 8.56462C5.87558 8.51255 5.79116 8.51255 5.73909 8.56462L3.2 11.1037ZM12 12.6397C11.8 12.742 11.5734 12.7997 11.3333 12.7997L7.00406 12.7996L9.90574 9.89796C9.95781 9.84589 10.0422 9.84589 10.0943 9.89796L12.4638 12.2675C12.3367 12.421 12.179 12.5482 12 12.6397Z" fill="#3B3B3B"/>
<path d="M9.54834 5.58303L8.23266 5.01917C7.92245 4.88622 7.92245 4.44644 8.23266 4.31349L9.54834 3.74963C9.63894 3.7108 9.71114 3.63861 9.74996 3.54801L10.3138 2.23232C10.4468 1.92211 10.8866 1.92211 11.0195 2.23232L11.5834 3.54801C11.6222 3.63861 11.6944 3.7108 11.785 3.74963L13.1007 4.31349C13.4109 4.44644 13.4109 4.88622 13.1007 5.01917L11.785 5.58303C11.6944 5.62186 11.6222 5.69405 11.5834 5.78465L11.0195 7.10034C10.8866 7.41055 10.4468 7.41055 10.3138 7.10034L9.74996 5.78465C9.71114 5.69405 9.63894 5.62186 9.54834 5.58303Z" fill="#3B3B3B"/>
</svg>
