<svg width="15" height="14" viewBox="0 0 15 14" fill="none" xmlns="http://www.w3.org/2000/svg">
<path d="M12.7939 3.21944C13.0376 2.97577 13.0376 2.58068 12.7939 2.33701C12.5502 2.09333 12.1552 2.09333 11.9115 2.33701L6.90898 7.3395L6.67911 8.45181L7.79142 8.22193L12.7939 3.21944ZM8.67386 9.10437L8.60729 9.1662C8.44674 9.30489 8.25308 9.40072 8.04435 9.4439L6.00199 9.86616L5.96127 9.87327C5.55255 9.93084 5.20008 9.57837 5.25764 9.16965L5.26475 9.12893L5.68701 7.08657C5.7302 6.87784 5.82603 6.68418 5.96471 6.52363L6.02655 6.45706L11.029 1.45457C11.7601 0.723535 12.9453 0.723534 13.6763 1.45457C14.4074 2.1856 14.4074 3.37085 13.6763 4.10188L8.67386 9.10437Z" fill="black"/>
<path d="M2.39424 6.99469C2.43295 7.71457 2.68667 8.44255 3.097 9.13732C3.64202 10.0601 4.44166 10.8847 5.28 11.4855C6.13219 12.0961 6.95295 12.4254 7.52578 12.4555L7.45997 13.7017C6.5509 13.6538 5.49928 13.178 4.55274 12.4997C3.59242 11.8115 2.66649 10.8627 2.0221 9.77165C1.37804 8.68108 0.993196 7.40788 1.19429 6.09878L2.39424 6.99469ZM12.7897 4.98823C13.3741 5.76798 13.7947 6.59261 14.0203 7.39244C14.3647 8.61425 14.2786 9.89287 13.4496 10.7759C12.4459 11.8449 10.667 12.1652 8.61774 11.1406L9.1759 10.0245C10.8704 10.8717 12.0098 10.4858 12.5395 9.92155C12.9523 9.48197 13.1 8.72723 12.8192 7.73124C12.6526 7.14009 12.3418 6.50442 11.897 5.88094L12.7897 4.98823ZM6.45628 1.73698C6.78466 1.74066 7.11935 1.76617 7.45296 1.81259C8.26577 1.92573 9.11859 2.16801 9.92419 2.55905L8.97908 3.50446C8.4234 3.27815 7.28082 3.04866 7.28082 3.04866L6.45628 1.73698Z" fill="black"/>
<path d="M2.31568 4.35081L1 3.78694C0.689787 3.654 0.689788 3.21422 1 3.08127L2.31568 2.5174C2.40628 2.47858 2.47848 2.40638 2.51731 2.31578L3.08117 1.0001C3.21412 0.689886 3.6539 0.689887 3.78684 1.0001L4.35071 2.31578C4.38954 2.40638 4.46173 2.47858 4.55233 2.5174L5.86801 3.08127C6.17823 3.21422 6.17823 3.654 5.86801 3.78694L4.55233 4.35081C4.46173 4.38964 4.38954 4.46183 4.35071 4.55243L3.78684 5.86811C3.6539 6.17833 3.21412 6.17833 3.08117 5.86811L2.51731 4.55243C2.47848 4.46183 2.40628 4.38964 2.31568 4.35081Z" fill="#161C27"/>
</svg>
