<svg width="48" height="48" viewBox="0 0 48 48" fill="none" xmlns="http://www.w3.org/2000/svg">
<path d="M35.5 14.3166C35.5 12.2962 33.5539 10.5 31.5327 10.5L12.277 10.5C10.2558 10.5 8.5 12.2962 8.5 14.3166V32.8352C8.50012 34.8555 10.2983 36.7984 12.3194 36.7984H16.4365L16.4365 40.1948H12.3194C8.27707 40.1948 5.00012 36.9189 5 32.8781V14.3167C5 10.2758 8.27699 7 12.3194 7H31.5327C35.5751 7 38.8521 10.2758 38.8521 14.3167V19.3469L35.5 19.3468V14.3166Z" fill="white"/>
<path d="M25.0211 21.9281C26.4385 20.0397 29.2487 19.9679 30.7608 21.7816L31.5667 22.748L31.6793 22.8981C32.1979 23.6665 32.0603 24.7193 31.3326 25.3256C30.6047 25.932 29.5436 25.8778 28.8809 25.2292L28.754 25.0916L27.9481 24.1235L24.1294 29.2144C22.5582 31.3076 19.3606 31.1228 18.0412 28.8625L16.4115 26.0705C16.4072 26.0751 16.4034 26.0802 16.399 26.0848C16.3856 26.0991 16.3718 26.1138 16.3579 26.1277L8.1236 34.3589C7.409 35.0733 6.25069 35.0733 5.53609 34.3589C4.82155 33.6446 4.82151 32.4867 5.53609 31.7724L13.7704 23.5411C14.0699 23.2243 14.4057 22.8959 14.7764 22.6408C15.1799 22.3632 15.7402 22.0907 16.4365 22.0906C17.1322 22.0906 17.6913 22.3635 18.0948 22.6408C18.2887 22.7742 18.4738 22.9283 18.6488 23.0892L19.1438 23.584L19.2849 23.734L19.3904 23.9127L21.2023 27.019L25.0211 21.9281Z" fill="white"/>
<path d="M20.0962 17.0604C20.0962 18.5758 18.8674 19.8042 17.3515 19.8042C15.8356 19.8042 14.6067 18.5758 14.6067 17.0604C14.6067 15.5451 15.8356 14.3167 17.3515 14.3167C18.8674 14.3167 20.0962 15.5451 20.0962 17.0604Z" fill="white"/>
<path d="M17.3515 19.8042C15.8356 19.8042 14.6067 18.5758 14.6067 17.0604C14.6067 15.5451 15.8356 14.3167 17.3515 14.3167C18.8674 14.3167 20.0962 15.5451 20.0962 17.0604C20.0962 18.5758 18.8674 19.8042 17.3515 19.8042Z" fill="white"/>
<path fill-rule="evenodd" clip-rule="evenodd" d="M39.5656 24.2026C40.3513 23.4173 41.6242 23.4177 42.4105 24.2026C43.1965 24.9884 43.1965 26.0964 42.4105 26.8822L33.2668 35.8606C33.1952 35.9321 33.1138 36.0549 33.1138 36.2037C33.3426 38.0794 33.2079 39.3002 31.5127 40.72C30.3741 41.6736 28.6104 42.0504 27.1827 41.9947C25.7498 41.9387 24.3385 41.3701 23.1934 40.5733C22.3473 39.9842 21.2975 38.7768 20.9223 37.3554C20.5582 36.3229 21.4358 35.0896 22.6909 35.7079C23.1235 35.944 23.8359 36.1059 24.1294 36.0199C24.4291 35.9319 24.6685 35.5671 25.0047 35.0896C25.7435 33.9272 26.5164 33.1491 27.5018 32.7538C28.4592 32.37 29.5798 32.5399 30.5969 33.1663L39.5656 24.2026ZM27.2858 37.0291C28.1463 35.8044 28.67 35.6136 29.7312 35.8606C29.8859 35.9758 30.2274 36.052 30.4523 36.528C30.7179 37.4096 30.5111 37.8537 30.2274 38.1948C29.7429 38.7777 28.9996 39.0918 28.9996 39.0918C28.2643 39.4862 26.4131 39.7235 24.902 38.6716L24.7732 38.568L24.7075 38.5049L24.6076 38.3899L24.6708 38.3849C25.6088 38.2217 26.5709 38.0465 27.2858 37.0291Z" fill="white"/>
</svg>
