<svg width="20" height="20" viewBox="0 0 20 20" fill="none" xmlns="http://www.w3.org/2000/svg">
<path fill-rule="evenodd" clip-rule="evenodd" d="M15.4212 10.7062C16.4626 9.66478 16.4626 7.97634 15.4212 6.93495L13.0642 4.57792C12.0228 3.53653 10.3343 3.53653 9.29295 4.57792L4.5789 9.29197C3.5375 10.3334 3.5375 12.0218 4.5789 13.0632L6.8481 15.3324H4.00005V16.6657H16.0001V15.3324H10.795L15.4212 10.7062ZM12.1214 5.52073L14.4784 7.87776C14.9991 8.39845 14.9991 9.24267 14.4784 9.76337L11.7279 12.5139L7.48522 8.27127L10.2358 5.52073C10.7565 5.00003 11.6007 5.00003 12.1214 5.52073ZM6.54241 9.21408L10.785 13.4567L9.76435 14.4774C9.24365 14.9981 8.39943 14.9981 7.87873 14.4774L5.52171 12.1204C5.00101 11.5997 5.00101 10.7555 5.52171 10.2348L6.54241 9.21408Z" fill="#0E131E"/>
</svg>
