<svg width="18" height="18" viewBox="0 0 18 18" fill="none" xmlns="http://www.w3.org/2000/svg">
<path d="M6.76243 5.65287L5.46731 5.09781C5.16194 4.96694 5.16194 4.53403 5.46731 4.40316L6.76243 3.84811C6.85162 3.80989 6.92268 3.73882 6.9609 3.64964L7.51596 2.35451C7.64683 2.04915 8.07973 2.04915 8.21061 2.35451L8.76566 3.64964C8.80388 3.73882 8.87495 3.80989 8.96413 3.84811L10.2593 4.40316C10.5646 4.53404 10.5646 4.96694 10.2593 5.09781L8.96413 5.65287C8.87495 5.69109 8.80388 5.76215 8.76566 5.85134L8.21061 7.14646C8.07973 7.45183 7.64683 7.45183 7.51596 7.14646L6.9609 5.85134C6.92268 5.76215 6.85162 5.69109 6.76243 5.65287Z" fill="#161C27"/>
<path d="M9.79614 2.24405C10.948 1.55689 12.4614 1.70945 13.4531 2.70108L15.7603 5.00821L15.8665 5.11954C16.9302 6.29712 16.8949 8.1155 15.7603 9.2504L10.377 14.6337L10.1807 14.8197C8.18631 16.6216 5.14234 16.6215 3.14795 14.8197L2.95239 14.6337L2.23681 13.9181L2.12988 13.8061C1.06596 12.6284 1.10189 10.8101 2.23681 9.67521L5.26758 6.64298L6.18896 7.84342L3.29736 10.7358C2.7116 11.3215 2.71164 12.2711 3.29736 12.8568L4.01294 13.5732C5.47742 15.0374 7.85203 15.0375 9.3164 13.5732L14.699 8.18985C15.2847 7.60411 15.2846 6.65456 14.699 6.06876L12.3926 3.76163C12.1014 3.47048 11.7202 3.32526 11.3386 3.32364L9.79614 2.24405Z" fill="#161C27"/>
<path d="M16.6377 14.7093V16.1718H6.73682V14.7093H16.6377Z" fill="#161C27"/>
<path d="M10.2535 13.6084L9.73718 14.1259L9.21973 14.6422L3.96936 9.39294L5.00427 8.35803L10.2535 13.6084Z" fill="#161C27"/>
</svg>
