<svg width="16" height="16" viewBox="0 0 16 16" fill="none" xmlns="http://www.w3.org/2000/svg">
<path d="M5.33333 2H4C2.89543 2 2 2.89543 2 4V5.33333H3.33333V4C3.33333 3.63181 3.63181 3.33333 4 3.33333H5.33333V2Z" fill="#001846"/>
<path d="M10.6667 3.33333V2H12C13.1046 2 14 2.89543 14 4V5.33333H12.6667V4C12.6667 3.63181 12.3682 3.33333 12 3.33333H10.6667Z" fill="#001846"/>
<path d="M10.6667 12.6667H12C12.3682 12.6667 12.6667 12.3682 12.6667 12V10.6667H14V12C14 13.1046 13.1046 14 12 14H10.6667V12.6667Z" fill="#001846"/>
<path d="M3.33333 10.6667V12C3.33333 12.3682 3.63181 12.6667 4 12.6667H5.33333V14H4C2.89543 14 2 13.1046 2 12V10.6667H3.33333Z" fill="#001846"/>
</svg>
