<svg width="16" height="16" viewBox="0 0 16 16" fill="none" xmlns="http://www.w3.org/2000/svg">
<path fill-rule="evenodd" clip-rule="evenodd" d="M9.33301 1.33203H7.99967V14.6654H9.33301V1.33203ZM3.99967 2.66536H7.33301V3.9987H3.99967C3.26329 3.9987 2.66634 4.59565 2.66634 5.33203V10.6654C2.66634 11.4017 3.26329 11.9987 3.99967 11.9987H7.33301V13.332H3.99967C2.52691 13.332 1.33301 12.1381 1.33301 10.6654V5.33203C1.33301 3.85927 2.52691 2.66536 3.99967 2.66536ZM9.99967 13.332V11.9987H11.333V13.332H9.99967ZM9.99967 3.9987H11.333V2.66536H9.99967V3.9987ZM12.6663 4.17707C12.8688 4.29417 13.0375 4.46295 13.1546 4.66536H14.5823C14.3411 3.72829 13.6034 2.99056 12.6663 2.74938V4.17707ZM13.333 5.9987V7.33203H14.6663V5.9987H13.333ZM13.333 8.66536V9.9987H14.6663V8.66536H13.333ZM13.1546 11.332C13.0375 11.5344 12.8688 11.7032 12.6663 11.8203V13.248C13.6034 13.0068 14.3411 12.2691 14.5823 11.332H13.1546Z" fill="#161C27"/>
</svg>
