<svg width="16" height="16" viewBox="0 0 16 16" fill="none" xmlns="http://www.w3.org/2000/svg">
<path fill-rule="evenodd" clip-rule="evenodd" d="M14.667 9.33203L14.667 7.9987L1.33366 7.9987L1.33366 9.33203L14.667 9.33203ZM13.3337 3.9987L13.3337 7.33203L12.0003 7.33203L12.0003 3.9987C12.0003 3.26232 11.4034 2.66536 10.667 2.66536L5.33366 2.66536C4.59728 2.66536 4.00033 3.26232 4.00033 3.9987L4.00033 7.33203L2.66699 7.33203L2.66699 3.9987C2.66699 2.52594 3.8609 1.33203 5.33366 1.33203L10.667 1.33203C12.1398 1.33203 13.3337 2.52594 13.3337 3.9987ZM2.66699 9.9987L4.00033 9.9987L4.00032 11.332L2.66699 11.332L2.66699 9.9987ZM12.0003 9.9987L12.0003 11.332L13.3337 11.332L13.3337 9.9987L12.0003 9.9987ZM11.8219 12.6654C11.7049 12.8678 11.5361 13.0366 11.3337 13.1537L11.3337 14.5814C12.2707 14.3402 13.0085 13.6024 13.2496 12.6654L11.8219 12.6654ZM10.0003 13.332L8.66699 13.332L8.66699 14.6654L10.0003 14.6654L10.0003 13.332ZM7.33366 13.332L6.00032 13.332L6.00032 14.6654L7.33366 14.6654L7.33366 13.332ZM4.66699 13.1537C4.46457 13.0366 4.29579 12.8678 4.1787 12.6654L2.751 12.6654C2.99219 13.6024 3.72992 14.3402 4.66699 14.5814L4.66699 13.1537Z" fill="#161C27"/>
</svg>
