<svg width="48" height="48" viewBox="0 0 48 48" fill="none" xmlns="http://www.w3.org/2000/svg">
<path fill-rule="evenodd" clip-rule="evenodd" d="M15.9904 9.2H38.0104C38.4467 9.2 38.8004 9.5537 38.8004 9.99V27.5668L34.5459 23.3123C33.14 21.9064 30.8606 21.9064 29.4547 23.3123L29.4411 23.3259L29.4279 23.3398L20.4104 32.8H15.9904C15.5541 32.8 15.2004 32.4463 15.2004 32.01V9.99C15.2004 9.5537 15.5541 9.2 15.9904 9.2ZM24.8313 32.8H38.0104C38.4202 32.8 38.7571 32.4879 38.7965 32.0885L32.2831 25.5751C32.1297 25.4217 31.8828 25.4189 31.726 25.5668L24.8313 32.8ZM12.0004 9.99C12.0004 7.78638 13.7868 6 15.9904 6H38.0104C40.214 6 42.0004 7.78638 42.0004 9.99V32.01C42.0004 34.2136 40.214 36 38.0104 36H15.9904C13.7868 36 12.0004 34.2136 12.0004 32.01V9.99ZM9.60039 34V14H6.40039V34C6.40039 38.1974 9.80303 41.6 14.0004 41.6H38.0004V38.4H14.0004C11.5703 38.4 9.60039 36.4301 9.60039 34ZM24.0004 15C24.0004 16.6569 22.6572 18 21.0004 18C19.3435 18 18.0004 16.6569 18.0004 15C18.0004 13.3431 19.3435 12 21.0004 12C22.6572 12 24.0004 13.3431 24.0004 15Z" fill="#FBF9F7"/>
</svg>
