<svg width="16" height="16" viewBox="0 0 16 16" fill="none" xmlns="http://www.w3.org/2000/svg">
<path fill-rule="evenodd" clip-rule="evenodd" d="M6.68528 3.50003H3.66667C3.39811 3.50003 3.13883 3.53973 2.89436 3.61358C1.7982 3.94472 1 4.96247 1 6.16667V12.3333C1 13.8061 2.19391 15 3.66667 15H10.3333C11.599 15 12.6587 14.1183 12.9317 12.9356C12.9764 12.7421 13 12.5405 13 12.3334V7.87867C12.6874 8.34889 12.2779 8.74917 11.8 9.05103V11.907L9.94283 10.0498C9.42213 9.5291 8.57791 9.5291 8.05721 10.0498L7.58337 10.5236L5.77618 8.71646C5.25548 8.19576 4.41126 8.19576 3.89056 8.71646L2.2 10.407V6.1667C2.2 5.35668 2.85665 4.70003 3.66667 4.70003H5.94416C6.11942 4.25558 6.37199 3.85005 6.68528 3.50003ZM2.2 12.1041V12.3333C2.2 12.4346 2.21026 12.5335 2.2298 12.6289C2.36657 13.2973 2.95791 13.8 3.66667 13.8H4.307L6.73484 11.3722L4.92766 9.56498C4.87559 9.51291 4.79116 9.51291 4.73909 9.56498L2.2 12.1041ZM11 13.6401C10.8 13.7424 10.5734 13.8 10.3333 13.8L6.00406 13.8L8.90574 10.8983C8.95781 10.8463 9.04223 10.8463 9.0943 10.8983L11.4638 13.2678C11.3367 13.4214 11.179 13.5486 11 13.6401Z" fill="#161C27"/>
<path d="M6.62063 3.50003H10.3333C10.6019 3.50003 10.8612 3.53973 11.1056 3.61358C12.2018 3.94472 13 4.96247 13 6.16667V9.89346H11.7934L11.7787 6.1667C11.7787 5.35668 11.1434 4.70003 10.3333 4.70003H5.36598C5.19072 4.25558 5.9627 3.74822 6.62063 3.50003Z" fill="#161C27"/>
<circle cx="9.49805" cy="7.00003" r="1" fill="#161C27"/>
<path d="M4.10001 2.00003H11.6C13.1 2.00003 14.6 3.50003 14.6 5.00003C14.6 6.50003 14.6 10.9231 14.6 12" stroke="black" stroke-width="1.2" stroke-linecap="round"/>
</svg>
