<svg width="18" height="18" viewBox="0 0 18 18" fill="none" xmlns="http://www.w3.org/2000/svg">
<path d="M3.98573 14.6515L3.49437 13.4231C3.41814 13.2325 3.26714 13.0815 3.07656 13.0053L1.84818 12.5139C1.63789 12.4298 1.5 12.2261 1.5 11.9996C1.5 11.7731 1.63789 11.5695 1.84818 11.4854L3.07656 10.994C3.26714 10.9178 3.41814 10.7668 3.49437 10.5762L3.98573 9.34781C4.06984 9.13753 4.27351 8.99963 4.5 8.99963C4.72649 8.99963 4.93016 9.13753 5.01427 9.34781L5.50562 10.5762C5.58185 10.7668 5.73286 10.9178 5.92344 10.994L7.15182 11.4854C7.36211 11.5695 7.5 11.7731 7.5 11.9996C7.5 12.2261 7.36211 12.4298 7.15182 12.5139L5.92344 13.0053C5.73286 13.0815 5.58185 13.2325 5.50562 13.4231L5.01427 14.6515C4.93015 14.8617 4.72648 14.9996 4.5 14.9996C4.27351 14.9996 4.06984 14.8617 3.98573 14.6515Z" fill="#161C27"/>
<path d="M14.25 14.25L8.39798 14.25C8.66149 13.7945 8.84745 13.2884 8.93778 12.75L14.25 12.75C15.0784 12.75 15.75 12.0784 15.75 11.25L15.75 5.25C15.75 4.42158 15.0784 3.75 14.25 3.75L5.25 3.75C4.42157 3.75 3.75 4.42157 3.75 5.25L3.75 7.56222C3.21156 7.65255 2.70554 7.83851 2.25 8.10202L2.25 5.25C2.25 3.59315 3.59315 2.25 5.25 2.25L14.25 2.25C15.9069 2.25 17.25 3.59315 17.25 5.25L17.25 11.25C17.25 12.9069 15.9069 14.25 14.25 14.25Z" fill="#161C27"/>
<path d="M11.7188 7.7625C12.0938 7.979 12.0938 8.52027 11.7188 8.73678L9.18751 10.1982C8.81251 10.4147 8.34376 10.1441 8.34376 9.71105L8.34376 6.78822C8.34376 6.3552 8.81251 6.08457 9.18751 6.30108L11.7188 7.7625Z" fill="#161C27"/>
</svg>
