<svg width="16" height="16" viewBox="0 0 16 16" fill="none" xmlns="http://www.w3.org/2000/svg">
<path d="M9.39249 2.15811C9.65305 1.90931 9.67065 1.4876 9.43181 1.21619C9.19297 0.944775 8.78812 0.92644 8.52757 1.17523L5.93278 3.65289C5.43867 4.12471 5.05813 4.70027 4.8107 5.33333H2.56003C1.8531 5.33333 1.28003 5.93029 1.28003 6.66667V12.6667C1.28003 13.403 1.85311 14 2.56003 14H4.16003V12.6667H2.56003V6.66667H4.49874C4.48632 6.80778 4.48003 6.95 4.48003 7.09294V10.6667C4.48003 12.5076 5.91272 14 7.68003 14H10.9734C11.9431 14 12.8295 13.4293 13.2631 12.5259L14.1119 10.7576C14.5118 9.92446 14.72 9.00578 14.72 8.07431V8C14.72 6.52724 13.5739 5.33334 12.16 5.33334H7.68003V6.66667H12.16C12.867 6.66667 13.44 7.26362 13.44 8V8.07431C13.44 8.79879 13.2781 9.51331 12.9671 10.1613L12.1183 11.9296C11.9014 12.3813 11.4582 12.6667 10.9734 12.6667H7.68003C6.61964 12.6667 5.76003 11.7712 5.76003 10.6667V7.09294C5.76003 6.15859 6.1365 5.26713 6.79771 4.63576L9.39249 2.15811Z" fill="#161C27"/>
</svg>
