<svg width="32" height="32" viewBox="0 0 32 32" fill="none" xmlns="http://www.w3.org/2000/svg">
<rect width="32" height="32" rx="16" fill="white" fill-opacity="0.3"/>
<rect x="0.5" y="0.5" width="31" height="31" rx="15.5" stroke="url(#paint0_linear_809_14203)" stroke-opacity="0.3"/>
<path d="M15.534 9.0108C15.6625 8.89676 15.8283 8.83377 16 8.83377C16.1717 8.83377 16.3375 8.89676 16.466 9.0108L22.7816 14.6247C22.9136 14.7501 22.9917 14.9219 22.9994 15.1038C23.0071 15.2858 22.9437 15.4636 22.8227 15.5997C22.7018 15.7358 22.5326 15.8195 22.3511 15.8332C22.1695 15.8469 21.9897 15.7895 21.8497 15.6731L21.6139 15.4647V20.7628C21.6139 21.135 21.466 21.492 21.2028 21.7552C20.9396 22.0184 20.5826 22.1662 20.2104 22.1662H11.7896C11.4174 22.1662 11.0604 22.0184 10.7972 21.7552C10.534 21.492 10.3861 21.135 10.3861 20.7628V15.4647L10.1503 15.6731C10.0103 15.7895 9.83052 15.8469 9.64894 15.8332C9.46737 15.8195 9.29823 15.7358 9.17725 15.5997C9.05628 15.4636 8.99294 15.2858 9.00063 15.1038C9.00831 14.9219 9.08641 14.7501 9.21843 14.6247L15.534 9.0108ZM11.7896 14.2156V20.7628H13.8948V16.5523C13.8948 16.3662 13.9687 16.1877 14.1003 16.0561C14.2319 15.9245 14.4104 15.8506 14.5965 15.8506H17.4035C17.5896 15.8506 17.7681 15.9245 17.8997 16.0561C18.0313 16.1877 18.1052 16.3662 18.1052 16.5523V20.7628H20.2104V14.2163L16 10.4739L11.7896 14.2156ZM16.7017 20.7628V17.2541H15.2983V20.7628H16.7017Z" fill="#161C27"/>
<defs>
<linearGradient id="paint0_linear_809_14203" x1="15.0085" y1="3.41362e-08" x2="15.0085" y2="32" gradientUnits="userSpaceOnUse">
<stop stop-color="#CFE6FF"/>
<stop offset="1" stop-color="white" stop-opacity="0.8"/>
</linearGradient>
</defs>
</svg>
