<svg width="16" height="16" viewBox="0 0 16 16" fill="none" xmlns="http://www.w3.org/2000/svg">
<path fill-rule="evenodd" clip-rule="evenodd" d="M11.6666 1.33325C12.9552 1.33325 13.9999 2.37792 13.9999 3.66659C13.9999 4.95525 12.9552 5.99992 11.6666 5.99992C11.0229 5.99992 10.4401 5.73928 10.018 5.31778L5.9507 7.52088C5.98296 7.67549 5.99992 7.83573 5.99992 7.99992C5.99992 8.16411 5.98296 8.32434 5.9507 8.47896L10.018 10.6821C10.4401 10.2606 11.0229 9.99992 11.6666 9.99992C12.9552 9.99992 13.9999 11.0446 13.9999 12.3333C13.9999 13.6219 12.9552 14.6666 11.6666 14.6666C10.3779 14.6666 9.33325 13.6219 9.33325 12.3333C9.33325 12.1691 9.35021 12.0088 9.38247 11.8542L5.31522 9.65112C4.89307 10.0726 4.31027 10.3333 3.66659 10.3333C2.37792 10.3333 1.33325 9.28858 1.33325 7.99992C1.33325 6.71125 2.37792 5.66659 3.66659 5.66659C4.31027 5.66659 4.89307 5.92723 5.31522 6.34872L9.38247 4.14563C9.35021 3.99101 9.33325 3.83078 9.33325 3.66659C9.33325 2.37792 10.3779 1.33325 11.6666 1.33325ZM11.6666 2.66659C11.1143 2.66659 10.6666 3.1143 10.6666 3.66659C10.6666 4.21887 11.1143 4.66659 11.6666 4.66659C12.2189 4.66659 12.6666 4.21887 12.6666 3.66659C12.6666 3.1143 12.2189 2.66659 11.6666 2.66659ZM3.66659 6.99992C3.1143 6.99992 2.66659 7.44763 2.66659 7.99992C2.66659 8.5522 3.1143 8.99992 3.66659 8.99992C4.21887 8.99992 4.66659 8.5522 4.66659 7.99992C4.66659 7.44763 4.21887 6.99992 3.66659 6.99992ZM10.6666 12.3333C10.6666 11.781 11.1143 11.3333 11.6666 11.3333C12.2189 11.3333 12.6666 11.781 12.6666 12.3333C12.6666 12.8855 12.2189 13.3333 11.6666 13.3333C11.1143 13.3333 10.6666 12.8855 10.6666 12.3333Z" fill="#161C27"/>
</svg>
