<svg width="18" height="18" viewBox="0 0 18 18" fill="none" xmlns="http://www.w3.org/2000/svg">
<path fill-rule="evenodd" clip-rule="evenodd" d="M10.125 1.56836H7.875L7.76306 1.57247C6.98697 1.62973 6.37508 2.27749 6.375 3.0682L6.37452 6.19361L5.81782 6.19388C4.48156 6.19405 3.81248 7.80966 4.75736 8.75454L7.93934 11.9365C8.52513 12.5223 9.47487 12.5223 10.0607 11.9365L13.2426 8.75454L13.3218 8.66949C14.1476 7.71602 13.4791 6.19405 12.1822 6.19388L11.6238 6.19361L11.625 3.06852C11.6251 2.24003 10.9535 1.56836 10.125 1.56836ZM10.125 3.06836L10.1245 7.69361L12.182 7.69388L9 10.8759L5.81802 7.69388L7.87452 7.69361L7.875 3.06836H10.125ZM3 12.7509V11.2509H1.5V12.7509C1.5 13.9769 2.42155 15.0009 3.6 15.0009H14.4C15.5784 15.0009 16.5 13.9769 16.5 12.7509V11.2509H15V12.7509C15 13.1817 14.7127 13.5009 14.4 13.5009H3.6C3.28728 13.5009 3 13.1817 3 12.7509Z" fill="#161C27"/>
</svg>
