<svg width="18" height="18" viewBox="0 0 18 18" fill="none" xmlns="http://www.w3.org/2000/svg">
<path d="M13.2952 4.50589L12 3.95084C11.6947 3.81997 11.6947 3.38706 12 3.25619L13.2952 2.70114C13.3843 2.66292 13.4554 2.59185 13.4936 2.50267L14.0487 1.20754C14.1796 0.902174 14.6125 0.902175 14.7433 1.20754L15.2984 2.50267C15.3366 2.59185 15.4077 2.66291 15.4969 2.70114L16.792 3.25619C17.0974 3.38706 17.0974 3.81997 16.792 3.95084L15.4969 4.50589C15.4077 4.54412 15.3366 4.61518 15.2984 4.70437L14.7433 5.99949C14.6125 6.30486 14.1796 6.30486 14.0487 5.99949L13.4936 4.70437C13.4554 4.61518 13.3843 4.54412 13.2952 4.50589Z" fill="#161C27"/>
<path d="M5.2682 11.2495V3.74908C5.2684 2.51709 6.26753 1.51796 7.49953 1.51776H11.0371V2.98114H7.49953C7.07525 2.98134 6.73178 3.32481 6.73158 3.74908V11.2495C6.73158 11.6739 7.07513 12.0183 7.49953 12.0185H14.2495C14.6741 12.0185 15.0186 11.674 15.0186 11.2495V6.76263H16.4808V11.2495C16.4808 12.4817 15.4818 13.4808 14.2495 13.4808H7.49953C6.26741 13.4806 5.2682 12.4816 5.2682 11.2495Z" fill="#161C27"/>
<path d="M2.06299 14.0881V6.74908C2.06319 5.51709 3.06232 4.51796 4.29431 4.51776H5.90614L6.05336 4.53314C6.38664 4.60128 6.63783 4.89603 6.63783 5.24945C6.63783 5.60287 6.38664 5.89762 6.05336 5.96576L5.90614 5.98114H4.29431C3.87003 5.98134 3.52656 6.32481 3.52637 6.74908L3.52637 14.0881C3.52637 14.5125 3.86991 14.8569 4.29431 14.8571H10.8583C11.2828 14.8571 11.6273 14.5127 11.6273 14.0881V12.7498C11.6273 12.346 11.9551 12.0181 12.359 12.0181C12.7627 12.0183 13.0896 12.3461 13.0896 12.7498V14.0881C13.0896 15.3204 12.0905 16.3194 10.8583 16.3194H4.29431C3.0622 16.3192 2.06299 15.3203 2.06299 14.0881Z" fill="#161C27"/>
<path d="M8.31359 6.10702C8.5974 5.91982 8.98335 5.95062 9.23314 6.20041L11.8127 8.7811L11.2964 9.29855L10.7789 9.81491L8.71568 7.75168L6.50304 9.96432L5.98558 9.44687L5.46813 8.93051L8.19823 6.20041L8.31359 6.10702Z" fill="#161C27"/>
<path d="M12.3394 7.296C12.6232 7.10856 13.0091 7.1397 13.259 7.38939L16.3362 10.4667L15.8188 10.9841L15.3024 11.5016L12.7415 8.94066L8.39423 13.289L7.87678 12.7716L7.35932 12.2552L12.2252 7.38939L12.3394 7.296Z" fill="#161C27"/>
</svg>
