<svg width="16" height="16" viewBox="0 0 16 16" fill="none" xmlns="http://www.w3.org/2000/svg">
<path fill-rule="evenodd" clip-rule="evenodd" d="M14.6663 7.9987C14.6663 4.3168 11.6816 1.33203 7.99967 1.33203C4.31778 1.33203 1.33301 4.3168 1.33301 7.9987C1.33301 11.6806 4.31778 14.6654 7.99967 14.6654C11.6816 14.6654 14.6663 11.6806 14.6663 7.9987ZM2.66634 7.9987C2.66634 5.05318 5.05416 2.66536 7.99967 2.66536C10.9452 2.66536 13.333 5.05318 13.333 7.9987C13.333 10.9442 10.9452 13.332 7.99967 13.332C5.05416 13.332 2.66634 10.9442 2.66634 7.9987ZM8.66634 4.66536V5.9987H7.33301V4.66536H8.66634ZM8.66634 11.332V6.66536H7.33301V11.332H8.66634Z" fill="#001846"/>
</svg>
