<svg width="18" height="18" viewBox="0 0 18 18" fill="none" xmlns="http://www.w3.org/2000/svg">
<path d="M10.9084 1.49084C13.1208 1.89018 15.072 3.25567 15.9918 5.3833C17.0551 7.84323 16.4328 10.6015 14.7108 12.5958L13.6034 11.64C15.0148 10.0056 15.4582 7.8347 14.6493 5.96338C13.9482 4.34168 12.4433 3.25394 10.6491 2.93005L10.9084 1.49084ZM4.21335 5.40967C3.22299 6.6805 2.78993 8.23432 3.03561 9.70422L1.59311 9.94592C1.27263 8.0296 1.84553 6.06915 3.05978 4.51099L4.21335 5.40967Z" fill="#161C27"/>
<path d="M10.1671 15.2029C10.4245 15.5403 10.9066 15.6048 11.2442 15.3475C11.5815 15.0902 11.6465 14.6088 11.3895 14.2713L7.75622 9.50379L6.47351 9.0876L6.53377 10.4354L10.1671 15.2029ZM5.23222 11.14C5.14208 11.0217 5.08969 10.8789 5.08294 10.7303L4.96469 8.09921C4.95384 7.8596 5.06077 7.62955 5.25154 7.48417C5.44227 7.33896 5.6926 7.29672 5.92063 7.37069L8.42525 8.18309C8.56678 8.229 8.69141 8.3167 8.78162 8.43502L12.5534 13.3843C13.3 14.3643 13.111 15.7645 12.1312 16.5115C11.1512 17.2583 9.75102 17.0691 9.00403 16.0892L5.23222 11.14Z" fill="#161C27"/>
<path d="M6.02424 4.68753L4.72911 4.13248C4.42375 4.00161 4.42375 3.5687 4.72911 3.43783L6.02424 2.88278C6.11342 2.84456 6.18449 2.77349 6.22271 2.68431L6.77776 1.38918C6.90864 1.08381 7.34154 1.08382 7.47241 1.38918L8.02747 2.68431C8.06569 2.77349 8.13675 2.84456 8.22594 2.88278L9.52106 3.43783C9.82643 3.5687 9.82643 4.00161 9.52106 4.13248L8.22594 4.68753C8.13675 4.72576 8.06569 4.79682 8.02747 4.88601L7.47241 6.18113C7.34154 6.4865 6.90864 6.4865 6.77776 6.18113L6.22271 4.88601C6.18449 4.79682 6.11342 4.72576 6.02424 4.68753Z" fill="#161C27"/>
</svg>
