<svg width="16" height="16" viewBox="0 0 16 16" fill="none" xmlns="http://www.w3.org/2000/svg">
<path d="M2.6333 4.78931H10.2222C12.4865 4.78936 14.3218 6.62458 14.3218 8.88892C14.3218 11.0886 12.5894 12.8838 10.4146 12.9846H10.4126L10.2241 12.9885H3.10498C2.8045 12.9883 2.56109 12.7451 2.56104 12.4446C2.56104 12.1773 2.75338 11.9546 3.00732 11.9084L3.01611 11.9075L3.09619 11.9006L3.10498 11.8997H10.2222C11.8851 11.8996 13.2329 10.5519 13.2329 8.88892C13.2329 7.28139 11.9733 5.96784 10.3872 5.88208V5.8811L10.2192 5.87817H2.6333C2.33266 5.87812 2.08936 5.6339 2.08936 5.33325C2.08941 5.06595 2.28168 4.84424 2.53564 4.7981L2.54443 4.79614L2.62451 4.78931L2.6333 4.78833V4.78931Z" fill="#161C27" stroke="#161C27" stroke-width="0.2"/>
<path d="M4.67673 6.83444C4.88917 7.04705 4.88922 7.39112 4.67673 7.6037C4.46416 7.81626 4.11941 7.81685 3.90678 7.60439L1.6363 5.33391L2.40625 4.56397L4.67673 6.83444Z" fill="#161C27" stroke="#161C27" stroke-width="0.2"/>
<path d="M2.40618 6.10286L1.63623 5.33291L3.90671 3.06244C4.11933 2.84989 4.46406 2.85053 4.67665 3.06313C4.88917 3.27573 4.88917 3.61978 4.67665 3.83238L2.40618 6.10286Z" fill="#161C27" stroke="#161C27" stroke-width="0.2"/>
</svg>
