<svg width="24" height="24" viewBox="0 0 24 24" fill="none" xmlns="http://www.w3.org/2000/svg">
<path d="M10.5914 8.68743C10.743 8.17787 10.8523 7.65313 10.9163 7.11823C12.4899 7.34478 14.1217 7.04775 15.5431 6.22714L15.8857 6.02935C17.4162 5.14569 19.3733 5.6701 20.2569 7.20063C21.1406 8.73117 20.6162 10.6883 19.0857 11.5719L18.7431 11.7697C18.616 11.8431 18.4916 11.92 18.3702 12.0004C17.9038 11.6919 17.4798 11.3335 17.1039 10.9345C17.3711 10.7366 17.6511 10.5527 17.9431 10.3841L18.2857 10.1863C19.0509 9.74445 19.3131 8.7659 18.8713 8.00063C18.4295 7.23536 17.4509 6.97316 16.6857 7.41499L16.3431 7.61278C14.5767 8.63257 12.5445 8.99078 10.5914 8.68743Z" fill="url(#paint0_linear_11756_31058)"/>
<path d="M10.3342 17.608C9.7854 17.7458 9.25031 17.9554 8.74309 18.2366V18.4006C8.74309 20.168 10.1758 21.6006 11.9431 21.6006C13.7104 21.6006 15.1431 20.168 15.1431 18.4006V18.0051C15.1431 16.3499 15.7113 14.7757 16.7099 13.5209C16.2786 13.1982 15.879 12.8412 15.5138 12.4551C14.2587 13.9999 13.5431 15.9515 13.5431 18.0051V18.4006C13.5431 19.2843 12.8267 20.0006 11.9431 20.0006C11.0594 20.0006 10.3431 19.2843 10.3431 18.4006V18.0051C10.3431 17.8723 10.3401 17.7399 10.3342 17.608Z" fill="url(#paint1_linear_11756_31058)"/>
<path d="M8.72972 6.43496C8.59928 6.36988 8.47034 6.30061 8.34308 6.22714L8.00053 6.02937C6.47 5.14571 4.51291 5.67011 3.62925 7.20065C2.74559 8.73118 3.27 10.6883 4.80053 11.5719L5.14309 11.7697C6.7552 12.7005 7.91935 14.2024 8.43964 15.9363C8.93355 15.7219 9.44244 15.5548 9.95968 15.4352C9.31775 13.3335 7.90062 11.5142 5.94309 10.3841L5.60053 10.1863C4.83526 9.74446 4.57306 8.76591 5.01489 8.00065C5.45672 7.23538 6.43526 6.97318 7.20053 7.41501L7.54308 7.61278C7.83518 7.78142 8.13455 7.93197 8.43963 8.06443C8.59718 7.5394 8.69569 6.9931 8.72972 6.43496Z" fill="url(#paint2_linear_11756_31058)"/>
<path d="M7.97633 12.0002C7.61412 11.612 7.21502 11.2549 6.78233 10.9343C8.02417 9.61675 8.74309 7.85729 8.74309 5.99547V5.5999C8.74309 3.83259 10.1758 2.3999 11.9431 2.3999C13.7104 2.3999 15.1431 3.83259 15.1431 5.5999V5.99545C15.1431 6.14258 15.1476 6.28908 15.1565 6.43477C14.6561 6.68441 14.1338 6.87229 13.6003 6.99841C13.5624 6.66774 13.5431 6.33297 13.5431 5.99545V5.5999C13.5431 4.71625 12.8268 3.9999 11.9431 3.9999C11.0594 3.9999 10.3431 4.71625 10.3431 5.5999V5.99547C10.3431 8.25613 9.47588 10.3933 7.97633 12.0002Z" fill="url(#paint3_linear_11756_31058)"/>
<path d="M8.00053 17.9712C6.47 18.8548 4.51291 18.3304 3.62925 16.7999C2.74559 15.2694 3.26999 13.3123 4.80053 12.4286L4.94164 12.3472C5.43886 12.6458 5.88794 13.0044 6.28178 13.4107C6.17077 13.4816 6.05786 13.5502 5.94309 13.6165L5.60053 13.8143C4.83526 14.2561 4.57306 15.2346 5.01489 15.9999C5.45672 16.7652 6.43526 17.0274 7.20053 16.5856L7.54311 16.3878C9.50084 15.2575 11.7852 14.9399 13.9265 15.435C13.7714 15.9428 13.6616 16.467 13.6003 17.0019C11.8384 16.5854 9.95538 16.8426 8.34311 17.7734L8.00053 17.9712Z" fill="url(#paint4_linear_11756_31058)"/>
<path d="M15.7837 17.9123L15.8857 17.9712C17.4162 18.8548 19.3733 18.3304 20.2569 16.7999C21.1406 15.2694 20.6162 13.3123 19.0857 12.4286L18.7431 12.2308C17.31 11.4034 16.2309 10.1246 15.6434 8.63278C15.1483 8.84488 14.6394 9.01251 14.1223 9.13568C14.8327 10.9947 16.165 12.5899 17.9431 13.6165L18.2857 13.8143C19.0509 14.2561 19.3131 15.2346 18.8713 15.9999C18.4295 16.7652 17.4509 17.0274 16.6857 16.5855L16.3431 16.3878C16.2401 16.3283 16.1362 16.2711 16.0315 16.2161C15.8769 16.7615 15.7919 17.3311 15.7837 17.9123Z" fill="url(#paint5_linear_11756_31058)"/>
<defs>
<linearGradient id="paint0_linear_11756_31058" x1="11.9431" y1="5.6001" x2="11.9431" y2="21.6006" gradientUnits="userSpaceOnUse">
<stop stop-color="#EB6296"/>
<stop offset="1" stop-color="#FF7257"/>
</linearGradient>
<linearGradient id="paint1_linear_11756_31058" x1="11.9431" y1="5.6001" x2="11.9431" y2="21.6006" gradientUnits="userSpaceOnUse">
<stop stop-color="#EB6296"/>
<stop offset="1" stop-color="#FF7257"/>
</linearGradient>
<linearGradient id="paint2_linear_11756_31058" x1="11.9431" y1="5.6001" x2="11.9431" y2="21.6006" gradientUnits="userSpaceOnUse">
<stop stop-color="#EB6296"/>
<stop offset="1" stop-color="#FF7257"/>
</linearGradient>
<linearGradient id="paint3_linear_11756_31058" x1="11.9431" y1="2.3999" x2="11.9431" y2="18.4004" gradientUnits="userSpaceOnUse">
<stop stop-color="#5C8DFF"/>
<stop offset="0.5" stop-color="#A079FF"/>
<stop offset="1" stop-color="#D06AD6"/>
</linearGradient>
<linearGradient id="paint4_linear_11756_31058" x1="11.9431" y1="2.3999" x2="11.9431" y2="18.4004" gradientUnits="userSpaceOnUse">
<stop stop-color="#5C8DFF"/>
<stop offset="0.5" stop-color="#A079FF"/>
<stop offset="1" stop-color="#D06AD6"/>
</linearGradient>
<linearGradient id="paint5_linear_11756_31058" x1="11.9431" y1="2.3999" x2="11.9431" y2="18.4004" gradientUnits="userSpaceOnUse">
<stop stop-color="#5C8DFF"/>
<stop offset="0.5" stop-color="#A079FF"/>
<stop offset="1" stop-color="#D06AD6"/>
</linearGradient>
</defs>
</svg>
