<svg width="32" height="32" viewBox="0 0 32 32" fill="none" xmlns="http://www.w3.org/2000/svg">
<path d="M11.5 16C11.5 18.4853 13.5147 20.5 16 20.5C18.4853 20.5 20.5 18.4853 20.5 16H22C22 19.0595 19.7101 21.5841 16.7507 21.9535L16.75 23.5H15.25L15.25 21.9536C12.2903 21.5845 10 19.0597 10 16H11.5ZM16 8.5C17.6569 8.5 19 9.84315 19 11.5V16C19 17.6569 17.6569 19 16 19C14.3431 19 13 17.6569 13 16V11.5C13 9.84315 14.3431 8.5 16 8.5ZM16 10C15.1716 10 14.5 10.6716 14.5 11.5V16C14.5 16.8284 15.1716 17.5 16 17.5C16.8284 17.5 17.5 16.8284 17.5 16V11.5C17.5 10.6716 16.8284 10 16 10Z" fill="#0E131E"/>
</svg>
