<svg width="16" height="16" viewBox="0 0 16 16" fill="none" xmlns="http://www.w3.org/2000/svg">
<path fill-rule="evenodd" clip-rule="evenodd" d="M11.3333 8.00001C11.3333 8.64434 11.8556 9.16668 12.5 9.16668C13.1443 9.16668 13.6666 8.64434 13.6666 8.00001C13.6666 7.35568 13.1443 6.83334 12.5 6.83334C11.8556 6.83334 11.3333 7.35568 11.3333 8.00001ZM6.83329 8.00001C6.83329 8.64434 7.35563 9.16668 7.99996 9.16668C8.64429 9.16668 9.16663 8.64434 9.16663 8.00001C9.16663 7.35568 8.64429 6.83334 7.99996 6.83334C7.35563 6.83334 6.83329 7.35568 6.83329 8.00001ZM2.33329 8.00001C2.33329 8.64434 2.85563 9.16668 3.49996 9.16668C4.14429 9.16668 4.66663 8.64434 4.66663 8.00001C4.66663 7.35568 4.14429 6.83334 3.49996 6.83334C2.85563 6.83334 2.33329 7.35568 2.33329 8.00001Z" fill="#161C27"/>
</svg>
