<svg width="16" height="16" viewBox="0 0 16 16" fill="none" xmlns="http://www.w3.org/2000/svg">
<path fill-rule="evenodd" clip-rule="evenodd" d="M1.80478 14.6661C1.9298 14.6661 2.04971 14.6165 2.13811 14.5281L4.66671 11.9995H12C13.4728 11.9995 14.6667 10.8056 14.6667 9.3328V3.99946C14.6667 2.5267 13.4728 1.33279 12 1.33279H4.00004C2.52728 1.33279 1.33337 2.5267 1.33337 3.99946V14.1947C1.33337 14.4551 1.54443 14.6661 1.80478 14.6661ZM12 10.6661H4.11442L2.66671 12.1138V3.99946C2.66671 3.26308 3.26366 2.66613 4.00004 2.66613H12C12.7364 2.66613 13.3334 3.26308 13.3334 3.99946V9.3328C13.3334 10.0692 12.7364 10.6661 12 10.6661Z" fill="#855EE1"/>
<path d="M6.90276 7.68834L5.58708 7.12447C5.27687 6.99152 5.27687 6.55175 5.58708 6.4188L6.90276 5.85493C6.99336 5.8161 7.06556 5.74391 7.10439 5.65331L7.66825 4.33763C7.8012 4.02742 8.24098 4.02742 8.37392 4.33763L8.93779 5.65331C8.97662 5.74391 9.04881 5.8161 9.13941 5.85493L10.4551 6.4188C10.7653 6.55175 10.7653 6.99153 10.4551 7.12447L9.13941 7.68834C9.04881 7.72717 8.97662 7.79936 8.93779 7.88996L8.37392 9.20564C8.24098 9.51586 7.8012 9.51586 7.66825 9.20564L7.10439 7.88996C7.06556 7.79936 6.99336 7.72717 6.90276 7.68834Z" fill="#855EE1"/>
</svg>
