<svg width="18" height="18" viewBox="0 0 18 18" fill="none" xmlns="http://www.w3.org/2000/svg">
<path fill-rule="evenodd" clip-rule="evenodd" d="M5.25 2.25C3.59315 2.25 2.25 3.59315 2.25 5.25V12.75C2.25 14.4069 3.59315 15.75 5.25 15.75H12.75C14.4069 15.75 15.75 14.4069 15.75 12.75V5.25C15.75 3.59315 14.4069 2.25 12.75 2.25H5.25ZM12.75 3.6H5.25C4.33873 3.6 3.6 4.33873 3.6 5.25V12.75C3.6 13.6613 4.33873 14.4 5.25 14.4H12.75C13.6613 14.4 14.4 13.6613 14.4 12.75V5.25C14.4 4.33873 13.6613 3.6 12.75 3.6Z" fill="#161C27"/>
<path fill-rule="evenodd" clip-rule="evenodd" d="M12.8721 4.57422C13.1776 4.57422 13.4253 4.82188 13.4253 5.12738V9.55267H12.0724V6.86201L6.8625 12.0739H9.55316V13.4248H5.12787C4.82237 13.4248 4.57471 13.1771 4.57471 12.8716V8.44635H5.92383V11.137L11.1375 5.92683H8.44684V4.57422H12.8721Z" fill="#161C27"/>
</svg>
