<svg width="48" height="48" viewBox="0 0 48 48" fill="none" xmlns="http://www.w3.org/2000/svg">
<path d="M12.1204 42.9609C10.6804 42.9609 9.12043 42.7209 7.80043 42.2409C4.80043 41.1609 3.24043 39.0009 3.12043 36.2409C3.00043 32.0409 6.24043 30.6009 8.76043 29.5209C11.1604 28.4409 12.4804 27.8409 12.4804 26.0409C12.4804 23.8809 8.76043 22.0809 7.20043 21.8409C6.91613 21.7224 6.67327 21.5225 6.50243 21.2662C6.33159 21.01 6.24043 20.7089 6.24043 20.4009C6.36043 19.8009 6.96043 19.3209 7.56043 19.4409C9.72043 19.8009 14.8804 22.0809 14.8804 26.0409C14.8804 29.5209 12.0004 30.7209 9.72043 31.6809C7.08043 32.8809 5.40043 33.7209 5.52043 36.2409C5.52043 38.0409 6.60043 39.3609 8.52043 40.0809C11.6404 41.2809 16.3204 40.4409 17.5204 39.0009C18.0004 38.5209 18.7204 38.4009 19.2004 38.8809C19.6804 39.3609 19.8004 40.0809 19.3204 40.5609C18.1204 42.0009 15.1204 42.9609 12.1204 42.9609ZM40.1118 13.9154L32.9007 9.47167L34.1303 7.6089C34.436 7.145 34.8303 6.74603 35.2906 6.43488C35.7509 6.12374 36.268 5.90653 36.8125 5.79572C37.3569 5.68492 37.9178 5.6827 38.4631 5.78919C39.0084 5.89568 39.5272 6.10879 39.99 6.41628C40.9262 7.03822 41.5778 8.00588 41.8021 9.1073C42.0263 10.2087 41.8049 11.3541 41.1863 12.2926L40.1118 13.9172V13.9154ZM38.598 16.212L28.4072 31.6458L21.3512 26.964L31.4201 11.7147L38.5961 16.212H38.598ZM20.214 34.8618L20.1863 28.7271L27.2441 33.4126L21.6097 35.7849C21.4571 35.849 21.291 35.8744 21.1263 35.859C20.9615 35.8436 20.8031 35.7877 20.6651 35.6964C20.527 35.6051 20.4137 35.4812 20.335 35.3356C20.2563 35.1901 20.2147 35.0273 20.214 34.8618Z" fill="#666666"/>
</svg>
