<svg width="24" height="24" viewBox="0 0 24 24" fill="none" xmlns="http://www.w3.org/2000/svg">
<path fill-rule="evenodd" clip-rule="evenodd" d="M3.68678 9.00467C3.78764 9.65729 4.55091 10.2043 6.19554 10.7519L4.60879 12.3387C2.75935 11.598 1.92636 10.7085 1.71024 9.31015C1.50893 8.00757 2.09 7.02096 3.2277 6.40782C3.9016 6.04463 4.55191 5.85791 5.93535 5.57057L6.27669 5.50056C7.89762 5.17088 8.55666 4.97267 8.95353 4.65251C9.28009 4.38907 9.30054 4.00732 8.73647 3.00998L10.4773 2.02539C11.4779 3.79449 11.4 5.24859 10.2093 6.20914C9.49175 6.78797 8.74365 7.03113 6.96487 7.40092L6.14145 7.57202C4.0995 8.01482 3.58435 8.34196 3.68678 9.00467ZM17.5283 13.5613L15.9753 15.1143C17.2718 15.5038 17.908 15.8366 18.3857 16.1657C19.1425 16.6871 19.5785 17.9313 18.8133 18.6033C18.104 19.2262 16.4224 19.4288 14.2508 19.1936L14.0354 21.1819C16.6696 21.4673 18.8207 21.1727 20.0647 20.2181C21.5653 19.0665 21.7269 17.0049 20.235 15.3405C19.6042 14.6368 18.8476 14.0784 17.5283 13.5613ZM8.81838 20.132L20.4856 8.46474C21.8525 7.09791 21.8525 4.88183 20.4856 3.51499C19.1188 2.14816 16.9027 2.14816 15.5359 3.51499L3.86863 15.1823L2.53714 20.2419C2.34224 20.9825 3.0181 21.6584 3.75871 21.4635L8.81838 20.132ZM7.7865 18.3355L16.5966 9.5254L14.4752 7.40408L5.66518 16.2141L4.90756 19.0931L7.7865 18.3355ZM19.0714 7.05053L18.0108 8.11119L15.8895 5.98987L16.9501 4.92921C17.5359 4.34342 18.4856 4.34342 19.0714 4.92921C19.6572 5.51499 19.6572 6.46474 19.0714 7.05053Z" fill="#855EE1"/>
</svg>
