<svg width="20" height="20" viewBox="0 0 20 20" fill="none" xmlns="http://www.w3.org/2000/svg">
<path fill-rule="evenodd" clip-rule="evenodd" d="M4.45769 8.00246C4.52493 8.43754 5.03378 8.80222 6.1302 9.1673L5.07237 10.2251C3.83941 9.73135 3.28408 9.13834 3.14 8.20612C3.00579 7.33773 3.39317 6.67999 4.15164 6.27123C4.6009 6.0291 5.03444 5.90462 5.95674 5.71306L6.1843 5.66639C7.26492 5.4466 7.70428 5.31446 7.96886 5.10102C8.18656 4.9254 8.2002 4.67089 7.82415 4.006L8.98472 3.34961C9.65177 4.52901 9.59983 5.49841 8.80602 6.13878C8.32767 6.52466 7.82894 6.68677 6.64309 6.9333L6.09414 7.04736C4.73284 7.34256 4.38941 7.56066 4.45769 8.00246ZM13.6854 11.0402L12.65 12.0756C13.5144 12.3352 13.9385 12.5571 14.257 12.7765C14.7615 13.1241 15.0522 13.9536 14.5421 14.4016C14.0692 14.8168 12.9481 14.9519 11.5004 14.7951L11.3568 16.1206C13.1129 16.3109 14.547 16.1145 15.3763 15.4781C16.3767 14.7103 16.4844 13.3359 15.4898 12.2264C15.0693 11.7572 14.5649 11.3849 13.6854 11.0402ZM7.87876 15.4207L15.6569 7.64251C16.5682 6.73129 16.5682 5.2539 15.6569 4.34268C14.7457 3.43146 13.2683 3.43146 12.3571 4.34268L4.57893 12.1209L3.69127 15.494C3.56133 15.9877 4.0119 16.4383 4.50564 16.3083L7.87876 15.4207ZM7.19084 14.223L13.0642 8.34962L11.65 6.9354L5.77662 12.8088L5.27155 14.7281L7.19084 14.223ZM14.7141 6.6997L14.007 7.40681L12.5928 5.99259L13.2999 5.28549C13.6904 4.89496 14.3236 4.89496 14.7141 5.28549C15.1046 5.67601 15.1046 6.30918 14.7141 6.6997Z" fill="#0E131E"/>
</svg>
