<svg width="16" height="16" viewBox="0 0 16 16" fill="none" xmlns="http://www.w3.org/2000/svg">
<path fill-rule="evenodd" clip-rule="evenodd" d="M10.6667 2.33336L14.6667 3.04701V4.71744L12 4.25993V11.3334C12 12.8061 10.8061 14 9.33334 14C7.86058 14 6.66668 12.8061 6.66668 11.3334C6.66668 9.86063 7.86058 8.66669 9.33334 8.66669C9.81908 8.66669 10.2745 8.79656 10.6667 9.02343V2.33336ZM9.33334 10C8.59696 10 8.00001 10.597 8.00001 11.3334C8.00001 12.0697 8.59696 12.6667 9.33334 12.6667C10.0697 12.6667 10.6667 12.0697 10.6667 11.3334C10.6667 10.597 10.0697 10 9.33334 10ZM8.00001 6.00003V7.33336H1.33334V6.00003H8.00001ZM9.33334 2.66669V4.00003H1.33334V2.66669H9.33334Z" fill="#161C27"/>
<path d="M2.641 12.0264L1.52984 11.5502C1.26785 11.4379 1.26785 11.0665 1.52984 10.9542L2.641 10.478C2.71752 10.4452 2.77849 10.3842 2.81128 10.3077L3.2875 9.19653C3.39978 8.93454 3.77119 8.93454 3.88347 9.19653L4.35969 10.3077C4.39248 10.3842 4.45345 10.4452 4.52997 10.478L5.64113 10.9542C5.90312 11.0665 5.90312 11.4379 5.64113 11.5502L4.52997 12.0264C4.45345 12.0592 4.39248 12.1201 4.35969 12.1967L3.88347 13.3078C3.77119 13.5698 3.39978 13.5698 3.2875 13.3078L2.81128 12.1967C2.77849 12.1201 2.71752 12.0592 2.641 12.0264Z" fill="#161C27"/>
</svg>
