<svg width="22" height="24" viewBox="0 0 22 24" fill="none" xmlns="http://www.w3.org/2000/svg">
<path d="M9.23932 7.85826C9.42887 7.22131 9.56544 6.56537 9.64542 5.89674C11.6126 6.17993 13.6523 5.80864 15.429 4.78286L15.8573 4.53562C17.7705 3.43103 20.2169 4.08655 21.3214 5.99974C22.426 7.91294 21.7705 10.3593 19.8573 11.4639L19.4291 11.7111C19.2702 11.8029 19.1148 11.8991 18.963 11.9995C18.3799 11.6139 17.85 11.1658 17.38 10.6672C17.714 10.4198 18.064 10.1898 18.4291 9.97907L18.8573 9.73184C19.8139 9.17955 20.1417 7.95635 19.5894 6.99976C19.0371 6.04316 17.8139 5.7154 16.8573 6.26769L16.429 6.51493C14.2211 7.78969 11.6808 8.23746 9.23932 7.85826Z" fill="url(#paint0_linear_597_77639)"/>
<path d="M8.91779 19.0091C8.23184 19.1814 7.56297 19.4434 6.92893 19.7949V19.9999C6.92893 22.2091 8.71982 24 10.929 24C13.1382 24 14.929 22.2091 14.929 19.9999V19.5055C14.929 17.4365 15.6393 15.4687 16.8875 13.9002C16.3485 13.4968 15.8489 13.0506 15.3924 12.5679C13.8235 14.4989 12.929 16.9385 12.929 19.5055V19.9999C12.929 21.1045 12.0336 22 10.929 22C9.8244 22 8.92896 21.1045 8.92896 19.9999V19.5055C8.92896 19.3395 8.92522 19.1739 8.91779 19.0091Z" fill="url(#paint1_linear_597_77639)"/>
<path d="M6.91221 5.04264C6.74916 4.96129 6.58798 4.87469 6.42891 4.78285L6.00072 4.53564C4.08752 3.43105 1.64113 4.08656 0.536543 5.99976C-0.568042 7.91296 0.0874689 10.3594 2.00067 11.4639L2.42887 11.7112C4.44404 12.8746 5.89924 14.7521 6.54961 16.9195C7.16701 16.6514 7.80313 16.4426 8.44969 16.2931C7.64727 13.666 5.87583 11.3918 3.42889 9.97909L3.00068 9.73186C2.04408 9.17957 1.71633 7.95637 2.26862 6.99977C2.82091 6.04318 4.04411 5.71542 5.00071 6.26771L5.4289 6.51493C5.79403 6.72574 6.16825 6.91393 6.5496 7.0795C6.74654 6.4232 6.86968 5.74032 6.91221 5.04264Z" fill="url(#paint2_linear_597_77639)"/>
<path d="M5.97047 12.0005C5.5177 11.5153 5.01882 11.0688 4.47795 10.6682C6.03027 9.02115 6.92894 6.82179 6.92894 4.49448V4.00002C6.92894 1.79085 8.71982 -3.8147e-05 10.929 -3.8147e-05C13.1382 -3.8147e-05 14.929 1.79085 14.929 4.00002V4.49446C14.929 4.67838 14.9347 4.8615 14.9458 5.04361C14.3203 5.35566 13.6674 5.59052 13.0005 5.74817C12.9532 5.33483 12.929 4.91637 12.929 4.49446V4.00002C12.929 2.89543 12.0336 1.99999 10.929 1.99999C9.82441 1.99999 8.92896 2.89543 8.92896 4.00002V4.49448C8.92896 7.32035 7.84492 9.99187 5.97047 12.0005Z" fill="url(#paint3_linear_597_77639)"/>
<path d="M6.00072 19.4643C4.08752 20.5689 1.64113 19.9134 0.536543 18.0002C-0.568042 16.087 0.087468 13.6406 2.00066 12.536L2.17705 12.4342C2.79858 12.8075 3.35994 13.2558 3.85225 13.7636C3.71349 13.8523 3.57235 13.9381 3.42889 14.0209L3.00068 14.2681C2.04408 14.8204 1.71633 16.0436 2.26862 17.0002C2.82091 17.9568 4.04411 18.2846 5.00071 17.7323L5.42893 17.485C7.87613 16.0721 10.7316 15.6752 13.4083 16.2941C13.2144 16.9288 13.0771 17.5841 13.0005 18.2528C10.7982 17.7321 8.44431 18.0535 6.42895 19.2171L6.00072 19.4643Z" fill="url(#paint4_linear_597_77639)"/>
<path d="M15.7298 19.3907L15.8573 19.4643C17.7705 20.5689 20.2169 19.9134 21.3214 18.0002C22.426 16.087 21.7705 13.6406 19.8573 12.536L19.4291 12.2888C17.6377 11.2545 16.2888 9.656 15.5545 7.79116C14.9356 8.05629 14.2994 8.26584 13.6531 8.4198C14.5411 10.7436 16.2064 12.7376 18.4291 14.0209L18.8573 14.2681C19.8139 14.8204 20.1417 16.0436 19.5894 17.0002C19.0371 17.9568 17.8139 18.2845 16.8573 17.7322L16.4291 17.485C16.3003 17.4107 16.1705 17.3392 16.0395 17.2705C15.8463 17.9522 15.74 18.6642 15.7298 19.3907Z" fill="url(#paint5_linear_597_77639)"/>
<defs>
<linearGradient id="paint0_linear_597_77639" x1="10.929" y1="3.99905" x2="10.929" y2="24" gradientUnits="userSpaceOnUse">
<stop stop-color="#EB6296"/>
<stop offset="1" stop-color="#FF7257"/>
</linearGradient>
<linearGradient id="paint1_linear_597_77639" x1="10.929" y1="3.99905" x2="10.929" y2="24" gradientUnits="userSpaceOnUse">
<stop stop-color="#EB6296"/>
<stop offset="1" stop-color="#FF7257"/>
</linearGradient>
<linearGradient id="paint2_linear_597_77639" x1="10.929" y1="3.99905" x2="10.929" y2="24" gradientUnits="userSpaceOnUse">
<stop stop-color="#EB6296"/>
<stop offset="1" stop-color="#FF7257"/>
</linearGradient>
<linearGradient id="paint3_linear_597_77639" x1="10.929" y1="-3.8147e-05" x2="10.929" y2="20.0009" gradientUnits="userSpaceOnUse">
<stop stop-color="#5C8DFF"/>
<stop offset="0.5" stop-color="#A079FF"/>
<stop offset="1" stop-color="#D06AD6"/>
</linearGradient>
<linearGradient id="paint4_linear_597_77639" x1="10.929" y1="-3.8147e-05" x2="10.929" y2="20.0009" gradientUnits="userSpaceOnUse">
<stop stop-color="#5C8DFF"/>
<stop offset="0.5" stop-color="#A079FF"/>
<stop offset="1" stop-color="#D06AD6"/>
</linearGradient>
<linearGradient id="paint5_linear_597_77639" x1="10.929" y1="-3.8147e-05" x2="10.929" y2="20.0009" gradientUnits="userSpaceOnUse">
<stop stop-color="#5C8DFF"/>
<stop offset="0.5" stop-color="#A079FF"/>
<stop offset="1" stop-color="#D06AD6"/>
</linearGradient>
</defs>
</svg>
