<svg width="16" height="16" viewBox="0 0 16 16" fill="none" xmlns="http://www.w3.org/2000/svg">
<path fill-rule="evenodd" clip-rule="evenodd" d="M13.3333 2V5.33333C13.3333 5.70152 13.0349 6 12.6667 6H9.33333V4.66667L11.2663 4.66651C10.4072 3.82388 9.24508 3.33333 8 3.33333C5.42267 3.33333 3.33333 5.42267 3.33333 8C3.33333 10.5773 5.42267 12.6667 8 12.6667C10.5773 12.6667 12.6667 10.5773 12.6667 8H14C14 11.3137 11.3137 14 8 14C4.68629 14 2 11.3137 2 8C2 4.68629 4.68629 2 8 2C9.50612 2 10.9193 2.55936 12.0009 3.52807L12 2H13.3333Z" fill="#161C27"/>
</svg>
