<svg width="16" height="16" viewBox="0 0 16 16" fill="none" xmlns="http://www.w3.org/2000/svg">
<path d="M1.61203 10.3978C1.72289 9.66447 2.45016 9.18828 3.17356 9.37434L4.92453 9.82453C5.24308 9.90656 5.4346 10.2291 5.35227 10.5452C5.26964 10.8616 4.94352 11.052 4.62473 10.97L3.60422 10.7073C4.42764 11.9215 5.98463 13.6687 8.66379 13.4671C10.0128 13.3656 11.1829 12.7739 12.0476 12.0657C12.4789 11.7125 12.8255 11.3375 13.073 10.9945C13.3275 10.6417 13.4515 10.3584 13.4851 10.1907C13.5494 9.87047 13.8634 9.6623 14.1863 9.7259C14.5092 9.78969 14.7193 10.1017 14.655 10.4222C14.575 10.8208 14.3466 11.2616 14.0427 11.6829C13.7316 12.1141 13.3135 12.5642 12.8073 12.9788C11.7969 13.8064 10.3995 14.523 8.75364 14.6468C5.47726 14.8931 3.58441 12.7756 2.66086 11.4349L2.51926 12.3792C2.47038 12.7022 2.16703 12.9245 1.84153 12.8763C1.51584 12.8279 1.29079 12.5266 1.33957 12.2034L1.61203 10.3978ZM7.24582 1.35285C10.5214 1.10651 12.4138 3.22394 13.3376 4.56477L13.4802 3.62141C13.529 3.29827 13.8332 3.07593 14.1589 3.12434C14.4843 3.17298 14.7086 3.47417 14.6599 3.79719L14.3874 5.60285C14.2765 6.33597 13.5501 6.81212 12.8269 6.62629L11.0749 6.1761C10.7563 6.09397 10.5646 5.77064 10.6472 5.45442C10.73 5.13829 11.0561 4.94863 11.3747 5.03059L12.3943 5.29231C11.5706 4.07825 10.014 2.33204 7.33567 2.53352C5.98673 2.63505 4.81647 3.22674 3.95188 3.93489C3.52061 4.28813 3.17395 4.66316 2.92649 5.00617C2.67205 5.3589 2.548 5.64223 2.51438 5.80989C2.44993 6.13013 2.13602 6.33842 1.81321 6.27473C1.49022 6.21094 1.28018 5.89894 1.34446 5.57844C1.42441 5.17982 1.65287 4.73901 1.95676 4.3177C2.26785 3.88649 2.68687 3.43642 3.19309 3.0218C4.2035 2.19431 5.60009 1.47665 7.24582 1.35285Z" fill="#161C27"/>
</svg>
