<svg width="18" height="18" viewBox="0 0 18 18" fill="none" xmlns="http://www.w3.org/2000/svg">
<path d="M14.2496 7.53735V8.99963H3.75V7.53735H14.2496ZM15.0374 6.74963C15.0371 6.31455 14.6841 5.96191 14.2496 5.96191H12.0073C10.6404 5.96176 9.62558 4.69589 9.92212 3.36145L9.9397 3.25159C9.99233 2.74085 9.62117 2.27836 9.11133 2.21887L9.00037 2.21228C8.39608 2.21228 7.94777 2.77233 8.07861 3.36145C8.37515 4.69589 7.35925 5.96176 5.99231 5.96191H3.75C3.31556 5.96191 2.9625 6.31455 2.96228 6.74963C2.96228 7.18456 3.31508 7.53735 3.75 7.53735V8.99963C2.50736 8.99963 1.5 7.99227 1.5 6.74963C1.50022 5.50718 2.5075 4.49963 3.75 4.49963H5.99231L6.07141 4.49524C6.46187 4.44991 6.73815 4.07386 6.65039 3.67896C6.31641 2.17605 7.4608 0.75 9.00037 0.75C10.5397 0.750339 11.6832 2.17623 11.3492 3.67896C11.2557 4.10004 11.576 4.49948 12.0073 4.49963H14.2496C15.4921 4.49963 16.4994 5.50718 16.4996 6.74963C16.4996 7.99227 15.4923 8.99963 14.2496 8.99963V7.53735C14.6846 7.53735 15.0374 7.18456 15.0374 6.74963Z" fill="#161C27"/>
<path d="M14.098 8.25028C14.098 10.5558 14.8265 13.0698 15.3032 14.4608C15.6308 15.4173 14.9384 16.4812 13.8772 16.4812H9.01904V15.019H13.8772C13.8838 15.0189 13.8866 15.0171 13.8893 15.0157C13.8935 15.0132 13.9007 15.0075 13.908 14.997C13.9238 14.9739 13.9248 14.9515 13.9189 14.9344C13.4292 13.5052 12.6346 10.8048 12.6346 8.25028H14.098Z" fill="#161C27"/>
<path d="M3.51681 14.408L1.96266 13.742C1.59622 13.5849 1.59622 13.0654 1.96266 12.9084L3.51681 12.2423C3.62383 12.1965 3.70911 12.1112 3.75497 12.0042L4.42104 10.45C4.57809 10.0836 5.09757 10.0836 5.25462 10.45L5.92068 12.0042C5.96655 12.1112 6.05183 12.1965 6.15885 12.2423L7.713 12.9084C8.07944 13.0654 8.07944 13.5849 7.713 13.742L6.15885 14.408C6.05183 14.4539 5.96655 14.5392 5.92068 14.6462L5.25462 16.2004C5.09757 16.5668 4.57809 16.5668 4.42104 16.2003L3.75497 14.6462C3.70911 14.5392 3.62383 14.4539 3.51681 14.408Z" fill="#161C27"/>
</svg>
