<svg width="16" height="16" viewBox="0 0 16 16" fill="none" xmlns="http://www.w3.org/2000/svg">
<path d="M13.3667 4.78931H5.77783C3.51351 4.78936 1.67822 6.62458 1.67822 8.88892C1.67822 11.0886 3.41061 12.8838 5.58545 12.9846H5.5874L5.77588 12.9885H12.895C13.1955 12.9883 13.4389 12.7451 13.439 12.4446C13.439 12.1773 13.2466 11.9546 12.9927 11.9084L12.9839 11.9075L12.9038 11.9006L12.895 11.8997H5.77783C4.11489 11.8996 2.76709 10.5519 2.76709 8.88892C2.76709 7.28139 4.02672 5.96784 5.61279 5.88208V5.8811L5.78076 5.87817H13.3667C13.6673 5.87812 13.9106 5.6339 13.9106 5.33325C13.9106 5.06595 13.7183 4.84424 13.4644 4.7981L13.4556 4.79614L13.3755 4.78931L13.3667 4.78833V4.78931Z" fill="#161C27" stroke="#161C27" stroke-width="0.2"/>
<path d="M11.3233 6.83444C11.1108 7.04705 11.1108 7.39112 11.3233 7.6037C11.5358 7.81626 11.8806 7.81685 12.0932 7.60439L14.3637 5.33391L13.5938 4.56397L11.3233 6.83444Z" fill="#161C27" stroke="#161C27" stroke-width="0.2"/>
<path d="M13.5938 6.10286L14.3638 5.33291L12.0933 3.06244C11.8807 2.84989 11.5359 2.85053 11.3233 3.06313C11.1108 3.27573 11.1108 3.61978 11.3233 3.83238L13.5938 6.10286Z" fill="#161C27" stroke="#161C27" stroke-width="0.2"/>
</svg>
