<svg width="16" height="16" viewBox="0 0 16 16" fill="none" xmlns="http://www.w3.org/2000/svg">
<path fill-rule="evenodd" clip-rule="evenodd" d="M5.20473 11.7376C5.81557 12.1951 6.54225 12.5063 7.33286 12.6194L7.33307 13.9634C6.17593 13.8355 5.11795 13.3786 4.25479 12.6882L5.20473 11.7376ZM10.7943 11.7376L11.7443 12.6882C10.8813 13.3784 9.82357 13.8353 8.66667 13.9633L8.66688 12.6193C9.45723 12.5061 10.1837 12.1949 10.7943 11.7376ZM2.03621 8.66713L3.38022 8.66734C3.49339 9.45769 3.8046 10.1841 4.26196 10.7948L3.31133 11.7448C2.62109 10.8818 2.16419 9.82403 2.03621 8.66713ZM13.9995 8C13.9995 9.41652 13.5087 10.7184 12.6877 11.7448L11.7371 10.7948C12.3206 10.0157 12.6662 9.04823 12.6662 8H13.9995ZM13.3329 2V5.33333C13.3329 5.70152 13.0344 6 12.6662 6H9.33287V4.66667L11.2658 4.66651C10.4067 3.82388 9.24461 3.33333 7.99954 3.33333C5.64856 3.33333 3.70362 5.0718 3.38013 7.33333L2.03613 7.33354C2.36767 4.33347 4.9111 2 7.99954 2C9.50566 2 10.9188 2.55936 12.0004 3.52807L11.9995 2H13.3329Z" fill="#161C27"/>
</svg>
