<svg width="16" height="16" viewBox="0 0 16 16" fill="none" xmlns="http://www.w3.org/2000/svg">
<path fill-rule="evenodd" clip-rule="evenodd" d="M10.8309 11.7376L11.7809 12.6882C10.9177 13.3786 9.85974 13.8355 8.7026 13.9634L8.7028 12.6194C9.49342 12.5063 10.2201 12.1951 10.8309 11.7376ZM5.24133 11.7376C5.85199 12.1949 6.57844 12.5061 7.36879 12.6193L7.369 13.9633C6.2121 13.8353 5.15435 13.3784 4.29135 12.6882L5.24133 11.7376ZM13.9995 8.66713C13.8715 9.82403 13.4146 10.8818 12.7243 11.7448L11.7737 10.7948C12.2311 10.1841 12.5423 9.45769 12.6554 8.66734L13.9995 8.66713ZM3.36947 8C3.36947 9.04823 3.71507 10.0157 4.29856 10.7948L3.34793 11.7448C2.52701 10.7184 2.03613 9.41652 2.03613 8H3.36947ZM3.99954 2L3.99919 3.5606C5.0854 2.57189 6.51323 2 8.03613 2C11.1246 2 13.668 4.33347 13.9995 7.33354L12.6555 7.33333C12.332 5.0718 10.3871 3.33333 8.03613 3.33333C6.79106 3.33333 5.62892 3.82388 4.76983 4.66651L6.6662 4.66667V6H3.33287C2.96468 6 2.6662 5.70152 2.6662 5.33333V2H3.99954Z" fill="#161C27"/>
</svg>
