<svg width="16" height="16" viewBox="0 0 16 16" fill="none" xmlns="http://www.w3.org/2000/svg">
<g clip-path="url(#clip0_597_77658)">
<path d="M6 13.2649H4.5C3.39543 13.2649 2.5 12.3695 2.5 11.2649V4.50003C2.5 3.39546 3.39543 2.50003 4.5 2.50003H11.5C12.6046 2.50003 13.5 3.39546 13.5 4.50003V6.33336" stroke="black" stroke-width="1.33333"/>
<path d="M2.02859 10.862C1.76824 11.1224 1.76825 11.5445 2.0286 11.8048C2.28895 12.0652 2.71106 12.0652 2.97141 11.8048L2.02859 10.862ZM5.5 8.33337L5.97141 8.80477C5.97647 8.79971 5.98145 8.79457 5.98635 8.78934L5.5 8.33337ZM6.5 8.33334L7.07585 7.99743L7.03789 7.93235L6.98636 7.87738L6.5 8.33334ZM10.4879 8.42683C10.7236 8.70967 11.1439 8.74789 11.4268 8.51217C11.7096 8.27646 11.7479 7.85608 11.5121 7.57323L10.4879 8.42683ZM10.7063 7.64763L10.1942 8.07443L10.7063 7.64763ZM2.5 11.3334L2.97141 11.8048L5.97141 8.80477L5.5 8.33337L5.02859 7.86197L2.02859 10.862L2.5 11.3334ZM5.5 8.33337L5.98635 8.78934C6.03152 8.74116 6.06769 8.70504 6.09711 8.67795C6.11156 8.66465 6.12334 8.65448 6.13273 8.64682C6.14214 8.63915 6.14827 8.6347 6.15138 8.63256C6.15449 8.63042 6.1536 8.63126 6.14895 8.63377C6.14422 8.63631 6.13501 8.64091 6.12157 8.64589C6.10798 8.65094 6.09036 8.65627 6.06917 8.66028C6.04781 8.66432 6.02455 8.6667 6.00004 8.6667C5.97554 8.6667 5.95228 8.66433 5.93091 8.66029C5.90971 8.65628 5.89209 8.65095 5.87849 8.6459C5.86504 8.64092 5.85583 8.63632 5.8511 8.63377C5.84643 8.63126 5.84554 8.63042 5.84864 8.63255C5.85175 8.63469 5.85788 8.63913 5.86729 8.6468C5.87667 8.65446 5.88845 8.66462 5.9029 8.67793C5.93231 8.70501 5.96847 8.74112 6.01364 8.7893L6.5 8.33334L6.98636 7.87738C6.87358 7.75709 6.7457 7.63133 6.60448 7.53415C6.45745 7.43297 6.25364 7.33335 5.99996 7.33336C5.74628 7.33338 5.5425 7.43302 5.39549 7.53419C5.25429 7.63137 5.12642 7.75712 5.01365 7.8774L5.5 8.33337ZM6.5 8.33334L5.92415 8.66925L6.58452 9.80133L7.16037 9.46542L7.73622 9.1295L7.07585 7.99743L6.5 8.33334ZM8.26956 9.5295L8.80289 9.9295L10.1942 8.07443L9.66085 7.67443L9.12752 7.27443L7.73622 9.1295L8.26956 9.5295ZM10.7063 7.64763L10.1942 8.07443L10.4879 8.42683L11 8.00003L11.5121 7.57323L11.2185 7.22084L10.7063 7.64763ZM9.66085 7.67443L10.1942 8.07443V8.07443L10.7063 7.64763L11.2185 7.22084C10.6675 6.55971 9.64387 6.58595 9.12752 7.27443L9.66085 7.67443ZM7.16037 9.46542L6.58452 9.80133C7.06519 10.6254 8.23051 10.6927 8.80289 9.9295L8.26956 9.5295L7.73622 9.1295L7.16037 9.46542Z" fill="black"/>
<circle cx="6.33334" cy="5.50003" r="1" fill="#161C27"/>
<path d="M14.9937 8.07385C15.4251 8.50557 15.4253 9.20561 14.9937 9.63721L11.8843 12.7467C11.881 13.1332 11.6477 13.5488 11.1302 14.0325C10.5428 14.5814 9.19553 14.5089 8.38532 13.9448C8.09413 13.7418 7.86818 13.3805 7.68581 12.8641C7.57335 12.5454 7.91338 12.2554 8.20992 12.4173C8.54142 12.5983 8.7726 12.5335 9.02406 12.1763C9.36911 11.6323 9.80053 11.2842 10.2629 11.2413L13.4304 8.07385C13.8621 7.64215 14.562 7.64215 14.9937 8.07385ZM10.807 12.2246C10.3954 11.8133 10.0335 11.9612 9.63726 12.5851C9.37688 12.9558 9.06394 13.1767 8.7223 13.2363L8.69951 13.2383L8.73542 13.2798L8.75959 13.3026L8.80655 13.3399C9.35695 13.723 10.3252 13.7757 10.6268 13.4945L10.8022 13.3247C11.2705 12.8493 11.2341 12.6606 10.892 12.3096L10.807 12.2246ZM14.4724 8.5952C14.3445 8.46735 14.1464 8.45305 14.0028 8.55239L13.9517 8.5952L11.086 11.4609L11.6067 11.9816L14.4724 9.11586C14.6001 8.98809 14.6143 8.78987 14.5152 8.6463L14.4724 8.5952Z" fill="black"/>
<path d="M14.9937 8.07385L15.088 7.9796L15.088 7.97956L14.9937 8.07385ZM11.8843 12.7467L11.79 12.6524L11.7514 12.691L11.7509 12.7456L11.8843 12.7467ZM11.1302 14.0325L11.2212 14.1299L11.2212 14.1299L11.1302 14.0325ZM8.38532 13.9448L8.30908 14.0542L8.30913 14.0542L8.38532 13.9448ZM7.68581 12.8641L7.56008 12.9085L7.56008 12.9085L7.68581 12.8641ZM8.20992 12.4173L8.27383 12.3003L8.27382 12.3003L8.20992 12.4173ZM9.02406 12.1763L9.13322 12.2531L9.13666 12.2477L9.02406 12.1763ZM10.2629 11.2413L10.2752 11.3741L10.3231 11.3696L10.3572 11.3356L10.2629 11.2413ZM10.807 12.2246L10.9013 12.1304L10.9013 12.1303L10.807 12.2246ZM9.63726 12.5851L9.74649 12.6618L9.74981 12.6566L9.63726 12.5851ZM8.7223 13.2363L8.73441 13.3695L8.74521 13.3676L8.7223 13.2363ZM8.69951 13.2383L8.68744 13.1056L8.4284 13.1291L8.59875 13.3257L8.69951 13.2383ZM8.73542 13.2798L8.63415 13.3676L8.64395 13.3768L8.73542 13.2798ZM8.75959 13.3026L8.66779 13.3999L8.67667 13.407L8.75959 13.3026ZM8.80655 13.3399L8.72346 13.4445L8.73037 13.4493L8.80655 13.3399ZM10.6268 13.4945L10.7177 13.5921L10.7196 13.5903L10.6268 13.4945ZM10.8022 13.3247L10.895 13.4205L10.8972 13.4182L10.8022 13.3247ZM10.892 12.3096L10.9874 12.2165L10.9862 12.2153L10.892 12.3096ZM14.4724 8.5952L14.575 8.50924L14.5667 8.50092L14.4724 8.5952ZM14.0028 8.55239L13.9266 8.44226L13.9172 8.45018L14.0028 8.55239ZM13.9517 8.5952L13.8658 8.4926L13.8574 8.50092L13.9517 8.5952ZM11.086 11.4609L10.9917 11.3666L10.8974 11.4609L10.9917 11.5552L11.086 11.4609ZM11.6067 11.9816L11.5124 12.0759L11.6067 12.1701L11.7009 12.0759L11.6067 11.9816ZM14.5152 8.6463L14.6254 8.57021L14.6174 8.56067L14.5152 8.6463ZM14.9937 8.07385L14.8994 8.16809C15.2788 8.54778 15.279 9.16343 14.8994 9.54293L14.9937 9.63721L15.088 9.7315C15.5717 9.24779 15.5715 8.46335 15.088 7.9796L14.9937 8.07385ZM14.9937 9.63721L14.8994 9.54293L11.79 12.6524L11.8843 12.7467L11.9785 12.841L15.088 9.7315L14.9937 9.63721ZM11.8843 12.7467L11.7509 12.7456C11.7482 13.0767 11.5478 13.4596 11.0391 13.9351L11.1302 14.0325L11.2212 14.1299C11.7475 13.6379 12.0139 13.1897 12.0176 12.7478L11.8843 12.7467ZM11.1302 14.0325L11.0392 13.935C10.7822 14.1751 10.3405 14.2921 9.84653 14.2728C9.35619 14.2536 8.84246 14.1006 8.46151 13.8353L8.38532 13.9448L8.30913 14.0542C8.73839 14.3531 9.30341 14.5184 9.8361 14.5392C10.3652 14.5599 10.8908 14.4387 11.2212 14.1299L11.1302 14.0325ZM8.38532 13.9448L8.46156 13.8354C8.204 13.6559 7.99021 13.3257 7.81153 12.8197L7.68581 12.8641L7.56008 12.9085C7.74614 13.4354 7.98426 13.8278 8.30908 14.0542L8.38532 13.9448ZM7.68581 12.8641L7.81154 12.8197C7.73963 12.616 7.95718 12.4312 8.14603 12.5343L8.20992 12.4173L8.27382 12.3003C7.86958 12.0796 7.40707 12.4749 7.56008 12.9085L7.68581 12.8641ZM8.20992 12.4173L8.14602 12.5343C8.32773 12.6336 8.50638 12.6787 8.68445 12.6266C8.85811 12.5758 9.00085 12.4409 9.13309 12.2531L9.02406 12.1763L8.91504 12.0996C8.79581 12.2689 8.69723 12.345 8.60957 12.3707C8.5263 12.395 8.42362 12.3821 8.27383 12.3003L8.20992 12.4173ZM9.02406 12.1763L9.13666 12.2477C9.47202 11.7189 9.87259 11.4114 10.2752 11.3741L10.2629 11.2413L10.2506 11.1086C9.72848 11.1569 9.26619 11.5456 8.91147 12.1049L9.02406 12.1763ZM10.2629 11.2413L10.3572 11.3356L13.5246 8.16813L13.4304 8.07385L13.3361 7.97956L10.1686 11.147L10.2629 11.2413ZM13.4304 8.07385L13.5246 8.16813C13.9043 7.7885 14.5198 7.7885 14.8994 8.16813L14.9937 8.07385L15.088 7.97956C14.6042 7.4958 13.8198 7.4958 13.3361 7.97956L13.4304 8.07385ZM10.807 12.2246L10.9013 12.1303C10.6764 11.9056 10.4325 11.8044 10.1744 11.8901C9.93616 11.9692 9.72541 12.1976 9.5247 12.5136L9.63726 12.5851L9.74981 12.6566C9.94533 12.3487 10.1136 12.1912 10.2584 12.1432C10.3832 12.1018 10.526 12.1324 10.7128 12.319L10.807 12.2246ZM9.63726 12.5851L9.52815 12.5085C9.282 12.8589 8.99695 13.053 8.6994 13.1049L8.7223 13.2363L8.74521 13.3676C9.13093 13.3004 9.47176 13.0527 9.74637 12.6617L9.63726 12.5851ZM8.7223 13.2363L8.71023 13.1035L8.68744 13.1056L8.69951 13.2383L8.71158 13.3711L8.73437 13.3691L8.7223 13.2363ZM8.69951 13.2383L8.59875 13.3257L8.63466 13.3671L8.73542 13.2798L8.83618 13.1925L8.80027 13.151L8.69951 13.2383ZM8.73542 13.2798L8.64395 13.3768L8.66812 13.3996L8.75959 13.3026L8.85106 13.2056L8.82689 13.1828L8.73542 13.2798ZM8.75959 13.3026L8.67667 13.407L8.72363 13.4443L8.80655 13.3399L8.88946 13.2354L8.84251 13.1982L8.75959 13.3026ZM8.80655 13.3399L8.73037 13.4493C9.03027 13.6581 9.4348 13.7721 9.80007 13.7993C9.98379 13.813 10.1628 13.8051 10.3189 13.7736C10.4725 13.7426 10.6168 13.6861 10.7177 13.5921L10.6268 13.4945L10.5359 13.397C10.4859 13.4436 10.3962 13.4859 10.2662 13.5122C10.1387 13.5379 9.9847 13.5456 9.81985 13.5334C9.48801 13.5087 9.13322 13.4048 8.88272 13.2304L8.80655 13.3399ZM10.6268 13.4945L10.7196 13.5903L10.8949 13.4204L10.8022 13.3247L10.7094 13.2289L10.534 13.3988L10.6268 13.4945ZM10.8022 13.3247L10.8972 13.4182C11.1298 13.1821 11.275 12.9831 11.2842 12.7764C11.2937 12.5627 11.1566 12.39 10.9874 12.2165L10.892 12.3096L10.7965 12.4026C10.9695 12.5802 11.0217 12.6774 11.0178 12.7646C11.0136 12.8588 10.9428 12.9919 10.7072 13.2311L10.8022 13.3247ZM10.892 12.3096L10.9862 12.2153L10.9013 12.1304L10.807 12.2246L10.7127 12.3189L10.7977 12.4039L10.892 12.3096ZM14.4724 8.5952L14.5667 8.50092C14.3925 8.32673 14.1226 8.30738 13.927 8.44273L14.0028 8.55239L14.0787 8.66204C14.1702 8.59872 14.2966 8.60796 14.3781 8.68948L14.4724 8.5952ZM14.0028 8.55239L13.9172 8.45018L13.8661 8.493L13.9517 8.5952L14.0373 8.6974L14.0884 8.65459L14.0028 8.55239ZM13.9517 8.5952L13.8574 8.50092L10.9917 11.3666L11.086 11.4609L11.1803 11.5552L14.046 8.68948L13.9517 8.5952ZM11.086 11.4609L10.9917 11.5552L11.5124 12.0759L11.6067 11.9816L11.7009 11.8873L11.1803 11.3666L11.086 11.4609ZM11.6067 11.9816L11.7009 12.0759L14.5667 9.21014L14.4724 9.11586L14.3781 9.02158L11.5124 11.8873L11.6067 11.9816ZM14.4724 9.11586L14.5667 9.21014C14.7408 9.03597 14.7599 8.76605 14.6249 8.57054L14.5152 8.6463L14.4055 8.72205C14.4687 8.81369 14.4595 8.94022 14.3781 9.02158L14.4724 9.11586ZM14.5152 8.6463L14.6174 8.56067L14.5746 8.50957L14.4724 8.5952L14.3702 8.68083L14.413 8.73193L14.5152 8.6463Z" fill="black"/>
<rect x="12.8924" y="9.03799" width="1.68582" height="0.736953" transform="rotate(45 12.8924 9.03799)" fill="black" stroke="black" stroke-width="0.266667"/>
</g>
<defs>
<clipPath id="clip0_597_77658">
<rect width="16" height="16" fill="white"/>
</clipPath>
</defs>
</svg>
