<svg width="48" height="48" viewBox="0 0 48 48" fill="none" xmlns="http://www.w3.org/2000/svg">
<path d="M38.6752 12.8652C39.4062 12.1341 39.4062 10.9489 38.6752 10.2179C37.9442 9.48684 36.7589 9.48684 36.0279 10.2179L21.0204 25.2253L20.3308 28.5623L23.6677 27.8727L38.6752 12.8652ZM26.315 30.52L26.1153 30.7055C25.6337 31.1215 25.0527 31.409 24.4265 31.5386L18.2994 32.8053L18.1773 32.8267C16.9511 32.9994 15.8937 31.9419 16.0664 30.7158L16.0877 30.5936L17.3545 24.4666C17.4841 23.8404 17.7715 23.2594 18.1876 22.7777L18.3731 22.578L33.3806 7.57056C35.5737 5.37746 39.1294 5.37745 41.3225 7.57056C43.5156 9.76366 43.5156 13.3194 41.3225 15.5125L26.315 30.52Z" fill="white"/>
<path d="M7.4792 24.1931C7.59534 26.3527 8.3565 28.5366 9.58748 30.6209C11.2226 33.3892 13.6215 35.8631 16.1365 37.6653C18.6931 39.4973 21.1554 40.4852 22.8738 40.5756L22.6764 44.314C19.9492 44.1704 16.7943 42.743 13.9547 40.7082C11.0737 38.6436 8.29595 35.7971 6.36278 32.5239C4.43062 29.2522 3.27608 25.4326 3.87936 21.5053L7.4792 24.1931ZM38.6655 18.1737C40.4189 20.5129 41.6807 22.9868 42.3573 25.3863C43.3907 29.0517 43.1323 32.8876 40.6453 35.5366C37.634 38.7438 32.2976 39.7045 26.1497 36.6307L27.8242 33.2826C32.9075 35.8241 36.3258 34.6663 37.9151 32.9736C39.1533 31.6549 39.5965 29.3907 38.7542 26.4027C38.2542 24.6292 37.3218 22.7222 35.9874 20.8518L38.6655 18.1737ZM19.6653 8.4199C20.6505 8.43096 21.6545 8.50748 22.6554 8.64675C25.0938 8.98615 27.6523 9.713 30.0691 10.8861L27.2337 13.7224C25.5667 13.0434 22.1389 12.355 22.1389 12.355L19.6653 8.4199Z" fill="white"/>
<path d="M7.24659 16.2638L3.29954 14.5722C2.3689 14.1733 2.3689 12.854 3.29954 12.4552L7.24659 10.7636C7.51839 10.6471 7.73497 10.4305 7.85146 10.1587L9.54305 6.21165C9.94189 5.28101 11.2612 5.28101 11.6601 6.21165L13.3517 10.1587C13.4682 10.4305 13.6847 10.6471 13.9565 10.7636L17.9036 12.4552C18.8342 12.854 18.8342 14.1733 17.9036 14.5722L13.9565 16.2638C13.6847 16.3803 13.4682 16.5968 13.3517 16.8686L11.6601 20.8157C11.2612 21.7463 9.94189 21.7463 9.54305 20.8157L7.85146 16.8686C7.73497 16.5968 7.51839 16.3803 7.24659 16.2638Z" fill="white"/>
</svg>
