<svg width="16" height="16" viewBox="0 0 16 16" fill="none" xmlns="http://www.w3.org/2000/svg">
<path fill-rule="evenodd" clip-rule="evenodd" d="M11.6667 1.33334C12.9554 1.33334 14 2.37801 14 3.66668C14 4.95534 12.9554 6.00001 11.6667 6.00001C11.023 6.00001 10.4402 5.73937 10.0181 5.31787L5.95082 7.52097C5.98308 7.67558 6.00004 7.83582 6.00004 8.00001C6.00004 8.1642 5.98308 8.32444 5.95082 8.47905L10.0181 10.6821C10.4402 10.2606 11.023 10 11.6667 10C12.9554 10 14 11.0447 14 12.3333C14 13.622 12.9554 14.6667 11.6667 14.6667C10.378 14.6667 9.33337 13.622 9.33337 12.3333C9.33337 12.1692 9.35033 12.0089 9.3826 11.8543L5.31534 9.65121C4.89319 10.0727 4.31039 10.3333 3.66671 10.3333C2.37804 10.3333 1.33337 9.28867 1.33337 8.00001C1.33337 6.71135 2.37804 5.66668 3.66671 5.66668C4.31039 5.66668 4.89319 5.92732 5.31534 6.34881L9.3826 4.14572C9.35033 3.9911 9.33337 3.83087 9.33337 3.66668C9.33337 2.37801 10.378 1.33334 11.6667 1.33334ZM11.6667 2.66668C11.1144 2.66668 10.6667 3.11439 10.6667 3.66668C10.6667 4.21896 11.1144 4.66668 11.6667 4.66668C12.219 4.66668 12.6667 4.21896 12.6667 3.66668C12.6667 3.11439 12.219 2.66668 11.6667 2.66668ZM3.66671 7.00001C3.11442 7.00001 2.66671 7.44773 2.66671 8.00001C2.66671 8.5523 3.11442 9.00001 3.66671 9.00001C4.21899 9.00001 4.66671 8.5523 4.66671 8.00001C4.66671 7.44773 4.21899 7.00001 3.66671 7.00001ZM10.6667 12.3333C10.6667 11.7811 11.1144 11.3333 11.6667 11.3333C12.219 11.3333 12.6667 11.7811 12.6667 12.3333C12.6667 12.8856 12.219 13.3333 11.6667 13.3333C11.1144 13.3333 10.6667 12.8856 10.6667 12.3333Z" fill="#161C27"/>
</svg>
