<svg width="18" height="18" viewBox="0 0 18 18" fill="none" xmlns="http://www.w3.org/2000/svg">
<path d="M12.1879 1.52752L12.3845 1.55828L12.4032 1.56268C13.2728 1.78015 14.0688 2.21724 14.7037 2.8316C15.27 3.35094 15.6999 3.99067 15.9584 4.70037L16.0594 5.01129L16.0693 5.04974C16.1289 5.3115 16.1185 5.58334 16.0397 5.83965C15.9609 6.09567 15.8175 6.32517 15.6266 6.50872L15.6211 6.51312L7.50879 14.1541C7.50179 14.1607 7.49407 14.1665 7.48682 14.1728C7.24112 14.3865 6.94011 14.5249 6.62109 14.576C6.61536 14.5769 6.60927 14.5774 6.60352 14.5782L3.71741 14.9682H3.71191C3.47227 14.9986 3.22826 14.9761 2.9978 14.9023C2.76708 14.8284 2.5532 14.7049 2.37598 14.5364C2.19867 14.3679 2.06228 14.159 1.98047 13.9256C1.89861 13.6918 1.87471 13.4415 1.91235 13.1961L2.32654 10.4891C2.37439 10.1451 2.54224 9.83366 2.79346 9.60247L10.9069 1.96258C11.101 1.77752 11.3384 1.64665 11.5946 1.57696C11.7881 1.52439 11.9893 1.50791 12.1879 1.52752ZM3.79651 10.667C3.79257 10.6708 3.78844 10.6744 3.78442 10.678C3.77915 10.6828 3.77672 10.687 3.77563 10.689C3.77466 10.6909 3.7744 10.6912 3.77454 10.6901C3.77373 10.6965 3.77331 10.7035 3.77234 10.7099L3.35815 13.4169C3.35706 13.4242 3.3573 13.4335 3.36035 13.4422C3.36353 13.4512 3.37112 13.4635 3.38452 13.4763C3.39818 13.4891 3.41803 13.502 3.44385 13.5103C3.46845 13.5182 3.49571 13.5208 3.52295 13.518L6.39478 13.1302C6.44765 13.1208 6.49166 13.0986 6.52441 13.0709L12.5219 7.42278L9.87744 4.93987L3.79651 10.667ZM11.978 2.9876C11.9501 2.9952 11.9291 3.00863 11.9154 3.02166L11.9099 3.02715L10.9442 3.93572L13.5875 6.41863L14.6125 5.45294C14.6291 5.43692 14.6384 5.42137 14.6422 5.40899C14.6452 5.39912 14.6435 5.38987 14.6422 5.38043C14.4761 4.82186 14.1549 4.30912 13.7029 3.89837C13.6973 3.89332 13.6918 3.88821 13.6864 3.88299C13.2445 3.45541 12.6842 3.14345 12.0626 2.98541C12.0346 2.97971 12.0051 2.98027 11.978 2.9876Z" fill="#161C27"/>
<path d="M12.3991 14.7778L11.104 14.2227C10.7987 14.0919 10.7987 13.659 11.104 13.5281L12.3991 12.973C12.4883 12.9348 12.5594 12.8638 12.5976 12.7746L13.1527 11.4794C13.2835 11.1741 13.7165 11.1741 13.8473 11.4794L14.4024 12.7746C14.4406 12.8638 14.5117 12.9348 14.6008 12.973L15.896 13.5281C16.2013 13.659 16.2013 14.0919 15.896 14.2227L14.6008 14.7778C14.5117 14.816 14.4406 14.8871 14.4024 14.9763L13.8473 16.2714C13.7165 16.5768 13.2835 16.5768 13.1527 16.2714L12.5976 14.9763C12.5594 14.8871 12.4883 14.816 12.3991 14.7778Z" fill="#161C27"/>
<path d="M3.03626 4.93795L2.04949 4.51505C1.81683 4.41534 1.81684 4.0855 2.0495 3.98579L3.03626 3.5629C3.10421 3.53377 3.15835 3.47963 3.18747 3.41168L3.61037 2.42492C3.71008 2.19226 4.03992 2.19226 4.13963 2.42492L4.56253 3.41168C4.59165 3.47963 4.64579 3.53377 4.71374 3.5629L5.70051 3.98579C5.93317 4.08551 5.93317 4.41534 5.7005 4.51505L4.71374 4.93795C4.64579 4.96707 4.59165 5.02121 4.56253 5.08916L4.13963 6.07593C4.03992 6.30859 3.71008 6.30859 3.61037 6.07593L3.18747 5.08916C3.15835 5.02121 3.10421 4.96707 3.03626 4.93795Z" fill="#161C27"/>
</svg>
