<svg width="48" height="48" viewBox="0 0 48 48" fill="none" xmlns="http://www.w3.org/2000/svg">
<path fill-rule="evenodd" clip-rule="evenodd" d="M37.6515 15.035C36.5876 10.6432 32.2553 7.86342 27.8667 8.77426L27.8657 8.77447C25.4374 9.27686 23.5286 10.7755 22.4484 12.7697L22.4423 12.7809L22.436 12.7921L21.536 14.3921L20.651 15.9654L19.1953 14.8979L17.7004 13.8016L17.6979 13.7998C15.8473 12.4549 13.5052 11.87 11.0667 12.3743C6.65903 13.2891 3.79288 17.7131 4.80342 22.2606L4.84152 22.432V22.458C4.85529 22.5156 4.8729 22.5862 4.89375 22.6696L4.89583 22.6779C4.91929 22.7717 4.94724 22.8835 4.9693 22.9791C4.98054 23.0279 4.99379 23.0875 5.00504 23.1469C5.0097 23.1716 5.01553 23.2041 5.02104 23.241C6.26334 28.826 12.1896 34.3254 25.194 38.9703C25.3831 39.0104 25.5177 39.0057 25.6027 38.9887C25.6816 38.9729 25.7431 38.9433 25.8101 38.8763L25.8216 38.8649L25.8332 38.8537C35.7695 29.3109 39.0143 21.9223 37.916 16.332C37.876 16.2326 37.8478 16.141 37.8286 16.0731C37.7846 15.9179 37.7519 15.7565 37.7284 15.6232C37.6983 15.4531 37.667 15.2343 37.6515 15.035ZM27.2174 5.64083C33.3866 4.36098 39.4129 8.31913 40.802 14.4543L40.8415 14.6288V14.7841C40.8426 14.7983 40.8448 14.8212 40.8483 14.8518C40.8523 14.8871 40.8575 14.9264 40.8635 14.9669L40.9064 15.0097L41.0057 15.4708C41.5674 18.0788 41.3831 20.832 40.4629 23.7319C40.7185 23.7996 40.9726 23.884 41.2241 23.9856C44.4963 25.3077 46.0739 29.0405 44.7477 32.323C44.7076 32.422 44.6655 32.5195 44.6209 32.6142C44.5997 32.6816 44.5753 32.7496 44.5475 32.8183C42.9702 36.7222 38.2865 39.3346 30.4962 40.6538C29.9413 40.7471 29.3826 40.6123 28.9389 40.2963C28.6509 40.5804 28.3579 40.8656 28.06 41.1519C26.9464 42.2552 25.5101 42.349 24.3535 42.0599L24.2781 42.041L24.2048 42.0149C10.9225 37.2857 3.46669 31.2234 1.87739 23.8445L1.84152 23.678V23.6573C1.82775 23.5997 1.81014 23.5291 1.78929 23.4457L1.78722 23.4374L1.7872 23.4373C1.76375 23.3435 1.7358 23.2318 1.71374 23.1362C1.7025 23.0874 1.68925 23.0278 1.678 22.9684C1.67332 22.9436 1.66746 22.911 1.66194 22.8738C0.324139 16.649 4.25071 10.5207 10.4164 9.24104L10.4173 9.24083C13.7774 8.54565 17.0338 9.36002 19.5826 11.2137L19.5877 11.2174L19.632 11.2499L19.641 11.2339C21.1619 8.43405 23.8502 6.33755 27.2172 5.64087L27.2174 5.64083ZM32.0032 37.1053C38.1372 35.7662 40.7526 33.6477 41.5746 31.6342L41.6331 31.4481L41.725 31.2527C41.7413 31.2181 41.7599 31.1756 41.7807 31.1242C42.4484 29.4716 41.6502 27.6091 40.0253 26.9526C39.7755 26.8517 39.5206 26.7846 39.2653 26.7494C37.7137 30.0254 35.2886 33.4767 32.0032 37.1053ZM9.2675 24.3151C8.56168 23.3416 8.03972 22.2154 7.91273 21.1994L11.088 20.8025C11.1277 21.1199 11.3557 21.7437 11.8582 22.4368C12.3449 23.108 12.9919 23.7079 13.7159 24.0699L12.2848 26.932C11.0088 26.2941 9.98922 25.3106 9.2675 24.3151Z" fill="white"/>
</svg>
