<svg width="16" height="16" viewBox="0 0 16 16" fill="none" xmlns="http://www.w3.org/2000/svg">
<path fill-rule="evenodd" clip-rule="evenodd" d="M12 1.33337H13.3333V2.66671H14.6667V4.00004H13.3333V5.33337H12V4.00004H10.6667V2.66671H12V1.33337ZM4.66667 2.00004H9.27273V3.33337H4.66667C3.93029 3.33337 3.33333 3.93033 3.33333 4.66671V11.3334C3.33333 11.7142 3.49299 12.0577 3.74902 12.3007L8.55816 7.49155C9.07886 6.97085 9.92308 6.97085 10.4438 7.49155L12.6667 9.71444V6.66671H14V11.3334C14 12.8061 12.8061 14 11.3333 14H4.66667C3.19391 14 2 12.8061 2 11.3334V4.66671C2 3.19395 3.19391 2.00004 4.66667 2.00004ZM12.6443 11.5777L9.50097 8.43436L5.26862 12.6667H11.3333C11.9863 12.6667 12.5296 12.1974 12.6443 11.5777ZM6.66667 5.66671C6.66667 6.21899 6.21895 6.66671 5.66667 6.66671C5.11438 6.66671 4.66667 6.21899 4.66667 5.66671C4.66667 5.11442 5.11438 4.66671 5.66667 4.66671C6.21895 4.66671 6.66667 5.11442 6.66667 5.66671Z" fill="#161C27"/>
</svg>
