<svg width="16" height="16" viewBox="0 0 16 16" fill="none" xmlns="http://www.w3.org/2000/svg">
<rect x="1.33341" y="2.66667" width="13.3333" height="10.6667" rx="2" stroke="#161c27" stroke-width="1.33333"/>
<path d="M8.5249 10.8008V5.19922H10.5093C11.5041 5.19922 12.2502 5.42708 12.7476 5.88281C13.245 6.33594 13.4937 7.01823 13.4937 7.92969C13.4937 8.80208 13.2215 9.4987 12.6772 10.0195C12.1356 10.5404 11.4129 10.8008 10.5093 10.8008H8.5249ZM9.78662 6.22656V9.77734H10.4116C10.9585 9.77734 11.3869 9.61328 11.6968 9.28516C12.0093 8.95703 12.1655 8.51042 12.1655 7.94531C12.1655 7.41146 12.0106 6.99219 11.7007 6.6875C11.3934 6.38021 10.9611 6.22656 10.4038 6.22656H9.78662Z" fill="#161c27"/>
<path d="M7.573 10.8008H6.30737V8.51953H3.98706V10.8008H2.72534V5.19922H3.98706V7.43359H6.30737V5.19922H7.573V10.8008Z" fill="#161c27"/>
</svg>
