<svg width="20" height="21" viewBox="0 0 20 21" fill="none" xmlns="http://www.w3.org/2000/svg">
<path fill-rule="evenodd" clip-rule="evenodd" d="M9.99987 7.91667C11.3806 7.91667 12.4999 6.79738 12.4999 5.41667C12.4999 4.03595 11.3806 2.91667 9.99987 2.91667C8.61916 2.91667 7.49987 4.03595 7.49987 5.41667C7.49987 6.79738 8.61916 7.91667 9.99987 7.91667ZM7.51188 10.6943C8.2344 10.5162 9.05905 10.4167 9.99987 10.4167C10.9407 10.4167 11.7653 10.5162 12.4879 10.6943C15.9041 11.5363 17.0373 14.1332 17.3729 16.2569C17.5166 17.1661 16.7537 17.9167 15.8332 17.9167H4.16654C3.24607 17.9167 2.48317 17.1661 2.62684 16.2569C2.96244 14.1332 4.09564 11.5363 7.51188 10.6943ZM7.77027 8.93723C8.41499 9.34639 9.17976 9.58333 9.99987 9.58333C10.82 9.58333 11.5848 9.34639 12.2295 8.93723C13.3938 8.19832 14.1665 6.89774 14.1665 5.41667C14.1665 3.11548 12.3011 1.25 9.99987 1.25C7.69869 1.25 5.83321 3.11548 5.83321 5.41667C5.83321 6.89774 6.60596 8.19832 7.77027 8.93723ZM4.1639 16.2498C4.16392 16.2498 4.16435 16.2498 4.16515 16.25L4.1639 16.2498ZM4.31997 16.25C4.51319 15.252 4.90913 14.2774 5.63361 13.5402C6.38398 12.7766 7.66715 12.0833 9.99987 12.0833C12.3326 12.0833 13.6158 12.7766 14.3661 13.5402C15.0906 14.2774 15.4866 15.252 15.6798 16.25H4.31997Z" fill="#161C27"/>
</svg>
