<svg width="16" height="16" viewBox="0 0 16 16" fill="none" xmlns="http://www.w3.org/2000/svg">
<path d="M2.87619 13.6905L2.43944 12.5986C2.37167 12.4292 2.23745 12.295 2.06804 12.2273L0.976151 11.7905C0.789228 11.7157 0.666658 11.5347 0.666658 11.3334C0.666658 11.132 0.789228 10.951 0.976149 10.8762L2.06804 10.4395C2.23745 10.3717 2.37167 10.2375 2.43944 10.0681L2.87619 8.97619C2.95096 8.78927 3.132 8.6667 3.33332 8.6667C3.53465 8.6667 3.71569 8.78927 3.79045 8.97619L4.22721 10.0681C4.29497 10.2375 4.4292 10.3717 4.5986 10.4395L5.6905 10.8762C5.87742 10.951 5.99999 11.132 5.99999 11.3334C5.99999 11.5347 5.87742 11.7157 5.6905 11.7905L4.5986 12.2273C4.4292 12.295 4.29497 12.4292 4.22721 12.5986L3.79045 13.6905C3.71568 13.8775 3.53465 14 3.33332 14C3.132 14 2.95096 13.8775 2.87619 13.6905Z" fill="#161C27"/>
<path d="M12 13.3337L6.79819 13.3337C7.03243 12.9288 7.19772 12.479 7.27802 12.0004L12 12.0004C12.7364 12.0004 13.3333 11.4034 13.3333 10.667L13.3333 5.33369C13.3333 4.59731 12.7364 4.00036 12 4.00036L3.99999 4.00035C3.26361 4.00035 2.66666 4.59731 2.66666 5.33369L2.66666 7.38899C2.18804 7.46929 1.73825 7.63458 1.33332 7.86882L1.33333 5.33369C1.33333 3.86093 2.52723 2.66702 3.99999 2.66702L12 2.66702C13.4728 2.66702 14.6667 3.86093 14.6667 5.33369L14.6667 10.667C14.6667 12.1398 13.4727 13.3337 12 13.3337Z" fill="#161C27"/>
<path d="M9.75 7.56702C10.0833 7.75947 10.0833 8.24059 9.75 8.43304L7.5 9.73208C7.16667 9.92453 6.75 9.68397 6.75 9.29907L6.75 6.70099C6.75 6.31609 7.16667 6.07553 7.5 6.26798L9.75 7.56702Z" stroke="black" stroke-width="1.2"/>
</svg>
