<svg width="118" height="28" viewBox="0 0 118 28" fill="none" xmlns="http://www.w3.org/2000/svg">
<g opacity="0.8" filter="url(#filter0_d_12558_198272)">
<path fill-rule="evenodd" clip-rule="evenodd" d="M16.9959 16.8278L16.9932 16.8305L16.9953 16.827C16.5242 17.292 15.9442 17.6352 15.3067 17.8262C14.6691 18.0171 13.9937 18.0499 13.3403 17.9216C12.6868 17.7934 12.0755 17.508 11.5604 17.0908C11.0454 16.6737 10.6426 16.1376 10.3876 15.53C10.1327 14.9225 10.0335 14.2623 10.0988 13.6079C10.1642 12.9534 10.392 12.325 10.7622 11.7783C11.1324 11.2316 11.6336 10.7834 12.2212 10.4735C12.8088 10.1636 13.4648 10.0015 14.1311 10.0016C14.4516 10.0013 14.737 9.55091 14.9205 8.85006L14.9207 8.8494C15.054 8.33988 15.1335 7.69812 15.1335 7.00079C15.1335 6.30347 15.054 5.6617 14.9207 5.15219L14.9205 5.15153C14.737 4.45068 14.4516 4.00025 14.1311 4H14.1308L14.1306 4C12.4646 4.00019 10.8244 4.40585 9.35519 5.18105C7.88584 5.95633 6.63288 7.07729 5.70728 8.44464C4.78169 9.812 4.21203 11.3835 4.04876 13.0201C3.8855 14.6566 4.13366 16.3077 4.77128 17.8269C5.4089 19.3462 6.41628 20.6868 7.70421 21.7301C8.99214 22.7733 10.5209 23.487 12.155 23.8078C13.7891 24.1287 15.4781 24.0468 17.0725 23.5695C18.6576 23.095 20.1005 22.2442 21.275 21.0918L21.2956 21.0716C22.4908 19.892 22.4972 17.9857 21.3098 16.8138C20.1225 15.6419 18.1911 15.6482 16.9959 16.8278ZM20.2325 20.0223C20.8471 19.4157 20.8403 18.449 20.2467 17.8631C19.6531 17.2773 18.6737 17.2705 18.0591 17.8771C17.4444 18.4838 17.4513 19.4505 18.0449 20.0363C18.6384 20.6222 19.6178 20.629 20.2325 20.0223ZM20.6356 5.47127C21.4587 6.28362 21.4544 7.60497 20.626 8.4226C19.7976 9.24022 18.4588 9.24449 17.6357 8.43214C16.8127 7.61978 16.817 6.29843 17.6454 5.48081C18.4738 4.66319 19.8126 4.65891 20.6356 5.47127Z" fill="white"/>
<path d="M110.424 18.9532C108.331 18.9532 106.784 17.4842 106.784 15.3522V15.3262C106.784 13.3372 108.201 11.6992 110.229 11.6992C112.556 11.6992 113.622 13.5062 113.622 15.4822C113.622 15.6382 113.609 15.8202 113.596 16.0022H108.747C108.942 16.8992 109.566 17.3672 110.45 17.3672C111.113 17.3672 111.594 17.1592 112.14 16.6522L113.271 17.6532C112.621 18.4592 111.685 18.9532 110.424 18.9532ZM108.721 14.7672H111.698C111.581 13.8832 111.061 13.2852 110.229 13.2852C109.41 13.2852 108.877 13.8702 108.721 14.7672Z" fill="white"/>
<path d="M99.021 18.7972V11.8292H100.997V12.8172C101.452 12.2322 102.037 11.6992 103.038 11.6992C104.533 11.6992 105.404 12.6872 105.404 14.2862V18.7972H103.428V14.9102C103.428 13.9742 102.986 13.4932 102.232 13.4932C101.478 13.4932 100.997 13.9742 100.997 14.9102V18.7972H99.021Z" fill="white"/>
<path d="M93.8102 18.9532C91.6522 18.9532 90.0532 17.3542 90.0532 15.3522V15.3262C90.0532 13.3242 91.6652 11.6992 93.8362 11.6992C95.9942 11.6992 97.5932 13.2982 97.5932 15.3002V15.3262C97.5932 17.3282 95.9812 18.9532 93.8102 18.9532ZM93.8362 17.2502C94.9672 17.2502 95.6432 16.3792 95.6432 15.3522V15.3262C95.6432 14.2992 94.9022 13.4022 93.8102 13.4022C92.6792 13.4022 92.0032 14.2732 92.0032 15.3002V15.3262C92.0032 16.3532 92.7442 17.2502 93.8362 17.2502Z" fill="white"/>
<path d="M81.4526 18.7973V17.2763L86.4576 11.4523H81.6086V9.69727H89.0316V11.2183L84.0266 17.0423H89.0316V18.7973H81.4526Z" fill="white"/>
<path d="M72.1841 18.7963V11.8283H74.1601V13.2323C74.5631 12.2703 75.2131 11.6463 76.3831 11.6983V13.7653H76.2791C74.9661 13.7653 74.1601 14.5583 74.1601 16.2223V18.7963H72.1841Z" fill="white"/>
<path d="M66.9714 18.9532C64.8134 18.9532 63.2144 17.3542 63.2144 15.3522V15.3262C63.2144 13.3242 64.8264 11.6992 66.9974 11.6992C69.1554 11.6992 70.7544 13.2982 70.7544 15.3002V15.3262C70.7544 17.3282 69.1424 18.9532 66.9714 18.9532ZM66.9974 17.2502C68.1284 17.2502 68.8044 16.3792 68.8044 15.3522V15.3262C68.8044 14.2992 68.0634 13.4022 66.9714 13.4022C65.8404 13.4022 65.1644 14.2732 65.1644 15.3002V15.3262C65.1644 16.3532 65.9054 17.2502 66.9974 17.2502Z" fill="white"/>
<path d="M60.7003 18.9129C59.4913 18.9129 58.6723 18.4319 58.6723 16.8199V13.5179H57.8403V11.8279H58.6723V10.0469H60.6483V11.8279H62.2863V13.5179H60.6483V16.4949C60.6483 16.9499 60.8433 17.1709 61.2853 17.1709C61.6493 17.1709 61.9743 17.0799 62.2603 16.9239V18.5099C61.8443 18.7569 61.3633 18.9129 60.7003 18.9129Z" fill="white"/>
<path d="M52.6933 18.926C51.3803 18.926 50.3013 18.172 50.3013 16.794V16.768C50.3013 15.247 51.4583 14.545 53.1093 14.545C53.8113 14.545 54.3183 14.662 54.8123 14.831V14.714C54.8123 13.895 54.3053 13.44 53.3173 13.44C52.5633 13.44 52.0303 13.583 51.3933 13.817L50.8993 12.309C51.6663 11.971 52.4203 11.75 53.6033 11.75C54.6823 11.75 55.4623 12.036 55.9563 12.53C56.4763 13.05 56.7103 13.817 56.7103 14.753V18.796H54.7993V18.042C54.3183 18.575 53.6553 18.926 52.6933 18.926ZM53.2913 17.561C54.2143 17.561 54.8383 17.054 54.8383 16.339V15.988C54.5003 15.832 54.0583 15.728 53.5773 15.728C52.7323 15.728 52.2123 16.066 52.2123 16.69V16.716C52.2123 17.249 52.6543 17.561 53.2913 17.561Z" fill="white"/>
<path d="M46.0467 18.9532C43.9537 18.9532 42.4067 17.4842 42.4067 15.3522V15.3262C42.4067 13.3372 43.8237 11.6992 45.8517 11.6992C48.1787 11.6992 49.2447 13.5062 49.2447 15.4822C49.2447 15.6382 49.2317 15.8202 49.2187 16.0022H44.3697C44.5647 16.8992 45.1887 17.3672 46.0727 17.3672C46.7357 17.3672 47.2167 17.1592 47.7627 16.6522L48.8937 17.6532C48.2437 18.4592 47.3077 18.9532 46.0467 18.9532ZM44.3437 14.7672H47.3207C47.2037 13.8832 46.6837 13.2852 45.8517 13.2852C45.0327 13.2852 44.4997 13.8702 44.3437 14.7672Z" fill="white"/>
<path d="M37.5015 18.7963V11.8283H39.4775V13.2323C39.8805 12.2703 40.5305 11.6463 41.7005 11.6983V13.7653H41.5965C40.2835 13.7653 39.4775 14.5583 39.4775 16.2223V18.7963H37.5015Z" fill="white"/>
<path d="M32.3755 18.953C29.6975 18.953 27.7085 16.886 27.7085 14.273V14.247C27.7085 11.66 29.6585 9.54102 32.4535 9.54102C34.1695 9.54102 35.1965 10.113 36.0415 10.945L34.7675 12.414C34.0655 11.777 33.3505 11.387 32.4405 11.387C30.9065 11.387 29.8015 12.661 29.8015 14.221V14.247C29.8015 15.807 30.8805 17.107 32.4405 17.107C33.4805 17.107 34.1175 16.691 34.8325 16.041L36.1065 17.328C35.1705 18.329 34.1305 18.953 32.3755 18.953Z" fill="white"/>
</g>
<defs>
<filter id="filter0_d_12558_198272" x="0" y="0" width="117.622" height="28" filterUnits="userSpaceOnUse" color-interpolation-filters="sRGB">
<feFlood flood-opacity="0" result="BackgroundImageFix"/>
<feColorMatrix in="SourceAlpha" type="matrix" values="0 0 0 0 0 0 0 0 0 0 0 0 0 0 0 0 0 0 127 0" result="hardAlpha"/>
<feOffset/>
<feGaussianBlur stdDeviation="2"/>
<feComposite in2="hardAlpha" operator="out"/>
<feColorMatrix type="matrix" values="0 0 0 0 0 0 0 0 0 0 0 0 0 0 0 0 0 0 0.2 0"/>
<feBlend mode="normal" in2="BackgroundImageFix" result="effect1_dropShadow_12558_198272"/>
<feBlend mode="normal" in="SourceGraphic" in2="effect1_dropShadow_12558_198272" result="shape"/>
</filter>
</defs>
</svg>
