<svg width="38" height="27" viewBox="0 0 38 27" fill="none" xmlns="http://www.w3.org/2000/svg">
<path fill-rule="evenodd" clip-rule="evenodd" d="M11 1H27C32.523 1 37 5.477 37 11V16C37 21.523 32.523 26 27 26H11C5.477 26 1 21.523 1 16V11C1 5.477 5.477 1 11 1Z" fill="white" stroke="#E0E3E6" stroke-width="0.8"/>
<rect x="5" y="5" width="18" height="18" rx="6" fill="#FD5454"/>
<path d="M9.3552 11.3677C9.80755 11.3677 10.1904 11.4428 10.5037 11.594C10.8177 11.7401 11.044 11.9491 11.1823 12.222C11.3264 12.4949 11.3723 12.8135 11.3209 13.1788C11.2696 13.544 11.134 13.8636 10.9133 14.136C10.6983 14.4084 10.4129 14.6205 10.0571 14.7717C9.70205 14.9178 9.29835 14.9908 8.846 14.9908H8.15237L7.9101 16.7146H6.64886L7.40032 11.3677H9.3552ZM8.8535 13.9387C9.15831 13.9387 9.41497 13.8804 9.62355 13.7632C9.83154 13.6465 9.95472 13.4517 9.99307 13.1788C10.0307 12.9109 9.95938 12.7186 9.77906 12.602C9.60458 12.4802 9.36724 12.4193 9.06704 12.4193H8.51428L8.30075 13.9387H8.8535ZM14.1959 11.3672C14.7225 11.3672 15.1847 11.4722 15.583 11.6817C15.9749 11.8842 16.2813 12.2041 16.4644 12.602C16.6593 13.0012 16.7172 13.4786 16.6392 14.0336C16.5611 14.589 16.3688 15.0684 16.0609 15.4728C15.7648 15.8717 15.3687 16.1938 14.9198 16.4006C14.4672 16.6101 13.9756 16.7146 13.4443 16.7146H11.4971L12.2486 11.3677L14.1959 11.3672ZM13.4523 15.6625C13.9882 15.6625 14.4137 15.5215 14.7291 15.2389C15.0439 14.9563 15.2381 14.5546 15.3114 14.0336C15.3839 13.5176 15.2998 13.1204 15.0586 12.8429C14.8227 12.5604 14.4394 12.4193 13.9081 12.4193H13.362L12.9062 15.6625H13.4523ZM17.8315 11.3672H21.4462L21.2932 12.4559H18.9403L18.776 13.6247H20.8856L20.7337 14.7057H18.6241L18.3418 16.7146H17.08L17.8315 11.3672Z" fill="white"/>
<rect x="5" y="5" width="18" height="18" rx="6" fill="#3872FC"/>
<path d="M16.906 11.8994L15.7969 16.0593H14.8113L14.1023 13.3469C14.0647 13.2001 14.0423 13.047 14.0352 12.8877H14.0244C14.0065 13.0739 13.9814 13.227 13.9492 13.3469L13.2241 16.0593H12.2009L11.0918 11.8994H12.064L12.6816 14.7192C12.7085 14.8428 12.7273 14.9985 12.738 15.1865H12.7568C12.7658 15.0397 12.7935 14.8795 12.8401 14.7058L13.6135 11.8994H14.5562L15.2598 14.7407C15.2884 14.8535 15.3108 15.0003 15.3269 15.1812H15.3403C15.3475 15.0254 15.3681 14.8732 15.4021 14.7246L16.0063 11.8994H16.906Z" fill="white"/>
<rect x="5" y="5" width="18" height="18" rx="6" fill="#3872FC"/>
<path d="M18.5 10.8496L16.7831 17.1496H15.2575L14.16 13.0418C14.1018 12.8195 14.0672 12.5876 14.0561 12.3463H14.0395C14.0118 12.6283 13.973 12.8601 13.9231 13.0418L12.8007 17.1496H11.2169L9.5 10.8496H11.0048L11.961 15.1201C12.0025 15.3072 12.0316 15.5431 12.0483 15.8278H12.0774C12.0912 15.6055 12.1342 15.3628 12.2062 15.0998L13.4035 10.8496H14.8626L15.9517 15.1526C15.9961 15.3235 16.0307 15.5458 16.0557 15.8197H16.0764C16.0875 15.5838 16.1194 15.3533 16.1721 15.1282L17.1074 10.8496H18.5Z" fill="white"/>
<path fill-rule="evenodd" clip-rule="evenodd" d="M27.4995 15.9985L25 13H29.9985L27.4995 15.9985Z" fill="#878C91"/>
</svg>
