<svg width="38" height="27" viewBox="0 0 38 27" fill="none" xmlns="http://www.w3.org/2000/svg">
<path fill-rule="evenodd" clip-rule="evenodd" d="M11 1H27C32.523 1 37 5.477 37 11V16C37 21.523 32.523 26 27 26H11C5.477 26 1 21.523 1 16V11C1 5.477 5.477 1 11 1Z" fill="white" fill-opacity="0.1" stroke="white" stroke-opacity="0.08" stroke-width="0.8"/>
<path fill-rule="evenodd" clip-rule="evenodd" d="M27.4995 15.9985L25 13H29.9985L27.4995 15.9985Z" fill="white" fill-opacity="0.8"/>
<rect x="5" y="4" width="18" height="18" rx="6" fill="#FD5454"/>
<path d="M9.35325 10.3682C9.8056 10.3682 10.1885 10.4433 10.5018 10.5944C10.8157 10.7405 11.042 10.9495 11.1804 11.2225C11.3244 11.4954 11.3703 11.814 11.319 12.1792C11.2676 12.5445 11.132 12.8641 10.9114 13.1365C10.6964 13.4089 10.4109 13.621 10.0552 13.7722C9.7001 13.9183 9.2964 13.9913 8.84405 13.9913H8.15041L7.90815 15.7151H6.6469L7.39837 10.3682H9.35325ZM8.85155 12.9392C9.15636 12.9392 9.41302 12.8808 9.6216 12.7637C9.82959 12.647 9.95276 12.4522 9.99112 12.1792C10.0288 11.9114 9.95743 11.7191 9.77711 11.6024C9.60262 11.4807 9.36528 11.4198 9.06508 11.4198H8.51233L8.2988 12.9392H8.85155ZM14.1939 10.3677C14.7205 10.3677 15.1827 10.4727 15.581 10.6822C15.9729 10.8847 16.2793 11.2046 16.4624 11.6024C16.6573 12.0017 16.7153 12.4791 16.6373 13.034C16.5592 13.5895 16.3668 14.0689 16.059 14.4733C15.7629 14.8721 15.3667 15.1942 14.9178 15.4011C14.4652 15.6106 13.9736 15.7151 13.4424 15.7151H11.4952L12.2466 10.3682L14.1939 10.3677ZM13.4504 14.663C13.9862 14.663 14.4118 14.522 14.7271 14.2394C15.0419 13.9568 15.2362 13.555 15.3094 13.034C15.3819 12.5181 15.2979 12.1209 15.0567 11.8434C14.8208 11.5608 14.4374 11.4198 13.9062 11.4198H13.3601L12.9043 14.663H13.4504ZM17.8296 10.3677H21.4443L21.2913 11.4563H18.9384L18.7741 12.6252H20.8837L20.7317 13.7062H18.6222L18.3398 15.7151H17.0781L17.8296 10.3677Z" fill="white"/>
<rect x="5" y="4" width="18" height="18" rx="6" fill="#3872FC"/>
<path d="M16.908 10.8999L15.7988 15.0598H14.8132L14.1042 12.3474C14.0667 12.2006 14.0443 12.0475 14.0371 11.8882H14.0264C14.0085 12.0744 13.9834 12.2275 13.9512 12.3474L13.2261 15.0598H12.2029L11.0938 10.8999H12.0659L12.6836 13.7197C12.7104 13.8433 12.7292 13.999 12.74 14.187H12.7588C12.7677 14.0402 12.7955 13.88 12.842 13.7063L13.6155 10.8999H14.5581L15.2617 13.7412C15.2904 13.854 15.3127 14.0008 15.3289 14.1816H15.3423C15.3494 14.0259 15.37 13.8737 15.4041 13.7251L16.0083 10.8999H16.908Z" fill="white"/>
<rect x="5" y="4" width="18" height="18" rx="6" fill="#3872FC"/>
<path d="M18.5 9.8501L16.7831 16.1501H15.2575L14.16 12.0423C14.1018 11.8199 14.0672 11.5881 14.0561 11.3468H14.0395C14.0118 11.6288 13.973 11.8606 13.9231 12.0423L12.8007 16.1501H11.2169L9.5 9.8501H11.0048L11.961 14.1206C12.0025 14.3077 12.0316 14.5436 12.0483 14.8283H12.0774C12.0912 14.6059 12.1342 14.3633 12.2062 14.1003L13.4035 9.8501H14.8626L15.9517 14.1531C15.9961 14.324 16.0307 14.5463 16.0557 14.8201H16.0764C16.0875 14.5842 16.1194 14.3538 16.1721 14.1287L17.1074 9.8501H18.5Z" fill="white"/>
</svg>
