<svg width="27" height="27" viewBox="0 0 27 27" fill="none" xmlns="http://www.w3.org/2000/svg">
<path fill-rule="evenodd" clip-rule="evenodd" d="M11 1H16C21.523 1 26 5.477 26 11V16C26 21.523 21.523 26 16 26H11C5.477 26 1 21.523 1 16V11C1 5.477 5.477 1 11 1Z" fill="white" fill-opacity="0.1" stroke="white" stroke-opacity="0.08" stroke-width="0.8"/>
<g opacity="0.8">
<path d="M17.5846 12.3333V8.83333C17.5846 8.51117 17.3235 8.25 17.0013 8.25H10.0013C9.67913 8.25 9.41797 8.51117 9.41797 8.83333V12.3333" stroke="white" stroke-width="1.07692" stroke-linecap="round"/>
<path d="M18.1667 12.3335H8.83333C8.51117 12.3335 8.25 12.5947 8.25 12.9168V18.1668C8.25 18.489 8.51117 18.7502 8.83333 18.7502H18.1667C18.4888 18.7502 18.75 18.489 18.75 18.1668V12.9168C18.75 12.5947 18.4888 12.3335 18.1667 12.3335Z" stroke="white" stroke-width="1.07692"/>
<path d="M12.332 16.4165H16.707V18.7498H12.332V16.4165Z" stroke="white" stroke-width="1.07692" stroke-linecap="round" stroke-linejoin="round"/>
<path d="M10 14.0835H10.875" stroke="white" stroke-width="1.07692" stroke-linecap="round" stroke-linejoin="round"/>
</g>
</svg>
