<svg width="27" height="27" viewBox="0 0 27 27" fill="none" xmlns="http://www.w3.org/2000/svg">
<path fill-rule="evenodd" clip-rule="evenodd" d="M11 1H16C21.523 1 26 5.477 26 11V16C26 21.523 21.523 26 16 26H11C5.477 26 1 21.523 1 16V11C1 5.477 5.477 1 11 1Z" fill="white" stroke="#E0E3E6" stroke-width="0.8"/>
<path d="M11.1719 18V8.92383H13.8379C14.6348 8.92383 15.2715 9.11523 15.748 9.49805C16.2246 9.87695 16.4629 10.3809 16.4629 11.0098C16.4629 11.5098 16.3203 11.9512 16.0352 12.334C15.7539 12.7168 15.3652 12.9883 14.8691 13.1484V13.1719C15.4863 13.2422 15.9785 13.4766 16.3457 13.875C16.7168 14.2695 16.9023 14.7715 16.9023 15.3809C16.9023 16.1621 16.6211 16.7949 16.0586 17.2793C15.5 17.7598 14.7832 18 13.9082 18H11.1719ZM12.3438 9.94922V12.791H13.4102C13.9766 12.791 14.4199 12.6543 14.7402 12.3809C15.0645 12.1035 15.2266 11.7207 15.2266 11.2324C15.2266 10.377 14.6562 9.94922 13.5156 9.94922H12.3438ZM12.3438 13.8105V16.9746H13.75C14.3633 16.9746 14.8359 16.834 15.168 16.5527C15.5039 16.2676 15.6719 15.873 15.6719 15.3691C15.6719 14.3301 14.9668 13.8105 13.5566 13.8105H12.3438Z" fill="#878C91"/>
</svg>
