<svg width="27" height="27" viewBox="0 0 27 27" fill="none" xmlns="http://www.w3.org/2000/svg">
<path fill-rule="evenodd" clip-rule="evenodd" d="M11 1H16C21.523 1 26 5.477 26 11V16C26 21.523 21.523 26 16 26H11C5.477 26 1 21.523 1 16V11C1 5.477 5.477 1 11 1Z" fill="white" stroke="#E0E3E6" stroke-width="0.8"/>
<g clip-path="url(#clip0_3260_8210)">
<path fill-rule="evenodd" clip-rule="evenodd" d="M17.3333 17.5H11.6667C11.5747 17.5 11.5 17.4253 11.5 17.3333V16.6667C11.5 16.5747 11.5747 16.5 11.6667 16.5H17.3333C17.4253 16.5 17.5 16.5747 17.5 16.6667V17.3333C17.5 17.4253 17.4253 17.5 17.3333 17.5ZM17.3333 14H11.6667C11.5747 14 11.5 13.9253 11.5 13.8333V13.1667C11.5 13.0747 11.5747 13 11.6667 13H17.3333C17.4253 13 17.5 13.0747 17.5 13.1667V13.8333C17.5 13.9253 17.4253 14 17.3333 14ZM17.3333 10.5H11.6667C11.5747 10.5 11.5 10.4253 11.5 10.3333V9.66667C11.5 9.57467 11.5747 9.5 11.6667 9.5H17.3333C17.4253 9.5 17.5 9.57467 17.5 9.66667V10.3333C17.5 10.4253 17.4253 10.5 17.3333 10.5ZM10.6667 18H9.33333C9.14917 18 9 17.8508 9 17.6667V16.3333C9 16.1492 9.14917 16 9.33333 16H10.6667C10.8508 16 11 16.1492 11 16.3333V17.6667C11 17.8508 10.8508 18 10.6667 18ZM10.6667 14.5H9.33333C9.14917 14.5 9 14.3508 9 14.1667V12.8333C9 12.6492 9.14917 12.5 9.33333 12.5H10.6667C10.8508 12.5 11 12.6492 11 12.8333V14.1667C11 14.3508 10.8508 14.5 10.6667 14.5ZM10.6667 11H9.33333C9.14917 11 9 10.8508 9 10.6667V9.33333C9 9.14917 9.14917 9 9.33333 9H10.6667C10.8508 9 11 9.14917 11 9.33333V10.6667C11 10.8508 10.8508 11 10.6667 11Z" fill="#878C91"/>
</g>
<defs>
<clipPath id="clip0_3260_8210">
<rect width="8.5" height="9" fill="white" transform="translate(9 9)"/>
</clipPath>
</defs>
</svg>
