<svg width="27" height="27" viewBox="0 0 27 27" fill="none" xmlns="http://www.w3.org/2000/svg">
<path fill-rule="evenodd" clip-rule="evenodd" d="M11 1H16C21.523 1 26 5.477 26 11V16C26 21.523 21.523 26 16 26H11C5.477 26 1 21.523 1 16V11C1 5.477 5.477 1 11 1Z" fill="white" stroke="#E0E3E6" stroke-width="0.8"/>
<rect x="8" y="12.5" width="11" height="1" fill="#878C91"/>
<path d="M10.75 16.7949C11.0273 17.0371 11.3984 17.2363 11.8633 17.3926C12.3281 17.5488 12.7695 17.627 13.1875 17.627C14.4609 17.627 15.0977 17.1738 15.0977 16.2676C15.0977 16.0137 15.0293 15.7852 14.8926 15.582C14.7559 15.3789 14.5684 15.1992 14.3301 15.043C14.0918 14.8867 13.6445 14.6465 12.9883 14.3223C12.0781 13.8691 11.4785 13.4492 11.1895 13.0625C10.9004 12.6719 10.7559 12.2266 10.7559 11.7266C10.7559 10.9727 11.0586 10.375 11.6641 9.93359C12.2695 9.49219 13.0332 9.27148 13.9551 9.27148C14.8574 9.27148 15.5195 9.38086 15.9414 9.59961V10.877C15.3945 10.498 14.7031 10.3086 13.8672 10.3086C13.3125 10.3086 12.8594 10.4258 12.5078 10.6602C12.1602 10.8906 11.9863 11.2129 11.9863 11.627C11.9863 11.9941 12.1074 12.293 12.3496 12.5234C12.5918 12.7539 13.1172 13.0684 13.9258 13.4668C14.8164 13.8926 15.4395 14.3184 15.7949 14.7441C16.1504 15.1699 16.3281 15.6484 16.3281 16.1797C16.3281 16.9766 16.0391 17.5879 15.4609 18.0137C14.8828 18.4395 14.0801 18.6523 13.0527 18.6523C12.6934 18.6523 12.2734 18.6016 11.793 18.5C11.3164 18.4023 10.9688 18.2793 10.75 18.1309V16.7949Z" fill="#878C91"/>
</svg>
