<svg width="17" height="17" viewBox="0 0 17 17" fill="none" xmlns="http://www.w3.org/2000/svg">
<path d="M9.01074 3.95801C9.63917 3.33989 10.6616 3.33989 11.29 3.95801L13.5244 6.15527C14.1481 6.76894 14.148 7.7601 13.5244 8.37305L8.7373 13.0801H7.09277L3.54883 9.59473C3.47344 9.52043 3.47337 9.4035 3.54785 9.33008L9.01074 3.95801Z" stroke="#161C27"/>
<path fill-rule="evenodd" clip-rule="evenodd" d="M6.0435 7.34019L10.003 11.2262C10.2205 11.4397 10.2205 11.7862 10.003 12.0002C9.7855 12.2137 9.4335 12.2137 9.216 12.0002L5.2565 8.11419C5.0395 7.90019 5.0395 7.55369 5.2565 7.34019C5.474 7.12619 5.8265 7.12619 6.0435 7.34019Z" fill="#161C27"/>
<path fill-rule="evenodd" clip-rule="evenodd" d="M6.89125 12.5H13.9577C14.2603 12.5 14.5052 12.745 14.5052 13.047C14.5052 13.3495 14.2603 13.5945 13.9577 13.5945H6.89125C6.58875 13.5945 6.34375 13.3495 6.34375 13.047C6.34375 12.745 6.58875 12.5 6.89125 12.5Z" fill="#161C27"/>
</svg>
