<svg width="27" height="27" viewBox="0 0 27 27" fill="none" xmlns="http://www.w3.org/2000/svg">
<path fill-rule="evenodd" clip-rule="evenodd" d="M11 1H16C21.523 1 26 5.477 26 11V16C26 21.523 21.523 26 16 26H11C5.477 26 1 21.523 1 16V11C1 5.477 5.477 1 11 1Z" fill="white" stroke="#E0E3E6" stroke-width="0.8"/>
<path d="M18.0261 12.8734L18.026 12.8735L13.24 17.581H11.5948L8.05058 14.0954C8.05055 14.0953 8.05051 14.0953 8.05048 14.0952C7.97515 14.0209 7.97566 13.9043 8.05025 13.831C8.05025 13.831 8.05025 13.831 8.05025 13.831L13.5127 8.45848L13.5128 8.45846C14.1412 7.84034 15.1631 7.84034 15.7915 8.45846L15.7916 8.45849L18.026 10.656C18.026 10.656 18.026 10.656 18.0261 10.656C18.6499 11.2696 18.6497 12.2604 18.0261 12.8734Z" stroke="#878C91"/>
<path fill-rule="evenodd" clip-rule="evenodd" d="M10.5415 11.8402L14.501 15.7262C14.7185 15.9397 14.7185 16.2862 14.501 16.5002C14.2835 16.7137 13.9315 16.7137 13.714 16.5002L9.75455 12.6142C9.53755 12.4002 9.53755 12.0537 9.75455 11.8402C9.97205 11.6262 10.3245 11.6262 10.5415 11.8402Z" fill="#878C91"/>
<path fill-rule="evenodd" clip-rule="evenodd" d="M11.3873 17H18.4538C18.7563 17 19.0013 17.245 19.0013 17.547C19.0013 17.8495 18.7563 18.0945 18.4538 18.0945H11.3873C11.0848 18.0945 10.8398 17.8495 10.8398 17.547C10.8398 17.245 11.0848 17 11.3873 17Z" fill="#878C91"/>
</svg>
