<svg width="9" height="10" viewBox="0 0 9 10" fill="none" xmlns="http://www.w3.org/2000/svg">
<path fill-rule="evenodd" clip-rule="evenodd" d="M8.83333 9H3.16667C3.07467 9 3 8.92533 3 8.83333V8.16667C3 8.07467 3.07467 8 3.16667 8H8.83333C8.92533 8 9 8.07467 9 8.16667V8.83333C9 8.92533 8.92533 9 8.83333 9ZM8.83333 5.5H3.16667C3.07467 5.5 3 5.42533 3 5.33333V4.66667C3 4.57467 3.07467 4.5 3.16667 4.5H8.83333C8.92533 4.5 9 4.57467 9 4.66667V5.33333C9 5.42533 8.92533 5.5 8.83333 5.5ZM8.83333 2H3.16667C3.07467 2 3 1.92533 3 1.83333V1.16667C3 1.07467 3.07467 1 3.16667 1H8.83333C8.92533 1 9 1.07467 9 1.16667V1.83333C9 1.92533 8.92533 2 8.83333 2ZM2.16667 9.5H0.833333C0.649167 9.5 0.5 9.35083 0.5 9.16667V7.83333C0.5 7.64917 0.649167 7.5 0.833333 7.5H2.16667C2.35083 7.5 2.5 7.64917 2.5 7.83333V9.16667C2.5 9.35083 2.35083 9.5 2.16667 9.5ZM2.16667 6H0.833333C0.649167 6 0.5 5.85083 0.5 5.66667V4.33333C0.5 4.14917 0.649167 4 0.833333 4H2.16667C2.35083 4 2.5 4.14917 2.5 4.33333V5.66667C2.5 5.85083 2.35083 6 2.16667 6ZM2.16667 2.5H0.833333C0.649167 2.5 0.5 2.35083 0.5 2.16667V0.833333C0.5 0.649167 0.649167 0.5 0.833333 0.5H2.16667C2.35083 0.5 2.5 0.649167 2.5 0.833333V2.16667C2.5 2.35083 2.35083 2.5 2.16667 2.5Z" fill="#161C27"/>
</svg>
