<svg width="38" height="27" viewBox="0 0 38 27" fill="none" xmlns="http://www.w3.org/2000/svg">
<path fill-rule="evenodd" clip-rule="evenodd" d="M10.7946 1H27.2054C32.6149 1 37 5.477 37 11V16C37 21.523 32.6149 26 27.2054 26H10.7946C5.38506 26 1 21.523 1 16V11C1 5.477 5.38506 1 10.7946 1Z" fill="white" stroke="#E0E3E6" stroke-width="0.8"/>
<path fill-rule="evenodd" clip-rule="evenodd" d="M27.4995 15.9985L25 13H29.9985L27.4995 15.9985Z" fill="#878C91"/>
<path d="M19.3027 18H18.0078L17.082 15.5156H13.3027L12.4297 18H11.1348L14.5918 8.92383H15.8457L19.3027 18ZM16.7188 14.4902L15.3477 10.7168C15.3047 10.5957 15.2578 10.3848 15.207 10.084H15.1777C15.1348 10.3574 15.0859 10.5684 15.0312 10.7168L13.6719 14.4902H16.7188Z" fill="#878C91"/>
<rect x="12" y="19" width="7" height="1" fill="#878C91"/>
</svg>
