<svg width="7" height="10" viewBox="0 0 7 10" fill="none" xmlns="http://www.w3.org/2000/svg">
<path d="M0.671875 9.5V0.423828H3.33789C4.13477 0.423828 4.77148 0.615234 5.24805 0.998047C5.72461 1.37695 5.96289 1.88086 5.96289 2.50977C5.96289 3.00977 5.82031 3.45117 5.53516 3.83398C5.25391 4.2168 4.86523 4.48828 4.36914 4.64844V4.67188C4.98633 4.74219 5.47852 4.97656 5.8457 5.375C6.2168 5.76953 6.40234 6.27148 6.40234 6.88086C6.40234 7.66211 6.12109 8.29492 5.55859 8.7793C5 9.25977 4.2832 9.5 3.4082 9.5H0.671875ZM1.84375 1.44922V4.29102H2.91016C3.47656 4.29102 3.91992 4.1543 4.24023 3.88086C4.56445 3.60352 4.72656 3.2207 4.72656 2.73242C4.72656 1.87695 4.15625 1.44922 3.01562 1.44922H1.84375ZM1.84375 5.31055V8.47461H3.25C3.86328 8.47461 4.33594 8.33398 4.66797 8.05273C5.00391 7.76758 5.17188 7.37305 5.17188 6.86914C5.17188 5.83008 4.4668 5.31055 3.05664 5.31055H1.84375Z" fill="#161C27"/>
</svg>
