<svg width="27" height="27" viewBox="0 0 27 27" fill="none" xmlns="http://www.w3.org/2000/svg">
<path fill-rule="evenodd" clip-rule="evenodd" d="M11 1H16C21.523 1 26 5.477 26 11V16C26 21.523 21.523 26 16 26H11C5.477 26 1 21.523 1 16V11C1 5.477 5.477 1 11 1Z" fill="white" stroke="#E0E3E6" stroke-width="0.8"/>
<path fill-rule="evenodd" clip-rule="evenodd" d="M15.538 17.9999H12.4615H10.923H9.3845V17.9604C9.1615 17.8799 9 17.6699 9 17.4169C9 17.1639 9.1615 16.9539 9.3845 16.8729V16.8339H10.923H12.4615H15.514C16.802 16.8339 17.846 15.7899 17.846 14.5019C17.846 13.2139 16.802 12.1699 15.514 12.1699H13.2305H10.923H9L13.219 9.00342L13.2265 11.0039H15.5385C17.45 11.0039 19 12.5699 19 14.5014C19 16.4334 17.45 17.9999 15.538 17.9999Z" fill="#878C91"/>
</svg>
