<svg width="5" height="9" viewBox="0 0 5 9" fill="none" xmlns="http://www.w3.org/2000/svg">
<path fill-rule="evenodd" clip-rule="evenodd" d="M3.978 1.5435H3.0575L2.423 7.2825C2.423 7.344 2.4075 7.4015 2.388 7.4565H3.286C3.574 7.4565 3.8075 7.69 3.8075 7.978C3.8075 8.2665 3.574 8.5 3.286 8.5H0.5215C0.2335 8.5 0 8.2665 0 7.978C0 7.69 0.2335 7.4565 0.5215 7.4565H1.4195C1.4 7.4015 1.3845 7.344 1.3845 7.2825L2.019 1.5435H1.214C0.926 1.5435 0.692 1.31 0.692 1.0215C0.692 0.7335 0.926 0.5 1.214 0.5H3.978C4.2665 0.5 4.5 0.7335 4.5 1.0215C4.5 1.31 4.2665 1.5435 3.978 1.5435Z" fill="#161C27"/>
</svg>
