<svg width="27" height="27" viewBox="0 0 27 27" fill="none" xmlns="http://www.w3.org/2000/svg">
<path fill-rule="evenodd" clip-rule="evenodd" d="M11 1H16C21.523 1 26 5.477 26 11V16C26 21.523 21.523 26 16 26H11C5.477 26 1 21.523 1 16V11C1 5.477 5.477 1 11 1Z" fill="white" fill-opacity="0.1" stroke="white" stroke-opacity="0.08" stroke-width="0.8"/>
<path fill-rule="evenodd" clip-rule="evenodd" d="M13.9129 16.4185H13.0459C11.5839 16.4185 10.3984 15.2335 10.3984 13.7715V9H11.6199V13.603C11.6199 14.4805 12.3309 15.1915 13.2084 15.1915H13.7504C14.6274 15.1915 15.3389 14.4805 15.3389 13.603V9H16.5599V13.7715C16.5599 15.2335 15.3749 16.4185 13.9129 16.4185ZM11.3514 17.38H15.6074C15.8939 17.38 16.1264 17.6125 16.1264 17.899C16.1264 18.186 15.8939 18.4185 15.6074 18.4185H11.3514C11.0649 18.4185 10.8324 18.186 10.8324 17.899C10.8324 17.6125 11.0649 17.38 11.3514 17.38Z" fill="white" fill-opacity="0.8"/>
</svg>
