<svg width="27" height="27" viewBox="0 0 27 27" fill="none" xmlns="http://www.w3.org/2000/svg">
<path fill-rule="evenodd" clip-rule="evenodd" d="M11 1H16C21.523 1 26 5.477 26 11V16C26 21.523 21.523 26 16 26H11C5.477 26 1 21.523 1 16V11C1 5.477 5.477 1 11 1Z" fill="white" stroke="#E0E3E6" stroke-width="0.8"/>
<path fill-rule="evenodd" clip-rule="evenodd" d="M15.478 10.0435H14.5575L13.923 15.7825C13.923 15.844 13.9075 15.9015 13.888 15.9565H14.786C15.074 15.9565 15.3075 16.19 15.3075 16.478C15.3075 16.7665 15.074 17 14.786 17H12.0215C11.7335 17 11.5 16.7665 11.5 16.478C11.5 16.19 11.7335 15.9565 12.0215 15.9565H12.9195C12.9 15.9015 12.8845 15.844 12.8845 15.7825L13.519 10.0435H12.714C12.426 10.0435 12.192 9.81 12.192 9.5215C12.192 9.2335 12.426 9 12.714 9H15.478C15.7665 9 16 9.2335 16 9.5215C16 9.81 15.7665 10.0435 15.478 10.0435Z" fill="#878C91"/>
</svg>
