<svg width="27" height="27" viewBox="0 0 27 27" fill="none" xmlns="http://www.w3.org/2000/svg">
<path fill-rule="evenodd" clip-rule="evenodd" d="M11 1H16C21.523 1 26 5.477 26 11V16C26 21.523 21.523 26 16 26H11C5.477 26 1 21.523 1 16V11C1 5.477 5.477 1 11 1Z" fill="white" stroke="#E0E3E6" stroke-width="0.8"/>
<g clip-path="url(#clip0_3260_8208)">
<path fill-rule="evenodd" clip-rule="evenodd" d="M17.5 14.5C16.9475 14.5 16.5 14.052 16.5 13.5C16.5 12.9475 16.9475 12.5 17.5 12.5C18.0525 12.5 18.5 12.9475 18.5 13.5C18.5 14.052 18.0525 14.5 17.5 14.5ZM13.5 14.5C12.9475 14.5 12.5 14.052 12.5 13.5C12.5 12.9475 12.9475 12.5 13.5 12.5C14.0525 12.5 14.5 12.9475 14.5 13.5C14.5 14.052 14.0525 14.5 13.5 14.5ZM9.5 14.5C8.9475 14.5 8.5 14.052 8.5 13.5C8.5 12.9475 8.9475 12.5 9.5 12.5C10.0525 12.5 10.5 12.9475 10.5 13.5C10.5 14.052 10.0525 14.5 9.5 14.5Z" fill="#878C91"/>
</g>
<defs>
<clipPath id="clip0_3260_8208">
<rect width="10" height="2" fill="white" transform="translate(8.5 12.5)"/>
</clipPath>
</defs>
</svg>
