<svg width="38" height="27" viewBox="0 0 38 27" fill="none" xmlns="http://www.w3.org/2000/svg">
<path fill-rule="evenodd" clip-rule="evenodd" d="M10.7297 1H27.2703C32.644 1 37 5.477 37 11V16C37 21.523 32.644 26 27.2703 26H10.7297C5.356 26 1 21.523 1 16V11C1 5.477 5.356 1 10.7297 1Z" fill="white" stroke="#E0E3E6" stroke-width="0.8"/>
<path fill-rule="evenodd" clip-rule="evenodd" d="M25.4995 15.9985L23 13H27.9985L25.4995 15.9985Z" fill="#878C91"/>
<path d="M18.9189 17.5H17.8398L17.0684 15.4297H13.9189L13.1914 17.5H12.1123L14.9932 9.93652H16.0381L18.9189 17.5ZM16.7656 14.5752L15.623 11.4307C15.5872 11.3298 15.5482 11.154 15.5059 10.9033H15.4814C15.4456 11.1312 15.4049 11.307 15.3594 11.4307L14.2266 14.5752H16.7656Z" fill="#878C91"/>
<rect x="11" y="7.5" width="9" height="1" fill="#878C91"/>
<rect x="11" y="18.5" width="9" height="1" fill="#878C91"/>
</svg>
