<svg width="12" height="12" viewBox="0 0 12 12" fill="none" xmlns="http://www.w3.org/2000/svg">
<rect x="0.5" y="5" width="11" height="1" fill="#161C27"/>
<path d="M3.25 9.29492C3.52734 9.53711 3.89844 9.73633 4.36328 9.89258C4.82812 10.0488 5.26953 10.127 5.6875 10.127C6.96094 10.127 7.59766 9.67383 7.59766 8.76758C7.59766 8.51367 7.5293 8.28516 7.39258 8.08203C7.25586 7.87891 7.06836 7.69922 6.83008 7.54297C6.5918 7.38672 6.14453 7.14648 5.48828 6.82227C4.57812 6.36914 3.97852 5.94922 3.68945 5.5625C3.40039 5.17188 3.25586 4.72656 3.25586 4.22656C3.25586 3.47266 3.55859 2.875 4.16406 2.43359C4.76953 1.99219 5.5332 1.77148 6.45508 1.77148C7.35742 1.77148 8.01953 1.88086 8.44141 2.09961V3.37695C7.89453 2.99805 7.20312 2.80859 6.36719 2.80859C5.8125 2.80859 5.35938 2.92578 5.00781 3.16016C4.66016 3.39062 4.48633 3.71289 4.48633 4.12695C4.48633 4.49414 4.60742 4.79297 4.84961 5.02344C5.0918 5.25391 5.61719 5.56836 6.42578 5.9668C7.31641 6.39258 7.93945 6.81836 8.29492 7.24414C8.65039 7.66992 8.82812 8.14844 8.82812 8.67969C8.82812 9.47656 8.53906 10.0879 7.96094 10.5137C7.38281 10.9395 6.58008 11.1523 5.55273 11.1523C5.19336 11.1523 4.77344 11.1016 4.29297 11C3.81641 10.9023 3.46875 10.7793 3.25 10.6309V9.29492Z" fill="#161C27"/>
</svg>
