<svg width="38" height="27" viewBox="0 0 38 27" fill="none" xmlns="http://www.w3.org/2000/svg">
<path fill-rule="evenodd" clip-rule="evenodd" d="M10.7297 1H27.2703C32.644 1 37 5.477 37 11V16C37 21.523 32.644 26 27.2703 26H10.7297C5.356 26 1 21.523 1 16V11C1 5.477 5.356 1 10.7297 1Z" fill="white" stroke="#E0E3E6" stroke-width="0.8"/>
<path fill-rule="evenodd" clip-rule="evenodd" d="M26.4995 14.9985L24 12H28.9985L26.4995 14.9985Z" fill="#878C91"/>
<rect x="9" y="7" width="12" height="12" rx="1" fill="#878C91"/>
<path d="M18.4189 17H17.3398L16.5684 14.9297H13.4189L12.6914 17H11.6123L14.4932 9.43652H15.5381L18.4189 17ZM16.2656 14.0752L15.123 10.9307C15.0872 10.8298 15.0482 10.654 15.0059 10.4033H14.9814C14.9456 10.6312 14.9049 10.807 14.8594 10.9307L13.7266 14.0752H16.2656Z" fill="white"/>
</svg>
