<svg width="27" height="27" viewBox="0 0 27 27" fill="none" xmlns="http://www.w3.org/2000/svg">
<path fill-rule="evenodd" clip-rule="evenodd" d="M11 1H16C21.523 1 26 5.477 26 11V16C26 21.523 21.523 26 16 26H11C5.477 26 1 21.523 1 16V11C1 5.477 5.477 1 11 1Z" fill="white" stroke="#E0E3E6" stroke-width="0.8"/>
<path fill-rule="evenodd" clip-rule="evenodd" d="M13.9149 16.4185H13.0479C11.5859 16.4185 10.4004 15.2335 10.4004 13.7715V9H11.6219V13.603C11.6219 14.4805 12.3329 15.1915 13.2104 15.1915H13.7524C14.6294 15.1915 15.3409 14.4805 15.3409 13.603V9H16.5619V13.7715C16.5619 15.2335 15.3769 16.4185 13.9149 16.4185ZM11.3534 17.38H15.6094C15.8959 17.38 16.1284 17.6125 16.1284 17.899C16.1284 18.186 15.8959 18.4185 15.6094 18.4185H11.3534C11.0669 18.4185 10.8344 18.186 10.8344 17.899C10.8344 17.6125 11.0669 17.38 11.3534 17.38Z" fill="#878C91"/>
</svg>
