<svg width="27" height="27" viewBox="0 0 27 27" fill="none" xmlns="http://www.w3.org/2000/svg">
<path fill-rule="evenodd" clip-rule="evenodd" d="M11 1H16C21.523 1 26 5.477 26 11V16C26 21.523 21.523 26 16 26H11C5.477 26 1 21.523 1 16V11C1 5.477 5.477 1 11 1Z" fill="white" fill-opacity="0.1" stroke="white" stroke-opacity="0.08" stroke-width="0.8"/>
<path fill-rule="evenodd" clip-rule="evenodd" d="M14.769 12.1699H12.4855C11.198 12.1699 10.154 13.2139 10.154 14.5019C10.154 15.7899 11.198 16.8339 12.486 16.8339H15.5385H17.077H18.6155V16.8729C18.8385 16.9539 19 17.1639 19 17.4169C19 17.6699 18.8385 17.8799 18.6155 17.9604V17.9999H17.077H15.5385H12.462C10.55 17.9999 9 16.4334 9 14.5014C9 12.5699 10.5495 11.0039 12.461 11.0039H14.7735L14.7805 9.00342L19 12.1699H17.077H14.769Z" fill="white" fill-opacity="0.8"/>
</svg>
