<svg width="48" height="48" viewBox="0 0 48 48" fill="none" xmlns="http://www.w3.org/2000/svg">
<path d="M38.1344 48H9.8656C4.42687 48 0 43.575 0 38.1176V9.86121C0 4.42493 4.42687 0 9.8656 0H38.1344C43.5941 0 47.9999 4.42493 47.9999 9.86121V38.1176C48.021 43.575 43.5941 48 38.1344 48Z" fill="#FDDB32"/>
<path d="M14.6685 38.666V34.0092C14.6685 33.6299 14.3734 33.335 13.994 33.335H9.33522C8.95576 33.335 8.66064 33.6299 8.66064 34.0092V38.666C8.66064 39.0453 8.95576 39.3402 9.33522 39.3402H13.994C14.3734 39.3402 14.6685 39.0453 14.6685 38.666Z" fill="#191E3B"/>
<path d="M39.3584 34.6616V11.7151C39.3584 10.0083 37.9882 8.63867 36.2806 8.63867H13.3241C12.8603 8.63867 12.5863 8.8073 12.2912 9.10224L7.71674 13.7168C7.37945 14.0539 7.61134 14.5597 8.11727 14.5597H28.8815L16.0013 27.4341C15.7694 27.6659 15.664 27.8977 15.664 28.277V31.6695C15.664 32.0698 15.9381 32.3437 16.3386 32.3437H19.7326C20.133 32.3437 20.3649 32.2384 20.5757 32.0066L33.4559 19.1321V39.8871C33.4559 40.3929 33.9617 40.6246 34.2991 40.2875L38.9157 35.694C39.1897 35.399 39.3584 35.1251 39.3584 34.6616Z" fill="#191E3B"/>
</svg>
