<svg width="16" height="16" viewBox="0 0 16 16" fill="none" xmlns="http://www.w3.org/2000/svg">
<path d="M12.7114 16H3.28853C1.47562 16 0 14.525 0 12.7059V3.28709C0 1.47498 1.47562 0 3.28853 0H12.7114C14.5314 0 16 1.47498 16 3.28709V12.7059C16.007 14.525 14.5314 16 12.7114 16Z" fill="#0E214B"/>
<path d="M9.99846 6.68654L10.0266 6.70761C10.7008 4.47408 10.9186 3.49076 10.3215 2.88672H9.47168V2.90779C10.4199 3.2379 10.6376 4.19313 9.99846 6.68654Z" fill="#8EC089"/>
<path fill-rule="evenodd" clip-rule="evenodd" d="M12.6829 2.88672C11.7835 3.40647 11.2495 4.37574 10.1182 6.7638L10.1463 6.78487C11.4462 4.36872 12.184 3.40647 13.8634 2.90779V2.88672H12.6829Z" fill="#2474DE"/>
<path d="M10.0557 6.72869L10.0838 6.74976C11.1518 4.24229 11.4259 3.56099 11.8686 2.90779V2.88672H11.0043V2.91481C11.0956 3.91218 10.7443 4.83229 10.0557 6.72869Z" fill="#E85F24"/>
<path fill-rule="evenodd" clip-rule="evenodd" d="M2.94463 2.88672H2.17871V2.90779C2.88139 3.18171 3.21867 3.70849 3.49975 4.93764C3.49975 4.95169 5.38292 13.5628 5.38292 13.5628H5.81156L3.91433 4.8674C3.58407 3.37838 3.23975 3.10445 2.94463 2.88672Z" fill="#76C5F7"/>
<path fill-rule="evenodd" clip-rule="evenodd" d="M6.95644 12.9587L7.23752 12.3757L5.64946 4.93062C5.36839 3.77171 5.43163 3.24493 5.55109 2.88672H4.93273C4.92571 3.35731 4.94679 3.74361 5.17164 4.73395L6.95644 12.9587Z" fill="#2474DE"/>
<path d="M4.37103 2.88672H3.6543V2.90779C3.97753 3.29409 4.06888 3.76468 4.32184 4.79717L6.23312 13.5698H6.66176L4.75047 4.76205C4.47643 3.63826 4.43427 3.32219 4.37103 2.88672Z" fill="#318EEE"/>
<path d="M7.52539 11.7787L7.81349 11.1887L6.53461 5.06407C6.2957 3.87706 6.4011 3.25898 6.7946 2.90779V2.88672H6.11301C5.9022 3.32921 5.83896 3.77171 6.07787 4.95169L7.52539 11.7787Z" fill="#E85F24"/>
<path d="M6.98435 5.10602C6.64004 3.4695 7.2584 3.03403 7.54649 2.89355H8.55835V2.91463C7.46217 3.12534 7.14597 3.72235 7.41299 5.10602L8.38268 10.0086L8.09458 10.6056L6.98435 5.10602Z" fill="#8EC089"/>
</svg>
