<svg width="18" height="18" viewBox="0 0 18 18" fill="none" xmlns="http://www.w3.org/2000/svg">
<path d="M11.25 15V16.5H9.75V13.5H12.75V9.75H14.7663L13.9437 6.45949C13.4354 4.42633 11.6086 3 9.51287 3H9C6.1005 3 3.75 5.3505 3.75 8.25C3.75 9.80473 4.42391 11.2001 5.50037 12.1635L6 12.6107V16.5H4.5V13.2812C3.11906 12.0453 2.25 10.2491 2.25 8.25C2.25 4.52208 5.27208 1.5 9 1.5H9.51287C12.2969 1.5 14.7237 3.39477 15.3989 6.09569L16.4545 10.3181C16.5729 10.7915 16.2148 11.25 15.7269 11.25H14.25V13.5C14.25 14.3284 13.5784 15 12.75 15H11.25Z" fill="#161C27"/>
<path d="M7.91168 7.28326L8.62555 5.61849C8.76664 5.28928 9.23336 5.28928 9.37445 5.61849L10.088 7.28355L11.7531 7.99713C12.0686 8.13234 12.0817 8.56661 11.7925 8.72675L11.7531 8.74603L10.088 9.45961L9.37445 11.1247C9.23924 11.4402 8.80497 11.4533 8.64484 11.1641L8.62555 11.1247C8.31554 10.4888 7.91168 9.4599 7.91168 9.4599L6.24691 8.74603C5.93141 8.61082 5.91827 8.17655 6.20747 8.01641L6.24691 7.99713L7.91168 7.28326Z" fill="#161C27"/>
</svg>
