<svg width="19" height="19" viewBox="0 0 19 19" fill="none" xmlns="http://www.w3.org/2000/svg">
<g clip-path="url(#clip0_2156_15975)">
<path d="M6.55502 9.6337C6.55502 9.05797 6.72575 8.49517 7.04562 8.01647C7.36549 7.53777 7.82014 7.16467 8.35206 6.94434C8.88399 6.72402 9.46931 6.66638 10.034 6.77869C10.5987 6.89101 11.1174 7.16825 11.5245 7.57536C11.9316 7.98246 12.2089 8.50114 12.3212 9.06581C12.4335 9.63047 12.3759 10.2158 12.1555 10.7477C11.9352 11.2796 11.5621 11.7342 11.0834 12.0541C10.6047 12.3739 10.0418 12.5446 9.46608 12.5446C8.69402 12.5446 7.95358 12.238 7.40765 11.692C6.86172 11.1461 6.55502 10.4057 6.55502 9.6337ZM4.98117 9.6337C4.98117 10.5206 5.24416 11.3875 5.73689 12.1249C6.22962 12.8624 6.92996 13.4371 7.74934 13.7765C8.56873 14.1159 9.47036 14.2048 10.3402 14.0318C11.2101 13.8588 12.0092 13.4318 12.6363 12.8047C13.2635 12.1776 13.6906 11.3787 13.8637 10.5088C14.0368 9.63903 13.9481 8.73742 13.6088 7.91802C13.2694 7.09863 12.6947 6.39825 11.9573 5.90546C11.2199 5.41267 10.353 5.14959 9.46608 5.14948C8.87717 5.14946 8.29403 5.26543 7.74995 5.49078C7.20586 5.71612 6.7115 6.04643 6.29508 6.46283C5.87866 6.87923 5.54834 7.37358 5.32299 7.91764C5.09764 8.4617 4.98166 9.04482 4.98168 9.6337M13.0792 4.97175C13.0791 5.17901 13.1405 5.38164 13.2556 5.55401C13.3707 5.72638 13.5344 5.86075 13.7258 5.94013C13.9173 6.0195 14.128 6.04033 14.3313 5.99996C14.5346 5.95959 14.7214 5.85984 14.868 5.71333C15.0146 5.56683 15.1145 5.38013 15.155 5.17687C15.1955 4.9736 15.1748 4.76289 15.0955 4.57137C15.0163 4.37986 14.882 4.21615 14.7097 4.10095C14.5374 3.98574 14.3348 3.92422 14.1275 3.92415C13.8497 3.92428 13.5833 4.03469 13.3868 4.23111C13.1903 4.42754 13.0798 4.69392 13.0796 4.97175M5.93856 16.7421C5.38473 16.7357 4.83613 16.6341 4.31676 16.4417C3.93745 16.3015 3.59426 16.0783 3.31228 15.7885C3.02197 15.5071 2.7987 15.1641 2.659 14.7847C2.46626 14.2654 2.36442 13.7168 2.35796 13.163C2.31567 12.2424 2.30659 11.9659 2.30659 9.63387C2.30659 7.30187 2.31567 7.02601 2.35796 6.10479C2.36492 5.55104 2.4665 5.00256 2.65832 4.48305C2.79852 4.10375 3.02172 3.76057 3.31159 3.4786C3.59308 3.18815 3.93641 2.96486 4.31608 2.82535C4.83562 2.63271 5.38448 2.53105 5.93856 2.52484C6.85914 2.48255 7.13569 2.47347 9.46608 2.47347C11.7965 2.47347 12.074 2.48255 12.9953 2.52484C13.5491 2.5318 14.0976 2.63337 14.6171 2.82518C14.9966 2.96512 15.3398 3.18835 15.6216 3.47843C15.9117 3.76022 16.1349 4.10345 16.2749 4.48288C16.4674 5.0022 16.569 5.5508 16.5752 6.10461C16.6175 7.02584 16.6266 7.3017 16.6266 9.6337C16.6266 11.9657 16.6182 12.2416 16.5752 13.1628C16.5685 13.7166 16.4669 14.2651 16.2749 14.7845C16.1295 15.1611 15.9069 15.5031 15.6214 15.7885C15.3359 16.0739 14.9938 16.2964 14.6171 16.4415C14.0978 16.634 13.5491 16.7356 12.9953 16.7419C12.0747 16.7842 11.7982 16.7932 9.46608 16.7932C7.13398 16.7932 6.85811 16.785 5.93856 16.7421ZM5.86562 0.95379C5.14117 0.968121 4.4244 1.10528 3.74585 1.35944C3.16306 1.57873 2.63509 1.92244 2.19871 2.36662C1.75405 2.80257 1.41021 3.33057 1.19132 3.91353C0.937214 4.59213 0.800104 5.30892 0.785823 6.03338C0.742842 6.96454 0.73291 7.26214 0.73291 9.6337C0.73291 12.0053 0.742842 12.3029 0.785823 13.234C0.800171 13.9584 0.93734 14.6752 1.19149 15.3537C1.41037 15.9367 1.75415 16.4647 2.19871 16.9008C2.63523 17.3447 3.16309 17.6885 3.74568 17.9081C4.42426 18.1622 5.14101 18.2994 5.86544 18.3138C6.79715 18.3561 7.09425 18.3667 9.46591 18.3667C11.8376 18.3667 12.1352 18.3568 13.0664 18.3138C13.7908 18.2994 14.5076 18.1623 15.1861 17.9081C15.7664 17.6838 16.2934 17.3407 16.7333 16.9008C17.1732 16.4609 17.5163 15.9339 17.7407 15.3537C17.9952 14.6753 18.1323 13.9585 18.1463 13.234C18.1886 12.3022 18.1977 12.0053 18.1977 9.6337C18.1977 7.26214 18.1878 6.96454 18.1463 6.03338C18.132 5.30896 17.9949 4.59222 17.7407 3.9137C17.521 3.3311 17.1774 2.80321 16.7334 2.36662C16.2975 1.92222 15.7698 1.57842 15.1872 1.35927C14.5086 1.10498 13.7917 0.967871 13.0672 0.95379C12.1362 0.911495 11.8384 0.900879 9.46608 0.900879C7.09374 0.900879 6.79647 0.91081 5.86493 0.95379" fill="url(#paint0_radial_2156_15975)"/>
<path d="M6.55502 9.6337C6.55502 9.05797 6.72575 8.49517 7.04562 8.01647C7.36549 7.53777 7.82014 7.16467 8.35206 6.94434C8.88399 6.72402 9.46931 6.66638 10.034 6.77869C10.5987 6.89101 11.1174 7.16825 11.5245 7.57536C11.9316 7.98246 12.2089 8.50114 12.3212 9.06581C12.4335 9.63047 12.3759 10.2158 12.1555 10.7477C11.9352 11.2796 11.5621 11.7342 11.0834 12.0541C10.6047 12.3739 10.0418 12.5446 9.46608 12.5446C8.69402 12.5446 7.95358 12.238 7.40765 11.692C6.86172 11.1461 6.55502 10.4057 6.55502 9.6337ZM4.98117 9.6337C4.98117 10.5206 5.24416 11.3875 5.73689 12.1249C6.22962 12.8624 6.92996 13.4371 7.74934 13.7765C8.56873 14.1159 9.47036 14.2048 10.3402 14.0318C11.2101 13.8588 12.0092 13.4318 12.6363 12.8047C13.2635 12.1776 13.6906 11.3787 13.8637 10.5088C14.0368 9.63903 13.9481 8.73742 13.6088 7.91802C13.2694 7.09863 12.6947 6.39825 11.9573 5.90546C11.2199 5.41267 10.353 5.14959 9.46608 5.14948C8.87717 5.14946 8.29403 5.26543 7.74995 5.49078C7.20586 5.71612 6.7115 6.04643 6.29508 6.46283C5.87866 6.87923 5.54834 7.37358 5.32299 7.91764C5.09764 8.4617 4.98166 9.04482 4.98168 9.6337M13.0792 4.97175C13.0791 5.17901 13.1405 5.38164 13.2556 5.55401C13.3707 5.72638 13.5344 5.86075 13.7258 5.94013C13.9173 6.0195 14.128 6.04033 14.3313 5.99996C14.5346 5.95959 14.7214 5.85984 14.868 5.71333C15.0146 5.56683 15.1145 5.38013 15.155 5.17687C15.1955 4.9736 15.1748 4.76289 15.0955 4.57137C15.0163 4.37986 14.882 4.21615 14.7097 4.10095C14.5374 3.98574 14.3348 3.92422 14.1275 3.92415C13.8497 3.92428 13.5833 4.03469 13.3868 4.23111C13.1903 4.42754 13.0798 4.69392 13.0796 4.97175M5.93856 16.7421C5.38473 16.7357 4.83613 16.6341 4.31676 16.4417C3.93745 16.3015 3.59426 16.0783 3.31228 15.7885C3.02197 15.5071 2.7987 15.1641 2.659 14.7847C2.46626 14.2654 2.36442 13.7168 2.35796 13.163C2.31567 12.2424 2.30659 11.9659 2.30659 9.63387C2.30659 7.30187 2.31567 7.02601 2.35796 6.10479C2.36492 5.55104 2.4665 5.00256 2.65832 4.48305C2.79852 4.10375 3.02172 3.76057 3.31159 3.4786C3.59308 3.18815 3.93641 2.96486 4.31608 2.82535C4.83562 2.63271 5.38448 2.53105 5.93856 2.52484C6.85914 2.48255 7.13569 2.47347 9.46608 2.47347C11.7965 2.47347 12.074 2.48255 12.9953 2.52484C13.5491 2.5318 14.0976 2.63337 14.6171 2.82518C14.9966 2.96512 15.3398 3.18835 15.6216 3.47843C15.9117 3.76022 16.1349 4.10345 16.2749 4.48288C16.4674 5.0022 16.569 5.5508 16.5752 6.10461C16.6175 7.02584 16.6266 7.3017 16.6266 9.6337C16.6266 11.9657 16.6182 12.2416 16.5752 13.1628C16.5685 13.7166 16.4669 14.2651 16.2749 14.7845C16.1295 15.1611 15.9069 15.5031 15.6214 15.7885C15.3359 16.0739 14.9938 16.2964 14.6171 16.4415C14.0978 16.634 13.5491 16.7356 12.9953 16.7419C12.0747 16.7842 11.7982 16.7932 9.46608 16.7932C7.13398 16.7932 6.85811 16.785 5.93856 16.7421ZM5.86562 0.95379C5.14117 0.968121 4.4244 1.10528 3.74585 1.35944C3.16306 1.57873 2.63509 1.92244 2.19871 2.36662C1.75405 2.80257 1.41021 3.33057 1.19132 3.91353C0.937214 4.59213 0.800104 5.30892 0.785823 6.03338C0.742842 6.96454 0.73291 7.26214 0.73291 9.6337C0.73291 12.0053 0.742842 12.3029 0.785823 13.234C0.800171 13.9584 0.93734 14.6752 1.19149 15.3537C1.41037 15.9367 1.75415 16.4647 2.19871 16.9008C2.63523 17.3447 3.16309 17.6885 3.74568 17.9081C4.42426 18.1622 5.14101 18.2994 5.86544 18.3138C6.79715 18.3561 7.09425 18.3667 9.46591 18.3667C11.8376 18.3667 12.1352 18.3568 13.0664 18.3138C13.7908 18.2994 14.5076 18.1623 15.1861 17.9081C15.7664 17.6838 16.2934 17.3407 16.7333 16.9008C17.1732 16.4609 17.5163 15.9339 17.7407 15.3537C17.9952 14.6753 18.1323 13.9585 18.1463 13.234C18.1886 12.3022 18.1977 12.0053 18.1977 9.6337C18.1977 7.26214 18.1878 6.96454 18.1463 6.03338C18.132 5.30896 17.9949 4.59222 17.7407 3.9137C17.521 3.3311 17.1774 2.80321 16.7334 2.36662C16.2975 1.92222 15.7698 1.57842 15.1872 1.35927C14.5086 1.10498 13.7917 0.967871 13.0672 0.95379C12.1362 0.911495 11.8384 0.900879 9.46608 0.900879C7.09374 0.900879 6.79647 0.91081 5.86493 0.95379" fill="white"/>
</g>
<defs>
<radialGradient id="paint0_radial_2156_15975" cx="0" cy="0" r="1" gradientUnits="userSpaceOnUse" gradientTransform="translate(3.05336 18.4491) scale(22.7999 22.799)">
<stop offset="0.09" stop-color="#FA8F21"/>
<stop offset="0.78" stop-color="#D82D7E"/>
</radialGradient>
<clipPath id="clip0_2156_15975">
<rect width="17.4656" height="17.4656" fill="white" transform="translate(0.73291 0.900879)"/>
</clipPath>
</defs>
</svg>
