<svg width="18" height="18" viewBox="0 0 18 18" fill="none" xmlns="http://www.w3.org/2000/svg">
<path fill-rule="evenodd" clip-rule="evenodd" d="M3.16665 8.46971L4.75764 6.87872L5.8183 7.93938L4.22731 9.53037C3.05574 10.7019 3.05574 12.6014 4.22731 13.773C5.39889 14.9446 7.29838 14.9446 8.46995 13.773L10.0609 12.182L11.1216 13.2427L9.53061 14.8337C7.77325 16.591 4.92401 16.591 3.16665 14.8337C1.40929 13.0763 1.40929 10.2271 3.16665 8.46971ZM14.8339 9.53037L13.2429 11.1214L12.1823 10.0607L13.7733 8.46971C14.9448 7.29814 14.9448 5.39864 13.7733 4.22707C12.6017 3.0555 10.7022 3.0555 9.53061 4.22707L7.93962 5.81806L6.87896 4.7574L8.46995 3.16641C10.2273 1.40905 13.0766 1.40905 14.8339 3.16641C16.5913 4.92377 16.5913 7.77301 14.8339 9.53037ZM5.8183 11.1214L6.87896 12.182L12.1823 6.87872L11.1216 5.81806L5.8183 11.1214Z" fill="#23005B"/>
</svg>
