<svg width="16" height="16" viewBox="0 0 16 16" fill="none" xmlns="http://www.w3.org/2000/svg">
<path fill-rule="evenodd" clip-rule="evenodd" d="M11.334 1.3335C12.0704 1.3335 12.6673 1.93045 12.6673 2.66683V13.3335C12.6673 14.0699 12.0704 14.6668 11.334 14.6668H4.66732C3.93094 14.6668 3.33398 14.0699 3.33398 13.3335V2.66683C3.33398 1.93045 3.93094 1.3335 4.66732 1.3335H11.334ZM11.334 2.66683H4.66732V13.3335H11.334V2.66683ZM6.66732 11.3335C6.29913 11.3335 6.00065 11.632 6.00065 12.0002C6.00065 12.3684 6.29913 12.6668 6.66732 12.6668H9.33398C9.70217 12.6668 10.0007 12.3684 10.0007 12.0002C10.0007 11.632 9.70217 11.3335 9.33398 11.3335H6.66732Z" fill="#855EE1"/>
</svg>
