<svg width="20" height="15" viewBox="0 0 20 15" fill="none" xmlns="http://www.w3.org/2000/svg">
<path d="M5.33598 7.26725V7.32362L0.938965 3.60307V2.43999C0.942519 1.17477 1.94944 0.305298 3.01951 0.305298C3.45176 0.305298 3.89431 0.447276 4.28485 0.762535L10.4658 5.80158L16.6468 0.774274C18.007 -0.321866 19.9927 0.677572 19.9927 2.45845V3.96949L15.5957 7.52094V7.26725L10.4658 11.6643L5.33598 7.26725Z" fill="#EA4235"/>
<path d="M0.938965 13.6792C0.938965 14.388 1.49526 14.962 2.18156 14.962H5.33599V1.61947L4.28486 0.762535C3.89432 0.447276 3.45177 0.305298 3.01952 0.305298C1.94755 0.305298 0.938965 1.17785 0.938965 2.44671V13.6792Z" fill="#C5221F"/>
<path d="M0.939206 13.7046C0.95237 14.4016 1.50352 14.9619 2.18156 14.9619H5.33599V7.26709L0.938965 3.60291L0.939206 13.7046Z" fill="#4285F3"/>
<path d="M15.5957 14.962H18.7501C19.4364 14.962 19.9927 14.388 19.9927 13.6792V2.45845C19.9927 0.67757 18.007 -0.321868 16.6468 0.774272L15.5957 1.62921V14.962Z" fill="#F4BC06"/>
<path d="M19.9927 13.679V4.38354L15.5957 7.26705V14.9618H18.7501C19.4364 14.9618 19.9927 14.3878 19.9927 13.679Z" fill="#48A852"/>
</svg>
