<svg width="32" height="32" viewBox="0 0 32 32" fill="none" xmlns="http://www.w3.org/2000/svg">
<g clip-path="url(#clip0_2156_15917)">
<path d="M0 16C0 7.16344 7.16344 0 16 0C24.8366 0 32 7.16344 32 16C32 24.8366 24.8366 32 16 32C7.16344 32 0 24.8366 0 16Z" fill="#D0BCFF" fill-opacity="0.12"/>
<path fill-rule="evenodd" clip-rule="evenodd" d="M21.2186 16.686C21.106 16.8736 20.949 17.0307 20.7613 17.1433L13.3528 21.5884C12.7214 21.9672 11.9024 21.7625 11.5235 21.131C11.3992 20.9238 11.3335 20.6867 11.3335 20.445V11.5549C11.3335 10.8185 11.9304 10.2216 12.6668 10.2216C12.9085 10.2216 13.1456 10.2872 13.3528 10.4116L20.7613 14.8566C21.3927 15.2355 21.5975 16.0545 21.2186 16.686ZM20.0748 15.9993L12.6668 11.5549V20.445L20.0748 15.9993Z" fill="#161C27"/>
</g>
<defs>
<clipPath id="clip0_2156_15917">
<path d="M0 16C0 7.16344 7.16344 0 16 0C24.8366 0 32 7.16344 32 16C32 24.8366 24.8366 32 16 32C7.16344 32 0 24.8366 0 16Z" fill="white"/>
</clipPath>
</defs>
</svg>
