<svg width="16" height="16" viewBox="0 0 16 16" fill="none" xmlns="http://www.w3.org/2000/svg">
<path d="M10.9056 6.33325C10.9056 4.72242 9.59976 3.41659 7.98893 3.41659C6.63052 3.41659 5.46123 4.35242 5.1512 5.6572L6.77273 6.04248C6.90525 5.48472 7.40688 5.08325 7.98893 5.08325C8.67928 5.08325 9.23893 5.6429 9.23893 6.33325C9.23893 6.92871 8.81892 7.43859 8.24404 7.55737L8.13739 7.58106L7.89174 7.58886C7.47729 7.637 7.15559 7.98922 7.15559 8.41658V10.1155H8.82226L8.82197 9.12742L8.88494 9.10958C10.0714 8.72757 10.9056 7.61617 10.9056 6.33325Z" fill="white"/>
<path d="M8.82226 12.6155V10.9489H7.15559V12.6155H8.82226Z" fill="white"/>
<path fill-rule="evenodd" clip-rule="evenodd" d="M0.500122 3.83284C0.500122 1.9919 1.99251 0.499512 3.83346 0.499512H12.1668C14.0077 0.499512 15.5001 1.9919 15.5001 3.83284V12.1662C15.5001 14.0071 14.0077 15.4995 12.1668 15.4995H3.83346C1.99251 15.4995 0.500122 14.0071 0.500122 12.1662V3.83284ZM3.83346 2.16618H12.1668C13.0873 2.16618 13.8335 2.91237 13.8335 3.83284V12.1662C13.8335 13.0867 13.0873 13.8328 12.1668 13.8328H3.83346C2.91298 13.8328 2.16679 13.0867 2.16679 12.1662V3.83284C2.16679 2.91237 2.91298 2.16618 3.83346 2.16618Z" fill="white"/>
</svg>
