<svg width="44" height="44" viewBox="0 0 44 44" fill="none" xmlns="http://www.w3.org/2000/svg">
<path fill-rule="evenodd" clip-rule="evenodd" d="M21.9987 3.66663C11.8735 3.66663 3.66537 11.8747 3.66537 22C3.66537 32.1252 11.8735 40.3333 21.9987 40.3333C32.1239 40.3333 40.332 32.1252 40.332 22C40.332 11.8747 32.1239 3.66663 21.9987 3.66663ZM21.9987 7.33329C30.0989 7.33329 36.6654 13.8998 36.6654 22C36.6654 30.1001 30.0989 36.6666 21.9987 36.6666C13.8985 36.6666 7.33203 30.1001 7.33203 22C7.33203 13.8998 13.8985 7.33329 21.9987 7.33329ZM21.9987 31.1666C16.9361 31.1666 12.832 27.0626 12.832 22C12.832 16.9373 16.9361 12.8333 21.9987 12.8333C27.0613 12.8333 31.1654 16.9373 31.1654 22C31.1654 27.0626 27.0613 31.1666 21.9987 31.1666Z" fill="#FBF9F7"/>
</svg>
