<svg width="24" height="23" viewBox="0 0 24 23" fill="none" xmlns="http://www.w3.org/2000/svg">
<path fill-rule="evenodd" clip-rule="evenodd" d="M21.0366 11.3965C21.0366 6.36962 16.8521 2.28019 11.7083 2.28019C6.56457 2.28019 2.38007 6.36962 2.38007 11.3965C2.38007 12.8197 2.70812 14.1848 3.35513 15.4535L3.64845 16.0294L3.04471 19.8633L6.96775 19.2732L7.55699 19.5599C8.85517 20.1922 10.2521 20.5128 11.7083 20.5128C16.8521 20.5128 21.0366 16.4234 21.0366 11.3965ZM23.1095 11.3965C23.1095 17.5503 18.0051 22.5387 11.7083 22.5387C9.88413 22.5387 8.16151 22.1178 6.63246 21.3733L0.566247 22.2854L1.49959 16.357C0.737783 14.8627 0.307129 13.1792 0.307129 11.3965C0.307129 5.24274 5.41149 0.254349 11.7083 0.254349C18.0051 0.254349 23.1095 5.24274 23.1095 11.3965ZM17.0018 15.8789C16.4577 16.729 14.9165 16.7847 14.0785 16.6903C13.3545 16.6085 11.0963 15.978 9.58251 14.5981C8.06849 13.2182 6.8426 11.766 6.34095 10.6951C5.83956 9.62389 5.86728 8.98853 5.89501 8.68921C5.92299 8.38964 6.03804 7.1283 7.03461 6.40659C7.72982 5.90342 8.59994 6.01332 8.80412 6.5051C8.9101 6.76061 9.69782 8.54816 9.75586 8.68643C9.81365 8.82469 9.96497 9.1663 9.72244 9.47245C9.47938 9.77861 8.97151 10.3502 8.97151 10.3502C8.97151 10.3502 8.77044 10.5269 8.94482 10.809C9.11921 11.0903 9.73202 12.0197 10.5335 12.7214C11.3352 13.4236 12.3167 13.94 12.8057 14.0972C13.2952 14.2545 13.4024 14.0448 13.59 13.809C13.7776 13.5733 14.3609 12.8526 14.3609 12.8526C14.3609 12.8526 14.5622 12.5644 14.9574 12.7414C15.3528 12.9182 16.4807 13.4535 17.0016 13.6918C18.0259 14.1615 17.46 15.1633 17.0018 15.8789Z" fill="white"/>
</svg>
