<svg width="24" height="19" viewBox="0 0 24 19" fill="none" xmlns="http://www.w3.org/2000/svg">
<path d="M16.4033 12.327C16.3966 12.2846 16.3931 12.2412 16.3931 12.197V8.70545C16.3931 8.25173 16.7609 7.88391 17.2146 7.88391H23.1708C23.6245 7.88391 23.9923 8.25173 23.9923 8.70545V12.197C23.9923 12.2412 23.9888 12.2846 23.9821 12.327C23.9889 12.4197 23.9923 12.5133 23.9923 12.6078C23.9923 14.7062 22.2912 16.4074 20.1927 16.4074C18.0942 16.4074 16.3931 14.7062 16.3931 12.6078C16.3931 12.5133 16.3965 12.4197 16.4033 12.327Z" fill="url(#paint0_linear_2156_12929)"/>
<path d="M21.0143 6.65164C22.1486 6.65164 23.0682 5.73209 23.0682 4.59778C23.0682 3.46347 22.1486 2.54393 21.0143 2.54393C19.88 2.54393 18.9604 3.46347 18.9604 4.59778C18.9604 5.73209 19.88 6.65164 21.0143 6.65164Z" fill="url(#paint1_linear_2156_12929)"/>
<path d="M9.72038 13.7969C9.71898 13.7772 9.71826 13.7574 9.71826 13.7374V8.70548C9.71826 8.25176 10.0861 7.88394 10.5398 7.88394H18.7552C19.2089 7.88394 19.5768 8.25176 19.5768 8.70548V13.7374C19.5768 13.7574 19.576 13.7772 19.5746 13.7969C19.576 13.8454 19.5768 13.894 19.5768 13.9428C19.5768 16.6652 17.3699 18.8721 14.6475 18.8721C11.9252 18.8721 9.71826 16.6652 9.71826 13.9428C9.71826 13.894 9.71897 13.8454 9.72038 13.7969Z" fill="url(#paint2_linear_2156_12929)"/>
<path d="M14.6474 6.65173C16.2354 6.65173 17.5228 5.36437 17.5228 3.77633C17.5228 2.1883 16.2354 0.90094 14.6474 0.90094C13.0593 0.90094 11.772 2.1883 11.772 3.77633C11.772 5.36437 13.0593 6.65173 14.6474 6.65173Z" fill="url(#paint3_linear_2156_12929)"/>
<path d="M13.3123 4.90585H5.09693C4.64321 4.90585 4.27539 5.27367 4.27539 5.72739V13.9428C4.27539 14.3965 4.64321 14.7643 5.09693 14.7643H13.3123C13.7661 14.7643 14.1339 14.3965 14.1339 13.9428V5.72739C14.1339 5.27367 13.7661 4.90585 13.3123 4.90585Z" fill="url(#paint4_linear_2156_12929)"/>
<path d="M13.3123 4.90585H5.09693C4.64321 4.90585 4.27539 5.27367 4.27539 5.72739V13.9428C4.27539 14.3965 4.64321 14.7643 5.09693 14.7643H13.3123C13.7661 14.7643 14.1339 14.3965 14.1339 13.9428V5.72739C14.1339 5.27367 13.7661 4.90585 13.3123 4.90585Z" fill="url(#paint5_radial_2156_12929)"/>
<mask id="mask0_2156_12929" style="mask-type:luminance" maskUnits="userSpaceOnUse" x="4" y="4" width="11" height="11">
<path d="M13.3123 4.90585H5.09693C4.64321 4.90585 4.27539 5.27367 4.27539 5.72739V13.9428C4.27539 14.3965 4.64321 14.7643 5.09693 14.7643H13.3123C13.7661 14.7643 14.1339 14.3965 14.1339 13.9428V5.72739C14.1339 5.27367 13.7661 4.90585 13.3123 4.90585Z" fill="white"/>
</mask>
<g mask="url(#mask0_2156_12929)">
<path d="M11.2548 8.08823H9.7165V12.3012H8.78467V8.08823H7.25342V7.26782H11.2548V8.08823Z" fill="url(#paint6_linear_2156_12929)"/>
</g>
<g filter="url(#filter0_f_2156_12929)">
<path fill-rule="evenodd" clip-rule="evenodd" d="M5.19954 4.90584H13.415C13.8687 4.90584 14.2365 5.27365 14.2365 5.72738V13.9428C14.2365 14.3965 12.8418 15.7913 12.388 15.7913H4.17262C3.71889 15.7913 3.35107 15.4234 3.35107 14.9697V6.75431C3.35107 6.30058 4.74582 4.90584 5.19954 4.90584Z" fill="black" fill-opacity="0.05"/>
</g>
<defs>
<filter id="filter0_f_2156_12929" x="0.969395" y="2.52416" width="15.6486" height="15.6488" filterUnits="userSpaceOnUse" color-interpolation-filters="sRGB">
<feFlood flood-opacity="0" result="BackgroundImageFix"/>
<feBlend mode="normal" in="SourceGraphic" in2="BackgroundImageFix" result="shape"/>
<feGaussianBlur stdDeviation="1.19084" result="effect1_foregroundBlur_2156_12929"/>
</filter>
<linearGradient id="paint0_linear_2156_12929" x1="804.041" y1="860.233" x2="-33.5614" y2="134.315" gradientUnits="userSpaceOnUse">
<stop stop-color="#4B5DE9"/>
<stop offset="1" stop-color="#3941C3"/>
</linearGradient>
<linearGradient id="paint1_linear_2156_12929" x1="444.716" y1="413.315" x2="37.0754" y2="17.0606" gradientUnits="userSpaceOnUse">
<stop stop-color="#4B5DE9"/>
<stop offset="1" stop-color="#3941C3"/>
</linearGradient>
<linearGradient id="paint2_linear_2156_12929" x1="375.182" y1="434.399" x2="897.453" y2="940.035" gradientUnits="userSpaceOnUse">
<stop stop-color="#505CDF"/>
<stop offset="1" stop-color="#7E93FF"/>
</linearGradient>
<linearGradient id="paint3_linear_2156_12929" x1="122.59" y1="60.5309" x2="559.897" y2="575.98" gradientUnits="userSpaceOnUse">
<stop stop-color="#414FB7"/>
<stop offset="1" stop-color="#5260D9"/>
</linearGradient>
<linearGradient id="paint4_linear_2156_12929" x1="25.481" y1="100.661" x2="1120.03" y2="1036.82" gradientUnits="userSpaceOnUse">
<stop stop-color="#1D2771"/>
<stop offset="1" stop-color="#2D38A5"/>
</linearGradient>
<radialGradient id="paint5_radial_2156_12929" cx="0" cy="0" r="1" gradientUnits="userSpaceOnUse" gradientTransform="translate(858.031 835.09) scale(601.289)">
<stop stop-color="#313DAE"/>
<stop offset="1" stop-color="#313DAE" stop-opacity="0"/>
</radialGradient>
<linearGradient id="paint6_linear_2156_12929" x1="125.167" y1="258.937" x2="399.244" y2="258.937" gradientUnits="userSpaceOnUse">
<stop stop-color="#F0F0F0"/>
<stop offset="1" stop-color="white"/>
</linearGradient>
</defs>
</svg>
