<svg width="28" height="28" viewBox="0 0 28 28" fill="none" xmlns="http://www.w3.org/2000/svg">
<g clip-path="url(#clip0_5326_31847)">
<path d="M13.815 17.4338C15.6697 17.4338 17.1733 15.9303 17.1733 14.0756C17.1733 12.2208 15.6697 10.7173 13.815 10.7173C11.9603 10.7173 10.4568 12.2208 10.4568 14.0756C10.4568 15.9303 11.9603 17.4338 13.815 17.4338Z" stroke="black" stroke-width="2.21249" stroke-linecap="round" stroke-linejoin="round"/>
<path d="M22.0998 17.4338C21.9508 17.7714 21.9063 18.1459 21.9722 18.5091C22.038 18.8722 22.2111 19.2073 22.4692 19.4711L22.5364 19.5383C22.7445 19.7462 22.9097 19.9931 23.0223 20.2649C23.135 20.5367 23.193 20.828 23.193 21.1222C23.193 21.4165 23.135 21.7078 23.0223 21.9796C22.9097 22.2514 22.7445 22.4983 22.5364 22.7062C22.3284 22.9144 22.0815 23.0795 21.8097 23.1922C21.538 23.3048 21.2466 23.3628 20.9524 23.3628C20.6582 23.3628 20.3669 23.3048 20.0951 23.1922C19.8233 23.0795 19.5764 22.9144 19.3684 22.7062L19.3013 22.639C19.0374 22.381 18.7024 22.2079 18.3392 22.142C17.9761 22.0762 17.6016 22.1206 17.2639 22.2696C16.9328 22.4115 16.6505 22.6472 16.4516 22.9475C16.2527 23.2478 16.146 23.5997 16.1445 23.96V24.1503C16.1445 24.744 15.9086 25.3135 15.4888 25.7334C15.0689 26.1532 14.4995 26.3891 13.9057 26.3891C13.3119 26.3891 12.7425 26.1532 12.3226 25.7334C11.9027 25.3135 11.6669 24.744 11.6669 24.1503V24.0495C11.6582 23.679 11.5383 23.3196 11.3226 23.0182C11.107 22.7167 10.8057 22.4871 10.4579 22.3592C10.1203 22.2102 9.74572 22.1657 9.38259 22.2316C9.01945 22.2974 8.68437 22.4705 8.42055 22.7286L8.35338 22.7958C8.14546 23.0039 7.89854 23.1691 7.62675 23.2817C7.35496 23.3944 7.06363 23.4524 6.76941 23.4524C6.47519 23.4524 6.18386 23.3944 5.91207 23.2817C5.64028 23.1691 5.39337 23.0039 5.18544 22.7958C4.97728 22.5878 4.81215 22.3409 4.69948 22.0691C4.58681 21.7973 4.52882 21.506 4.52882 21.2118C4.52882 20.9176 4.58681 20.6262 4.69948 20.3545C4.81215 20.0827 4.97728 19.8357 5.18544 19.6278L5.2526 19.5607C5.51067 19.2968 5.68379 18.9618 5.74963 18.5986C5.81547 18.2355 5.77102 17.861 5.62201 17.5233C5.48011 17.1922 5.24449 16.9099 4.94417 16.711C4.64384 16.5121 4.29191 16.4053 3.93169 16.4039H3.74139C3.14762 16.4039 2.57816 16.168 2.1583 15.7482C1.73844 15.3283 1.50256 14.7588 1.50256 14.1651C1.50256 13.5713 1.73844 13.0018 2.1583 12.582C2.57816 12.1621 3.14762 11.9262 3.74139 11.9262H3.84214C4.21266 11.9176 4.57201 11.7976 4.87346 11.582C5.17491 11.3664 5.40453 11.0651 5.53246 10.7173C5.68147 10.3796 5.72592 10.0051 5.66008 9.64198C5.59423 9.27885 5.42112 8.94376 5.16305 8.67994L5.09589 8.61278C4.88773 8.40485 4.72259 8.15793 4.60993 7.88614C4.49726 7.61435 4.43927 7.32302 4.43927 7.0288C4.43927 6.73459 4.49726 6.44325 4.60993 6.17147C4.72259 5.89968 4.88773 5.65276 5.09589 5.44483C5.30381 5.23667 5.55073 5.07154 5.82252 4.95887C6.09431 4.8462 6.38564 4.78821 6.67986 4.78821C6.97408 4.78821 7.26541 4.8462 7.5372 4.95887C7.80899 5.07154 8.0559 5.23667 8.26383 5.44483L8.331 5.512C8.59482 5.77006 8.9299 5.94318 9.29303 6.00902C9.65617 6.07486 10.0307 6.03041 10.3683 5.8814H10.4579C10.789 5.7395 11.0713 5.50389 11.2702 5.20356C11.4691 4.90323 11.5759 4.5513 11.5773 4.19109V4.00079C11.5773 3.40701 11.8132 2.83756 12.233 2.41769C12.6529 1.99783 13.2224 1.76196 13.8161 1.76196C14.4099 1.76196 14.9794 1.99783 15.3992 2.41769C15.8191 2.83756 16.055 3.40701 16.055 4.00079V4.10153C16.0564 4.46175 16.1631 4.81368 16.362 5.11401C16.5609 5.41433 16.8433 5.64995 17.1744 5.79185C17.512 5.94086 17.8865 5.98531 18.2497 5.91947C18.6128 5.85363 18.9479 5.68051 19.2117 5.42244L19.2789 5.35528C19.4868 5.14712 19.7337 4.98199 20.0055 4.86932C20.2773 4.75665 20.5686 4.69866 20.8628 4.69866C21.1571 4.69866 21.4484 4.75665 21.7202 4.86932C21.992 4.98199 22.2389 5.14712 22.4468 5.35528C22.655 5.56321 22.8201 5.81012 22.9328 6.08191C23.0454 6.3537 23.1034 6.64503 23.1034 6.93925C23.1034 7.23347 23.0454 7.5248 22.9328 7.79659C22.8201 8.06838 22.655 8.3153 22.4468 8.52322L22.3797 8.59039C22.1216 8.85421 21.9485 9.18929 21.8826 9.55243C21.8168 9.91556 21.8612 10.2901 22.0102 10.6277V10.7173C22.1521 11.0484 22.3878 11.3307 22.6881 11.5296C22.9884 11.7285 23.3404 11.8353 23.7006 11.8367H23.8909C24.4846 11.8367 25.0541 12.0726 25.474 12.4924C25.8938 12.9123 26.1297 13.4817 26.1297 14.0755C26.1297 14.6693 25.8938 15.2388 25.474 15.6586C25.0541 16.0785 24.4846 16.3144 23.8909 16.3144H23.7901C23.4299 16.3158 23.078 16.4225 22.7776 16.6214C22.4773 16.8203 22.2417 17.1027 22.0998 17.4338Z" stroke="black" stroke-width="2.21249" stroke-linecap="round" stroke-linejoin="round"/>
</g>
<defs>
<clipPath id="clip0_5326_31847">
<rect width="26.866" height="26.866" fill="white" transform="translate(0.382812 0.642578)"/>
</clipPath>
</defs>
</svg>
