<svg width="18" height="18" viewBox="0 0 18 18" fill="none" xmlns="http://www.w3.org/2000/svg">
<rect width="18" height="18" rx="9" fill="#992E8A"/>
<path d="M13.1792 5.86374C13.3634 6.04745 13.3761 6.34171 13.2082 6.54047L9.03804 11.4757L9.0705 11.5109L8.67206 11.9094L8.20871 12.4583C8.12311 12.5596 8.00597 12.6147 7.88485 12.6289C7.70476 12.6939 7.49593 12.6536 7.35452 12.506L4.77606 9.81429C4.58822 9.61794 4.59158 9.30702 4.78366 9.11478L5.43967 8.45877C5.63789 8.26038 5.96108 8.26313 6.15506 8.46568L7.70117 10.0795L11.7891 5.24157C11.9778 5.01837 12.3175 5.00413 12.5245 5.2105L13.1792 5.86374Z" fill="#FAEDF8"/>
</svg>
