<svg width="16" height="16" viewBox="0 0 16 16" fill="none" xmlns="http://www.w3.org/2000/svg">
<path fill-rule="evenodd" clip-rule="evenodd" d="M13.334 7.99967C13.334 10.9452 10.9462 13.333 8.00065 13.333C5.05513 13.333 2.66732 10.9452 2.66732 7.99967C2.66732 5.05416 5.05513 2.66634 8.00065 2.66634C10.9462 2.66634 13.334 5.05416 13.334 7.99967ZM14.6673 7.99967C14.6673 11.6816 11.6825 14.6663 8.00065 14.6663C4.31875 14.6663 1.33398 11.6816 1.33398 7.99967C1.33398 4.31778 4.31875 1.33301 8.00065 1.33301C11.6825 1.33301 14.6673 4.31778 14.6673 7.99967ZM10.8314 5.27625L7.22914 8.87853L5.3484 6.99779L4.40559 7.9406L6.75773 10.2927C7.01808 10.5531 7.44019 10.5531 7.70054 10.2927L11.7742 6.21906L10.8314 5.27625Z" fill="#855EE1"/>
</svg>
