<svg width="24" height="26" viewBox="0 0 24 26" fill="none" xmlns="http://www.w3.org/2000/svg">
<path d="M6 13.0002C6 16.4519 8.68629 19.2502 12 19.2502C15.3137 19.2502 18 16.4519 18 13.0002H20C20 17.2494 16.9468 20.7559 13.001 21.2689L13 23.4168H11L11 21.269C7.05371 20.7565 4 17.2498 4 13.0002H6ZM12 2.5835C14.2091 2.5835 16 4.44898 16 6.75016V13.0002C16 15.3014 14.2091 17.1668 12 17.1668C9.79086 17.1668 8 15.3014 8 13.0002V6.75016C8 4.44898 9.79086 2.5835 12 2.5835ZM12 4.66683C10.8954 4.66683 10 5.59957 10 6.75016V13.0002C10 14.1508 10.8954 15.0835 12 15.0835C13.1046 15.0835 14 14.1508 14 13.0002V6.75016C14 5.59957 13.1046 4.66683 12 4.66683Z" fill="#161C27"/>
</svg>
