<svg width="40" height="40" viewBox="0 0 40 40" fill="none" xmlns="http://www.w3.org/2000/svg">
<path fill-rule="evenodd" clip-rule="evenodd" d="M31.5789 4.21053V0H35.7895V4.21053H40V8.42105H35.7895V12.6316H31.5789V8.42105H27.3684V4.21053H31.5789Z" fill="currentColor"/>
<path d="M23.1579 2.10526H8.42105C3.77023 2.10526 0 5.8755 0 10.5263V31.5789C0 36.2298 3.77023 40 8.42105 40H29.4737C34.1245 40 37.8947 36.2298 37.8947 31.5789V16.8421H33.6842V31.5789C33.6842 33.9044 31.7991 35.7895 29.4737 35.7895H8.42105C6.09564 35.7895 4.21053 33.9044 4.21053 31.5789V10.5263C4.21053 8.20091 6.09564 6.31579 8.42105 6.31579H23.1579V2.10526Z" fill="currentColor"/>
<path d="M23.1579 10.5263H8.42105V14.7368H23.1579V10.5263Z" fill="currentColor"/>
<path d="M8.42105 18.9474H29.4737V23.1579H8.42105V18.9474Z" fill="currentColor"/>
<path d="M23.1579 27.3684H8.42105V31.5789H23.1579V27.3684Z" fill="currentColor"/>
</svg>
