<svg width="24" height="24" viewBox="0 0 24 24" fill="none" xmlns="http://www.w3.org/2000/svg">
<path fill-rule="evenodd" clip-rule="evenodd" d="M2.80679 2.80762L21.1916 21.1924L19.7774 22.6066L12.9986 15.8276L12.9992 19.5178C12.9992 20.07 12.5515 20.5178 11.9992 20.5178C11.7853 20.5178 11.577 20.4492 11.4049 20.322L6.23218 16.4992L3.99918 16.5C2.89461 16.5 1.99918 15.6046 1.99918 14.5V9.50001C1.99918 8.39544 2.89461 7.50001 3.99918 7.50001L4.67058 7.49962L1.39258 4.22183L2.80679 2.80762ZM19.3339 4.80294C22.4681 8.43454 22.8364 13.6223 20.4478 17.6194L18.9786 16.1502C20.6524 12.9479 20.2682 8.94663 17.8198 6.10965L19.3339 4.80294ZM6.66958 9.49862L3.99918 9.50001V14.5L6.89069 14.499L10.9992 17.5352L10.9986 13.8276L6.66958 9.49862ZM16.2418 7.73955C18.0923 9.58998 18.4814 12.3484 17.4091 14.5806L15.8596 13.0321C16.2222 11.694 15.8782 10.2044 14.8276 9.15377L16.2418 7.73955ZM12.8034 3.88799C12.9306 4.06005 12.9992 4.26833 12.9992 4.48226V10.1722L10.9992 8.17219V6.46319L10.0162 7.18919L8.58618 5.75919L11.4049 3.67799C11.8491 3.34979 12.4752 3.44381 12.8034 3.88799Z" fill="#161C27"/>
</svg>
