<svg width="20" height="20" viewBox="0 0 20 20" fill="none" xmlns="http://www.w3.org/2000/svg">
<path fill-rule="evenodd" clip-rule="evenodd" d="M20 10C20 4.47715 15.5228 0 10 0C4.47715 0 0 4.47715 0 10C0 15.5228 4.47715 20 10 20C15.5228 20 20 15.5228 20 10ZM2 10C2 5.58172 5.58172 2 10 2C14.4183 2 18 5.58172 18 10C18 14.4183 14.4183 18 10 18C5.58172 18 2 14.4183 2 10ZM11.432 10.0207L14.2595 12.8519L12.8444 14.2652L10.0187 11.4358L7.193 14.2652L5.77788 12.8519L8.6054 10.0207L5.77788 7.18958L7.193 5.77627L10.0187 8.60561L12.8444 5.77627L14.2595 7.18958L11.432 10.0207Z" fill="#001C3B"/>
</svg>
