<?xml version="1.0" standalone="no"?><!DOCTYPE svg PUBLIC "-//W3C//DTD SVG 1.1//EN" "http://www.w3.org/Graphics/SVG/1.1/DTD/svg11.dtd"><svg t="1753868238565" class="icon" viewBox="0 0 1024 1024" version="1.1" xmlns="http://www.w3.org/2000/svg" p-id="15975" xmlns:xlink="http://www.w3.org/1999/xlink" width="200" height="200"><path d="M901.6 651.4H122.4V140.7c0-24.5 19.9-44.4 44.4-44.4h690.4c24.5 0 44.4 19.9 44.4 44.4v510.7z m-755-24.2h730.7V140.7c0-11.1-9-20.2-20.2-20.2H166.8c-11.1 0-20.2 9-20.2 20.2v486.5z" fill="#855ee4" p-id="15976"></path><path d="M915.6 927.7H108.4c-13.7 0-26.4-6.2-34.9-17s-11.5-24.6-8.2-37.9l59.9-245.6h773.6l59.9 245.6c3.2 13.3 0.3 27.1-8.2 37.9-8.5 10.8-21.2 17-34.9 17zM144.2 651.4L88.8 878.5c-1.5 6.1-0.1 12.3 3.7 17.2 3.8 4.9 9.6 7.7 15.9 7.7h807.2c6.2 0 12-2.8 15.9-7.7 3.8-4.9 5.2-11.2 3.7-17.2l-55.4-227.1H144.2zM768.1 574.6H255.9c-24.5 0-44.4-19.9-44.4-44.4V217.5c0-24.5 19.9-44.4 44.4-44.4H768c24.5 0 44.4 19.9 44.4 44.4v312.8c0.1 24.4-19.9 44.3-44.3 44.3zM255.9 197.3c-11.1 0-20.2 9-20.2 20.2v312.8c0 11.1 9 20.2 20.2 20.2H768c11.1 0 20.2-9 20.2-20.2V217.5c0-11.1-9-20.2-20.2-20.2H255.9z" fill="#855ee4" p-id="15977"></path></svg>