<svg width="24" height="24" viewBox="0 0 24 24" fill="none" xmlns="http://www.w3.org/2000/svg">
<path d="M9.87891 18.3643C10.4488 18.934 11.2766 19.086 11.9863 18.8242L13.4688 20.3066C11.9186 21.3135 9.82441 21.1385 8.46484 19.7793L8.34277 19.6562L9.75684 18.2422L9.87891 18.3643ZM16.5312 17.3691L14.4502 19.4502L13.0361 18.0361L15.1172 15.9551L16.5312 17.3691ZM8.83789 17.3232L7.42383 18.7373L7.05078 18.3643C6.00408 17.3174 5.65838 15.8343 6.01465 14.5L8.83789 17.3232ZM18.3525 11.5225C19.1666 13.0368 18.9356 14.9648 17.6572 16.2432L17.4502 16.4502L16.0361 15.0361L16.2432 14.8291C16.6969 14.3754 16.884 13.758 16.8105 13.167L18.3525 11.5225ZM9.87891 4.22266C11.441 2.66056 13.974 2.66056 15.5361 4.22266L16.9502 5.63672C18.2284 6.91529 18.4569 8.84199 17.6426 10.3564L16.1211 11.8779L14.8291 10.5859C14.048 9.80511 12.782 9.80597 12.001 10.5869L9.17188 13.415C9.95286 14.1956 11.2191 14.1956 12 13.415L14.1221 11.2939L15.5361 12.708L13.415 14.8291C11.9155 16.3286 9.52039 16.3882 7.94922 15.0088C7.92688 14.9869 6.46555 13.555 6.34375 13.415C4.78165 11.8529 4.78165 9.31991 6.34375 7.75781L9.87891 4.22266ZM14.1221 5.63672C13.341 4.85567 12.074 4.85567 11.293 5.63672L7.75781 9.17188C6.97676 9.95292 6.97676 11.2199 7.75781 12.001L10.5859 9.17188C12.0855 7.6724 14.4796 7.61283 16.0508 8.99219C16.2331 8.32269 16.0618 7.57667 15.5361 7.05078L14.1221 5.63672Z" fill="#5F5E60"/>
</svg>
