<svg width="14" height="14" viewBox="0 0 14 14" fill="none" xmlns="http://www.w3.org/2000/svg">
<g clip-path="url(#clip0_1_7108)">
<path d="M6.999 13.998C8.38327 13.998 9.73646 13.5875 10.8874 12.8185C12.0384 12.0494 12.9355 10.9563 13.4652 9.67741C13.995 8.39851 14.1336 6.99124 13.8635 5.63357C13.5935 4.27589 12.9269 3.02879 11.948 2.04996C10.9692 1.07114 9.72211 0.404545 8.36444 0.134487C7.00676 -0.135571 5.5995 0.0030326 4.3206 0.53277C3.0417 1.06251 1.9486 1.95959 1.17954 3.11057C0.410484 4.26155 -2.70404e-09 5.61473 0 6.999C3.626e-09 8.85525 0.737393 10.6355 2.04996 11.948C3.36253 13.2606 5.14275 13.998 6.999 13.998ZM6.999 12.4432C5.92248 12.4432 4.87012 12.124 3.97501 11.5259C3.0799 10.9279 2.38223 10.0778 1.97021 9.08327C1.5582 8.08871 1.45035 6.99431 1.66029 5.93845C1.87024 4.8826 2.38856 3.91271 3.14971 3.15142C3.91086 2.39013 4.88065 1.87163 5.93647 1.66149C6.99228 1.45135 8.0867 1.559 9.08134 1.97083C10.076 2.38267 10.9262 3.08018 11.5244 3.97518C12.1226 4.87019 12.442 5.92248 12.4422 6.999C12.4425 7.71399 12.3019 8.42202 12.0285 9.08265C11.755 9.74328 11.3541 10.3436 10.8486 10.8492C10.3432 11.3549 9.74303 11.756 9.08249 12.0297C8.42196 12.3034 7.71398 12.4442 6.999 12.4442V12.4432Z" fill="#EEEEEE"/>
<path d="M13.9976 7.00193C13.9976 5.14568 13.2602 3.36546 11.9476 2.05289C10.6351 0.740322 8.85484 0.00292969 6.99859 0.00292969C6.79228 0.00292969 6.59442 0.0848856 6.44854 0.230768C6.30266 0.376651 6.2207 0.57451 6.2207 0.780819C6.2207 0.987127 6.30266 1.18499 6.44854 1.33087C6.59442 1.47675 6.79228 1.55871 6.99859 1.55871C8.44222 1.55871 9.82673 2.13219 10.8475 3.15299C11.8683 4.17379 12.4418 5.5583 12.4418 7.00193C12.4418 7.20822 12.5238 7.40605 12.6697 7.55191C12.8156 7.69777 13.0134 7.77972 13.2197 7.77972C13.426 7.77972 13.6238 7.69777 13.7697 7.55191C13.9156 7.40605 13.9976 7.20822 13.9976 7.00193Z" fill="#4663FF"/>
</g>
<defs>
<clipPath id="clip0_1_7108">
<rect width="14" height="14" fill="white"/>
</clipPath>
</defs>
</svg>
