<svg width="18" height="18" viewBox="0 0 18 18" fill="none" xmlns="http://www.w3.org/2000/svg">
<path fill-rule="evenodd" clip-rule="evenodd" d="M14 0C16.2091 0 18 1.79086 18 4V14C18 16.2091 16.2091 18 14 18H4C1.79086 18 0 16.2091 0 14V4C0 1.79086 1.79086 0 4 0H14ZM14 2H4C2.89543 2 2 2.89543 2 4V14C2 15.1046 2.89543 16 4 16H14C15.1046 16 16 15.1046 16 14V4C16 2.89543 15.1046 2 14 2ZM6 6.5C6 7.19036 5.44036 7.75 4.75 7.75C4.05964 7.75 3.5 7.19036 3.5 6.5C3.5 5.80964 4.05964 5.25 4.75 5.25C5.44036 5.25 6 5.80964 6 6.5ZM6 11.5C6 12.1904 5.44036 12.75 4.75 12.75C4.05964 12.75 3.5 12.1904 3.5 11.5C3.5 10.8096 4.05964 10.25 4.75 10.25C5.44036 10.25 6 10.8096 6 11.5ZM14 5.5H7V7.5H14V5.5ZM7 10.5H14V12.5H7V10.5Z" fill="currentColor"/>
</svg>
