<svg width="15" height="15" viewBox="0 0 15 15" fill="currentColor" xmlns="http://www.w3.org/2000/svg">
<path d="M12.8752 2.95833C12.8752 1.39353 11.6067 0.125 10.0419 0.125H2.95858C1.39377 0.125 0.125244 1.39353 0.125244 2.95833V10.0417C0.125244 11.6065 1.39377 12.875 2.95858 12.875H4.6883L5.25496 11.4583H2.95858C2.17617 11.4583 1.54191 10.8241 1.54191 10.0417V2.95833C1.54191 2.17593 2.17617 1.54167 2.95858 1.54167H10.0419C10.8243 1.54167 11.4586 2.17593 11.4586 2.95833V4.98413C11.862 4.6051 12.3613 4.38656 12.8752 4.3285V2.95833Z" fill="currentColor"/>
<path d="M10.0419 5.79167V6.39906L9.23264 7.20833H2.95858V5.79167H10.0419Z" fill="currentColor"/>
<path d="M7.81597 8.625H2.95858V10.0417H6.39931L7.81597 8.625Z" fill="currentColor"/>
<path d="M10.0419 2.95833H2.95858V4.375H10.0419V2.95833Z" fill="currentColor"/>
<path d="M12.4043 9.04531L8.14646 13.3032L6.02577 14.1515C5.93496 14.1878 5.83191 14.1436 5.79558 14.0528C5.7787 14.0106 5.7787 13.9635 5.79558 13.9213L6.64386 11.8006L10.9017 7.54271L12.4043 9.04531Z" fill="currentColor"/>
<path d="M13.9064 6.04061C14.3214 6.45554 14.3214 7.12828 13.9064 7.54321L13.1556 8.29401L11.653 6.79141L12.4038 6.04061C12.8188 5.62568 13.4915 5.62568 13.9064 6.04061Z" fill="currentColor"/>
</svg>
