<svg width="13" height="15" viewBox="0 0 13 15" fill="currentColor" xmlns="http://www.w3.org/2000/svg">
<path fill-rule="evenodd" clip-rule="evenodd" d="M2.25002 11.7501C2.25002 12.5325 2.88428 13.1667 3.66668 13.1667H9.33335C10.1158 13.1667 10.75 12.5325 10.75 11.7501H12.1667C12.1667 13.3149 10.8982 14.5834 9.33335 14.5834H3.66668C2.10188 14.5834 0.83335 13.3149 0.83335 11.7501H2.25002ZM2.93002 7.00425C3.25868 7.00425 3.54485 7.0628 3.78852 7.17991C4.03218 7.29703 4.22013 7.46325 4.35235 7.67858C4.48457 7.89391 4.55068 8.14891 4.55068 8.44358C4.55068 8.73447 4.48457 8.98853 4.35235 9.20575C4.22013 9.42297 4.03218 9.58919 3.78852 9.70441C3.54485 9.81964 3.25868 9.87725 2.93002 9.87725H2.40302V10.9709H1.54168V7.00425H2.93002ZM6.56235 7.00425C6.96657 7.00425 7.32452 7.08641 7.63618 7.25075C7.94785 7.41508 8.18963 7.64647 8.36152 7.94491C8.53341 8.24336 8.61935 8.59091 8.61935 8.98758C8.61935 9.38425 8.53341 9.7318 8.36152 10.0302C8.18963 10.3287 7.94785 10.5601 7.63618 10.7244C7.32452 10.8887 6.96657 10.9709 6.56235 10.9709H5.09468V7.00425H6.56235ZM11.8437 7.00425V7.74091H10.1153V8.78925H11.617V9.52591H10.1153V10.9709H9.25402V7.00425H11.8437ZM6.52268 7.75791H5.95602V10.2172H6.52268C6.89668 10.2172 7.19418 10.1067 7.41518 9.88575C7.63618 9.66475 7.74668 9.36536 7.74668 8.98758C7.74668 8.6098 7.63524 8.31041 7.41235 8.08941C7.18946 7.86841 6.89291 7.75791 6.52268 7.75791ZM2.88468 7.75225H2.40302V9.12925H2.88468C3.14157 9.12925 3.33802 9.06975 3.47402 8.95075C3.61002 8.83175 3.67802 8.66269 3.67802 8.44358C3.67802 8.22069 3.61002 8.04975 3.47402 7.93075C3.33802 7.81175 3.14157 7.75225 2.88468 7.75225ZM9.33335 0.416748L12.1667 3.25008L12.166 6.08341H10.7493L10.75 3.95841H9.33335C8.94215 3.95841 8.62502 3.64128 8.62502 3.25008V1.83341H3.66668C2.88428 1.83341 2.25002 2.46768 2.25002 3.25008L2.24931 6.08341H0.832642L0.83335 3.25008C0.83335 1.68527 2.10188 0.416748 3.66668 0.416748H9.33335Z" fill="currentColor"/>
</svg>
