<svg width="15" height="14" viewBox="0 0 15 14" fill="currentColor" xmlns="http://www.w3.org/2000/svg">
<path fill-rule="evenodd" clip-rule="evenodd" d="M10.3333 1.55015C10.3333 1.48311 10.3285 1.41616 10.3191 1.3498C10.2084 0.575261 9.49082 0.0370709 8.71628 0.147719L1.63295 1.15962C0.935027 1.25933 0.416626 1.85705 0.416626 2.56205V11.438C0.416626 12.1431 0.935027 12.7408 1.63295 12.8405L8.71628 13.8524C8.78264 13.8619 8.84959 13.8666 8.91663 13.8666C9.69903 13.8666 10.3333 13.2324 10.3333 12.45V1.55015ZM1.83329 2.56205L8.91663 1.55015V12.45L1.83329 11.438V2.56205ZM3.95829 4.16672V6.95897L4.79477 5.81827C5.05944 5.45706 5.5813 5.43348 5.87936 5.74849L5.93585 5.81601L6.79163 6.97455V4.16672H8.20829V9.12505C8.20829 9.80835 7.33629 10.0955 6.93025 9.54596L5.36858 7.43143L3.82133 9.5437C3.43282 10.0739 2.61087 9.83134 2.54574 9.20528L2.54163 9.12505V4.16672H3.95829ZM14.5833 2.75005C14.5833 1.96765 13.949 1.33338 13.1666 1.33338H11.0715V2.75005H13.1666V11.2501H11.0721V12.6667H13.1666C13.949 12.6667 14.5833 12.0325 14.5833 11.2501V2.75005Z" fill="currentColor"/>
</svg>
