<svg width="17" height="17" viewBox="0 0 17 17" fill="currentColor" xmlns="http://www.w3.org/2000/svg">
<path d="M6.57077 5.80637L6.35925 6.22942C5.94801 7.05191 5.28109 7.71884 4.4586 8.13009L4.03556 8.34161C3.90504 8.40687 3.90504 8.59313 4.03556 8.65839L4.4586 8.86991C5.28109 9.28116 5.94801 9.94809 6.35925 10.7706L6.57077 11.1936C6.63603 11.3242 6.82229 11.3242 6.88755 11.1936L7.09907 10.7706C7.51031 9.94809 8.17723 9.28116 8.99972 8.86991L9.42276 8.65839C9.55328 8.59313 9.55328 8.40687 9.42276 8.34161L8.99972 8.13009C8.17723 7.71884 7.51031 7.05191 7.09907 6.22942L6.88755 5.80637C6.82229 5.67584 6.63603 5.67585 6.57077 5.80637Z" fill="currentColor"/>
<path fill-rule="evenodd" clip-rule="evenodd" d="M12.75 4.60417C12.75 3.82176 12.1158 3.1875 11.3334 3.1875H2.12504C1.34264 3.1875 0.708374 3.82176 0.708374 4.60417V12.3958C0.708374 13.1782 1.34264 13.8125 2.12504 13.8125H11.3334C12.1158 13.8125 12.75 13.1782 12.75 12.3958V10.8177L15.2442 12.1786C15.3482 12.2354 15.4649 12.2651 15.5834 12.2651C15.9746 12.2651 16.2917 11.948 16.2917 11.5568V5.44322C16.2917 5.3247 16.262 5.20808 16.2052 5.10403C16.0179 4.7606 15.5876 4.63405 15.2442 4.82137L12.75 6.18092V4.60417ZM2.12504 4.60417H11.3334V12.3958H2.12504V4.60417ZM12.75 7.79379L14.875 6.63567V10.3636L12.75 9.20337V7.79379Z" fill="currentColor"/>
</svg>
