<svg width="25" height="24" viewBox="0 0 25 24" fill="currentColor" xmlns="http://www.w3.org/2000/svg">
<path fill-rule="evenodd" clip-rule="evenodd" d="M16.5 21.9992C15.4667 21.9992 14.6208 21.7409 13.9625 21.2242C13.3042 20.7076 12.8 19.9492 12.45 18.9492C12.1667 18.1159 11.8958 17.5326 11.6375 17.1992C11.3792 16.8659 10.7833 16.3326 9.85 15.5992C8.81667 14.7659 8 13.8242 7.4 12.7742C6.8 11.7242 6.5 10.4659 6.5 8.99922C6.5 7.01589 7.17083 5.35339 8.5125 4.01172C9.85417 2.67005 11.5167 1.99922 13.5 1.99922C15.4833 1.99922 17.1458 2.67005 18.4875 4.01172C19.8292 5.35339 20.5 7.01589 20.5 8.99922H18.5C18.5 7.58255 18.0208 6.39505 17.0625 5.43672C16.1042 4.47839 14.9167 3.99922 13.5 3.99922C12.0833 3.99922 10.8958 4.47839 9.9375 5.43672C8.97917 6.39505 8.5 7.58255 8.5 8.99922C8.5 10.1326 8.725 11.0992 9.175 11.8992C9.625 12.6992 10.2667 13.4159 11.1 14.0492C11.9667 14.6826 12.6417 15.2992 13.125 15.8992C13.6083 16.4992 13.9667 17.1492 14.2 17.8492C14.4333 18.5826 14.7125 19.1242 15.0375 19.4742C15.3625 19.8242 15.85 19.9992 16.5 19.9992C17.05 19.9992 17.5208 19.8034 17.9125 19.4117C18.3042 19.0201 18.5 18.5492 18.5 17.9992H20.5C20.5 19.0992 20.1083 20.0409 19.325 20.8242C18.5417 21.6076 17.6 21.9992 16.5 21.9992ZM5.7 16.7492C4.71667 15.7492 3.9375 14.5867 3.3625 13.2617C2.7875 11.9367 2.5 10.5159 2.5 8.99922C2.5 7.46589 2.7875 6.03255 3.3625 4.69922C3.9375 3.36589 4.71667 2.19922 5.7 1.19922L7.15 2.59922C6.31667 3.43255 5.66667 4.39505 5.2 5.48672C4.73333 6.57839 4.5 7.74922 4.5 8.99922C4.5 10.2326 4.73333 11.3909 5.2 12.4742C5.66667 13.5576 6.31667 14.5159 7.15 15.3492L5.7 16.7492ZM13.5 11.4992C12.8 11.4992 12.2083 11.2534 11.725 10.7617C11.2417 10.2701 11 9.68255 11 8.99922C11 8.29922 11.2417 7.70755 11.725 7.22422C12.2083 6.74089 12.8 6.49922 13.5 6.49922C14.2 6.49922 14.7917 6.74089 15.275 7.22422C15.7583 7.70755 16 8.29922 16 8.99922C16 9.68255 15.7583 10.2701 15.275 10.7617C14.7917 11.2534 14.2 11.4992 13.5 11.4992Z" fill="currentColor"/>
</svg>
