<svg width="24" height="26" viewBox="0 0 24 26" fill="none" xmlns="http://www.w3.org/2000/svg">
<path d="M10.1219 8.58323C10.3241 7.90383 10.4697 7.20418 10.5551 6.49098C12.6533 6.79305 14.829 6.397 16.7242 5.30285L17.1809 5.03913C19.2217 3.86093 21.8311 4.56013 23.0093 6.60084C24.1875 8.64156 23.4883 11.251 21.4476 12.4292L20.9909 12.6929C20.8214 12.7908 20.6556 12.8934 20.4936 13.0005C19.8717 12.5892 19.3065 12.1113 18.8052 11.5794C19.1615 11.3155 19.5348 11.0702 19.9242 10.8454L20.3809 10.5817C21.4013 9.99259 21.7509 8.68787 21.1618 7.66751C20.5727 6.64715 19.268 6.29755 18.2476 6.88666L17.7908 7.15037C15.4357 8.51009 12.7261 8.98771 10.1219 8.58323Z" fill="url(#paint0_linear_12650_13416)"/>
<path d="M9.77894 20.4773C9.04727 20.6611 8.33381 20.9405 7.65752 21.3155V21.5342C7.65752 23.8906 9.56777 25.8009 11.9242 25.8009C14.2806 25.8009 16.1909 23.8906 16.1909 21.5342V21.0068C16.1909 18.7999 16.9484 16.701 18.2799 15.0279C17.7049 14.5976 17.172 14.1217 16.6851 13.6068C15.0116 15.6665 14.0575 18.2687 14.0575 21.0068V21.5342C14.0575 22.7124 13.1024 23.6675 11.9242 23.6675C10.746 23.6675 9.79085 22.7124 9.79085 21.5342V21.0068C9.79085 20.8297 9.78686 20.6531 9.77894 20.4773Z" fill="url(#paint1_linear_12650_13416)"/>
<path d="M7.63968 5.57994C7.46577 5.49317 7.29384 5.40081 7.12417 5.30285L6.66744 5.03915C4.62672 3.86095 2.01727 4.56015 0.839062 6.60086C-0.339147 8.64158 0.360055 11.251 2.40077 12.4292L2.85752 12.6929C5.007 13.9339 6.5592 15.9366 7.25291 18.2484C7.91147 17.9625 8.58999 17.7398 9.27964 17.5803C8.42373 14.778 6.53422 12.3523 3.92419 10.8454L3.46744 10.5817C2.44708 9.99261 2.09748 8.68788 2.68658 7.66753C3.27569 6.64717 4.58041 6.29757 5.60077 6.88668L6.0575 7.15037C6.44697 7.37523 6.84613 7.57596 7.25291 7.75257C7.46297 7.05253 7.59431 6.32413 7.63968 5.57994Z" fill="url(#paint2_linear_12650_13416)"/>
<path d="M6.63517 13.0006C6.15223 12.4831 5.62009 12.0068 5.04317 11.5795C6.69896 9.82266 7.65752 7.47671 7.65752 4.99428V4.46686C7.65752 2.11045 9.56777 0.200195 11.9242 0.200195C14.2806 0.200195 16.1909 2.11045 16.1909 4.46686V4.99426C16.1909 5.19044 16.1968 5.38576 16.2087 5.58001C15.5415 5.91287 14.8451 6.16337 14.1338 6.33153C14.0833 5.89065 14.0575 5.44429 14.0575 4.99426V4.46686C14.0575 3.28865 13.1024 2.33353 11.9242 2.33353C10.746 2.33353 9.79086 3.28865 9.79086 4.46686V4.99428C9.79086 8.00851 8.63456 10.8581 6.63517 13.0006Z" fill="url(#paint3_linear_12650_13416)"/>
<path d="M6.66744 20.9619C4.62672 22.1401 2.01727 21.4409 0.839061 19.4002C-0.339147 17.3595 0.360054 14.75 2.40077 13.5718L2.58891 13.4632C3.25187 13.8614 3.85065 14.3395 4.37577 14.8812C4.22776 14.9758 4.07721 15.0673 3.92419 15.1556L3.46744 15.4194C2.44708 16.0085 2.09748 17.3132 2.68658 18.3335C3.27569 19.3539 4.58041 19.7035 5.60077 19.1144L6.05754 18.8507C8.66785 17.3436 11.7137 16.9202 14.5687 17.5804C14.362 18.2573 14.2155 18.9563 14.1338 19.6696C11.7846 19.1142 9.2739 19.4571 7.1242 20.6982L6.66744 20.9619Z" fill="url(#paint4_linear_12650_13416)"/>
<path d="M17.045 20.8834L17.1809 20.9619C19.2217 22.1401 21.8311 21.4409 23.0093 19.4002C24.1875 17.3595 23.4883 14.75 21.4476 13.5718L20.9909 13.3081C19.0801 12.2049 17.6413 10.4998 16.858 8.5107C16.1978 8.7935 15.5192 9.01701 14.8298 9.18124C15.777 11.6599 17.5533 13.7868 19.9242 15.1556L20.3809 15.4193C21.4013 16.0084 21.7509 17.3132 21.1618 18.3335C20.5727 19.3539 19.268 19.7035 18.2476 19.1144L17.7909 18.8507C17.6535 18.7714 17.515 18.6951 17.3754 18.6218C17.1692 19.349 17.0559 20.1085 17.045 20.8834Z" fill="url(#paint5_linear_12650_13416)"/>
<defs>
<linearGradient id="paint0_linear_12650_13416" x1="11.9242" y1="4.4668" x2="11.9242" y2="25.8009" gradientUnits="userSpaceOnUse">
<stop stop-color="#EB6296"/>
<stop offset="1" stop-color="#FF7257"/>
</linearGradient>
<linearGradient id="paint1_linear_12650_13416" x1="11.9242" y1="4.4668" x2="11.9242" y2="25.8009" gradientUnits="userSpaceOnUse">
<stop stop-color="#EB6296"/>
<stop offset="1" stop-color="#FF7257"/>
</linearGradient>
<linearGradient id="paint2_linear_12650_13416" x1="11.9242" y1="4.4668" x2="11.9242" y2="25.8009" gradientUnits="userSpaceOnUse">
<stop stop-color="#EB6296"/>
<stop offset="1" stop-color="#FF7257"/>
</linearGradient>
<linearGradient id="paint3_linear_12650_13416" x1="11.9242" y1="0.200195" x2="11.9242" y2="21.5343" gradientUnits="userSpaceOnUse">
<stop stop-color="#5C8DFF"/>
<stop offset="0.5" stop-color="#A079FF"/>
<stop offset="1" stop-color="#D06AD6"/>
</linearGradient>
<linearGradient id="paint4_linear_12650_13416" x1="11.9242" y1="0.200195" x2="11.9242" y2="21.5343" gradientUnits="userSpaceOnUse">
<stop stop-color="#5C8DFF"/>
<stop offset="0.5" stop-color="#A079FF"/>
<stop offset="1" stop-color="#D06AD6"/>
</linearGradient>
<linearGradient id="paint5_linear_12650_13416" x1="11.9242" y1="0.200195" x2="11.9242" y2="21.5343" gradientUnits="userSpaceOnUse">
<stop stop-color="#5C8DFF"/>
<stop offset="0.5" stop-color="#A079FF"/>
<stop offset="1" stop-color="#D06AD6"/>
</linearGradient>
</defs>
</svg>
