<svg width="16" height="16" viewBox="0 0 16 16" fill="none" xmlns="http://www.w3.org/2000/svg">
<path fill-rule="evenodd" clip-rule="evenodd" d="M12.1668 0.5C14.0077 0.5 15.5001 1.99238 15.5001 3.83333V12.1667C15.5001 14.0076 14.0077 15.5 12.1668 15.5H3.83346C1.99251 15.5 0.500122 14.0076 0.500122 12.1667V3.83333C0.500122 1.99238 1.99251 0.5 3.83346 0.5H12.1668ZM12.1668 2.16667H3.83346C2.91298 2.16667 2.16679 2.91286 2.16679 3.83333V12.1667C2.16679 13.0871 2.91298 13.8333 3.83346 13.8333H12.1668C13.0873 13.8333 13.8335 13.0871 13.8335 12.1667V3.83333C13.8335 2.91286 13.0873 2.16667 12.1668 2.16667ZM12.1668 3.83333H3.83346V5.5H12.1668V3.83333ZM12.1668 7.16667H3.83346V8.83333H12.1668V7.16667ZM3.83346 10.5H9.66679V12.1667H3.83346V10.5Z" fill="currentColor"/>
</svg>
