<svg width="24" height="24" viewBox="0 0 24 24" fill="none" xmlns="http://www.w3.org/2000/svg">
<path fill-rule="evenodd" clip-rule="evenodd" d="M13 4.48249C13 4.26856 12.9314 4.06027 12.8043 3.88822C12.4761 3.44404 11.8499 3.35001 11.4057 3.67822L6.233 7.49942L4 7.50023C2.89543 7.50023 2 8.39566 2 9.50023V14.5002C2 15.6048 2.89543 16.5002 4 16.5002L6.233 16.4994L11.4057 20.3222C11.5778 20.4494 11.7861 20.518 12 20.518C12.5523 20.518 13 20.0703 13 19.518V4.48249ZM11 6.46342V17.5354L6.89151 14.4992L4 14.5002V9.50023L6.89194 9.49918L11 6.46342ZM16.2426 7.73978C18.5858 10.0829 18.5858 13.8819 16.2426 16.2251L14.8284 14.8108C16.3905 13.2487 16.3905 10.7161 14.8284 9.15399L16.2426 7.73978ZM19.2666 19.2399C22.886 15.1246 22.9132 8.94958 19.3348 4.80316L17.8207 6.10988C20.7468 9.5004 20.7245 14.5539 17.7648 17.9191L19.2666 19.2399Z" fill="#161C27"/>
</svg>
