<svg width="18" height="18" viewBox="0 0 18 18" fill="none" xmlns="http://www.w3.org/2000/svg">
<path fill-rule="evenodd" clip-rule="evenodd" d="M9 1.5C13.1421 1.5 16.5 4.85786 16.5 9C16.5 13.1421 13.1421 16.5 9 16.5C4.85786 16.5 1.5 13.1421 1.5 9C1.5 4.85786 4.85786 1.5 9 1.5ZM9 3C5.68629 3 3 5.68629 3 9C3 12.3137 5.68629 15 9 15C12.3137 15 15 12.3137 15 9C15 5.68629 12.3137 3 9 3ZM7.8975 5.96719C7.39796 5.65498 6.75 6.01411 6.75 6.60319V11.3968C6.75 11.9859 7.39796 12.345 7.8975 12.0328L11.7324 9.636C12.2024 9.34225 12.2024 8.65775 11.7324 8.364L7.8975 5.96719Z" fill="url(#paint0_linear_1541_137070)"/>
<defs>
<linearGradient id="paint0_linear_1541_137070" x1="1.5" y1="8.20139" x2="16.5" y2="8.20139" gradientUnits="userSpaceOnUse">
<stop stop-color="#648BFF"/>
<stop offset="1" stop-color="#B273EF"/>
</linearGradient>
</defs>
</svg>
