<svg width="18" height="18" viewBox="0 0 18 18" fill="none" xmlns="http://www.w3.org/2000/svg">
<path d="M14.8926 14.8926C16.4007 13.3846 17.3334 11.3013 17.3334 9.00008C17.3334 4.39771 13.6025 0.666748 9.00008 0.666748C4.39771 0.666748 0.666748 4.39771 0.666748 9.00008C0.666748 11.3013 1.59949 13.3846 3.10752 14.8926L4.28604 13.7141C3.07961 12.5077 2.33341 10.841 2.33341 9.00008C2.33341 5.31818 5.31818 2.33341 9.00008 2.33341C12.682 2.33341 15.6667 5.31818 15.6667 9.00008C15.6667 10.841 14.9206 12.5077 13.7141 13.7141L14.8926 14.8926Z" fill="currentColor"/>
<path d="M12.5356 12.5356C13.4404 11.6308 14.0001 10.3808 14.0001 9.00008C14.0001 6.23866 11.7615 4.00008 9.00008 4.00008C6.23866 4.00008 4.00008 6.23866 4.00008 9.00008C4.00008 10.3808 4.55973 11.6308 5.46455 12.5356L6.64306 11.3571C6.03984 10.7539 5.66675 9.92056 5.66675 9.00008C5.66675 7.15913 7.15913 5.66675 9.00008 5.66675C10.841 5.66675 12.3334 7.15913 12.3334 9.00008C12.3334 9.92056 11.9603 10.7539 11.3571 11.3571L12.5356 12.5356Z" fill="currentColor"/>
<path d="M9.83341 10.4438C10.3316 10.1556 10.6667 9.61698 10.6667 9.00008C10.6667 8.07961 9.92056 7.33341 9.00008 7.33341C8.07961 7.33341 7.33341 8.07961 7.33341 9.00008C7.33341 9.61698 7.66858 10.1556 8.16675 10.4438V17.3334H9.83341V10.4438Z" fill="currentColor"/>
</svg>
