<svg width="49" height="48" viewBox="0 0 49 48" fill="none" xmlns="http://www.w3.org/2000/svg">
<g clip-path="url(#clip0_6957_4305)">
<rect x="0.5" width="48" height="48" rx="24" fill="white"/>
<path d="M22.6218 19.5832C22.824 18.9038 22.9696 18.2042 23.0549 17.491C25.1532 17.793 27.3289 17.397 29.224 16.3028L29.6808 16.0391C31.7215 14.8609 34.331 15.5601 35.5092 17.6008C36.6874 19.6416 35.9882 22.251 33.9475 23.4292L33.4907 23.6929C33.3212 23.7908 33.1555 23.8934 32.9935 24.0005C32.3716 23.5892 31.8064 23.1113 31.3051 22.5794C31.6613 22.3155 32.0347 22.0702 32.4241 21.8454L32.8808 21.5817C33.9012 20.9926 34.2508 19.6879 33.6617 18.6675C33.0726 17.6472 31.7678 17.2976 30.7475 17.8867L30.2907 18.1504C27.9356 19.5101 25.226 19.9877 22.6218 19.5832Z" fill="url(#paint0_linear_6957_4305)"/>
<path d="M22.2788 31.4773C21.5471 31.6611 20.8337 31.9405 20.1574 32.3155V32.5342C20.1574 34.8906 22.0676 36.8009 24.4241 36.8009C26.7805 36.8009 28.6907 34.8906 28.6907 32.5342V32.0068C28.6907 29.7999 29.4483 27.701 30.7798 26.0279C30.2048 25.5976 29.6719 25.1217 29.185 24.6068C27.5115 26.6665 26.5574 29.2687 26.5574 32.0068V32.5342C26.5574 33.7124 25.6023 34.6675 24.4241 34.6675C23.2459 34.6675 22.2907 33.7124 22.2907 32.5342V32.0068C22.2907 31.8297 22.2867 31.6531 22.2788 31.4773Z" fill="url(#paint1_linear_6957_4305)"/>
<path d="M20.1396 16.5799C19.9656 16.4932 19.7937 16.4008 19.624 16.3028L19.1673 16.0392C17.1266 14.8609 14.5171 15.5601 13.3389 17.6009C12.1607 19.6416 12.8599 22.251 14.9006 23.4292L15.3574 23.6929C17.5069 24.9339 19.0591 26.9366 19.7528 29.2484C20.4113 28.9625 21.0899 28.7398 21.7795 28.5803C20.9236 25.778 19.0341 23.3523 16.4241 21.8454L15.9673 21.5817C14.947 20.9926 14.5974 19.6879 15.1865 18.6675C15.7756 17.6472 17.0803 17.2976 18.1006 17.8867L18.5574 18.1504C18.9468 18.3752 19.346 18.576 19.7528 18.7526C19.9628 18.0525 20.0942 17.3241 20.1396 16.5799Z" fill="url(#paint2_linear_6957_4305)"/>
<path d="M19.1351 23.9996C18.6521 23.4821 18.12 23.0058 17.5431 22.5785C19.1988 20.8217 20.1574 18.4757 20.1574 15.9933V15.4659C20.1574 13.1095 22.0677 11.1992 24.4241 11.1992C26.7805 11.1992 28.6907 13.1095 28.6907 15.4659V15.9933C28.6907 16.1895 28.6967 16.3848 28.7086 16.579C28.0414 16.9119 27.345 17.1624 26.6337 17.3306C26.5832 16.8897 26.5574 16.4433 26.5574 15.9933V15.4659C26.5574 14.2877 25.6023 13.3326 24.4241 13.3326C23.2459 13.3326 22.2907 14.2877 22.2907 15.4659V15.9933C22.2907 19.0075 21.1344 21.8571 19.1351 23.9996Z" fill="url(#paint3_linear_6957_4305)"/>
<path d="M19.1673 31.9609C17.1266 33.1391 14.5171 32.4399 13.3389 30.3992C12.1607 28.3585 12.8599 25.7491 14.9006 24.5709L15.0888 24.4622C15.7517 24.8604 16.3505 25.3385 16.8756 25.8803C16.7276 25.9748 16.5771 26.0663 16.4241 26.1547L15.9673 26.4184C14.947 27.0075 14.5974 28.3122 15.1865 29.3326C15.7756 30.3529 17.0803 30.7025 18.1006 30.1134L18.5574 29.8497C21.1677 28.3426 24.2136 27.9192 27.0686 28.5794C26.8618 29.2564 26.7154 29.9553 26.6337 30.6686C24.2845 30.1132 21.7738 30.4561 19.6241 31.6972L19.1673 31.9609Z" fill="url(#paint4_linear_6957_4305)"/>
<path d="M29.5449 31.8824L29.6808 31.9609C31.7215 33.1391 34.331 32.4399 35.5092 30.3992C36.6874 28.3585 35.9882 25.749 33.9475 24.5708L33.4907 24.3071C31.5799 23.2039 30.1411 21.4988 29.3578 19.5097C28.6977 19.7925 28.0191 20.016 27.3297 20.1803C28.2769 22.6589 30.0532 24.7858 32.4241 26.1546L32.8808 26.4184C33.9012 27.0075 34.2508 28.3122 33.6617 29.3325C33.0726 30.3529 31.7678 30.7025 30.7475 30.1134L30.2908 29.8497C30.1534 29.7704 30.0149 29.6941 29.8753 29.6208C29.6691 30.348 29.5558 31.1075 29.5449 31.8824Z" fill="url(#paint5_linear_6957_4305)"/>
</g>
<defs>
<linearGradient id="paint0_linear_6957_4305" x1="24.4241" y1="15.4668" x2="24.4241" y2="36.8009" gradientUnits="userSpaceOnUse">
<stop stop-color="#EB6296"/>
<stop offset="1" stop-color="#FF7257"/>
</linearGradient>
<linearGradient id="paint1_linear_6957_4305" x1="24.4241" y1="15.4668" x2="24.4241" y2="36.8009" gradientUnits="userSpaceOnUse">
<stop stop-color="#EB6296"/>
<stop offset="1" stop-color="#FF7257"/>
</linearGradient>
<linearGradient id="paint2_linear_6957_4305" x1="24.4241" y1="15.4668" x2="24.4241" y2="36.8009" gradientUnits="userSpaceOnUse">
<stop stop-color="#EB6296"/>
<stop offset="1" stop-color="#FF7257"/>
</linearGradient>
<linearGradient id="paint3_linear_6957_4305" x1="24.4241" y1="11.1992" x2="24.4241" y2="32.5333" gradientUnits="userSpaceOnUse">
<stop stop-color="#5C8DFF"/>
<stop offset="0.5" stop-color="#A079FF"/>
<stop offset="1" stop-color="#D06AD6"/>
</linearGradient>
<linearGradient id="paint4_linear_6957_4305" x1="24.4241" y1="11.1992" x2="24.4241" y2="32.5333" gradientUnits="userSpaceOnUse">
<stop stop-color="#5C8DFF"/>
<stop offset="0.5" stop-color="#A079FF"/>
<stop offset="1" stop-color="#D06AD6"/>
</linearGradient>
<linearGradient id="paint5_linear_6957_4305" x1="24.4241" y1="11.1992" x2="24.4241" y2="32.5333" gradientUnits="userSpaceOnUse">
<stop stop-color="#5C8DFF"/>
<stop offset="0.5" stop-color="#A079FF"/>
<stop offset="1" stop-color="#D06AD6"/>
</linearGradient>
<clipPath id="clip0_6957_4305">
<rect x="0.5" width="48" height="48" rx="24" fill="white"/>
</clipPath>
</defs>
</svg>
