<svg width="24" height="24" viewBox="0 0 24 24" fill="none" xmlns="http://www.w3.org/2000/svg">
    <path fill-rule="evenodd" clip-rule="evenodd" d="M13.35 4H10.65L10.5157 4.0049C9.58437 4.0731 8.8501 4.84467 8.85 5.78653L8.84942 9.50932L8.18139 9.50965C6.57787 9.50985 5.77498 11.4343 6.90883 12.5598L10.7272 16.3499C11.4302 17.0477 12.5698 17.0477 13.2728 16.3499L17.0912 12.5598L17.1862 12.4584C18.1771 11.3227 17.375 9.50985 15.8186 9.50965L15.1485 9.50932L15.15 5.7869C15.1501 4.80005 14.3442 4 13.35 4ZM13.35 5.78671L13.3494 11.296L15.8184 11.2964L12 15.0865L8.18162 11.2964L10.6494 11.296L10.65 5.78671H13.35ZM4.8 17.3199V15.5332H3V17.3199C3 18.7803 4.10586 20 5.52 20H18.48C19.8941 20 21 18.7803 21 17.3199V15.5332H19.2V17.3199C19.2 17.8331 18.8553 18.2133 18.48 18.2133H5.52C5.14473 18.2133 4.8 17.8331 4.8 17.3199Z" fill="#0E131E"/>
</svg>