<svg width="24" height="24" viewBox="0 0 24 24" fill="none" xmlns="http://www.w3.org/2000/svg">
<path fill-rule="evenodd" clip-rule="evenodd" d="M12 2C17.5228 2 22 6.47715 22 12C22 17.5228 17.5228 22 12 22C6.47715 22 2 17.5228 2 12C2 6.47715 6.47715 2 12 2ZM12 4C7.58172 4 4 7.58172 4 12C4 16.4183 7.58172 20 12 20C16.4183 20 20 16.4183 20 12C20 7.58172 16.4183 4 12 4ZM9.5 8.5C8.94772 8.5 8.5 8.94772 8.5 9.5V14.5C8.5 15.0523 8.94772 15.5 9.5 15.5H14.5C15.0523 15.5 15.5 15.0523 15.5 14.5V9.5C15.5 8.94772 15.0523 8.5 14.5 8.5H9.5Z" fill="#FB575F"/>
</svg>
