<svg width="24" height="24" viewBox="0 0 24 24" fill="none" xmlns="http://www.w3.org/2000/svg">
<path d="M12.0116 2C12.4678 2 12.9256 2.03131 13.3819 2.09479C13.5373 2.1164 13.7354 2.1525 13.9762 2.20309C14.3542 2.28284 14.6521 2.57345 14.7417 2.94925C14.8278 3.31262 14.9279 3.59174 15.0427 3.78642C15.2966 4.21668 15.6616 4.58922 16.125 4.85679C16.5948 5.12798 17.1073 5.25772 17.6134 5.2592C17.787 5.25971 18.0039 5.2259 18.2642 5.15777L18.4675 5.10025C18.8395 4.98812 19.2428 5.10162 19.5017 5.39132C19.654 5.56458 19.7769 5.70892 19.8686 5.82585C20.1511 6.18601 20.4069 6.56347 20.6353 6.95503C20.8493 7.32199 21.0391 7.70133 21.2041 8.09044C21.2816 8.27322 21.3707 8.51693 21.4712 8.82157C21.5918 9.1872 21.4916 9.58954 21.2136 9.85599C20.9054 10.1508 20.6932 10.4115 20.5773 10.6381C20.368 11.0471 20.25 11.5105 20.25 12.0015C20.25 12.5121 20.3776 12.9928 20.6025 13.4137C20.7167 13.6272 20.9199 13.8728 21.2122 14.1503C21.492 14.4152 21.5932 14.8177 21.4733 15.184C21.3788 15.4679 21.2952 15.6972 21.2218 15.8716C21.0606 16.2547 20.8736 16.6321 20.6603 17.0015C20.4342 17.3931 20.1856 17.7636 19.9171 18.1124C19.8132 18.2474 19.6731 18.4137 19.4966 18.6113C19.2397 18.9012 18.838 19.0147 18.4668 18.9039C18.1052 18.7942 17.81 18.7413 17.5816 18.7443C17.0859 18.7508 16.5849 18.8807 16.125 19.1462C15.6903 19.3972 15.3421 19.7406 15.0911 20.1373C14.959 20.3458 14.8444 20.6502 14.7471 21.0503C14.6585 21.4239 14.3628 21.713 13.9875 21.7942C13.7668 21.842 13.5838 21.8761 13.4388 21.8974C12.961 21.9674 12.4773 22.0031 11.9917 22.0031C11.5447 22.0031 11.0961 21.9732 10.649 21.9125C10.5263 21.8958 10.3775 21.8702 10.2027 21.8358L10.0192 21.7987C9.6411 21.7199 9.34221 21.4304 9.25135 21.055C9.15048 20.6395 9.0305 20.3248 8.89181 20.1106C8.64221 19.7252 8.29999 19.3916 7.87504 19.1462C7.41788 18.8823 6.92012 18.7523 6.42725 18.7442C6.19694 18.7404 5.89922 18.7931 5.53408 18.9023C5.16516 19.0129 4.76574 18.9009 4.50747 18.6152C4.3439 18.4345 4.21462 18.2826 4.11893 18.1602C3.85886 17.8275 3.62152 17.48 3.40757 17.1203C3.17176 16.7238 2.96437 16.3124 2.7863 15.8896C2.71153 15.7121 2.62566 15.4762 2.52869 15.182C2.40783 14.8151 2.50941 14.4116 2.78931 14.1454C3.0834 13.8677 3.28701 13.6212 3.40104 13.4067C3.62389 12.9876 3.75004 12.5093 3.75004 12.0015C3.75004 11.4446 3.59831 10.9232 3.33394 10.4763C3.22681 10.2952 3.04773 10.0872 2.7967 9.85241C2.51177 9.58775 2.40786 9.18146 2.52915 8.81198C2.62133 8.53473 2.70306 8.31044 2.77492 8.13929C2.93689 7.75351 3.12503 7.37347 3.33979 7.0015C3.56348 6.61407 3.80917 6.24726 4.07439 5.90175C4.18066 5.76332 4.32459 5.59237 4.50618 5.38892C4.76542 5.10201 5.1666 4.98945 5.53702 5.10039C5.88965 5.2082 6.17805 5.26059 6.40182 5.2589C6.90297 5.25511 7.41001 5.12528 7.87504 4.85679C8.29468 4.61452 8.63363 4.28617 8.88249 3.90693C9.02451 3.6905 9.14749 3.37139 9.25142 2.94958C9.34302 2.57637 9.64048 2.28877 10.0165 2.20966C10.2974 2.15059 10.5272 2.10929 10.7059 2.08574C11.1377 2.02883 11.5738 2 12.0116 2ZM11.1857 4.0428L11.0375 4.061L10.9794 4.20911C10.5939 5.11994 9.94035 5.91166 9.07778 6.46535L8.87505 6.58884C7.88936 7.15793 6.76797 7.36176 5.68831 7.21126L5.60351 7.197L5.45609 7.39862C5.38802 7.49568 5.32194 7.59448 5.25788 7.69497L5.07184 8.0015C4.95188 8.20929 4.84188 8.42082 4.74194 8.6356L4.64151 8.864L4.73924 8.98642C5.33646 9.77613 5.69612 10.7389 5.74445 11.7639L5.75004 12.0015C5.75004 13.1148 5.38248 14.1658 4.73916 15.0159L4.64151 15.138L4.69941 15.2745C4.92154 15.7712 5.19363 16.244 5.51188 16.6851L5.60151 16.805L5.69081 16.7909C6.68684 16.653 7.7181 16.8163 8.64545 17.2894L8.87505 17.4142C9.83975 17.9711 10.5664 18.8156 10.981 19.7985L11.0375 19.944L11.1869 19.9625C11.7284 20.0174 12.2738 20.0165 12.8146 19.9604L12.9605 19.942L13.0204 19.7944C13.4059 18.8834 14.0596 18.0915 14.9223 17.5377L15.125 17.4142C16.1107 16.8451 17.2321 16.6412 18.3118 16.7917L18.3955 16.805L18.544 16.6044C18.6121 16.5073 18.6782 16.4085 18.7422 16.308L18.9282 16.0015C19.0482 15.7937 19.1582 15.5822 19.2582 15.3674L19.3575 15.138L19.2609 15.0166C18.6636 14.2269 18.304 13.2641 18.2556 12.2391L18.25 12.0015C18.25 10.8883 18.6175 9.83746 19.2608 8.98744L19.3575 8.864L19.3007 8.72841C19.0785 8.23154 18.8064 7.75848 18.488 7.31692L18.3975 7.197L18.2732 7.21696C17.2871 7.34616 16.2686 7.18057 15.352 6.71224L15.125 6.58884C14.1603 6.03184 13.4336 5.18732 13.019 4.2044L12.9615 4.058L12.8131 4.04051C12.2717 3.98564 11.7264 3.98659 11.1857 4.0428ZM12 8.0015C14.2092 8.0015 16 9.79236 16 12.0015C16 14.2106 14.2092 16.0015 12 16.0015C9.79091 16.0015 8.00005 14.2106 8.00005 12.0015C8.00005 9.79236 9.79091 8.0015 12 8.0015ZM12 10.0015C10.8955 10.0015 10 10.8969 10 12.0015C10 13.1061 10.8955 14.0015 12 14.0015C13.1046 14.0015 14 13.1061 14 12.0015C14 10.8969 13.1046 10.0015 12 10.0015Z" fill="#6C43C6"/>
</svg>