<svg width="24" height="24" viewBox="0 0 24 24" fill="none" xmlns="http://www.w3.org/2000/svg">
<path d="M17.8105 11.7764L17.835 11.8398L21.3535 20.7725L21.4072 20.9092H19.5801L19.5547 20.8457L18.6797 18.6191H15.4092L14.5322 20.8457L14.5068 20.9092H12.6826L12.7363 20.7725L16.2539 11.8398L16.2793 11.7764H17.8105ZM16.0801 16.9189H18.0088L17.043 14.4688L16.0801 16.9189ZM8.28418 3.2002V12.9512H6.58398V3.2002H8.28418ZM5.09961 5.06348V11.0889H3.40039V5.06348H5.09961ZM11.4678 5.06348V11.0889H9.76758V5.06348H11.4678ZM14.6338 3.89941C16.1028 3.90151 17.5147 4.4726 18.5723 5.49219C19.5635 6.44801 20.1719 7.72894 20.29 9.09473L20.3066 9.36914V9.37109L20.3105 9.58984L20.3125 9.69238L20.2109 9.69141L18.7109 9.68945H18.6113V9.58984C18.6127 8.56759 18.2211 7.58349 17.5176 6.8418C16.814 6.10013 15.852 5.65709 14.8311 5.60449V5.60352L14.6182 5.59961L14.5195 5.59766V3.89941H14.6338ZM5.10645 15.2441C5.10542 16.2663 5.49665 17.2498 6.2002 17.9912C6.90386 18.7326 7.86589 19.1751 8.88672 19.2275H8.88574L9.09863 19.2334L9.19629 19.2363V19.334L9.19824 20.834V20.9336H9.08398C7.6148 20.9317 6.20325 20.3614 5.14551 19.3418C4.0878 18.322 3.46574 16.932 3.41016 15.4639V15.4619L3.4082 15.3418H3.40625V15.2402L3.50586 15.2393V15.1416L5.00586 15.1436H5.10645V15.2441Z" fill="#855EE1" stroke="#855EE1" stroke-width="0.2"/>
</svg>
