<svg width="18" height="18" viewBox="0 0 18 18" fill="none" xmlns="http://www.w3.org/2000/svg">
<path fill-rule="evenodd" clip-rule="evenodd" d="M13.125 1.5C14.5747 1.5 15.75 2.67525 15.75 4.125C15.75 5.57475 14.5747 6.75 13.125 6.75C12.4009 6.75 11.7452 6.45678 11.2703 5.9826L6.69463 8.46108C6.73092 8.63502 6.75 8.81528 6.75 9C6.75 9.18472 6.73092 9.36498 6.69463 9.53892L11.2703 12.0174C11.7452 11.5432 12.4009 11.25 13.125 11.25C14.5747 11.25 15.75 12.4253 15.75 13.875C15.75 15.3247 14.5747 16.5 13.125 16.5C11.6753 16.5 10.5 15.3247 10.5 13.875C10.5 13.6903 10.5191 13.51 10.5554 13.3361L5.97971 10.8576C5.5048 11.3318 4.84914 11.625 4.125 11.625C2.67525 11.625 1.5 10.4497 1.5 9C1.5 7.55025 2.67525 6.375 4.125 6.375C4.84914 6.375 5.5048 6.66822 5.97971 7.1424L10.5554 4.66392C10.5191 4.48998 10.5 4.30972 10.5 4.125C10.5 2.67525 11.6753 1.5 13.125 1.5ZM13.125 3C12.5037 3 12 3.50368 12 4.125C12 4.74632 12.5037 5.25 13.125 5.25C13.7463 5.25 14.25 4.74632 14.25 4.125C14.25 3.50368 13.7463 3 13.125 3ZM4.125 7.875C3.50368 7.875 3 8.37868 3 9C3 9.62132 3.50368 10.125 4.125 10.125C4.74632 10.125 5.25 9.62132 5.25 9C5.25 8.37868 4.74632 7.875 4.125 7.875ZM12 13.875C12 13.2537 12.5037 12.75 13.125 12.75C13.7463 12.75 14.25 13.2537 14.25 13.875C14.25 14.4963 13.7463 15 13.125 15C12.5037 15 12 14.4963 12 13.875Z" fill="currentColor"/>
</svg>
