<svg width="22" height="20" viewBox="0 0 22 20" fill="none" xmlns="http://www.w3.org/2000/svg">
<rect width="22" height="20" rx="4" fill="#FFD1B2"/>
<path d="M7.34742 6.18C8.06609 5.40533 9.14409 5.02267 10.5814 5.032C10.5908 5.032 10.6094 5.032 10.6374 5.032C11.8134 5.05067 12.7421 5.34933 13.4234 5.928C13.9928 6.41333 14.2774 7.02467 14.2774 7.762C14.2774 8.322 14.1561 8.77467 13.9134 9.12C13.7921 9.288 13.6801 9.41867 13.5774 9.512C13.4841 9.596 13.3348 9.708 13.1294 9.848C13.5774 10.0627 13.9368 10.3613 14.2074 10.744C14.4874 11.1267 14.6274 11.5747 14.6274 12.088C14.6274 12.788 14.4548 13.348 14.1094 13.768C13.7548 14.2067 13.3068 14.538 12.7654 14.762C12.1214 15.0327 11.4448 15.168 10.7354 15.168C10.7074 15.168 10.6794 15.168 10.6514 15.168C9.19542 15.1493 7.93076 14.7993 6.85742 14.118L7.72542 12.382C8.26676 12.7273 8.74276 12.9607 9.15342 13.082C9.56409 13.194 10.0074 13.2547 10.4834 13.264C10.5021 13.264 10.5208 13.264 10.5394 13.264C11.0341 13.264 11.4354 13.18 11.7434 13.012C12.1168 12.8067 12.3128 12.508 12.3314 12.116C12.3501 11.7053 12.2288 11.388 11.9674 11.164C11.6874 10.9307 11.1648 10.8093 10.3994 10.8C10.3901 10.8 10.3248 10.8 10.2034 10.8C10.0914 10.8 10.0121 10.8 9.96542 10.8C9.83476 10.8 9.67609 10.8 9.48942 10.8V9.26C9.69476 9.26 9.89542 9.26 10.0914 9.26C10.7261 9.26933 11.2348 9.12467 11.6174 8.826C11.8974 8.61133 12.0328 8.31733 12.0234 7.944C12.0234 7.56133 11.8974 7.26733 11.6454 7.062C11.3561 6.81933 10.9781 6.698 10.5114 6.698C9.65276 6.698 8.93876 6.936 8.36942 7.412L7.34742 6.18Z" fill="#161C27"/>
</svg>
