<svg width="22" height="20" viewBox="0 0 22 20" fill="none" xmlns="http://www.w3.org/2000/svg">
<rect width="22" height="20" rx="10" fill="#FFCAF6"/>
<path d="M14.5024 13.152V15H7.54435V13.53L11.1004 9.96C11.4737 9.57733 11.7257 9.25067 11.8564 8.98C11.987 8.7 12.0524 8.42467 12.0524 8.154C12.0524 7.762 11.9264 7.46333 11.6744 7.258C11.4317 7.04333 11.0677 6.936 10.5824 6.936C10.181 6.936 9.81702 7.02 9.49035 7.188C9.16368 7.34667 8.89302 7.58933 8.67835 7.916L7.12435 6.852C7.48835 6.28267 7.98302 5.83933 8.60835 5.522C9.24302 5.19533 9.96635 5.032 10.7784 5.032C11.4597 5.032 12.057 5.15333 12.5704 5.396C13.0837 5.62933 13.485 5.96533 13.7744 6.404C14.0637 6.83333 14.2084 7.342 14.2084 7.93C14.2084 8.462 14.101 8.96133 13.8864 9.428C13.6717 9.89467 13.2657 10.4267 12.6684 11.024L10.5404 13.152H14.5024Z" fill="#161C27"/>
</svg>
