<svg width="29" height="29" viewBox="0 0 29 29" fill="none" xmlns="http://www.w3.org/2000/svg">
<rect width="28.1564" height="28.1564" rx="9.38548" fill="url(#paint0_linear_417_108316)"/>
<path fill-rule="evenodd" clip-rule="evenodd" d="M14.0784 4.95361C19.1179 4.95361 23.2031 9.03891 23.2031 14.0784C23.2031 19.1179 19.1179 23.2031 14.0784 23.2031C9.03891 23.2031 4.95361 19.1179 4.95361 14.0784C4.95361 9.03891 9.03891 4.95361 14.0784 4.95361ZM14.0784 6.77857C10.0468 6.77857 6.77857 10.0468 6.77857 14.0784C6.77857 18.11 10.0468 21.3782 14.0784 21.3782C18.11 21.3782 21.3782 18.11 21.3782 14.0784C21.3782 10.0468 18.11 6.77857 14.0784 6.77857ZM14.0784 18.6408C16.5981 18.6408 18.6408 16.5981 18.6408 14.0784C18.6408 11.5586 16.5981 9.516 14.0784 9.516C11.5586 9.516 9.516 11.5586 9.516 14.0784C9.516 16.5981 11.5586 18.6408 14.0784 18.6408Z" fill="white"/>
<defs>
<linearGradient id="paint0_linear_417_108316" x1="0" y1="0" x2="28.1564" y2="28.1564" gradientUnits="userSpaceOnUse">
<stop stop-color="#55B4ED"/>
<stop offset="1" stop-color="#99A5FF"/>
</linearGradient>
</defs>
</svg>
