<svg width="24" height="24" viewBox="0 0 24 24" fill="none" xmlns="http://www.w3.org/2000/svg">
<path d="M17.5007 2.32921L16.5489 4.5489L14.3292 5.50073L14.2766 5.52644C13.891 5.73996 13.9086 6.31898 14.3292 6.49927L16.5489 7.45109C16.5489 7.45109 17.0874 8.82301 17.5007 9.67079L17.5264 9.72337C17.74 10.109 18.319 10.0914 18.4993 9.67079L19.4507 7.45071L21.6708 6.49927L21.7234 6.47355C22.109 6.26004 22.0914 5.68101 21.6708 5.50073L19.4507 4.54929L18.4993 2.32921C18.3111 1.89026 17.6889 1.89026 17.5007 2.32921Z" fill="#855EE1"/>
<path d="M21 17V10.0004C20.4186 10.4371 19.7389 10.75 19 10.9V17C19 18.1046 18.1046 19 17 19H7C5.89543 19 5 18.1046 5 17V7C5 5.89543 5.89543 5 7 5H13.1C13.25 4.26112 13.5629 3.58141 13.9996 3H7C4.79086 3 3 4.79086 3 7V17C3 19.2091 4.79086 21 7 21H17C19.2091 21 21 19.2091 21 17Z" fill="#855EE1"/>
<path d="M13.9996 9C13.5629 8.41859 13.25 7.73888 13.1 7H7V9H13.9996Z" fill="#855EE1"/>
<path d="M17 13H7V11H17V13Z" fill="#855EE1"/>
<path d="M17 17H7V15H17V17Z" fill="#855EE1"/>
</svg>
