<svg width="29" height="29" viewBox="0 0 29 29" fill="none" xmlns="http://www.w3.org/2000/svg">
<rect width="28.1564" height="28.1564" rx="9.38548" fill="url(#paint0_linear_437_108237)"/>
<path fill-rule="evenodd" clip-rule="evenodd" d="M18.6404 5.86572C20.6562 5.86572 22.2903 7.49984 22.2903 9.51563V18.6404C22.2903 20.6562 20.6562 22.2903 18.6404 22.2903H9.51563C7.49984 22.2903 5.86572 20.6562 5.86572 18.6404V9.51563C5.86572 7.49984 7.49984 5.86572 9.51563 5.86572H18.6404ZM18.6404 7.69068H9.51563C8.50774 7.69068 7.69068 8.50774 7.69068 9.51563V18.6404C7.69068 19.6483 8.50774 20.4653 9.51563 20.4653H18.6404C19.6483 20.4653 20.4653 19.6483 20.4653 18.6404V9.51563C20.4653 8.50774 19.6483 7.69068 18.6404 7.69068ZM18.6404 9.51563H9.51563V11.3406H18.6404V9.51563ZM18.6404 13.1655H9.51563V14.9905H18.6404V13.1655ZM9.51563 16.8154H15.903V18.6404H9.51563V16.8154Z" fill="white"/>
<defs>
<linearGradient id="paint0_linear_437_108237" x1="0" y1="0" x2="28.1564" y2="28.1564" gradientUnits="userSpaceOnUse">
<stop stop-color="#FF8B68"/>
<stop offset="1" stop-color="#E89C00"/>
</linearGradient>
</defs>
</svg>
