<svg width="29" height="29" viewBox="0 0 29 29" fill="none" xmlns="http://www.w3.org/2000/svg">
<rect width="28.1564" height="28.1564" rx="9.38548" fill="url(#paint0_linear_417_108366)"/>
<path d="M17.2594 12.254C17.2594 10.4902 15.8296 9.06032 14.0658 9.06032C12.5783 9.06032 11.298 10.085 10.9585 11.5137L12.734 11.9356C12.8792 11.3249 13.4284 10.8853 14.0658 10.8853C14.8217 10.8853 15.4345 11.4981 15.4345 12.254C15.4345 12.906 14.9746 13.4643 14.3451 13.5944L14.2283 13.6203L13.9593 13.6288C13.5055 13.6816 13.1533 14.0672 13.1533 14.5352V16.3955H14.9782L14.9779 15.3135L15.0469 15.294C16.346 14.8757 17.2594 13.6588 17.2594 12.254Z" fill="white"/>
<path d="M14.9782 19.1329V17.308H13.1533V19.1329H14.9782Z" fill="white"/>
<path fill-rule="evenodd" clip-rule="evenodd" d="M5.86572 9.51612C5.86572 7.50033 7.49984 5.86621 9.51563 5.86621H18.6404C20.6562 5.86621 22.2903 7.50033 22.2903 9.51612V18.6409C22.2903 20.6567 20.6562 22.2908 18.6404 22.2908H9.51563C7.49984 22.2908 5.86572 20.6567 5.86572 18.6409V9.51612ZM9.51563 7.69116H18.6404C19.6483 7.69116 20.4653 8.50822 20.4653 9.51612V18.6409C20.4653 19.6488 19.6483 20.4658 18.6404 20.4658H9.51563C8.50774 20.4658 7.69068 19.6488 7.69068 18.6409V9.51612C7.69068 8.50822 8.50774 7.69116 9.51563 7.69116Z" fill="white"/>
<defs>
<linearGradient id="paint0_linear_417_108366" x1="0" y1="0" x2="28.1564" y2="28.1564" gradientUnits="userSpaceOnUse">
<stop stop-color="#55B4ED"/>
<stop offset="1" stop-color="#99A5FF"/>
</linearGradient>
</defs>
</svg>
