<?xml version="1.0" standalone="no"?><!DOCTYPE svg PUBLIC "-//W3C//DTD SVG 1.1//EN" "http://www.w3.org/Graphics/SVG/1.1/DTD/svg11.dtd"><svg t="1753431798997" class="icon" viewBox="0 0 1024 1024" version="1.1" xmlns="http://www.w3.org/2000/svg" p-id="27780" xmlns:xlink="http://www.w3.org/1999/xlink" width="200" height="200"><path d="M938.666667 789.333333c8.533333-17.066667 17.066667-29.866667 25.6-46.933333 4.266667-4.266667 4.266667-8.533333 4.266666-12.8 4.266667-12.8 12.8-25.6 17.066667-38.4 4.266667-4.266667 4.266667-8.533333 4.266667-17.066667 4.266667-12.8 8.533333-25.6 12.8-34.133333 0-4.266667 4.266667-12.8 4.266666-17.066667 4.266667-12.8 4.266667-25.6 8.533334-38.4 0-4.266667 4.266667-12.8 4.266666-17.066666C1024 550.4 1024 529.066667 1024 512c0-281.6-230.4-512-512-512S0 230.4 0 512c0 17.066667 0 38.4 4.266667 55.466667 0 4.266667 0 12.8 4.266666 17.066666 0 12.8 4.266667 25.6 4.266667 38.4 0 4.266667 4.266667 12.8 4.266667 17.066667 4.266667 12.8 8.533333 25.6 12.8 34.133333 0 4.266667 4.266667 8.533333 4.266666 17.066667 4.266667 12.8 8.533333 25.6 17.066667 38.4 0 4.266667 4.266667 8.533333 4.266667 12.8 8.533333 17.066667 17.066667 29.866667 25.6 46.933333A505.685333 505.685333 0 0 0 507.733333 1024c179.2 0 337.066667-93.866667 430.933334-234.666667-4.266667 0-4.266667 0 0 0z" fill="#d4237a" p-id="27781" data-spm-anchor-id="a313x.search_index.0.i18.17603a81Ylujh5" class="selected"></path><path d="M507.733333 627.2c136.533333 0 256 81.066667 311.466667 204.8-81.066667 76.8-192 128-311.466667 128-119.466667-4.266667-230.4-51.2-311.466666-128 55.466667-123.733333 174.933333-204.8 311.466666-204.8z m0-384c102.4 0 187.733333 85.333333 187.733334 187.733333 0 102.4-85.333333 187.733333-187.733334 187.733334-102.4 0-187.733333-85.333333-187.733333-187.733334 0-102.4 85.333333-187.733333 187.733333-187.733333z" fill="#FFFFFF" p-id="27782"></path></svg>