<svg width="181" height="36" viewBox="0 0 181 36" fill="none" xmlns="http://www.w3.org/2000/svg">
<path d="M26.0007 8.32921L25.0489 10.5489L22.8292 11.5007L22.7766 11.5264C22.391 11.74 22.4086 12.319 22.8292 12.4993L25.0489 13.4511C25.0489 13.4511 25.5874 14.823 26.0007 15.6708L26.0264 15.7234C26.24 16.109 26.819 16.0914 26.9993 15.6708L27.9507 13.4507L30.1708 12.4993L30.2234 12.4736C30.609 12.26 30.5914 11.681 30.1708 11.5007L27.9507 10.5493L26.9993 8.32921C26.8111 7.89026 26.1889 7.89026 26.0007 8.32921Z" fill="#161C27"/>
<path d="M29.5 23V16.0004C28.9186 16.4371 28.2389 16.75 27.5 16.9V23C27.5 24.1046 26.6046 25 25.5 25H15.5C14.3954 25 13.5 24.1046 13.5 23V13C13.5 11.8954 14.3954 11 15.5 11H21.6C21.75 10.2611 22.0629 9.58141 22.4996 9H15.5C13.2909 9 11.5 10.7909 11.5 13V23C11.5 25.2091 13.2909 27 15.5 27H25.5C27.7091 27 29.5 25.2091 29.5 23Z" fill="#161C27"/>
<path d="M22.4996 15C22.0629 14.4186 21.75 13.7389 21.6 13H15.5V15H22.4996Z" fill="#161C27"/>
<path d="M25.5 19H15.5V17H25.5V19Z" fill="#161C27"/>
<path d="M25.5 23H15.5V21H25.5V23Z" fill="#161C27"/>
<path d="M48.008 13.2C48.82 13.2 49.5247 13.3447 50.122 13.634C50.7287 13.9233 51.1953 14.334 51.522 14.866C51.8487 15.398 52.012 16.028 52.012 16.756C52.012 17.4747 51.8487 18.1047 51.522 18.646C51.1953 19.178 50.7287 19.5887 50.122 19.878C49.5247 20.158 48.82 20.298 48.008 20.298H47.028V23H44.886V13.2H48.008ZM47.896 18.45C48.5307 18.45 49.016 18.3053 49.352 18.016C49.688 17.7173 49.856 17.2973 49.856 16.756C49.856 16.2053 49.688 15.7853 49.352 15.496C49.016 15.1973 48.5307 15.048 47.896 15.048H47.028V18.45H47.896ZM56.431 15.356C57.523 15.356 58.363 15.636 58.951 16.196C59.539 16.7467 59.833 17.582 59.833 18.702V23H57.915V22.062C57.5324 22.762 56.8137 23.112 55.759 23.112C55.2177 23.112 54.7464 23.014 54.345 22.818C53.9437 22.622 53.6357 22.3513 53.421 22.006C53.2157 21.6607 53.113 21.2687 53.113 20.83C53.113 20.13 53.3604 19.5793 53.855 19.178C54.3497 18.7767 55.115 18.576 56.151 18.576H57.775C57.775 18.1 57.6397 17.736 57.369 17.484C57.0984 17.2227 56.6924 17.092 56.151 17.092C55.7777 17.092 55.4044 17.1573 55.031 17.288C54.667 17.4093 54.359 17.5773 54.107 17.792L53.379 16.266C53.7617 15.9767 54.2237 15.7527 54.765 15.594C55.3064 15.4353 55.8617 15.356 56.431 15.356ZM56.263 21.642C56.6177 21.642 56.9304 21.558 57.201 21.39C57.4717 21.2127 57.663 20.956 57.775 20.62V19.85H56.375C55.535 19.85 55.115 20.144 55.115 20.732C55.115 21.012 55.2177 21.236 55.423 21.404C55.6284 21.5627 55.9084 21.642 56.263 21.642ZM68.8374 15.468L65.6314 23.462C65.3048 24.33 64.9034 24.9413 64.4274 25.296C63.9514 25.6507 63.3774 25.828 62.7054 25.828C62.3414 25.828 61.9774 25.7673 61.6134 25.646C61.2494 25.5247 60.9554 25.3567 60.7314 25.142L61.4734 23.588C61.6321 23.7373 61.8141 23.854 62.0194 23.938C62.2248 24.022 62.4301 24.064 62.6354 24.064C62.9154 24.064 63.1441 23.9893 63.3214 23.84C63.4988 23.7 63.6574 23.462 63.7974 23.126L63.8254 23.056L60.7454 15.468H62.8734L64.8614 20.578L66.8634 15.468H68.8374ZM76.9916 15.356C78.0836 15.356 78.9236 15.636 79.5116 16.196C80.0996 16.7467 80.3936 17.582 80.3936 18.702V23H78.4756V22.062C78.0929 22.762 77.3743 23.112 76.3196 23.112C75.7783 23.112 75.3069 23.014 74.9056 22.818C74.5043 22.622 74.1963 22.3513 73.9816 22.006C73.7763 21.6607 73.6736 21.2687 73.6736 20.83C73.6736 20.13 73.9209 19.5793 74.4156 19.178C74.9103 18.7767 75.6756 18.576 76.7116 18.576H78.3356C78.3356 18.1 78.2003 17.736 77.9296 17.484C77.6589 17.2227 77.2529 17.092 76.7116 17.092C76.3383 17.092 75.9649 17.1573 75.5916 17.288C75.2276 17.4093 74.9196 17.5773 74.6676 17.792L73.9396 16.266C74.3223 15.9767 74.7843 15.7527 75.3256 15.594C75.8669 15.4353 76.4223 15.356 76.9916 15.356ZM76.8236 21.642C77.1783 21.642 77.4909 21.558 77.7616 21.39C78.0323 21.2127 78.2236 20.956 78.3356 20.62V19.85H76.9356C76.0956 19.85 75.6756 20.144 75.6756 20.732C75.6756 21.012 75.7783 21.236 75.9836 21.404C76.1889 21.5627 76.4689 21.642 76.8236 21.642ZM87.057 22.636C86.8517 22.7947 86.5997 22.916 86.301 23C86.0117 23.0747 85.7037 23.112 85.377 23.112C84.537 23.112 83.8883 22.8833 83.431 22.426C82.9737 21.9687 82.745 21.2967 82.745 20.41V17.316H81.653V15.636H82.745V13.802H84.789V15.636H86.553V17.316H84.789V20.382C84.789 20.6993 84.8637 20.9467 85.013 21.124C85.1717 21.292 85.391 21.376 85.671 21.376C85.9977 21.376 86.273 21.2827 86.497 21.096L87.057 22.636ZM92.8715 22.636C92.6661 22.7947 92.4141 22.916 92.1155 23C91.8261 23.0747 91.5181 23.112 91.1915 23.112C90.3515 23.112 89.7028 22.8833 89.2455 22.426C88.7881 21.9687 88.5595 21.2967 88.5595 20.41V17.316H87.4675V15.636H88.5595V13.802H90.6035V15.636H92.3675V17.316H90.6035V20.382C90.6035 20.6993 90.6781 20.9467 90.8275 21.124C90.9861 21.292 91.2055 21.376 91.4855 21.376C91.8121 21.376 92.0875 21.2827 92.3115 21.096L92.8715 22.636ZM100.984 19.262C100.984 19.29 100.97 19.486 100.942 19.85H95.5936C95.6869 20.3167 95.9109 20.6853 96.2656 20.956C96.6296 21.2267 97.0776 21.362 97.6096 21.362C97.9736 21.362 98.3002 21.306 98.5896 21.194C98.8789 21.0727 99.1449 20.886 99.3876 20.634L100.48 21.894C99.8169 22.706 98.8462 23.112 97.5676 23.112C96.7649 23.112 96.0556 22.9487 95.4396 22.622C94.8329 22.286 94.3616 21.824 94.0256 21.236C93.6896 20.648 93.5216 19.9807 93.5216 19.234C93.5216 18.4967 93.6849 17.834 94.0116 17.246C94.3476 16.6487 94.8002 16.1867 95.3696 15.86C95.9482 15.524 96.5922 15.356 97.3016 15.356C97.9922 15.356 98.6176 15.5147 99.1776 15.832C99.7376 16.1493 100.176 16.6067 100.494 17.204C100.82 17.792 100.984 18.478 100.984 19.262ZM97.3156 17.008C96.8489 17.008 96.4569 17.148 96.1396 17.428C95.8222 17.708 95.6309 18.0907 95.5656 18.576H99.0516C98.9769 18.1 98.7809 17.722 98.4636 17.442C98.1556 17.1527 97.7729 17.008 97.3156 17.008ZM106.9 15.356C107.778 15.356 108.487 15.636 109.028 16.196C109.57 16.756 109.84 17.5867 109.84 18.688V23H107.782V19.024C107.782 18.4267 107.656 17.9833 107.404 17.694C107.162 17.3953 106.812 17.246 106.354 17.246C105.841 17.246 105.426 17.4187 105.108 17.764C104.8 18.1 104.646 18.604 104.646 19.276V23H102.602V15.468H104.562V16.35C104.833 16.0327 105.169 15.79 105.57 15.622C105.972 15.4447 106.415 15.356 106.9 15.356ZM116.508 22.636C116.303 22.7947 116.051 22.916 115.752 23C115.463 23.0747 115.155 23.112 114.828 23.112C113.988 23.112 113.34 22.8833 112.882 22.426C112.425 21.9687 112.196 21.2967 112.196 20.41V17.316H111.104V15.636H112.196V13.802H114.24V15.636H116.004V17.316H114.24V20.382C114.24 20.6993 114.315 20.9467 114.464 21.124C114.623 21.292 114.842 21.376 115.122 21.376C115.449 21.376 115.724 21.2827 115.948 21.096L116.508 22.636ZM117.965 15.468H120.149V23H117.965V15.468ZM119.057 14.418C118.684 14.418 118.376 14.3013 118.133 14.068C117.9 13.8347 117.783 13.5453 117.783 13.2C117.783 12.8547 117.9 12.5653 118.133 12.332C118.376 12.0987 118.684 11.982 119.057 11.982C119.43 11.982 119.734 12.094 119.967 12.318C120.21 12.542 120.331 12.822 120.331 13.158C120.331 13.522 120.21 13.8253 119.967 14.068C119.734 14.3013 119.43 14.418 119.057 14.418ZM125.58 23.112C124.833 23.112 124.166 22.9487 123.578 22.622C122.99 22.286 122.528 21.824 122.192 21.236C121.856 20.648 121.688 19.9807 121.688 19.234C121.688 18.4873 121.856 17.82 122.192 17.232C122.528 16.644 122.99 16.1867 123.578 15.86C124.166 15.524 124.833 15.356 125.58 15.356C126.326 15.356 126.994 15.524 127.582 15.86C128.17 16.1867 128.632 16.644 128.968 17.232C129.304 17.82 129.472 18.4873 129.472 19.234C129.472 19.9807 129.304 20.648 128.968 21.236C128.632 21.824 128.17 22.286 127.582 22.622C126.994 22.9487 126.326 23.112 125.58 23.112ZM125.58 21.32C126.112 21.32 126.546 21.1333 126.882 20.76C127.218 20.3773 127.386 19.8687 127.386 19.234C127.386 18.5993 127.218 18.0953 126.882 17.722C126.546 17.3393 126.112 17.148 125.58 17.148C125.057 17.148 124.623 17.3393 124.278 17.722C123.942 18.0953 123.774 18.5993 123.774 19.234C123.774 19.8687 123.942 20.3773 124.278 20.76C124.623 21.1333 125.057 21.32 125.58 21.32ZM135.23 15.356C136.108 15.356 136.817 15.636 137.358 16.196C137.9 16.756 138.17 17.5867 138.17 18.688V23H136.112V19.024C136.112 18.4267 135.986 17.9833 135.734 17.694C135.492 17.3953 135.142 17.246 134.684 17.246C134.171 17.246 133.756 17.4187 133.438 17.764C133.13 18.1 132.976 18.604 132.976 19.276V23H130.932V15.468H132.892V16.35C133.163 16.0327 133.499 15.79 133.9 15.622C134.302 15.4447 134.745 15.356 135.23 15.356Z" fill="#454649"/>
</svg>
