<svg width="34" height="34" viewBox="0 0 34 34" fill="none" xmlns="http://www.w3.org/2000/svg">
<g clip-path="url(#clip0_2153_20821)">
<path d="M0 16.9622C0 7.59317 7.59512 -0.00195312 16.9642 -0.00195312C26.3332 -0.00195312 33.9283 7.59317 33.9283 16.9622C33.9283 26.3313 26.3332 33.9264 16.9642 33.9264C7.59512 33.9264 0 26.3313 0 16.9622Z" fill="white" fill-opacity="0.6"/>
<path fill-rule="evenodd" clip-rule="evenodd" d="M21.7632 11.0986L22.8295 12.1649L18.031 16.963L22.8295 21.7613L21.7632 22.8275L16.9649 18.0291L12.1669 22.8275L11.1006 21.7613L15.8988 16.963L11.1006 12.1649L12.1669 11.0986L16.9649 15.8969L21.7632 11.0986Z" fill="#0E131E"/>
</g>
<defs>
<clipPath id="clip0_2153_20821">
<path d="M0 16.9622C0 7.59317 7.59512 -0.00195312 16.9642 -0.00195312C26.3332 -0.00195312 33.9283 7.59317 33.9283 16.9622C33.9283 26.3313 26.3332 33.9264 16.9642 33.9264C7.59512 33.9264 0 26.3313 0 16.9622Z" fill="white"/>
</clipPath>
</defs>
</svg>
