<svg width="35" height="35" viewBox="0 0 35 35" fill="none" xmlns="http://www.w3.org/2000/svg">
<g opacity="0.3">
<g clip-path="url(#clip0_2153_20815)">
<path d="M0 17.5C0 7.83502 7.83502 0 17.5 0V0C27.165 0 35 7.83502 35 17.5V17.5C35 27.165 27.165 35 17.5 35V35C7.83502 35 0 27.165 0 17.5V17.5Z" fill="#F1EEEB"/>
<path d="M12.9214 10.4766C11.9099 10.4766 11.0898 11.2966 11.0898 12.3081V23.2976C11.0898 24.3092 11.9099 25.1292 12.9214 25.1292H13.8372C14.8488 25.1292 15.6688 24.3092 15.6688 23.2976V12.3081C15.6688 11.2966 14.8488 10.4766 13.8372 10.4766H12.9214Z" fill="#161C27"/>
<path d="M21.1635 10.4766C20.152 10.4766 19.3319 11.2966 19.3319 12.3081V23.2976C19.3319 24.3092 20.152 25.1292 21.1635 25.1292H22.0793C23.0909 25.1292 23.9109 24.3092 23.9109 23.2976V12.3081C23.9109 11.2966 23.0909 10.4766 22.0793 10.4766H21.1635Z" fill="#161C27"/>
</g>
</g>
<defs>
<clipPath id="clip0_2153_20815">
<path d="M0 17.5C0 7.83502 7.83502 0 17.5 0V0C27.165 0 35 7.83502 35 17.5V17.5C35 27.165 27.165 35 17.5 35V35C7.83502 35 0 27.165 0 17.5V17.5Z" fill="white"/>
</clipPath>
</defs>
</svg>
