<svg width="18" height="19" viewBox="0 0 18 19" fill="none" xmlns="http://www.w3.org/2000/svg">
<path d="M11.1815 3.01667C11.5915 3.01667 11.9424 3.16432 12.2344 3.45962C12.5264 3.75492 12.6724 4.10991 12.6724 4.52459C12.6724 4.93927 12.5264 5.29426 12.2344 5.58957C11.9424 5.88487 11.5915 6.03252 11.1815 6.03252C10.7715 6.03252 10.4205 5.88487 10.1285 5.58957C9.83657 5.29426 9.69059 4.93927 9.69059 4.52459C9.69059 4.10991 9.83657 3.75492 10.1285 3.45962C10.4205 3.16432 10.7715 3.01667 11.1815 3.01667ZM6.70881 3.01667C7.11881 3.01667 7.46979 3.16432 7.76175 3.45962C8.05372 3.75492 8.1997 4.10991 8.1997 4.52459C8.1997 4.93927 8.05372 5.29426 7.76175 5.58957C7.46979 5.88487 7.11881 6.03252 6.70881 6.03252C6.29882 6.03252 5.94784 5.88487 5.65587 5.58957C5.36391 5.29426 5.21792 4.93927 5.21792 4.52459C5.21792 4.10991 5.36391 3.75492 5.65587 3.45962C5.94784 3.16432 6.29882 3.01667 6.70881 3.01667ZM11.1815 7.54045C11.5915 7.54045 11.9424 7.6881 12.2344 7.9834C12.5264 8.2787 12.6724 8.63369 12.6724 9.04837C12.6724 9.46305 12.5264 9.81804 12.2344 10.1133C11.9424 10.4086 11.5915 10.5563 11.1815 10.5563C10.7715 10.5563 10.4205 10.4086 10.1285 10.1133C9.83657 9.81804 9.69059 9.46305 9.69059 9.04837C9.69059 8.63369 9.83657 8.2787 10.1285 7.9834C10.4205 7.6881 10.7715 7.54045 11.1815 7.54045ZM6.70881 7.54045C7.11881 7.54045 7.46979 7.6881 7.76175 7.9834C8.05372 8.2787 8.1997 8.63369 8.1997 9.04837C8.1997 9.46305 8.05372 9.81804 7.76175 10.1133C7.46979 10.4086 7.11881 10.5563 6.70881 10.5563C6.29882 10.5563 5.94784 10.4086 5.65587 10.1133C5.36391 9.81804 5.21792 9.46305 5.21792 9.04837C5.21792 8.63369 5.36391 8.2787 5.65587 7.9834C5.94784 7.6881 6.29882 7.54045 6.70881 7.54045ZM11.1815 12.0642C11.5915 12.0642 11.9424 12.2119 12.2344 12.5072C12.5264 12.8025 12.6724 13.1575 12.6724 13.5722C12.6724 13.9868 12.5264 14.3418 12.2344 14.6371C11.9424 14.9324 11.5915 15.0801 11.1815 15.0801C10.7715 15.0801 10.4205 14.9324 10.1285 14.6371C9.83657 14.3418 9.69059 13.9868 9.69059 13.5722C9.69059 13.1575 9.83657 12.8025 10.1285 12.5072C10.4205 12.2119 10.7715 12.0642 11.1815 12.0642ZM6.70881 12.0642C7.11881 12.0642 7.46979 12.2119 7.76175 12.5072C8.05372 12.8025 8.1997 13.1575 8.1997 13.5722C8.1997 13.9868 8.05372 14.3418 7.76175 14.6371C7.46979 14.9324 7.11881 15.0801 6.70881 15.0801C6.29882 15.0801 5.94784 14.9324 5.65587 14.6371C5.36391 14.3418 5.21793 13.9868 5.21793 13.5722C5.21793 13.1575 5.36391 12.8025 5.65587 12.5072C5.94784 12.2119 6.29882 12.0642 6.70881 12.0642Z" fill="#5F5E60"/>
</svg>
