<svg width="49" height="48" viewBox="0 0 49 48" fill="none" xmlns="http://www.w3.org/2000/svg">
<g clip-path="url(#clip0_6957_3775)">
<path d="M0.5 24C0.5 10.7452 11.2452 0 24.5 0C37.7548 0 48.5 10.7452 48.5 24C48.5 37.2548 37.7548 48 24.5 48C11.2452 48 0.5 37.2548 0.5 24Z" fill="#855EE1"/>
<path fill-rule="evenodd" clip-rule="evenodd" d="M23.5 15H25.5V33H23.5V15ZM15.5 21H17.5V27H15.5V21ZM19.5 18H21.5V30H19.5V18ZM27.5 18H29.5V30H27.5V18ZM31.5 21H33.5V27H31.5V21Z" fill="white"/>
</g>
<defs>
<clipPath id="clip0_6957_3775">
<path d="M0.5 24C0.5 10.7452 11.2452 0 24.5 0C37.7548 0 48.5 10.7452 48.5 24C48.5 37.2548 37.7548 48 24.5 48C11.2452 48 0.5 37.2548 0.5 24Z" fill="white"/>
</clipPath>
</defs>
</svg>
