<svg width="20" height="20" viewBox="0 0 20 20" fill="none" xmlns="http://www.w3.org/2000/svg">
<g clip-path="url(#clip0_9829_27307)">
<path d="M10 20C4.47727 20 0 15.5227 0 10C0 4.47727 4.47727 0 10 0C15.5227 0 20 4.47727 20 10C20 15.5227 15.5227 20 10 20ZM10.9427 10L14.35 6.59273C14.475 6.46771 14.5452 6.29816 14.5452 6.12136C14.5452 5.94457 14.475 5.77501 14.35 5.65C14.225 5.52499 14.0554 5.45475 13.8786 5.45475C13.7018 5.45475 13.5323 5.52499 13.4073 5.65L10 9.05727L6.59273 5.65C6.46771 5.52499 6.29816 5.45475 6.12136 5.45475C5.94457 5.45475 5.77501 5.52499 5.65 5.65C5.52499 5.77501 5.45475 5.94457 5.45475 6.12136C5.45475 6.29816 5.52499 6.46771 5.65 6.59273L9.05727 10L5.65 13.4073C5.52499 13.5323 5.45475 13.7018 5.45475 13.8786C5.45475 14.0554 5.52499 14.225 5.65 14.35C5.77501 14.475 5.94457 14.5452 6.12136 14.5452C6.29816 14.5452 6.46771 14.475 6.59273 14.35L10 10.9427L13.4073 14.35C13.5323 14.475 13.7018 14.5452 13.8786 14.5452C14.0554 14.5452 14.225 14.475 14.35 14.35C14.475 14.225 14.5452 14.0554 14.5452 13.8786C14.5452 13.7018 14.475 13.5323 14.35 13.4073L10.9427 10Z" fill="#F5222D"/>
</g>
<defs>
<clipPath id="clip0_9829_27307">
<rect width="20" height="20" fill="white"/>
</clipPath>
</defs>
</svg>
