<svg width="35" height="35" viewBox="0 0 35 35" fill="none" xmlns="http://www.w3.org/2000/svg">
<g clip-path="url(#clip0_2153_20894)">
<path d="M0 17.5C0 7.83502 7.83502 0 17.5 0C27.165 0 35 7.83502 35 17.5C35 27.165 27.165 35 17.5 35C7.83502 35 0 27.165 0 17.5Z" fill="#F1EEEB"/>
<path d="M12.9214 10.4756C11.9099 10.4756 11.0898 11.2956 11.0898 12.3072V23.2966C11.0898 24.3082 11.9099 25.1282 12.9214 25.1282H13.8372C14.8488 25.1282 15.6688 24.3082 15.6688 23.2966V12.3072C15.6688 11.2956 14.8488 10.4756 13.8372 10.4756H12.9214Z" fill="#161C27"/>
<path d="M21.1635 10.4756C20.152 10.4756 19.3319 11.2956 19.3319 12.3072V23.2966C19.3319 24.3082 20.152 25.1282 21.1635 25.1282H22.0793C23.0909 25.1282 23.9109 24.3082 23.9109 23.2966V12.3072C23.9109 11.2956 23.0909 10.4756 22.0793 10.4756H21.1635Z" fill="#161C27"/>
</g>
<defs>
<clipPath id="clip0_2153_20894">
<path d="M0 17.5C0 7.83502 7.83502 0 17.5 0C27.165 0 35 7.83502 35 17.5C35 27.165 27.165 35 17.5 35C7.83502 35 0 27.165 0 17.5Z" fill="white"/>
</clipPath>
</defs>
</svg>
