<svg width="35" height="35" viewBox="0 0 35 35" fill="none" xmlns="http://www.w3.org/2000/svg">
<g clip-path="url(#clip0_2153_20895)">
<path d="M0 17.5C0 7.83502 7.83502 0 17.5 0V0C27.165 0 35 7.83502 35 17.5V17.5C35 27.165 27.165 35 17.5 35V35C7.83502 35 0 27.165 0 17.5V17.5Z" fill="#DE3730"/>
<rect x="12.2227" y="12.2197" width="10.5555" height="10.5555" rx="1.50793" fill="#FBF9F7"/>
</g>
<defs>
<clipPath id="clip0_2153_20895">
<path d="M0 17.5C0 7.83502 7.83502 0 17.5 0V0C27.165 0 35 7.83502 35 17.5V17.5C35 27.165 27.165 35 17.5 35V35C7.83502 35 0 27.165 0 17.5V17.5Z" fill="white"/>
</clipPath>
</defs>
</svg>
