<svg width="32" height="32" viewBox="0 0 32 32" fill="none" xmlns="http://www.w3.org/2000/svg">
<path d="M14.1218 11.5832C14.324 10.9038 14.4696 10.2042 14.5549 9.49098C16.6532 9.79305 18.8289 9.397 20.724 8.30285L21.1808 8.03913C23.2215 6.86093 25.831 7.56013 27.0092 9.60084C28.1874 11.6416 27.4882 14.251 25.4475 15.4292L24.9907 15.6929C24.8212 15.7908 24.6555 15.8934 24.4935 16.0005C23.8716 15.5892 23.3064 15.1113 22.8051 14.5794C23.1613 14.3155 23.5347 14.0702 23.9241 13.8454L24.3808 13.5817C25.4012 12.9926 25.7508 11.6879 25.1617 10.6675C24.5726 9.64715 23.2678 9.29755 22.2475 9.88666L21.7907 10.1504C19.4356 11.5101 16.726 11.9877 14.1218 11.5832Z" fill="url(#paint0_linear_5879_3738)"/>
<path d="M13.7788 23.4773C13.0471 23.6611 12.3337 23.9405 11.6574 24.3155V24.5342C11.6574 26.8906 13.5676 28.8009 15.9241 28.8009C18.2805 28.8009 20.1907 26.8906 20.1907 24.5342V24.0068C20.1907 21.7999 20.9483 19.701 22.2798 18.0279C21.7048 17.5976 21.1719 17.1217 20.685 16.6068C19.0115 18.6665 18.0574 21.2687 18.0574 24.0068V24.5342C18.0574 25.7124 17.1023 26.6675 15.9241 26.6675C14.7459 26.6675 13.7907 25.7124 13.7907 24.5342V24.0068C13.7907 23.8297 13.7867 23.6531 13.7788 23.4773Z" fill="url(#paint1_linear_5879_3738)"/>
<path d="M11.6396 8.57994C11.4656 8.49317 11.2937 8.40081 11.124 8.30285L10.6673 8.03915C8.6266 6.86095 6.01715 7.56015 4.83894 9.60086C3.66073 11.6416 4.35993 14.251 6.40065 15.4292L6.8574 15.6929C9.00688 16.9339 10.5591 18.9366 11.2528 21.2484C11.9113 20.9625 12.5899 20.7398 13.2795 20.5803C12.4236 17.778 10.5341 15.3523 7.92406 13.8454L7.46731 13.5817C6.44696 12.9926 6.09736 11.6879 6.68646 10.6675C7.27556 9.64717 8.58029 9.29757 9.60065 9.88668L10.0574 10.1504C10.4468 10.3752 10.846 10.576 11.2528 10.7526C11.4628 10.0525 11.5942 9.32413 11.6396 8.57994Z" fill="url(#paint2_linear_5879_3738)"/>
<path d="M10.6351 16.0006C10.1521 15.4831 9.61997 15.0068 9.04305 14.5795C10.6988 12.8227 11.6574 10.4767 11.6574 7.99428V7.46686C11.6574 5.11045 13.5677 3.2002 15.9241 3.2002C18.2805 3.2002 20.1907 5.11045 20.1907 7.46686V7.99426C20.1907 8.19044 20.1967 8.38577 20.2086 8.58001C19.5414 8.91287 18.845 9.16337 18.1337 9.33153C18.0832 8.89065 18.0574 8.44429 18.0574 7.99426V7.46686C18.0574 6.28865 17.1023 5.33353 15.9241 5.33353C14.7459 5.33353 13.7907 6.28865 13.7907 7.46686V7.99428C13.7907 11.0085 12.6344 13.8581 10.6351 16.0006Z" fill="url(#paint3_linear_5879_3738)"/>
<path d="M10.6673 23.9619C8.6266 25.1401 6.01715 24.4409 4.83894 22.4002C3.66073 20.3595 4.35993 17.75 6.40065 16.5718L6.58879 16.4632C7.25175 16.8614 7.85052 17.3395 8.37565 17.8812C8.22764 17.9758 8.07709 18.0673 7.92407 18.1556L7.46732 18.4194C6.44696 19.0085 6.09736 20.3132 6.68646 21.3335C7.27556 22.3539 8.58029 22.7035 9.60065 22.1144L10.0574 21.8507C12.6677 20.3436 15.7136 19.9202 18.5686 20.5804C18.3618 21.2573 18.2154 21.9563 18.1337 22.6696C15.7845 22.1142 13.2738 22.4571 11.1241 23.6982L10.6673 23.9619Z" fill="url(#paint4_linear_5879_3738)"/>
<path d="M21.0449 23.8834L21.1808 23.9619C23.2215 25.1401 25.831 24.4409 27.0092 22.4002C28.1874 20.3595 27.4882 17.75 25.4475 16.5718L24.9907 16.3081C23.0799 15.2049 21.6411 13.4998 20.8578 11.5107C20.1977 11.7935 19.5191 12.017 18.8297 12.1812C19.7769 14.6599 21.5532 16.7868 23.9241 18.1556L24.3808 18.4193C25.4012 19.0084 25.7508 20.3132 25.1617 21.3335C24.5726 22.3539 23.2678 22.7035 22.2475 22.1144L21.7908 21.8507C21.6534 21.7714 21.5149 21.6951 21.3753 21.6218C21.1691 22.349 21.0558 23.1084 21.0449 23.8834Z" fill="url(#paint5_linear_5879_3738)"/>
<defs>
<linearGradient id="paint0_linear_5879_3738" x1="15.9241" y1="7.4668" x2="15.9241" y2="28.8009" gradientUnits="userSpaceOnUse">
<stop stop-color="#EB6296"/>
<stop offset="1" stop-color="#FF7257"/>
</linearGradient>
<linearGradient id="paint1_linear_5879_3738" x1="15.9241" y1="7.4668" x2="15.9241" y2="28.8009" gradientUnits="userSpaceOnUse">
<stop stop-color="#EB6296"/>
<stop offset="1" stop-color="#FF7257"/>
</linearGradient>
<linearGradient id="paint2_linear_5879_3738" x1="15.9241" y1="7.4668" x2="15.9241" y2="28.8009" gradientUnits="userSpaceOnUse">
<stop stop-color="#EB6296"/>
<stop offset="1" stop-color="#FF7257"/>
</linearGradient>
<linearGradient id="paint3_linear_5879_3738" x1="15.9241" y1="3.2002" x2="15.9241" y2="24.5343" gradientUnits="userSpaceOnUse">
<stop stop-color="#5C8DFF"/>
<stop offset="0.5" stop-color="#A079FF"/>
<stop offset="1" stop-color="#D06AD6"/>
</linearGradient>
<linearGradient id="paint4_linear_5879_3738" x1="15.9241" y1="3.2002" x2="15.9241" y2="24.5343" gradientUnits="userSpaceOnUse">
<stop stop-color="#5C8DFF"/>
<stop offset="0.5" stop-color="#A079FF"/>
<stop offset="1" stop-color="#D06AD6"/>
</linearGradient>
<linearGradient id="paint5_linear_5879_3738" x1="15.9241" y1="3.2002" x2="15.9241" y2="24.5343" gradientUnits="userSpaceOnUse">
<stop stop-color="#5C8DFF"/>
<stop offset="0.5" stop-color="#A079FF"/>
<stop offset="1" stop-color="#D06AD6"/>
</linearGradient>
</defs>
</svg>
