<svg width="48" height="48" viewBox="0 0 48 48" fill="none" xmlns="http://www.w3.org/2000/svg">
<g clip-path="url(#clip0_5833_4735)">
<path d="M0 24C0 10.7452 10.7452 0 24 0C37.2548 0 48 10.7452 48 24C48 37.2548 37.2548 48 24 48C10.7452 48 0 37.2548 0 24Z" fill="#855EE1"/>
<path fill-rule="evenodd" clip-rule="evenodd" d="M24 14C29.5228 14 34 18.4772 34 24C34 29.5228 29.5228 34 24 34C18.4772 34 14 29.5228 14 24C14 18.4772 18.4772 14 24 14ZM24 16C19.5817 16 16 19.5817 16 24C16 28.4183 19.5817 32 24 32C28.4183 32 32 28.4183 32 24C32 19.5817 28.4183 16 24 16ZM21.5 20.5C20.9477 20.5 20.5 20.9477 20.5 21.5V26.5C20.5 27.0523 20.9477 27.5 21.5 27.5H26.5C27.0523 27.5 27.5 27.0523 27.5 26.5V21.5C27.5 20.9477 27.0523 20.5 26.5 20.5H21.5Z" fill="white"/>
</g>
<defs>
<clipPath id="clip0_5833_4735">
<path d="M0 24C0 10.7452 10.7452 0 24 0C37.2548 0 48 10.7452 48 24C48 37.2548 37.2548 48 24 48C10.7452 48 0 37.2548 0 24Z" fill="white"/>
</clipPath>
</defs>
</svg>
