<svg width="24" height="24" viewBox="0 0 24 24" fill="none" xmlns="http://www.w3.org/2000/svg">
<path d="M17.5007 2.32873L16.5489 4.54841L14.3292 5.50024L14.2766 5.52596C13.891 5.73947 13.9086 6.31849 14.3292 6.49878L16.5489 7.45061C16.5489 7.45061 17.0874 8.82252 17.5007 9.6703L17.5264 9.72288C17.74 10.1085 18.319 10.091 18.4993 9.6703L19.4507 7.45022L21.6708 6.49878L21.7234 6.47306C22.109 6.25955 22.0914 5.68053 21.6708 5.50024L19.4507 4.5488L18.4993 2.32873C18.3111 1.88977 17.6889 1.88977 17.5007 2.32873Z" fill="#5C8DFF"/>
<path d="M21 16.9995V9.99988C20.4186 10.4366 19.7389 10.7495 19 10.8995V16.9995C19 18.1041 18.1046 18.9995 17 18.9995H7C5.89543 18.9995 5 18.1041 5 16.9995V6.99951C5 5.89494 5.89543 4.99951 7 4.99951H13.1C13.25 4.26063 13.5629 3.58092 13.9996 2.99951H7C4.79086 2.99951 3 4.79037 3 6.99951V16.9995C3 19.2087 4.79086 20.9995 7 20.9995H17C19.2091 20.9995 21 19.2087 21 16.9995Z" fill="#5C8DFF"/>
<path d="M13.9996 8.99951C13.5629 8.4181 13.25 7.73839 13.1 6.99951H7V8.99951H13.9996Z" fill="#5C8DFF"/>
<path d="M17 12.9995H7V10.9995H17V12.9995Z" fill="#5C8DFF"/>
<path d="M17 16.9995H7V14.9995H17V16.9995Z" fill="#5C8DFF"/>
</svg>
