<svg width="95" height="17" viewBox="0 0 95 17" fill="none" xmlns="http://www.w3.org/2000/svg">
<path d="M3.81669 1.8C5.17135 1.8 6.23802 2.14667 7.01669 2.84C7.80602 3.53333 8.20069 4.488 8.20069 5.704C8.20069 6.92 7.80602 7.87467 7.01669 8.568C6.23802 9.26133 5.17135 9.608 3.81669 9.608H2.20069V13H0.696688V1.8H3.81669ZM3.76869 8.216C4.71802 8.216 5.44335 8.00267 5.94469 7.576C6.44602 7.13867 6.69669 6.51467 6.69669 5.704C6.69669 4.89333 6.44602 4.27467 5.94469 3.848C5.44335 3.41067 4.71802 3.192 3.76869 3.192H2.20069V8.216H3.76869ZM11.3301 5.944C11.5861 5.45333 11.9594 5.08 12.4501 4.824C12.9407 4.568 13.5327 4.44 14.2261 4.44V5.928C14.1407 5.91733 14.0341 5.912 13.9061 5.912C13.1274 5.912 12.5141 6.16267 12.0661 6.664C11.6181 7.15467 11.3941 7.85867 11.3941 8.776V13H9.95406V4.52H11.3301V5.944ZM19.9046 13.096C19.1152 13.096 18.4006 12.9093 17.7606 12.536C17.1312 12.1627 16.6406 11.6507 16.2886 11C15.9366 10.3387 15.7606 9.592 15.7606 8.76C15.7606 7.928 15.9366 7.18667 16.2886 6.536C16.6406 5.87467 17.1312 5.36267 17.7606 5C18.4006 4.62667 19.1152 4.44 19.9046 4.44C20.6939 4.44 21.4032 4.62667 22.0326 5C22.6619 5.36267 23.1526 5.87467 23.5046 6.536C23.8566 7.18667 24.0326 7.928 24.0326 8.76C24.0326 9.592 23.8566 10.3387 23.5046 11C23.1526 11.6507 22.6619 12.1627 22.0326 12.536C21.4032 12.9093 20.6939 13.096 19.9046 13.096ZM19.9046 11.752C20.4166 11.752 20.8752 11.6293 21.2806 11.384C21.6859 11.128 22.0006 10.776 22.2246 10.328C22.4592 9.86933 22.5766 9.34667 22.5766 8.76C22.5766 8.17333 22.4592 7.656 22.2246 7.208C22.0006 6.74933 21.6859 6.39733 21.2806 6.152C20.8752 5.90667 20.4166 5.784 19.9046 5.784C19.3926 5.784 18.9339 5.90667 18.5286 6.152C18.1232 6.39733 17.8032 6.74933 17.5686 7.208C17.3339 7.656 17.2166 8.17333 17.2166 8.76C17.2166 9.34667 17.3339 9.86933 17.5686 10.328C17.8032 10.776 18.1232 11.128 18.5286 11.384C18.9339 11.6293 19.3926 11.752 19.9046 11.752ZM29.6478 13.096C28.8265 13.096 28.0958 12.9093 27.4558 12.536C26.8265 12.1627 26.3305 11.6507 25.9678 11C25.6051 10.3387 25.4238 9.592 25.4238 8.76C25.4238 7.928 25.6051 7.18667 25.9678 6.536C26.3305 5.87467 26.8265 5.36267 27.4558 5C28.0958 4.62667 28.8265 4.44 29.6478 4.44C30.3731 4.44 31.0131 4.59467 31.5678 4.904C32.1331 5.21333 32.5758 5.66133 32.8958 6.248L31.7918 7C31.5358 6.59467 31.2211 6.29067 30.8478 6.088C30.4851 5.88533 30.0798 5.784 29.6318 5.784C29.1091 5.784 28.6398 5.90667 28.2238 6.152C27.8078 6.39733 27.4825 6.74933 27.2478 7.208C27.0131 7.656 26.8958 8.17333 26.8958 8.76C26.8958 9.35733 27.0131 9.88533 27.2478 10.344C27.4825 10.792 27.8078 11.1387 28.2238 11.384C28.6398 11.6293 29.1091 11.752 29.6318 11.752C30.0798 11.752 30.4851 11.6507 30.8478 11.448C31.2211 11.2453 31.5358 10.9413 31.7918 10.536L32.8958 11.272C32.5865 11.8587 32.1438 12.312 31.5678 12.632C31.0025 12.9413 30.3625 13.096 29.6478 13.096ZM42.0332 8.808C42.0439 8.92533 42.0385 9.08 42.0172 9.272H35.5372C35.6225 10.0187 35.9265 10.6213 36.4492 11.08C36.9825 11.528 37.6439 11.752 38.4332 11.752C39.3825 11.752 40.1505 11.4107 40.7372 10.728L41.5212 11.72C41.1585 12.168 40.7105 12.5093 40.1772 12.744C39.6439 12.9787 39.0465 13.096 38.3852 13.096C37.5425 13.096 36.7959 12.9147 36.1452 12.552C35.4945 12.1787 34.9879 11.6613 34.6252 11C34.2732 10.3387 34.0972 9.592 34.0972 8.76C34.0972 7.93867 34.2679 7.19733 34.6092 6.536C34.9612 5.87467 35.4412 5.36267 36.0492 5C36.6572 4.62667 37.3399 4.44 38.0972 4.44C38.8545 4.44 39.5319 4.62667 40.1292 5C40.7265 5.36267 41.1905 5.87467 41.5212 6.536C41.8625 7.19733 42.0332 7.95467 42.0332 8.808ZM38.0972 5.736C37.4039 5.736 36.8225 5.96 36.3532 6.408C35.8945 6.856 35.6225 7.44267 35.5372 8.168H40.6572C40.5719 7.45333 40.2945 6.872 39.8252 6.424C39.3665 5.96533 38.7905 5.736 38.0972 5.736ZM46.8958 13.096C46.2451 13.096 45.6158 13.0053 45.0078 12.824C44.4105 12.632 43.9411 12.392 43.5998 12.104L44.2078 10.888C44.5598 11.1547 44.9865 11.368 45.4878 11.528C45.9891 11.688 46.4958 11.768 47.0078 11.768C48.2665 11.768 48.8958 11.384 48.8958 10.616C48.8958 10.36 48.8105 10.1573 48.6398 10.008C48.4691 9.85867 48.2558 9.752 47.9998 9.688C47.7438 9.61333 47.3811 9.53333 46.9118 9.448C46.2718 9.34133 45.7491 9.21867 45.3438 9.08C44.9385 8.94133 44.5865 8.70667 44.2878 8.376C43.9998 8.04533 43.8558 7.58133 43.8558 6.984C43.8558 6.216 44.1545 5.60267 44.7518 5.144C45.3598 4.67467 46.1705 4.44 47.1838 4.44C47.7171 4.44 48.2505 4.50933 48.7838 4.648C49.3171 4.78667 49.7545 4.97333 50.0958 5.208L49.4718 6.424C48.8211 5.976 48.0531 5.752 47.1678 5.752C46.5598 5.752 46.0958 5.85867 45.7758 6.072C45.4558 6.28533 45.2958 6.568 45.2958 6.92C45.2958 7.19733 45.3865 7.416 45.5678 7.576C45.7491 7.736 45.9678 7.85333 46.2238 7.928C46.4905 8.00267 46.8691 8.088 47.3598 8.184C47.9998 8.30133 48.5171 8.42933 48.9118 8.568C49.3065 8.696 49.6425 8.92 49.9198 9.24C50.2078 9.56 50.3518 10.008 50.3518 10.584C50.3518 11.352 50.0425 11.9653 49.4238 12.424C48.8051 12.872 47.9625 13.096 46.8958 13.096ZM55.0989 13.096C54.4483 13.096 53.8189 13.0053 53.2109 12.824C52.6136 12.632 52.1443 12.392 51.8029 12.104L52.4109 10.888C52.7629 11.1547 53.1896 11.368 53.6909 11.528C54.1923 11.688 54.6989 11.768 55.2109 11.768C56.4696 11.768 57.0989 11.384 57.0989 10.616C57.0989 10.36 57.0136 10.1573 56.8429 10.008C56.6723 9.85867 56.4589 9.752 56.2029 9.688C55.9469 9.61333 55.5843 9.53333 55.1149 9.448C54.4749 9.34133 53.9523 9.21867 53.5469 9.08C53.1416 8.94133 52.7896 8.70667 52.4909 8.376C52.2029 8.04533 52.0589 7.58133 52.0589 6.984C52.0589 6.216 52.3576 5.60267 52.9549 5.144C53.5629 4.67467 54.3736 4.44 55.3869 4.44C55.9203 4.44 56.4536 4.50933 56.9869 4.648C57.5203 4.78667 57.9576 4.97333 58.2989 5.208L57.6749 6.424C57.0243 5.976 56.2563 5.752 55.3709 5.752C54.7629 5.752 54.2989 5.85867 53.9789 6.072C53.6589 6.28533 53.4989 6.568 53.4989 6.92C53.4989 7.19733 53.5896 7.416 53.7709 7.576C53.9523 7.736 54.1709 7.85333 54.4269 7.928C54.6936 8.00267 55.0723 8.088 55.5629 8.184C56.2029 8.30133 56.7203 8.42933 57.1149 8.568C57.5096 8.696 57.8456 8.92 58.1229 9.24C58.4109 9.56 58.5549 10.008 58.5549 10.584C58.5549 11.352 58.2456 11.9653 57.6269 12.424C57.0083 12.872 56.1656 13.096 55.0989 13.096ZM60.4701 4.52H62.0061V13H60.4701V4.52ZM61.2381 2.888C60.9607 2.888 60.7261 2.792 60.5341 2.6C60.3527 2.408 60.2621 2.17333 60.2621 1.896C60.2621 1.61867 60.3527 1.384 60.5341 1.192C60.7261 0.989333 60.9607 0.888 61.2381 0.888C61.5154 0.888 61.7447 0.984 61.9261 1.176C62.1181 1.35733 62.2141 1.58667 62.2141 1.864C62.2141 2.152 62.1181 2.39733 61.9261 2.6C61.7447 2.792 61.5154 2.888 61.2381 2.888ZM68.9311 4.44C69.9444 4.44 70.7497 4.75467 71.3471 5.384C71.9444 6.00267 72.2431 6.91467 72.2431 8.12V13H70.8031V8.296C70.8031 7.47467 70.6164 6.856 70.2431 6.44C69.8697 6.024 69.3364 5.816 68.6431 5.816C67.8644 5.816 67.2457 6.06133 66.7871 6.552C66.3391 7.032 66.1151 7.72533 66.1151 8.632V13H64.6751V4.52H66.0671V5.8C66.3551 5.36267 66.7444 5.02667 67.2351 4.792C67.7364 4.55733 68.3017 4.44 68.9311 4.44ZM82.4876 4.52V11.848C82.4876 13.3307 82.1409 14.424 81.4476 15.128C80.7649 15.8427 79.7356 16.2 78.3596 16.2C77.6129 16.2 76.8929 16.088 76.1996 15.864C75.5169 15.6507 74.9676 15.3413 74.5516 14.936L75.2396 13.752C75.6129 14.0933 76.0716 14.36 76.6156 14.552C77.1596 14.7547 77.7249 14.856 78.3116 14.856C79.2396 14.856 79.9276 14.6213 80.3756 14.152C80.8236 13.6827 81.0476 12.968 81.0476 12.008V11.336C80.7062 11.7733 80.2849 12.104 79.7836 12.328C79.2929 12.5413 78.7596 12.648 78.1836 12.648C77.4262 12.648 76.7329 12.4773 76.1036 12.136C75.4849 11.784 74.9996 11.2987 74.6476 10.68C74.3062 10.0507 74.1356 9.336 74.1356 8.536C74.1356 7.736 74.3062 7.02667 74.6476 6.408C74.9996 5.77867 75.4849 5.29333 76.1036 4.952C76.7222 4.61067 77.4156 4.44 78.1836 4.44C78.7809 4.44 79.3356 4.55733 79.8476 4.792C80.3702 5.02667 80.7969 5.37333 81.1276 5.832V4.52H82.4876ZM78.3436 11.304C78.8662 11.304 79.3356 11.1867 79.7516 10.952C80.1676 10.7173 80.4929 10.392 80.7276 9.976C80.9622 9.54933 81.0796 9.06933 81.0796 8.536C81.0796 7.71467 80.8236 7.05333 80.3116 6.552C79.7996 6.04 79.1436 5.784 78.3436 5.784C77.5329 5.784 76.8716 6.04 76.3596 6.552C75.8476 7.05333 75.5916 7.71467 75.5916 8.536C75.5916 9.06933 75.7089 9.54933 75.9436 9.976C76.1782 10.392 76.5036 10.7173 76.9196 10.952C77.3356 11.1867 77.8102 11.304 78.3436 11.304ZM85.6443 13.096C85.3456 13.096 85.0896 12.9947 84.8763 12.792C84.663 12.5787 84.5563 12.312 84.5563 11.992C84.5563 11.6827 84.663 11.4267 84.8763 11.224C85.0896 11.0107 85.3456 10.904 85.6443 10.904C85.943 10.904 86.1936 11.0053 86.3963 11.208C86.599 11.4107 86.7003 11.672 86.7003 11.992C86.7003 12.312 86.5936 12.5787 86.3803 12.792C86.1776 12.9947 85.9323 13.096 85.6443 13.096ZM89.7693 13.096C89.4706 13.096 89.2146 12.9947 89.0013 12.792C88.788 12.5787 88.6813 12.312 88.6813 11.992C88.6813 11.6827 88.788 11.4267 89.0013 11.224C89.2146 11.0107 89.4706 10.904 89.7693 10.904C90.068 10.904 90.3186 11.0053 90.5213 11.208C90.724 11.4107 90.8253 11.672 90.8253 11.992C90.8253 12.312 90.7186 12.5787 90.5053 12.792C90.3026 12.9947 90.0573 13.096 89.7693 13.096ZM93.8943 13.096C93.5956 13.096 93.3396 12.9947 93.1263 12.792C92.913 12.5787 92.8063 12.312 92.8063 11.992C92.8063 11.6827 92.913 11.4267 93.1263 11.224C93.3396 11.0107 93.5956 10.904 93.8943 10.904C94.193 10.904 94.4436 11.0053 94.6463 11.208C94.849 11.4107 94.9503 11.672 94.9503 11.992C94.9503 12.312 94.8436 12.5787 94.6303 12.792C94.4276 12.9947 94.1823 13.096 93.8943 13.096Z" fill="url(#paint0_radial_5885_4813)"/>
<defs>
<radialGradient id="paint0_radial_5885_4813" cx="0" cy="0" r="1" gradientUnits="userSpaceOnUse" gradientTransform="translate(47.5 7) rotate(90) scale(12 48.5)">
<stop stop-color="#5C8DFF"/>
<stop offset="1" stop-color="#855EE1"/>
</radialGradient>
</defs>
</svg>
