<svg width="124" height="14" viewBox="0 0 124 14" fill="none" xmlns="http://www.w3.org/2000/svg">
<path d="M3.452 1.2C4.25467 1.2 4.95 1.34 5.538 1.62C6.13533 1.9 6.588 2.30133 6.896 2.824C7.21333 3.34667 7.372 3.96733 7.372 4.686C7.372 5.39533 7.21333 6.016 6.896 6.548C6.588 7.07067 6.13533 7.472 5.538 7.752C4.95 8.032 4.25467 8.172 3.452 8.172H2.248V11H0.54V1.2H3.452ZM3.382 6.632C4.12867 6.632 4.69333 6.464 5.076 6.128C5.45867 5.792 5.65 5.31133 5.65 4.686C5.65 4.06067 5.45867 3.58 5.076 3.244C4.69333 2.908 4.12867 2.74 3.382 2.74H2.248V6.632H3.382ZM11.6297 3.44C12.6657 3.44 13.4543 3.706 13.9957 4.238C14.5463 4.76067 14.8217 5.554 14.8217 6.618V11H13.2677V10.09C13.0623 10.4167 12.773 10.6687 12.3997 10.846C12.0357 11.014 11.5877 11.098 11.0557 11.098C10.533 11.098 10.071 11.0047 9.66967 10.818C9.27767 10.622 8.97434 10.356 8.75967 10.02C8.54501 9.67467 8.43767 9.28733 8.43767 8.858C8.43767 8.186 8.67101 7.64933 9.13767 7.248C9.61367 6.83733 10.3557 6.632 11.3637 6.632H13.1837V6.52C13.1837 5.99733 13.0343 5.596 12.7357 5.316C12.4463 5.036 12.0123 4.896 11.4337 4.896C11.0417 4.896 10.6543 4.96133 10.2717 5.092C9.88901 5.22267 9.56234 5.40467 9.29167 5.638L8.64767 4.364C9.01167 4.06533 9.45501 3.83667 9.97767 3.678C10.5003 3.51933 11.051 3.44 11.6297 3.44ZM11.4057 9.824C11.8163 9.824 12.1803 9.726 12.4977 9.53C12.8243 9.32467 13.053 9.03533 13.1837 8.662V7.794H11.4757C10.533 7.794 10.0617 8.12067 10.0617 8.774C10.0617 8.774 10.0617 8.77867 10.0617 8.788C10.0617 9.10533 10.1783 9.35733 10.4117 9.544C10.6543 9.73067 10.9857 9.824 11.4057 9.824ZM23.4693 3.524L20.1793 11.602C19.8713 12.414 19.498 12.9833 19.0593 13.31C18.6207 13.646 18.0887 13.814 17.4633 13.814C17.1087 13.814 16.7633 13.7533 16.4273 13.632C16.0913 13.5107 15.8113 13.3427 15.5873 13.128L16.2453 11.84C16.404 11.9987 16.5907 12.1247 16.8053 12.218C17.02 12.3113 17.2393 12.358 17.4633 12.358C17.7527 12.358 17.9907 12.2787 18.1773 12.12C18.364 11.9613 18.5367 11.6953 18.6953 11.322L18.8073 11.028L15.7413 3.524C15.7507 3.524 16.3247 3.524 17.4633 3.524L19.6613 9.054L21.8873 3.524H23.4693ZM24.6609 3.524H26.4109V11H24.6609V3.524ZM25.5429 2.292C25.2442 2.292 24.9922 2.194 24.7869 1.998C24.5909 1.79267 24.4929 1.54067 24.4929 1.242C24.4929 0.943333 24.5909 0.695999 24.7869 0.499999C24.9922 0.294666 25.2442 0.192 25.5429 0.192C25.8416 0.192 26.0889 0.29 26.2849 0.485999C26.4902 0.672666 26.5929 0.910666 26.5929 1.2C26.5929 1.508 26.4949 1.76933 26.2989 1.984C26.1029 2.18933 25.8509 2.292 25.5429 2.292ZM32.7278 3.44C33.6144 3.44 34.3238 3.71533 34.8558 4.266C35.3971 4.81667 35.6678 5.63333 35.6678 6.716V11H34.0158V6.94C34.0158 6.28667 33.8711 5.79667 33.5818 5.47C33.2924 5.134 32.8818 4.966 32.3498 4.966C31.7431 4.966 31.2624 5.162 30.9078 5.554C30.5624 5.93667 30.3898 6.492 30.3898 7.22V11H28.7378V3.524H30.3058V4.49C30.5764 4.14467 30.9171 3.88333 31.3278 3.706C31.7384 3.52867 32.2051 3.44 32.7278 3.44ZM44.6418 3.524V9.866C44.6418 12.498 43.3818 13.814 40.8618 13.814C40.1898 13.814 39.5458 13.7207 38.9298 13.534C38.3231 13.3567 37.8238 13.0953 37.4318 12.75L38.1738 11.434C38.4818 11.7047 38.8691 11.9193 39.3358 12.078C39.8025 12.246 40.2785 12.33 40.7638 12.33C41.5385 12.33 42.1031 12.1433 42.4578 11.77C42.8218 11.3967 43.0038 10.8273 43.0038 10.062V9.67C42.7238 9.99667 42.3785 10.244 41.9678 10.412C41.5665 10.58 41.1278 10.664 40.6518 10.664C39.9891 10.664 39.3825 10.5147 38.8318 10.216C38.2905 9.908 37.8658 9.47867 37.5578 8.928C37.2498 8.37733 37.0958 7.74733 37.0958 7.038C37.0958 6.32867 37.2498 5.70333 37.5578 5.162C37.8658 4.61133 38.2905 4.18667 38.8318 3.888C39.3731 3.58933 39.9798 3.44 40.6518 3.44C41.1651 3.44 41.6271 3.52867 42.0378 3.706C42.4485 3.88333 42.7938 4.154 43.0738 4.518V3.524H44.6418ZM40.8898 9.18C41.5151 9.18 42.0285 8.984 42.4298 8.592C42.8311 8.19067 43.0318 7.67267 43.0318 7.038C43.0318 6.41267 42.8311 5.904 42.4298 5.512C42.0285 5.12 41.5151 4.924 40.8898 4.924C40.2551 4.924 39.7371 5.12 39.3358 5.512C38.9438 5.904 38.7478 6.41267 38.7478 7.038C38.7478 7.67267 38.9485 8.19067 39.3498 8.592C39.7511 8.984 40.2645 9.18 40.8898 9.18ZM53.5598 3.44C54.5958 3.44 55.3844 3.706 55.9258 4.238C56.4764 4.76067 56.7518 5.554 56.7518 6.618V11H55.1978V10.09C54.9924 10.4167 54.7031 10.6687 54.3298 10.846C53.9658 11.014 53.5178 11.098 52.9858 11.098C52.4631 11.098 52.0011 11.0047 51.5998 10.818C51.2078 10.622 50.9044 10.356 50.6898 10.02C50.4751 9.67467 50.3678 9.28733 50.3678 8.858C50.3678 8.186 50.6011 7.64933 51.0678 7.248C51.5438 6.83733 52.2858 6.632 53.2938 6.632H55.1138V6.52C55.1138 5.99733 54.9644 5.596 54.6658 5.316C54.3764 5.036 53.9424 4.896 53.3638 4.896C52.9718 4.896 52.5844 4.96133 52.2018 5.092C51.8191 5.22267 51.4924 5.40467 51.2218 5.638L50.5778 4.364C50.9418 4.06533 51.3851 3.83667 51.9078 3.678C52.4304 3.51933 52.9811 3.44 53.5598 3.44ZM53.3358 9.824C53.7464 9.824 54.1104 9.726 54.4278 9.53C54.7544 9.32467 54.9831 9.03533 55.1138 8.662V7.794H53.4058C52.4631 7.794 51.9918 8.12067 51.9918 8.774C51.9918 8.774 51.9918 8.77867 51.9918 8.788C51.9918 9.10533 52.1084 9.35733 52.3418 9.544C52.5844 9.73067 52.9158 9.824 53.3358 9.824ZM63.1841 10.594C62.9881 10.762 62.7501 10.888 62.4701 10.972C62.1995 11.056 61.9101 11.098 61.6021 11.098C60.8275 11.098 60.2301 10.8833 59.8101 10.454C59.3901 10.0247 59.1801 9.39933 59.1801 8.578V4.98H58.0181V3.58H59.1801V1.872H60.8321V3.58H62.7081V4.98H60.8321V8.536C60.8321 8.9 60.9115 9.18 61.0701 9.376C61.2381 9.56267 61.4808 9.656 61.7981 9.656C62.1621 9.656 62.4701 9.55333 62.7221 9.348L63.1841 10.594ZM68.6845 10.594C68.4885 10.762 68.2505 10.888 67.9705 10.972C67.6999 11.056 67.4105 11.098 67.1025 11.098C66.3279 11.098 65.7305 10.8833 65.3105 10.454C64.8905 10.0247 64.6805 9.39933 64.6805 8.578V4.98H63.5185V3.58H64.6805V1.872H66.3325V3.58H68.2085V4.98H66.3325V8.536C66.3325 8.9 66.4119 9.18 66.5705 9.376C66.7385 9.56267 66.9812 9.656 67.2985 9.656C67.6625 9.656 67.9705 9.55333 68.2225 9.348L68.6845 10.594ZM76.4965 7.304C76.4965 7.42533 76.4872 7.598 76.4685 7.822H70.9525C71.0459 8.37267 71.2979 8.81133 71.7085 9.138C72.1192 9.45533 72.6279 9.614 73.2345 9.614C74.0092 9.614 74.6439 9.34333 75.1385 8.802L76.0205 9.88C75.7032 10.2813 75.3019 10.5847 74.8165 10.79C74.3405 10.9953 73.7992 11.098 73.1925 11.098C72.4179 11.098 71.7365 10.9347 71.1485 10.608C70.5605 10.2813 70.1079 9.82867 69.7905 9.25C69.4732 8.662 69.3145 7.99933 69.3145 7.262C69.3145 6.534 69.4685 5.88067 69.7765 5.302C70.0845 4.714 70.5139 4.25667 71.0645 3.93C71.6245 3.60333 72.2499 3.44 72.9405 3.44C73.6219 3.44 74.2332 3.60333 74.7745 3.93C75.3159 4.24733 75.7359 4.7 76.0345 5.288C76.3425 5.86667 76.4965 6.53867 76.4965 7.304ZM72.9405 4.84C72.4179 4.84 71.9745 5.008 71.6105 5.344C71.2465 5.67067 71.0225 6.10933 70.9385 6.66H74.9285C74.8539 6.11867 74.6345 5.68 74.2705 5.344C73.9159 5.008 73.4725 4.84 72.9405 4.84ZM82.1543 3.44C83.041 3.44 83.7503 3.71533 84.2823 4.266C84.8237 4.81667 85.0943 5.63333 85.0943 6.716V11H83.4423V6.94C83.4423 6.28667 83.2977 5.79667 83.0083 5.47C82.719 5.134 82.3083 4.966 81.7763 4.966C81.1697 4.966 80.689 5.162 80.3343 5.554C79.989 5.93667 79.8163 6.492 79.8163 7.22V11H78.1643V3.524H79.7323V4.49C80.003 4.14467 80.3437 3.88333 80.7543 3.706C81.165 3.52867 81.6317 3.44 82.1543 3.44ZM91.4884 10.594C91.2924 10.762 91.0544 10.888 90.7744 10.972C90.5038 11.056 90.2144 11.098 89.9064 11.098C89.1318 11.098 88.5344 10.8833 88.1144 10.454C87.6944 10.0247 87.4844 9.39933 87.4844 8.578V4.98H86.3224V3.58H87.4844V1.872H89.1364V3.58H91.0124V4.98H89.1364V8.536C89.1364 8.9 89.2158 9.18 89.3744 9.376C89.5424 9.56267 89.7851 9.656 90.1024 9.656C90.4664 9.656 90.7744 9.55333 91.0264 9.348L91.4884 10.594ZM93.0085 3.524H94.7586V11H93.0085V3.524ZM93.8906 2.292C93.5919 2.292 93.3399 2.194 93.1346 1.998C92.9385 1.79267 92.8405 1.54067 92.8405 1.242C92.8405 0.943333 92.9385 0.695999 93.1346 0.499999C93.3399 0.294666 93.5919 0.192 93.8906 0.192C94.1892 0.192 94.4366 0.29 94.6326 0.485999C94.8379 0.672666 94.9406 0.910666 94.9406 1.2C94.9406 1.508 94.8426 1.76933 94.6466 1.984C94.4506 2.18933 94.1986 2.292 93.8906 2.292ZM100.085 11.098C99.376 11.098 98.732 10.9347 98.1534 10.608C97.584 10.2813 97.1407 9.82867 96.8234 9.25C96.506 8.662 96.3474 7.99933 96.3474 7.262C96.3474 6.52467 96.506 5.86667 96.8234 5.288C97.1407 4.70933 97.584 4.25667 98.1534 3.93C98.732 3.60333 99.376 3.44 100.085 3.44C100.804 3.44 101.448 3.60333 102.017 3.93C102.587 4.25667 103.03 4.70933 103.347 5.288C103.674 5.86667 103.837 6.52467 103.837 7.262C103.837 7.99933 103.674 8.662 103.347 9.25C103.03 9.82867 102.587 10.2813 102.017 10.608C101.448 10.9347 100.804 11.098 100.085 11.098ZM100.085 9.6C100.692 9.6 101.191 9.38533 101.583 8.956C101.975 8.52667 102.171 7.962 102.171 7.262C102.171 6.562 101.975 5.99733 101.583 5.568C101.191 5.13867 100.692 4.924 100.085 4.924C99.4787 4.924 98.9794 5.13867 98.5874 5.568C98.1954 5.99733 97.9994 6.562 97.9994 7.262C97.9994 7.962 98.1954 8.52667 98.5874 8.956C98.9794 9.38533 99.4787 9.6 100.085 9.6ZM109.338 3.44C110.224 3.44 110.934 3.71533 111.466 4.266C112.007 4.81667 112.278 5.63333 112.278 6.716V11H110.626V6.94C110.626 6.28667 110.481 5.79667 110.192 5.47C109.902 5.134 109.492 4.966 108.96 4.966C108.353 4.966 107.872 5.162 107.518 5.554C107.172 5.93667 107 6.492 107 7.22V11H105.348V3.524H106.916V4.49C107.186 4.14467 107.527 3.88333 107.938 3.706C108.348 3.52867 108.815 3.44 109.338 3.44ZM115.074 11.098C114.756 11.098 114.486 10.9907 114.262 10.776C114.038 10.552 113.926 10.272 113.926 9.936C113.926 9.59067 114.033 9.31067 114.248 9.096C114.472 8.88133 114.747 8.774 115.074 8.774C115.4 8.774 115.671 8.88133 115.886 9.096C116.11 9.31067 116.222 9.59067 116.222 9.936C116.222 10.272 116.11 10.552 115.886 10.776C115.662 10.9907 115.391 11.098 115.074 11.098ZM118.592 11.098C118.274 11.098 118.004 10.9907 117.78 10.776C117.556 10.552 117.444 10.272 117.444 9.936C117.444 9.59067 117.551 9.31067 117.766 9.096C117.99 8.88133 118.265 8.774 118.592 8.774C118.918 8.774 119.189 8.88133 119.404 9.096C119.628 9.31067 119.74 9.59067 119.74 9.936C119.74 10.272 119.628 10.552 119.404 10.776C119.18 10.9907 118.909 11.098 118.592 11.098ZM122.11 11.098C121.792 11.098 121.522 10.9907 121.298 10.776C121.074 10.552 120.962 10.272 120.962 9.936C120.962 9.59067 121.069 9.31067 121.284 9.096C121.508 8.88133 121.783 8.774 122.11 8.774C122.436 8.774 122.707 8.88133 122.922 9.096C123.146 9.31067 123.258 9.59067 123.258 9.936C123.258 10.272 123.146 10.552 122.922 10.776C122.698 10.9907 122.427 11.098 122.11 11.098Z" fill="url(#paint0_radial_5501_1643)"/>
<defs>
<radialGradient id="paint0_radial_5501_1643" cx="0" cy="0" r="1" gradientUnits="userSpaceOnUse" gradientTransform="translate(61.5 6) rotate(90) scale(10 62.5)">
<stop stop-color="#5C8DFF"/>
<stop offset="1" stop-color="#855EE1"/>
</radialGradient>
</defs>
</svg>
