<svg width="35" height="35" viewBox="0 0 35 35" fill="none" xmlns="http://www.w3.org/2000/svg">
<g clip-path="url(#clip0_2153_20822)">
<path d="M0.714844 17.7161C0.714844 8.34707 8.30996 0.751953 17.679 0.751953V0.751953C27.0481 0.751953 34.6432 8.34707 34.6432 17.7161V17.7161C34.6432 27.0852 27.0481 34.6803 17.679 34.6803V34.6803C8.30996 34.6803 0.714844 27.0852 0.714844 17.7161V17.7161Z" fill="white" fill-opacity="0.6"/>
<path fill-rule="evenodd" clip-rule="evenodd" d="M16.6128 19.6795L13.1421 16.2088L14.2084 15.1426L17.679 18.6133L21.1497 15.1426L22.216 16.2089L18.7453 19.6795C18.1564 20.2684 17.2017 20.2684 16.6128 19.6795Z" fill="#0E131E"/>
</g>
<defs>
<clipPath id="clip0_2153_20822">
<path d="M0.714844 17.7161C0.714844 8.34707 8.30996 0.751953 17.679 0.751953V0.751953C27.0481 0.751953 34.6432 8.34707 34.6432 17.7161V17.7161C34.6432 27.0852 27.0481 34.6803 17.679 34.6803V34.6803C8.30996 34.6803 0.714844 27.0852 0.714844 17.7161V17.7161Z" fill="white"/>
</clipPath>
</defs>
</svg>
