<svg width="22" height="23" viewBox="0 0 22 23" fill="none" xmlns="http://www.w3.org/2000/svg">
<rect y="0.644531" width="21.8614" height="21.8614" rx="3.64356" fill="#FFD1B2"/>
<path d="M14.121 14.9612V16.6445H7.78297V15.3055L11.0221 12.0536C11.3622 11.7051 11.5917 11.4075 11.7107 11.161C11.8298 10.9059 11.8893 10.6551 11.8893 10.4086C11.8893 10.0515 11.7745 9.77945 11.545 9.59241C11.3239 9.39687 10.9923 9.29911 10.5503 9.29911C10.1847 9.29911 9.85313 9.37562 9.55557 9.52865C9.25801 9.67318 9.01146 9.89422 8.81592 10.1918L7.4004 9.22259C7.73196 8.70399 8.18255 8.30016 8.75216 8.01111C9.33027 7.71355 9.98915 7.56477 10.7288 7.56477C11.3494 7.56477 11.8935 7.67529 12.3611 7.89633C12.8287 8.10887 13.1943 8.41493 13.4578 8.81451C13.7214 9.20559 13.8532 9.66893 13.8532 10.2045C13.8532 10.6891 13.7554 11.144 13.5598 11.569C13.3643 11.9941 12.9945 12.4787 12.4504 13.0228L10.512 14.9612H14.121Z" fill="#161C27"/>
</svg>
