<svg width="48" height="48" viewBox="0 0 48 48" fill="none" xmlns="http://www.w3.org/2000/svg">
<path d="M22.1218 19.5832C22.324 18.9038 22.4696 18.2042 22.5549 17.491C24.6532 17.793 26.8289 17.397 28.724 16.3028L29.1808 16.0391C31.2215 14.8609 33.831 15.5601 35.0092 17.6008C36.1874 19.6416 35.4882 22.251 33.4475 23.4292L32.9907 23.6929C32.8212 23.7908 32.6555 23.8934 32.4935 24.0005C31.8716 23.5892 31.3064 23.1113 30.8051 22.5794C31.1613 22.3155 31.5347 22.0702 31.9241 21.8454L32.3808 21.5817C33.4012 20.9926 33.7508 19.6879 33.1617 18.6675C32.5726 17.6472 31.2678 17.2976 30.2475 17.8867L29.7907 18.1504C27.4356 19.5101 24.726 19.9877 22.1218 19.5832Z" fill="url(#paint0_linear_6957_5191)"/>
<path d="M21.7788 31.4773C21.0471 31.6611 20.3337 31.9405 19.6574 32.3155V32.5342C19.6574 34.8906 21.5676 36.8009 23.9241 36.8009C26.2805 36.8009 28.1907 34.8906 28.1907 32.5342V32.0068C28.1907 29.7999 28.9483 27.701 30.2798 26.0279C29.7048 25.5976 29.1719 25.1217 28.685 24.6068C27.0115 26.6665 26.0574 29.2687 26.0574 32.0068V32.5342C26.0574 33.7124 25.1023 34.6675 23.9241 34.6675C22.7459 34.6675 21.7907 33.7124 21.7907 32.5342V32.0068C21.7907 31.8297 21.7867 31.6531 21.7788 31.4773Z" fill="url(#paint1_linear_6957_5191)"/>
<path d="M19.6396 16.5799C19.4656 16.4932 19.2937 16.4008 19.124 16.3028L18.6673 16.0392C16.6266 14.8609 14.0171 15.5601 12.8389 17.6009C11.6607 19.6416 12.3599 22.251 14.4006 23.4292L14.8574 23.6929C17.0069 24.9339 18.5591 26.9366 19.2528 29.2484C19.9113 28.9625 20.5899 28.7398 21.2795 28.5803C20.4236 25.778 18.5341 23.3523 15.9241 21.8454L15.4673 21.5817C14.447 20.9926 14.0974 19.6879 14.6865 18.6675C15.2756 17.6472 16.5803 17.2976 17.6006 17.8867L18.0574 18.1504C18.4468 18.3752 18.846 18.576 19.2528 18.7526C19.4628 18.0525 19.5942 17.3241 19.6396 16.5799Z" fill="url(#paint2_linear_6957_5191)"/>
<path d="M18.6351 23.9996C18.1521 23.4821 17.62 23.0058 17.0431 22.5785C18.6988 20.8217 19.6574 18.4757 19.6574 15.9933V15.4659C19.6574 13.1095 21.5677 11.1992 23.9241 11.1992C26.2805 11.1992 28.1907 13.1095 28.1907 15.4659V15.9933C28.1907 16.1895 28.1967 16.3848 28.2086 16.579C27.5414 16.9119 26.845 17.1624 26.1337 17.3306C26.0832 16.8897 26.0574 16.4433 26.0574 15.9933V15.4659C26.0574 14.2877 25.1023 13.3326 23.9241 13.3326C22.7459 13.3326 21.7907 14.2877 21.7907 15.4659V15.9933C21.7907 19.0075 20.6344 21.8571 18.6351 23.9996Z" fill="url(#paint3_linear_6957_5191)"/>
<path d="M18.6673 31.9609C16.6266 33.1391 14.0171 32.4399 12.8389 30.3992C11.6607 28.3585 12.3599 25.7491 14.4006 24.5709L14.5888 24.4622C15.2517 24.8604 15.8505 25.3385 16.3756 25.8803C16.2276 25.9748 16.0771 26.0663 15.9241 26.1547L15.4673 26.4184C14.447 27.0075 14.0974 28.3122 14.6865 29.3326C15.2756 30.3529 16.5803 30.7025 17.6006 30.1134L18.0574 29.8497C20.6677 28.3426 23.7136 27.9192 26.5686 28.5794C26.3618 29.2564 26.2154 29.9553 26.1337 30.6686C23.7845 30.1132 21.2738 30.4561 19.1241 31.6972L18.6673 31.9609Z" fill="url(#paint4_linear_6957_5191)"/>
<path d="M29.0449 31.8824L29.1808 31.9609C31.2215 33.1391 33.831 32.4399 35.0092 30.3992C36.1874 28.3585 35.4882 25.749 33.4475 24.5708L32.9907 24.3071C31.0799 23.2039 29.6411 21.4988 28.8578 19.5097C28.1977 19.7925 27.5191 20.016 26.8297 20.1803C27.7769 22.6589 29.5532 24.7858 31.9241 26.1546L32.3808 26.4184C33.4012 27.0075 33.7508 28.3122 33.1617 29.3325C32.5726 30.3529 31.2678 30.7025 30.2475 30.1134L29.7908 29.8497C29.6534 29.7704 29.5149 29.6941 29.3753 29.6208C29.1691 30.348 29.0558 31.1075 29.0449 31.8824Z" fill="url(#paint5_linear_6957_5191)"/>
<defs>
<linearGradient id="paint0_linear_6957_5191" x1="23.9241" y1="15.4668" x2="23.9241" y2="36.8009" gradientUnits="userSpaceOnUse">
<stop stop-color="#EB6296"/>
<stop offset="1" stop-color="#FF7257"/>
</linearGradient>
<linearGradient id="paint1_linear_6957_5191" x1="23.9241" y1="15.4668" x2="23.9241" y2="36.8009" gradientUnits="userSpaceOnUse">
<stop stop-color="#EB6296"/>
<stop offset="1" stop-color="#FF7257"/>
</linearGradient>
<linearGradient id="paint2_linear_6957_5191" x1="23.9241" y1="15.4668" x2="23.9241" y2="36.8009" gradientUnits="userSpaceOnUse">
<stop stop-color="#EB6296"/>
<stop offset="1" stop-color="#FF7257"/>
</linearGradient>
<linearGradient id="paint3_linear_6957_5191" x1="23.9241" y1="11.1992" x2="23.9241" y2="32.5333" gradientUnits="userSpaceOnUse">
<stop stop-color="#5C8DFF"/>
<stop offset="0.5" stop-color="#A079FF"/>
<stop offset="1" stop-color="#D06AD6"/>
</linearGradient>
<linearGradient id="paint4_linear_6957_5191" x1="23.9241" y1="11.1992" x2="23.9241" y2="32.5333" gradientUnits="userSpaceOnUse">
<stop stop-color="#5C8DFF"/>
<stop offset="0.5" stop-color="#A079FF"/>
<stop offset="1" stop-color="#D06AD6"/>
</linearGradient>
<linearGradient id="paint5_linear_6957_5191" x1="23.9241" y1="11.1992" x2="23.9241" y2="32.5333" gradientUnits="userSpaceOnUse">
<stop stop-color="#5C8DFF"/>
<stop offset="0.5" stop-color="#A079FF"/>
<stop offset="1" stop-color="#D06AD6"/>
</linearGradient>
</defs>
</svg>
