<svg width="40" height="40" viewBox="0 0 40 40" fill="none" xmlns="http://www.w3.org/2000/svg">
<g clip-path="url(#clip0_148_22778)">
<path d="M0 20C0 8.95431 8.95431 0 20 0C31.0457 0 40 8.95431 40 20C40 31.0457 31.0457 40 20 40C8.95431 40 0 31.0457 0 20Z" fill="#DE3730"/>
<path fill-rule="evenodd" clip-rule="evenodd" d="M25 14.9961H15L15 24.9961H25V14.9961ZM15 12.9961C13.8954 12.9961 13 13.8915 13 14.9961V24.9961C13 26.1007 13.8954 26.9961 15 26.9961H25C26.1046 26.9961 27 26.1007 27 24.9961V14.9961C27 13.8915 26.1046 12.9961 25 12.9961H15Z" fill="white"/>
</g>
<defs>
<clipPath id="clip0_148_22778">
<path d="M0 20C0 8.95431 8.95431 0 20 0C31.0457 0 40 8.95431 40 20C40 31.0457 31.0457 40 20 40C8.95431 40 0 31.0457 0 20Z" fill="white"/>
</clipPath>
</defs>
</svg>
