<svg width="48" height="48" viewBox="0 0 48 48" fill="none" xmlns="http://www.w3.org/2000/svg">
<g clip-path="url(#clip0_5753_88046)">
<path d="M0 24C0 10.7452 10.7452 0 24 0C37.2548 0 48 10.7452 48 24C48 37.2548 37.2548 48 24 48C10.7452 48 0 37.2548 0 24Z" fill="white"/>
<path fill-rule="evenodd" clip-rule="evenodd" d="M14.8078 14.8076L33.1925 33.1924L31.7783 34.6066L24.9996 27.8276L25.0002 31.5178C25.0002 32.07 24.5524 32.5178 24.0002 32.5178C23.7862 32.5178 23.5779 32.4492 23.4059 32.322L18.2332 28.4992L16.0002 28.5C14.8956 28.5 14.0002 27.6046 14.0002 26.5V21.5C14.0002 20.3954 14.8956 19.5 16.0002 19.5L16.6716 19.4996L13.3936 16.2218L14.8078 14.8076ZM31.3349 16.8029C34.4691 20.4345 34.8373 25.6223 32.4487 29.6194L30.9796 28.1502C32.6533 24.9479 32.2692 20.9466 29.8208 18.1096L31.3349 16.8029ZM18.6706 21.4986L16.0002 21.5V26.5L18.8917 26.499L23.0002 29.5352L22.9996 25.8276L18.6706 21.4986ZM28.2428 19.7396C30.0932 21.59 30.4823 24.3484 29.4101 26.5806L27.8606 25.0321C28.2232 23.694 27.8792 22.2044 26.8286 21.1538L28.2428 19.7396ZM24.8044 15.888C24.9316 16.06 25.0002 16.2683 25.0002 16.4823V22.1722L23.0002 20.1722V18.4632L22.0172 19.1892L20.5872 17.7592L23.4059 15.678C23.8501 15.3498 24.4762 15.4438 24.8044 15.888Z" fill="#161C27"/>
</g>
<defs>
<clipPath id="clip0_5753_88046">
<path d="M0 24C0 10.7452 10.7452 0 24 0C37.2548 0 48 10.7452 48 24C48 37.2548 37.2548 48 24 48C10.7452 48 0 37.2548 0 24Z" fill="white"/>
</clipPath>
</defs>
</svg>
