<svg width="134" height="36" viewBox="0 0 134 36" fill="none" xmlns="http://www.w3.org/2000/svg">
<rect x="2" y="2" width="130" height="32" rx="16" fill="#EBF1FF"/>
<g clip-path="url(#clip0_5753_92820)">
<path fill-rule="evenodd" clip-rule="evenodd" d="M21.75 14.25V17.25H20.25V14.25C20.25 12.5931 21.5931 11.25 23.25 11.25H26.25V12.75H23.25C22.4216 12.75 21.75 13.4216 21.75 14.25ZM20.25 18.75H21.75V21.75C21.75 22.5784 22.4216 23.25 23.25 23.25H24.75V24.75H23.25C21.5931 24.75 20.25 23.4069 20.25 21.75V18.75ZM33.75 17.25H32.25V14.25C32.25 13.4216 31.5784 12.75 30.75 12.75H27.75V11.25H30.75C32.4069 11.25 33.75 12.5931 33.75 14.25V17.25ZM30.75 17.25H23.25V15.75H30.75V17.25ZM26.25 20.25H23.25V18.75H26.25V20.25ZM29.7336 22.9693C29.9995 23.0862 30.2118 23.2985 30.3287 23.5644L31.0712 25.2535C31.1728 25.4845 31.5006 25.4845 31.6022 25.2535L32.3447 23.5644C32.4615 23.2985 32.6739 23.0862 32.9398 22.9693L34.6288 22.2268C34.8599 22.1252 34.8599 21.7974 34.6288 21.6958L32.9398 20.9533C32.6739 20.8364 32.4615 20.6241 32.3447 20.3582L31.6022 18.6691C31.5006 18.4381 31.1728 18.4381 31.0712 18.6691L30.3287 20.3582C30.2118 20.6241 29.9995 20.8364 29.7336 20.9533L28.0445 21.6958C27.8135 21.7974 27.8135 22.1252 28.0445 22.2268L29.7336 22.9693Z" fill="#161C27"/>
<path d="M30.75 12.75H29.25V11.25H30.75C32.4069 11.25 33.75 12.5931 33.75 14.25V15.75H32.25V14.25C32.25 13.4216 31.5784 12.75 30.75 12.75Z" fill="#161C27"/>
<path d="M24.75 12.75V11.25H23.25C21.5931 11.25 20.25 12.5931 20.25 14.25V15.75H21.75V14.25C21.75 13.4216 22.4216 12.75 23.25 12.75H24.75Z" fill="#161C27"/>
<path d="M23.25 24.75H24.75V23.25H23.25C22.4216 23.25 21.75 22.5784 21.75 21.75V20.25H20.25V21.75C20.25 23.4069 21.5931 24.75 23.25 24.75Z" fill="#161C27"/>
<path d="M23.25 17.25H30.75V15.75H23.25V17.25Z" fill="#161C27"/>
<path d="M23.25 20.25H26.25V18.75H23.25V20.25Z" fill="#161C27"/>
<path d="M34.5 22.5C34.5 22.7265 34.3621 22.9302 34.1518 23.0143L32.9234 23.5056C32.7329 23.5819 32.5819 23.7329 32.5056 23.9234L32.0143 25.1518C31.9302 25.3621 31.7265 25.5 31.5 25.5C31.2735 25.5 31.0698 25.3621 30.9857 25.1518L30.4944 23.9234C30.4181 23.7329 30.2671 23.5819 30.0766 23.5056L28.8482 23.0143C28.6379 22.9302 28.5 22.7265 28.5 22.5C28.5 22.2735 28.6379 22.0698 28.8482 21.9857L30.0766 21.4944C30.2671 21.4181 30.4181 21.2671 30.4944 21.0766L30.9857 19.8482C31.0698 19.6379 31.2735 19.5 31.5 19.5C31.7265 19.5 31.9302 19.6379 32.0143 19.8482L32.5056 21.0766C32.5819 21.2671 32.7329 21.4181 32.9234 21.4944L34.1518 21.9857C34.3621 22.0698 34.5 22.2735 34.5 22.5Z" fill="#161C27"/>
<path d="M47.7214 22.144C47.0974 22.144 46.4934 22.056 45.9094 21.88C45.3254 21.696 44.8574 21.46 44.5054 21.172L45.1294 19.708C45.4654 19.972 45.8654 20.184 46.3294 20.344C46.8014 20.504 47.2694 20.584 47.7334 20.584C48.2534 20.584 48.6374 20.504 48.8854 20.344C49.1334 20.176 49.2574 19.956 49.2574 19.684C49.2574 19.484 49.1814 19.32 49.0294 19.192C48.8854 19.056 48.6974 18.948 48.4654 18.868C48.2414 18.788 47.9334 18.7 47.5414 18.604C46.9414 18.452 46.4494 18.3 46.0654 18.148C45.6814 17.996 45.3494 17.752 45.0694 17.416C44.7974 17.08 44.6614 16.632 44.6614 16.072C44.6614 15.584 44.7854 15.144 45.0334 14.752C45.2894 14.352 45.6654 14.036 46.1614 13.804C46.6654 13.572 47.2774 13.456 47.9974 13.456C48.5014 13.456 48.9934 13.52 49.4734 13.648C49.9534 13.776 50.3734 13.96 50.7334 14.2L50.1694 15.676C49.4414 15.236 48.7134 15.016 47.9854 15.016C47.4734 15.016 47.0934 15.104 46.8454 15.28C46.6054 15.456 46.4854 15.688 46.4854 15.976C46.4854 16.264 46.6254 16.48 46.9054 16.624C47.1854 16.76 47.6174 16.896 48.2014 17.032C48.8014 17.184 49.2934 17.336 49.6774 17.488C50.0614 17.64 50.3894 17.88 50.6614 18.208C50.9334 18.536 51.0694 18.98 51.0694 19.54C51.0694 20.02 50.9414 20.46 50.6854 20.86C50.4374 21.252 50.0614 21.564 49.5574 21.796C49.0534 22.028 48.4414 22.144 47.7214 22.144ZM58.801 15.544V22H57.133V21.232C56.901 21.512 56.621 21.728 56.293 21.88C55.973 22.024 55.625 22.096 55.249 22.096C54.449 22.096 53.817 21.852 53.353 21.364C52.889 20.876 52.657 20.152 52.657 19.192V15.544C52.665 15.544 53.253 15.544 54.421 15.544V18.916C54.421 19.956 54.829 20.476 55.645 20.476C56.069 20.476 56.409 20.332 56.665 20.044C56.921 19.748 57.049 19.312 57.049 18.736V15.544H58.801ZM68.6913 15.448C69.4513 15.448 70.0553 15.688 70.5033 16.168C70.9513 16.64 71.1753 17.352 71.1753 18.304V22H69.4233V18.592C69.4233 18.08 69.3233 17.7 69.1233 17.452C68.9233 17.196 68.6393 17.068 68.2713 17.068C67.8553 17.068 67.5273 17.212 67.2873 17.5C67.0473 17.78 66.9273 18.2 66.9273 18.76V22H65.1633V18.592C65.1633 17.576 64.7793 17.068 64.0113 17.068C63.6033 17.068 63.2793 17.212 63.0393 17.5C62.7993 17.78 62.6793 18.2 62.6793 18.76V22H60.9273V15.544H62.6073V16.288C62.8313 16.016 63.1073 15.808 63.4353 15.664C63.7633 15.52 64.1233 15.448 64.5153 15.448C64.9473 15.448 65.3353 15.54 65.6793 15.724C66.0233 15.9 66.2993 16.16 66.5073 16.504C66.7553 16.168 67.0673 15.908 67.4433 15.724C67.8273 15.54 68.2433 15.448 68.6913 15.448ZM81.0273 15.448C81.7873 15.448 82.3913 15.688 82.8393 16.168C83.2873 16.64 83.5113 17.352 83.5113 18.304V22H81.7593V18.592C81.7593 18.08 81.6593 17.7 81.4593 17.452C81.2593 17.196 80.9753 17.068 80.6073 17.068C80.1913 17.068 79.8633 17.212 79.6233 17.5C79.3833 17.78 79.2633 18.2 79.2633 18.76V22H77.4993V18.592C77.4993 17.576 77.1153 17.068 76.3473 17.068C75.9393 17.068 75.6153 17.212 75.3753 17.5C75.1353 17.78 75.0153 18.2 75.0153 18.76V22H73.2633V15.544H74.9433V16.288C75.1673 16.016 75.4433 15.808 75.7713 15.664C76.0993 15.52 76.4593 15.448 76.8513 15.448C77.2833 15.448 77.6713 15.54 78.0153 15.724C78.3593 15.9 78.6353 16.16 78.8433 16.504C79.0913 16.168 79.4033 15.908 79.7793 15.724C80.1633 15.54 80.5793 15.448 81.0273 15.448ZM88.0472 15.448C88.9832 15.448 89.7032 15.688 90.2072 16.168C90.7112 16.64 90.9632 17.356 90.9632 18.316V22H89.3192V21.196C88.9912 21.796 88.3752 22.096 87.4712 22.096C87.0072 22.096 86.6032 22.012 86.2592 21.844C85.9152 21.676 85.6512 21.444 85.4672 21.148C85.2912 20.852 85.2032 20.516 85.2032 20.14C85.2032 19.54 85.4152 19.068 85.8392 18.724C86.2632 18.38 86.9192 18.208 87.8072 18.208H89.1992C89.1992 17.8 89.0832 17.488 88.8512 17.272C88.6192 17.048 88.2712 16.936 87.8072 16.936C87.4872 16.936 87.1672 16.992 86.8472 17.104C86.5352 17.208 86.2712 17.352 86.0552 17.536L85.4312 16.228C85.7592 15.98 86.1552 15.788 86.6192 15.652C87.0832 15.516 87.5592 15.448 88.0472 15.448ZM87.9032 20.836C88.2072 20.836 88.4752 20.764 88.7072 20.62C88.9392 20.468 89.1032 20.248 89.1992 19.96V19.3H87.9992C87.2792 19.3 86.9192 19.552 86.9192 20.056C86.9192 20.296 87.0072 20.488 87.1832 20.632C87.3592 20.768 87.5992 20.836 87.9032 20.836ZM94.7284 16.396C94.9364 16.084 95.2164 15.848 95.5684 15.688C95.9284 15.528 96.3444 15.448 96.8164 15.448V17.176C96.6244 17.16 96.4924 17.152 96.4204 17.152C95.9164 17.152 95.5204 17.304 95.2324 17.608C94.9444 17.904 94.8004 18.352 94.8004 18.952V22H93.0484V15.544H94.7284V16.396ZM98.4128 15.544H100.285V22H98.4128V15.544ZM99.3488 14.644C99.0288 14.644 98.7648 14.544 98.5568 14.344C98.3568 14.144 98.2568 13.896 98.2568 13.6C98.2568 13.304 98.3568 13.056 98.5568 12.856C98.7648 12.656 99.0288 12.556 99.3488 12.556C99.6688 12.556 99.9288 12.652 100.129 12.844C100.337 13.036 100.441 13.276 100.441 13.564C100.441 13.876 100.337 14.136 100.129 14.344C99.9288 14.544 99.6688 14.644 99.3488 14.644ZM107.466 20.56V22H102.054V20.872L105.138 16.984H102.126V15.544H107.37V16.672L104.274 20.56H107.466ZM114.949 18.796C114.949 18.82 114.937 18.988 114.913 19.3H110.329C110.409 19.7 110.601 20.016 110.905 20.248C111.217 20.48 111.601 20.596 112.057 20.596C112.369 20.596 112.649 20.548 112.897 20.452C113.145 20.348 113.373 20.188 113.581 19.972L114.517 21.052C113.949 21.748 113.117 22.096 112.021 22.096C111.333 22.096 110.725 21.956 110.197 21.676C109.677 21.388 109.273 20.992 108.985 20.488C108.697 19.984 108.553 19.412 108.553 18.772C108.553 18.14 108.693 17.572 108.973 17.068C109.261 16.556 109.649 16.16 110.137 15.88C110.633 15.592 111.185 15.448 111.793 15.448C112.385 15.448 112.921 15.584 113.401 15.856C113.881 16.128 114.257 16.52 114.529 17.032C114.809 17.536 114.949 18.124 114.949 18.796ZM111.805 16.864C111.405 16.864 111.069 16.984 110.797 17.224C110.525 17.464 110.361 17.792 110.305 18.208H113.293C113.229 17.8 113.061 17.476 112.789 17.236C112.525 16.988 112.197 16.864 111.805 16.864Z" fill="#161C27"/>
</g>
<rect x="1" y="1" width="132" height="34" rx="17" stroke="#787777" stroke-width="2"/>
<defs>
<clipPath id="clip0_5753_92820">
<rect x="2" y="2" width="130" height="32" rx="16" fill="white"/>
</clipPath>
</defs>
</svg>
