<svg width="35" height="35" viewBox="0 0 35 35" fill="none" xmlns="http://www.w3.org/2000/svg">
<g clip-path="url(#clip0_2153_20816)">
<path d="M0 17.5C0 7.83502 7.83502 0 17.5 0V0C27.165 0 35 7.83502 35 17.5V17.5C35 27.165 27.165 35 17.5 35V35C7.83502 35 0 27.165 0 17.5V17.5Z" fill="#DE3730"/>
<path fill-rule="evenodd" clip-rule="evenodd" d="M23.4022 18.2757C23.2748 18.488 23.0972 18.6656 22.885 18.7929L14.5064 23.8201C13.7923 24.2486 12.866 24.017 12.4375 23.3029C12.2969 23.0685 12.2227 22.8004 12.2227 22.527V12.4728C12.2227 11.64 12.8978 10.9648 13.7306 10.9648C14.0039 10.9648 14.272 11.0391 14.5064 11.1797L22.885 16.2069C23.5991 16.6353 23.8307 17.5616 23.4022 18.2757Z" fill="#FBF9F7"/>
</g>
<defs>
<clipPath id="clip0_2153_20816">
<path d="M0 17.5C0 7.83502 7.83502 0 17.5 0V0C27.165 0 35 7.83502 35 17.5V17.5C35 27.165 27.165 35 17.5 35V35C7.83502 35 0 27.165 0 17.5V17.5Z" fill="white"/>
</clipPath>
</defs>
</svg>
