<svg width="35" height="35" viewBox="0 0 35 35" fill="none" xmlns="http://www.w3.org/2000/svg">
<g clip-path="url(#clip0_2153_17729)">
<path d="M0.714844 17.7161C0.714844 8.34707 8.30996 0.751953 17.679 0.751953C27.0481 0.751953 34.6432 8.34707 34.6432 17.7161C34.6432 27.0852 27.0481 34.6803 17.679 34.6803C8.30996 34.6803 0.714844 27.0852 0.714844 17.7161Z" fill="white" fill-opacity="0.6"/>
<path fill-rule="evenodd" clip-rule="evenodd" d="M16.6122 15.7551C17.2011 15.1663 18.1559 15.1663 18.7448 15.7551L22.2155 19.2258L21.1492 20.2921L17.6785 16.8214L18.2116 16.2883L14.2079 20.292L13.1416 19.2258L16.6122 15.7551Z" fill="#0E131E"/>
</g>
<defs>
<clipPath id="clip0_2153_17729">
<path d="M0.714844 17.7161C0.714844 8.34707 8.30996 0.751953 17.679 0.751953C27.0481 0.751953 34.6432 8.34707 34.6432 17.7161C34.6432 27.0852 27.0481 34.6803 17.679 34.6803C8.30996 34.6803 0.714844 27.0852 0.714844 17.7161Z" fill="white"/>
</clipPath>
</defs>
</svg>
