<svg width="33" height="32" viewBox="0 0 33 32" fill="none" xmlns="http://www.w3.org/2000/svg">
<path d="M14.6218 11.5832C14.824 10.9038 14.9697 10.2042 15.055 9.49098C17.1533 9.79304 19.329 9.397 21.2241 8.30285L21.6809 8.03913C23.7216 6.86093 26.331 7.56013 27.5093 9.60084C28.6875 11.6416 27.9883 14.251 25.9475 15.4292L25.4908 15.6929C25.3213 15.7908 25.1555 15.8934 24.9936 16.0005C24.3717 15.5892 23.8065 15.1113 23.3051 14.5794C23.6614 14.3155 24.0347 14.0702 24.4241 13.8454L24.8809 13.5817C25.9012 12.9926 26.2508 11.6879 25.6617 10.6675C25.0726 9.64715 23.7679 9.29755 22.7475 9.88666L22.2908 10.1504C19.9357 11.5101 17.226 11.9877 14.6218 11.5832Z" fill="url(#paint0_linear_64771_22479)"/>
<path d="M14.2789 23.4773C13.5472 23.6611 12.8338 23.9405 12.1575 24.3155V24.5342C12.1575 26.8906 14.0677 28.8009 16.4241 28.8009C18.7805 28.8009 20.6908 26.8906 20.6908 24.5342V24.0068C20.6908 21.7999 21.4483 19.701 22.7798 18.0279C22.2048 17.5976 21.672 17.1217 21.185 16.6068C19.5116 18.6665 18.5575 21.2687 18.5575 24.0068V24.5342C18.5575 25.7124 17.6023 26.6675 16.4241 26.6675C15.2459 26.6675 14.2908 25.7124 14.2908 24.5342V24.0068C14.2908 23.8297 14.2868 23.6531 14.2789 23.4773Z" fill="url(#paint1_linear_64771_22479)"/>
<path d="M12.1396 8.57994C11.9657 8.49317 11.7938 8.40081 11.6241 8.30285L11.1674 8.03915C9.12666 6.86095 6.51721 7.56015 5.339 9.60086C4.16079 11.6416 4.85999 14.251 6.90071 15.4292L7.35746 15.6929C9.50694 16.9339 11.0591 18.9366 11.7528 21.2484C12.4114 20.9625 13.0899 20.7398 13.7796 20.5803C12.9237 17.778 11.0342 15.3523 8.42412 13.8454L7.96738 13.5817C6.94702 12.9926 6.59742 11.6879 7.18652 10.6675C7.77563 9.64717 9.08035 9.29757 10.1007 9.88667L10.5574 10.1504C10.9469 10.3752 11.3461 10.576 11.7528 10.7526C11.9629 10.0525 12.0943 9.32413 12.1396 8.57994Z" fill="url(#paint2_linear_64771_22479)"/>
<path d="M11.1351 16.0006C10.6522 15.4831 10.12 15.0068 9.54311 14.5795C11.1989 12.8227 12.1575 10.4767 12.1575 7.99428V7.46686C12.1575 5.11045 14.0677 3.2002 16.4241 3.2002C18.7805 3.2002 20.6908 5.11045 20.6908 7.46686V7.99426C20.6908 8.19044 20.6968 8.38576 20.7086 8.58001C20.0415 8.91287 19.345 9.16337 18.6337 9.33153C18.5832 8.89065 18.5575 8.44429 18.5575 7.99426V7.46686C18.5575 6.28865 17.6023 5.33353 16.4241 5.33353C15.2459 5.33353 14.2908 6.28865 14.2908 7.46686V7.99428C14.2908 11.0085 13.1345 13.8581 11.1351 16.0006Z" fill="url(#paint3_linear_64771_22479)"/>
<path d="M11.1674 23.9619C9.12666 25.1401 6.51721 24.4409 5.339 22.4002C4.16079 20.3595 4.85999 17.75 6.90071 16.5718L7.08885 16.4632C7.75181 16.8614 8.35058 17.3395 8.87571 17.8812C8.7277 17.9758 8.57715 18.0673 8.42413 18.1556L7.96738 18.4194C6.94702 19.0085 6.59742 20.3132 7.18652 21.3335C7.77563 22.3539 9.08035 22.7035 10.1007 22.1144L10.5575 21.8507C13.1678 20.3436 16.2136 19.9202 19.0687 20.5804C18.8619 21.2573 18.7155 21.9563 18.6337 22.6696C16.2846 22.1142 13.7738 22.4571 11.6241 23.6982L11.1674 23.9619Z" fill="url(#paint4_linear_64771_22479)"/>
<path d="M21.5449 23.8834L21.6809 23.9619C23.7216 25.1401 26.331 24.4409 27.5093 22.4002C28.6875 20.3595 27.9883 17.75 25.9475 16.5718L25.4908 16.3081C23.58 15.2049 22.1412 13.4998 21.3579 11.5107C20.6978 11.7935 20.0191 12.017 19.3298 12.1812C20.2769 14.6599 22.0533 16.7868 24.4241 18.1556L24.8809 18.4193C25.9012 19.0084 26.2508 20.3132 25.6617 21.3335C25.0726 22.3539 23.7679 22.7035 22.7475 22.1144L22.2908 21.8507C22.1535 21.7714 22.015 21.6951 21.8753 21.6218C21.6692 22.349 21.5558 23.1084 21.5449 23.8834Z" fill="url(#paint5_linear_64771_22479)"/>
<defs>
<linearGradient id="paint0_linear_64771_22479" x1="16.4241" y1="7.4668" x2="16.4241" y2="28.8009" gradientUnits="userSpaceOnUse">
<stop stop-color="#EB6296"/>
<stop offset="1" stop-color="#FF7257"/>
</linearGradient>
<linearGradient id="paint1_linear_64771_22479" x1="16.4241" y1="7.4668" x2="16.4241" y2="28.8009" gradientUnits="userSpaceOnUse">
<stop stop-color="#EB6296"/>
<stop offset="1" stop-color="#FF7257"/>
</linearGradient>
<linearGradient id="paint2_linear_64771_22479" x1="16.4241" y1="7.4668" x2="16.4241" y2="28.8009" gradientUnits="userSpaceOnUse">
<stop stop-color="#EB6296"/>
<stop offset="1" stop-color="#FF7257"/>
</linearGradient>
<linearGradient id="paint3_linear_64771_22479" x1="16.4241" y1="3.2002" x2="16.4241" y2="24.5343" gradientUnits="userSpaceOnUse">
<stop stop-color="#5C8DFF"/>
<stop offset="0.5" stop-color="#A079FF"/>
<stop offset="1" stop-color="#D06AD6"/>
</linearGradient>
<linearGradient id="paint4_linear_64771_22479" x1="16.4241" y1="3.2002" x2="16.4241" y2="24.5343" gradientUnits="userSpaceOnUse">
<stop stop-color="#5C8DFF"/>
<stop offset="0.5" stop-color="#A079FF"/>
<stop offset="1" stop-color="#D06AD6"/>
</linearGradient>
<linearGradient id="paint5_linear_64771_22479" x1="16.4241" y1="3.2002" x2="16.4241" y2="24.5343" gradientUnits="userSpaceOnUse">
<stop stop-color="#5C8DFF"/>
<stop offset="0.5" stop-color="#A079FF"/>
<stop offset="1" stop-color="#D06AD6"/>
</linearGradient>
</defs>
</svg>
