<svg width="190" height="95" viewBox="0 0 190 95" fill="none" xmlns="http://www.w3.org/2000/svg">
<path d="M131.331 17.9946H58.6719C56.2103 17.9946 54.2148 19.9901 54.2148 22.4517V72.5563C54.2148 75.0179 56.2103 77.0134 58.6719 77.0134H131.331C133.793 77.0134 135.788 75.0179 135.788 72.5563V22.4517C135.788 19.9901 133.793 17.9946 131.331 17.9946Z" fill="url(#paint0_linear_4753_406031)"/>
<path d="M123.951 14.2422H92.3003C89.8606 14.2422 87.8828 16.22 87.8828 18.6597V50.3105C87.8828 52.7502 89.8606 54.728 92.3003 54.728H123.951C126.391 54.728 128.369 52.7502 128.369 50.3105V18.6597C128.369 16.22 126.391 14.2422 123.951 14.2422Z" fill="url(#paint1_linear_4753_406031)"/>
<path d="M96.5664 19.8552C94.7535 19.8552 93.2968 21.3356 93.3047 23.1486C93.3047 24.9694 94.7851 26.4419 96.5901 26.4419C98.3951 26.4419 99.8676 24.9694 99.8597 23.1486C99.8518 21.3277 98.3793 19.8552 96.5664 19.8552Z" fill="url(#paint2_linear_4753_406031)"/>
<path d="M128.369 50.3105V39.4014L114.617 25.7768C113.762 24.9218 112.646 24.5022 111.538 24.5022C110.429 24.5022 109.313 24.9297 108.466 25.7768C108.466 25.7768 96.1003 37.9051 87.8828 45.9801V50.3184C87.8828 52.7568 89.862 54.7359 92.3003 54.7359H123.959C126.397 54.7359 128.377 52.7568 128.377 50.3184L128.369 50.3105Z" fill="url(#paint3_linear_4753_406031)"/>
<path d="M97.8652 40.3672H66.2144C63.7747 40.3672 61.7969 42.345 61.7969 44.7847V76.4355C61.7969 78.8752 63.7747 80.853 66.2144 80.853H97.8652C100.305 80.853 102.283 78.8752 102.283 76.4355V44.7847C102.283 42.345 100.305 40.3672 97.8652 40.3672Z" fill="url(#paint4_linear_4753_406031)"/>
<path d="M70.4804 45.988C68.6675 45.988 67.2109 47.4685 67.2188 49.2814C67.2188 51.1022 68.6992 52.5747 70.5042 52.5747C72.3092 52.5747 73.7817 51.1022 73.7738 49.2814C73.7659 47.4605 72.2934 45.988 70.4804 45.988Z" fill="url(#paint5_linear_4753_406031)"/>
<path d="M102.283 76.4433V65.5342L88.5315 51.9096C87.6765 51.0546 86.5602 50.635 85.4519 50.635C84.3435 50.635 83.2273 51.0625 82.3802 51.9096C82.3802 51.9096 70.0144 64.0379 61.7969 72.1129V76.4513C61.7969 78.8896 63.776 80.8688 66.2144 80.8688H97.8731C100.311 80.8688 102.291 78.8896 102.291 76.4513L102.283 76.4433Z" fill="url(#paint6_linear_4753_406031)"/>
<path d="M79.1728 26.8215H110.824C113.476 26.8215 115.637 28.9749 115.637 31.6349V63.2936C115.637 65.9457 113.484 68.1069 110.824 68.1069H79.1649C76.5128 68.1069 74.3516 65.9536 74.3516 63.2936V31.6349C74.3516 28.9828 76.5049 26.8215 79.1649 26.8215H79.1728Z" fill="url(#paint7_linear_4753_406031)"/>
<path d="M110.833 27.2174C113.271 27.2174 115.25 29.1966 115.25 31.6349V63.2937C115.25 65.732 113.271 67.7112 110.833 67.7112H79.174C76.7357 67.7112 74.7565 65.732 74.7565 63.2937V31.6349C74.7565 29.1966 76.7357 27.2174 79.174 27.2174H110.833ZM110.833 26.4258H79.174C76.3003 26.4258 73.9648 28.7612 73.9648 31.6349V63.2937C73.9648 66.1674 76.3003 68.5029 79.174 68.5029H110.833C113.707 68.5029 116.042 66.1674 116.042 63.2937V31.6349C116.042 28.7612 113.707 26.4258 110.833 26.4258Z" fill="#3E92F6"/>
<path d="M83.4414 32.8384C81.6285 32.8384 80.1718 34.3188 80.1797 36.1317C80.1797 37.9525 81.6601 39.425 83.4651 39.425C85.2701 39.425 86.7426 37.9525 86.7347 36.1317C86.7268 34.3109 85.2543 32.8384 83.4414 32.8384Z" fill="url(#paint8_linear_4753_406031)"/>
<path d="M115.251 63.2859V52.3767L101.5 38.7521C100.645 37.8971 99.529 37.4775 98.4206 37.4775C97.3123 37.4775 96.196 37.905 95.349 38.7521C95.349 38.7521 82.9831 50.8805 74.7656 58.9555V63.2938C74.7656 65.7321 76.7448 67.7113 79.1831 67.7113H110.842C113.28 67.7113 115.259 65.7321 115.259 63.2938L115.251 63.2859Z" fill="url(#paint9_linear_4753_406031)"/>
<defs>
<linearGradient id="paint0_linear_4753_406031" x1="95.0015" y1="20.4567" x2="95.0015" y2="76.1425" gradientUnits="userSpaceOnUse">
<stop stop-color="#55B4ED"/>
<stop offset="1" stop-color="#99A5FF"/>
</linearGradient>
<linearGradient id="paint1_linear_4753_406031" x1="105.814" y1="15.2476" x2="110.35" y2="52.9705" gradientUnits="userSpaceOnUse">
<stop stop-color="#3399D1"/>
<stop offset="1" stop-color="#7787FB"/>
</linearGradient>
<linearGradient id="paint2_linear_4753_406031" x1="96.3685" y1="16.6886" x2="97.5006" y2="51.8227" gradientUnits="userSpaceOnUse">
<stop stop-color="#007FB4"/>
<stop offset="1" stop-color="#5C6CDE"/>
</linearGradient>
<linearGradient id="paint3_linear_4753_406031" x1="107.207" y1="16.3401" x2="108.339" y2="51.4743" gradientUnits="userSpaceOnUse">
<stop stop-color="#007FB4"/>
<stop offset="1" stop-color="#5C6CDE"/>
</linearGradient>
<linearGradient id="paint4_linear_4753_406031" x1="79.7281" y1="41.3726" x2="84.2644" y2="79.1034" gradientUnits="userSpaceOnUse">
<stop stop-color="#007FB4"/>
<stop offset="1" stop-color="#5C6CDE"/>
</linearGradient>
<linearGradient id="paint5_linear_4753_406031" x1="70.2825" y1="42.8135" x2="71.4146" y2="77.9476" gradientUnits="userSpaceOnUse">
<stop stop-color="#3399D1"/>
<stop offset="1" stop-color="#7787FB"/>
</linearGradient>
<linearGradient id="paint6_linear_4753_406031" x1="81.1215" y1="42.465" x2="82.2535" y2="77.5992" gradientUnits="userSpaceOnUse">
<stop stop-color="#3399D1"/>
<stop offset="1" stop-color="#7787FB"/>
</linearGradient>
<linearGradient id="paint7_linear_4753_406031" x1="92.647" y1="27.8744" x2="97.2624" y2="66.2782" gradientUnits="userSpaceOnUse">
<stop stop-color="#C8E6FF"/>
<stop offset="1" stop-color="#DFE0FF"/>
</linearGradient>
<linearGradient id="paint8_linear_4753_406031" x1="83.2514" y1="29.6638" x2="84.3835" y2="64.798" gradientUnits="userSpaceOnUse">
<stop stop-color="#87CEFF"/>
<stop offset="1" stop-color="#BCC2FF"/>
</linearGradient>
<linearGradient id="paint9_linear_4753_406031" x1="94.0823" y1="29.3155" x2="95.2223" y2="64.4496" gradientUnits="userSpaceOnUse">
<stop stop-color="#87CEFF"/>
<stop offset="1" stop-color="#BCC2FF"/>
</linearGradient>
</defs>
</svg>
