<svg width="64" height="64" viewBox="0 0 64 64" fill="none" xmlns="http://www.w3.org/2000/svg">
<mask id="mask0_4763_677575" style="mask-type:alpha" maskUnits="userSpaceOnUse" x="0" y="0" width="64" height="64">
<path d="M0 31.9994C0 22.0595 0 17.0895 1.6239 13.1692C3.78911 7.942 7.94215 3.78903 13.1694 1.62387C17.0899 0 22.0599 0 32 0C41.9401 0 46.9101 0 50.8306 1.62387C56.0578 3.78903 60.2109 7.942 62.3761 13.1692C64 17.0895 64 22.0595 64 31.9994C64 41.9393 64 46.9092 62.3761 50.8296C60.2109 56.0567 56.0578 60.2097 50.8306 62.3749C46.9101 63.9987 41.9401 63.9987 32 63.9987C22.0599 63.9987 17.0899 63.9987 13.1694 62.3749C7.94215 60.2097 3.78911 56.0567 1.6239 50.8296C0 46.9092 0 41.9393 0 31.9994Z" fill="black"/>
</mask>
<g mask="url(#mask0_4763_677575)">
<path d="M36.9513 10.0778L45.4365 18.5631C46.9986 20.1252 46.9986 22.6579 45.4365 24.22L29.1731 40.4834C27.611 42.0455 25.0783 42.0455 23.5162 40.4834L20.6878 37.655L18.5665 39.7763C18.3223 40.0205 18.1163 40.2883 17.9485 40.5725L20.6878 43.3118C23.812 46.436 28.8773 46.436 32.0015 43.3118L48.265 27.0484C51.3892 23.9242 51.3892 18.8589 48.265 15.7347L39.7797 7.2494C36.6555 4.1252 31.5902 4.1252 28.466 7.2494L12.2025 23.5129C9.07833 26.637 9.07833 31.7024 12.2025 34.8266L15.0747 37.6988C15.2775 37.4382 15.4986 37.1874 15.7381 36.9479L17.8594 34.8266L15.0309 31.9981C13.4689 30.436 13.4688 27.9034 15.0309 26.3413L31.2944 10.0778C32.8565 8.51573 35.3892 8.51573 36.9513 10.0778Z" fill="url(#paint0_linear_4763_677575)"/>
<path d="M43.3148 26.3398L40.4864 23.5114C38.9243 21.9493 36.3917 21.9493 34.8296 23.5114L18.5661 39.7749C17.004 41.337 17.004 43.8696 18.5661 45.4317L27.0514 53.917C28.6135 55.4791 31.1461 55.4791 32.7082 53.917L48.9717 37.6536C50.5338 36.0915 50.5338 33.5588 48.9717 31.9967L46.1433 29.1683L48.2646 27.047C48.5041 26.8075 48.7252 26.5566 48.9279 26.2961L51.8001 29.1683C54.9243 32.2925 54.9243 37.3578 51.8001 40.482L35.5367 56.7454C32.4125 59.8696 27.3472 59.8696 24.223 56.7454L15.7377 48.2602C12.6135 45.136 12.6135 40.0706 15.7377 36.9464L32.0011 20.683C35.1253 17.5588 40.1906 17.5588 43.3148 20.683L46.0542 23.4223C45.8863 23.7065 45.6803 23.9744 45.4362 24.2185L43.3148 26.3398Z" fill="url(#paint1_linear_4763_677575)"/>
</g>
<defs>
<linearGradient id="paint0_linear_4763_677575" x1="25.9911" y1="9.49829" x2="25.9911" y2="41.5441" gradientUnits="userSpaceOnUse">
<stop stop-color="#A53BFF"/>
<stop offset="0.52" stop-color="#EB5E38"/>
<stop offset="1" stop-color="#FF8D3F"/>
</linearGradient>
<linearGradient id="paint1_linear_4763_677575" x1="29.5262" y1="22.9968" x2="29.5262" y2="54.9777" gradientUnits="userSpaceOnUse">
<stop stop-color="#00BFB7"/>
<stop offset="1" stop-color="#1C79D1"/>
</linearGradient>
</defs>
</svg>
